<?xml version="1.0" encoding="utf-8"?>
<!-- Generator: Adobe Illustrator 16.0.0, SVG Export Plug-In . SVG Version: 6.00 Build 0)  -->
<!DOCTYPE svg PUBLIC "-//W3C//DTD SVG 1.1//EN" "http://www.w3.org/Graphics/SVG/1.1/DTD/svg11.dtd">
<svg version="1.1" id="Layer_1" xmlns="http://www.w3.org/2000/svg" xmlns:xlink="http://www.w3.org/1999/xlink" x="0px" y="0px"
	 width="55.554px" height="55.115px" viewBox="0 0 55.554 55.115" enable-background="new 0 0 55.554 55.115" xml:space="preserve">
<path fill="#F69322" d="M52.238,32.076c-1.897-1.916-4.396-3.073-7.05-3.321c2.288-2.063,3.734-5.04,3.734-8.368
	c0-6.216-5.04-11.263-11.262-11.263c-5.946,0-10.809,4.603-11.234,10.44c5.288,2.288,8.999,7.559,8.999,13.674
	c0,2.235-0.508,4.416-1.454,6.401c1.359,0.709,2.619,1.631,3.712,2.731c2.808,2.824,4.396,6.729,4.367,10.713v0.082l-0.006,0.064
	l-0.096,1.885h13.492l0.112-14.92C55.577,37.15,54.383,34.232,52.238,32.076"/>
<path fill="#F69322" d="M28.058,41.607c2.292-2.063,3.741-5.041,3.741-8.369c0-6.222-5.04-11.262-11.264-11.262
	c-6.223,0-11.27,5.04-11.27,11.262c0,3.322,1.448,6.302,3.735,8.363C7.145,42.051,2.518,46.902,2.477,52.877l-0.114,2.238h35.953
	l0.106-2.073c0.023-3.038-1.169-5.956-3.314-8.119C33.217,43.013,30.711,41.85,28.058,41.607"/>
<path fill="#F69322" d="M7.269,13.55v4.184c0,1.731,1.405,3.139,3.138,3.139c1.736,0,3.144-1.407,3.144-3.139V13.55h4.184
	c1.731,0,3.139-1.413,3.139-3.144c0-1.738-1.407-3.143-3.139-3.143H13.55V3.138C13.55,1.405,12.143,0,10.406,0
	C8.674,0,7.269,1.405,7.269,3.138v4.125H3.144C1.407,7.263,0,8.668,0,10.406c0,1.731,1.407,3.144,3.144,3.144H7.269z"/>
</svg>
