<svg xmlns="http://www.w3.org/2000/svg" width="37" height="30" viewBox="0 0 37 30">
  <metadata><?xpacket begin="﻿" id="W5M0MpCehiHzreSzNTczkc9d"?>
<x:xmpmeta xmlns:x="adobe:ns:meta/" x:xmptk="Adobe XMP Core 5.6-c142 79.160924, 2017/07/13-01:06:39        ">
   <rdf:RDF xmlns:rdf="http://www.w3.org/1999/02/22-rdf-syntax-ns#">
      <rdf:Description rdf:about=""/>
   </rdf:RDF>
</x:xmpmeta>
                                                                                                    
                                                                                                    
                                                                                                    
                                                                                                    
                                                                                                    
                                                                                                    
                                                                                                    
                                                                                                    
                                                                                                    
                                                                                                    
                                                                                                    
                                                                                                    
                                                                                                    
                                                                                                    
                                                                                                    
                                                                                                    
                                                                                                    
                                                                                                    
                                                                                                    
                                                                                                    
                           
<?xpacket end="w"?></metadata>
<defs>
    <style>
      .cls-1 {
        fill: #fff;
        fill-rule: evenodd;
      }
    </style>
  </defs>
  <path class="cls-1" d="M4.023,7.481V9.79a1.739,1.739,0,0,0,3.477,0V7.481H9.817a1.735,1.735,0,1,0,0-3.47H7.5V1.734a1.739,1.739,0,0,0-3.477,0V4.011H1.74a1.735,1.735,0,1,0,0,3.47H4.023ZM32.4,4.721v-4.6H11.684a8.087,8.087,0,0,1,1.556,2.3H30.1v22.98a3.288,3.288,0,0,0,.778,2.29H4.745a2.246,2.246,0,0,1-2.3-2.29V13.2A7.962,7.962,0,0,1,.136,11.661V25.406S0.136,30,4.745,30h28.8s3.458-.07,3.458-4.59V4.721H32.4Zm-4.61,2.3v2.3H13.138a8.016,8.016,0,0,0,.719-2.3H27.788ZM17.42,20.8h8.068v2.3H17.42V20.8Zm0-4.594H27.788v2.3H17.42v-2.3Zm0-4.594H27.788v2.3H17.42v-2.3Zm-2.309,0V23.1H4.745V13.848a8.2,8.2,0,0,0,6.722-2.236H15.11Z"/>
</svg>
