<?xml version="1.0" encoding="utf-8"?>
<!-- Generator: Adobe Illustrator 16.0.0, SVG Export Plug-In . SVG Version: 6.00 Build 0)  -->
<!DOCTYPE svg PUBLIC "-//W3C//DTD SVG 1.1//EN" "http://www.w3.org/Graphics/SVG/1.1/DTD/svg11.dtd">
<svg version="1.1" id="Layer_1" xmlns="http://www.w3.org/2000/svg" xmlns:xlink="http://www.w3.org/1999/xlink" x="0px" y="0px"
	 width="65.917px" height="32.959px" viewBox="0 0 65.917 32.959" enable-background="new 0 0 65.917 32.959" xml:space="preserve">
<g>
	<path fill="#7BC044" d="M30.889,32.959h-3.45c-0.399,0-0.721-0.1-0.966-0.299c-0.246-0.199-0.43-0.452-0.552-0.76l-3.082-7.957
		H8.05L4.968,31.9c-0.108,0.276-0.292,0.521-0.552,0.736s-0.583,0.322-0.966,0.322H0L13.179,0h4.531L30.889,32.959z M9.292,20.723
		h12.305L16.422,7.314c-0.337-0.828-0.667-1.863-0.989-3.105c-0.169,0.629-0.333,1.208-0.495,1.736
		c-0.161,0.529-0.318,0.993-0.472,1.392L9.292,20.723z"/>
	<path fill="#7BC044" d="M29.255,17.434h11.362v3.473H29.255V17.434z"/>
	<path fill="#7BC044" d="M65.917,0v1.656c0,0.521-0.161,1.012-0.482,1.472L46.78,29.325h18.814v3.634H40.939v-1.748
		c0-0.46,0.146-0.896,0.437-1.311L60.052,3.634H41.813V0H65.917z"/>
</g>
</svg>
