<?xml version="1.0" encoding="utf-8"?>
<!-- Generator: Adobe Illustrator 16.0.0, SVG Export Plug-In . SVG Version: 6.00 Build 0)  -->
<!DOCTYPE svg PUBLIC "-//W3C//DTD SVG 1.1//EN" "http://www.w3.org/Graphics/SVG/1.1/DTD/svg11.dtd">
<svg version="1.1" id="Layer_1" xmlns="http://www.w3.org/2000/svg" xmlns:xlink="http://www.w3.org/1999/xlink" x="0px" y="0px"
	 width="71.805px" height="32.958px" viewBox="0 0 71.805 32.958" enable-background="new 0 0 71.805 32.958" xml:space="preserve">
<g>
	<path fill="#F79324" d="M30.889,32.958h-3.45c-0.399,0-0.721-0.1-0.966-0.299c-0.246-0.199-0.43-0.451-0.552-0.759l-3.082-7.958
		H8.05l-3.082,7.958c-0.108,0.276-0.292,0.521-0.552,0.736s-0.583,0.321-0.966,0.321H0L13.179,0h4.531L30.889,32.958z M9.292,20.723
		h12.305L16.422,7.314c-0.337-0.828-0.667-1.863-0.989-3.105c-0.169,0.629-0.333,1.208-0.495,1.736
		c-0.161,0.529-0.318,0.993-0.472,1.392L9.292,20.723z"/>
	<path fill="#F79324" d="M32.2,17.434h11.362v3.474H32.2V17.434z"/>
	<path fill="#F79324" d="M71.805,0v1.656c0,0.521-0.161,1.012-0.483,1.472L52.669,29.326h18.813v3.633H46.827V31.21
		c0-0.459,0.146-0.896,0.437-1.311L65.94,3.634H47.701V0H71.805z"/>
</g>
</svg>
