<?xml version="1.0" encoding="utf-8"?>
<!-- Generator: Adobe Illustrator 16.0.0, SVG Export Plug-In . SVG Version: 6.00 Build 0)  -->
<!DOCTYPE svg PUBLIC "-//W3C//DTD SVG 1.1//EN" "http://www.w3.org/Graphics/SVG/1.1/DTD/svg11.dtd">
<svg version="1.1" id="Layer_1" xmlns="http://www.w3.org/2000/svg" xmlns:xlink="http://www.w3.org/1999/xlink" x="0px" y="0px"
	 width="36.215px" height="29.2px" viewBox="0 0 36.215 29.2" enable-background="new 0 0 36.215 29.2" xml:space="preserve">
<g enable-background="new    ">
	<path fill="#0083CB" d="M28.221,28.874h-4.16c-0.468,0-0.848-0.117-1.141-0.351s-0.514-0.522-0.66-0.87l-2.16-5.9H8.12l-2.16,5.9
		c-0.107,0.307-0.313,0.588-0.62,0.84c-0.307,0.254-0.687,0.381-1.14,0.381H0l11.38-28.92h5.48L28.221,28.874z M18.721,17.954
		L15.2,8.333c-0.173-0.427-0.354-0.933-0.54-1.52c-0.187-0.587-0.374-1.221-0.56-1.9c-0.173,0.68-0.354,1.316-0.54,1.91
		c-0.187,0.593-0.367,1.109-0.54,1.55l-3.5,9.581H18.721z"/>
	<path fill="#0083CB" d="M30.119,11.893c0-0.413,0.076-0.806,0.23-1.18c0.151-0.373,0.361-0.693,0.629-0.96s0.586-0.479,0.961-0.64
		c0.373-0.16,0.771-0.24,1.199-0.24c0.426,0,0.822,0.08,1.189,0.24c0.365,0.16,0.688,0.373,0.96,0.64s0.489,0.587,0.649,0.96
		c0.16,0.374,0.24,0.767,0.24,1.18c0,0.428-0.08,0.824-0.24,1.19c-0.16,0.367-0.377,0.684-0.649,0.95
		c-0.272,0.266-0.595,0.477-0.96,0.63c-0.367,0.153-0.764,0.229-1.189,0.229c-0.427,0-0.826-0.076-1.199-0.229
		c-0.375-0.153-0.693-0.363-0.961-0.63c-0.268-0.267-0.478-0.583-0.629-0.95C30.195,12.717,30.119,12.321,30.119,11.893z
		 M30.119,26.154c0-0.413,0.076-0.807,0.23-1.181c0.151-0.373,0.361-0.691,0.629-0.96c0.268-0.267,0.586-0.479,0.961-0.64
		c0.373-0.16,0.771-0.24,1.199-0.24c0.426,0,0.822,0.08,1.189,0.24c0.365,0.16,0.688,0.373,0.96,0.64
		c0.272,0.269,0.489,0.587,0.649,0.96c0.16,0.374,0.24,0.768,0.24,1.181c0,0.427-0.08,0.823-0.24,1.188
		c-0.16,0.367-0.377,0.685-0.649,0.951c-0.272,0.266-0.595,0.477-0.96,0.629c-0.367,0.154-0.764,0.23-1.189,0.23
		c-0.427,0-0.826-0.076-1.199-0.23c-0.375-0.152-0.693-0.362-0.961-0.629c-0.268-0.268-0.478-0.584-0.629-0.951
		C30.195,26.977,30.119,26.581,30.119,26.154z"/>
</g>
</svg>
