<svg xmlns="http://www.w3.org/2000/svg" width="33" height="39" viewBox="0 0 33 39">
  <metadata><?xpacket begin="﻿" id="W5M0MpCehiHzreSzNTczkc9d"?>
<x:xmpmeta xmlns:x="adobe:ns:meta/" x:xmptk="Adobe XMP Core 5.6-c142 79.160924, 2017/07/13-01:06:39        ">
   <rdf:RDF xmlns:rdf="http://www.w3.org/1999/02/22-rdf-syntax-ns#">
      <rdf:Description rdf:about=""/>
   </rdf:RDF>
</x:xmpmeta>
                                                                                                    
                                                                                                    
                                                                                                    
                                                                                                    
                                                                                                    
                                                                                                    
                                                                                                    
                                                                                                    
                                                                                                    
                                                                                                    
                                                                                                    
                                                                                                    
                                                                                                    
                                                                                                    
                                                                                                    
                                                                                                    
                                                                                                    
                                                                                                    
                                                                                                    
                                                                                                    
                           
<?xpacket end="w"?></metadata>
<defs>
    <style>
      .cls-1 {
        fill: #7bc344;
        fill-rule: evenodd;
      }
    </style>
  </defs>
  <path class="cls-1" d="M16.234,39a3.84,3.84,0,0,0,3.756-3.9H12.467A3.849,3.849,0,0,0,16.234,39ZM28.46,27.3V16.578A12.451,12.451,0,0,0,19.054,4.3V2.925A2.943,2.943,0,0,0,16.234,0a2.941,2.941,0,0,0-2.82,2.922V4.3A12.449,12.449,0,0,0,4.008,16.578V27.3L0.24,31.2v1.952H32.227V31.2ZM24.353,21.21a0.9,0.9,0,0,1-.613.386,1.087,1.087,0,0,1,.022.159c-0.163.065-.377,0.078-0.547,0.136a1.327,1.327,0,0,1,.044.182,4.375,4.375,0,0,1-.547.068c0,0.064.04,0.095,0.044,0.159a1.967,1.967,0,0,1-.547.045c-0.007.09,0.051,0.114,0.044,0.2a1.435,1.435,0,0,1-.569-0.068v0.2a1.963,1.963,0,0,1-.547-0.113,0.79,0.79,0,0,0,.022.2,2.568,2.568,0,0,1-.525-0.136V22.82c-0.212.017-.534-0.212-0.656,0a2.221,2.221,0,0,0-.481-0.113,0.1,0.1,0,0,0-.044.113,5.212,5.212,0,0,0-.547-0.159c-0.07.011-.066,0.1-0.131,0.113a4.579,4.579,0,0,0-2.3.091,2.034,2.034,0,0,0,1.094.408c-0.006.052,0.005,0.085,0.044,0.091a5.534,5.534,0,0,1,.547.113,0.379,0.379,0,0,1,.066.091c0.119-.017.17,0.036,0.284,0.023,0,0.147.134,0.148,0.285,0.136-0.045.14,0.156,0.132,0.284,0.159,0.006,0.04-.061.113,0,0.136a0.882,0.882,0,0,1,.263.023,0.31,0.31,0,0,0-.022.159,0.442,0.442,0,0,1,.24.068,0.258,0.258,0,0,1,0,.136,0.682,0.682,0,0,1,.241.114c0.016,0.07-.06.043-0.044,0.113a0.973,0.973,0,0,1,.241.136,0.361,0.361,0,0,1-.022.136,7.916,7.916,0,0,1,.678.771,5.269,5.269,0,0,1-.941-0.272c-0.051.01-.058,0.1-0.109,0.046-0.1-.042-0.184-0.174-0.306-0.068-0.1-.064-0.17-0.215-0.306-0.113a1.619,1.619,0,0,1-.153-0.159,0.384,0.384,0,0,0-.131.045,1.644,1.644,0,0,1-.153-0.227c-0.067-.017-0.042.062-0.109,0.045-0.058-.068-0.1-0.154-0.153-0.227-0.044,0-.028.062-0.088,0.045a1.39,1.39,0,0,1-.131-0.227c-0.055,0-.068.042-0.109,0a0.849,0.849,0,0,1-.153-0.25c-0.189.012-.154-0.269-0.306-0.227a3.594,3.594,0,0,0-1.094-1.111,9.257,9.257,0,0,0,.044,1.384c0.07,1.172.055,2.5,0.066,3.425-0.123.612-.038,1.66-0.525,1.86a0.974,0.974,0,0,1-.066-0.635,1.8,1.8,0,0,0,.328-1.157,35.248,35.248,0,0,0-.153-4.9,3.247,3.247,0,0,0-1.138,1.157c-0.041.005-.048-0.026-0.088-0.023-0.092.236-.265,0.252-0.372,0.477-0.045.054-.087-0.031-0.131,0.023a0.616,0.616,0,0,1-.109.2c-0.067.017-.042-0.062-0.109-0.045a0.616,0.616,0,0,1-.131.227,0.39,0.39,0,0,0-.131-0.045,0.494,0.494,0,0,1-.131.227,0.384,0.384,0,0,0-.131-0.045c-0.074.086-.156,0.208-0.285,0.113a2.22,2.22,0,0,1-.5.25,0.571,0.571,0,0,0-.11-0.068,4.341,4.341,0,0,1-.919.272c0.269-.221.394-0.59,0.679-0.794-0.012-.047-0.062-0.073-0.022-0.114,0.075-.058.17-0.1,0.241-0.159,0-.045-0.06-0.029-0.044-0.091,0.071-.055.169-0.082,0.241-0.136,0.013-.072-0.041-0.07,0-0.114a2.033,2.033,0,0,1,.241-0.091c0.011-.071-0.048-0.089,0-0.136s0.2,0,.263-0.045c-0.092-.19.179-0.109,0.262-0.182,0-.061-0.036-0.045,0-0.091a0.7,0.7,0,0,0,.263-0.023c0-.04-0.022-0.114.044-0.091a0.477,0.477,0,0,0,.329-0.136c0.226,0.008.307-.135,0.547-0.113V23.274a1.79,1.79,0,0,0,1.138-.431,5.09,5.09,0,0,0-2.32-.068,0.177,0.177,0,0,0-.131-0.114c-0.181.047-.353,0.1-0.525,0.159a0.081,0.081,0,0,0-.066-0.113,4.2,4.2,0,0,0-.481.113c-0.1-.218-0.439.021-0.635,0a0.279,0.279,0,0,0-.022-0.181,1.822,1.822,0,0,1-.5.136,0.261,0.261,0,0,0,0-.2,1.523,1.523,0,0,1-.525.114,0.353,0.353,0,0,0-.022-0.2,1.264,1.264,0,0,1-.547.068,1.826,1.826,0,0,0,.044-0.227A1.094,1.094,0,0,1,9.712,22.3a0.242,0.242,0,0,0,.022-0.181,1.544,1.544,0,0,1-.525-0.046,0.379,0.379,0,0,0,.022-0.2,2.515,2.515,0,0,1-.525-0.114c-0.016-.084.037-0.1,0.022-0.181a0.768,0.768,0,0,1-.635-0.386,2.482,2.482,0,0,1-.9-0.522c0.419,0,.715.011,1.116,0a0.467,0.467,0,0,1,.066-0.136,2,2,0,0,1,.635.068,0.259,0.259,0,0,0,.044-0.181c0.22,0.006.361,0.095,0.569,0.113a0.386,0.386,0,0,0,.022-0.159,1.158,1.158,0,0,1,.525.181,0.322,0.322,0,0,0,.022-0.181,1.443,1.443,0,0,1,.525.2,2,2,0,0,1,.044-0.2,1.8,1.8,0,0,1,.481.3,0.213,0.213,0,0,0,.066-0.159,1.56,1.56,0,0,1,.438.295c0.092,0,.043-0.137.131-0.136a1.552,1.552,0,0,0,.394.295,0.6,0.6,0,0,0,.066-0.114c0.187,0.109.327,0.266,0.5,0.386,0.056,0,.032-0.089.088-0.091a3.771,3.771,0,0,0,.394.318,0.574,0.574,0,0,0,.109-0.068,1.719,1.719,0,0,0,.46.386,0.191,0.191,0,0,0,.087-0.068,1.328,1.328,0,0,1,.175.181,4.354,4.354,0,0,0,1.62.681,5.6,5.6,0,0,0-2.385-1.633,0.418,0.418,0,0,0,.044-0.136,2.092,2.092,0,0,0-.788-0.295,0.443,0.443,0,0,1,.066-0.181,6.468,6.468,0,0,1-.678-0.227,0.328,0.328,0,0,0,.022-0.2,1.859,1.859,0,0,1-.744-0.272,0.479,0.479,0,0,0,.131-0.227,1.774,1.774,0,0,1-.678-0.181,0.892,0.892,0,0,0,.131-0.272,0.972,0.972,0,0,1-.656-0.25,0.787,0.787,0,0,0,.066-0.2,1.831,1.831,0,0,1-.635-0.363,0.32,0.32,0,0,0,.2-0.249A0.883,0.883,0,0,1,9.3,17.513a1.976,1.976,0,0,0,.153-0.2,1.944,1.944,0,0,1-.569-0.431,1.546,1.546,0,0,0,.153-0.2,3.8,3.8,0,0,1-.5-0.544,0.5,0.5,0,0,0,.153-0.181A1.179,1.179,0,0,1,8.2,15.063a6.708,6.708,0,0,1-.657-1.225c0.461,0.233.824,0.567,1.291,0.794a0.307,0.307,0,0,1,.153-0.091,3.47,3.47,0,0,1,.679.522A0.442,0.442,0,0,0,9.844,14.9c0.222,0.14.337,0.391,0.547,0.544,0.073-.038.085-0.139,0.153-0.181a1.972,1.972,0,0,1,.438.612,0.261,0.261,0,0,0,.131-0.181,0.938,0.938,0,0,1,.438.613,1.465,1.465,0,0,0,.241-0.2,1.962,1.962,0,0,1,.306.7c0.1-.017.117-0.121,0.219-0.136a1.627,1.627,0,0,1,.263.7c0.1-.035.138-0.129,0.241-0.159a6.168,6.168,0,0,1,.2.7,0.7,0.7,0,0,0,.2-0.136,4.019,4.019,0,0,1,.285.816,0.5,0.5,0,0,0,.175-0.068c0.07,0.237.138,0.477,0.219,0.7a0.544,0.544,0,0,1,.175-0.045c0.111,0.266.049,0.823,0.416,0.749a2.883,2.883,0,0,0,.7,1.452,5.829,5.829,0,0,0,.832,1.02,0.033,0.033,0,0,1,.044-0.023,6.566,6.566,0,0,0-.766-2.9,0.147,0.147,0,0,0,.175-0.114,10.2,10.2,0,0,0-.46-1c0.062,0,.15.019,0.153-0.045a6.125,6.125,0,0,0-.372-0.907,0.383,0.383,0,0,0,.2-0.068,6.5,6.5,0,0,1-.438-1.043,0.322,0.322,0,0,0,.306-0.068,2.371,2.371,0,0,1-.438-0.839,0.692,0.692,0,0,0,.35-0.068,2.5,2.5,0,0,1-.416-0.907,0.6,0.6,0,0,0,.372-0.091,1.711,1.711,0,0,1-.372-0.93,0.786,0.786,0,0,0,.416-0.023,1.435,1.435,0,0,1-.175-0.952,0.389,0.389,0,0,0,.306-0.023,2.051,2.051,0,0,1-.131-0.952,0.361,0.361,0,0,0,.328,0,3.528,3.528,0,0,1,0-1,0.912,0.912,0,0,0,.306.023A3.311,3.311,0,0,1,15.555,9.3c0.111-.031.128,0.008,0.2-0.023a12.556,12.556,0,0,0,.438-1.928,0.17,0.17,0,0,1,.066-0.023,6.834,6.834,0,0,1,.46,1.815,0.334,0.334,0,0,0,.2,0,4.425,4.425,0,0,1,.175,1.2h0.306a5.726,5.726,0,0,1-.022.975c0.043-.007.043,0.031,0.066,0.045a0.4,0.4,0,0,0,.241-0.045,1.79,1.79,0,0,1-.131,1.021,0.979,0.979,0,0,0,.328-0.045,1.469,1.469,0,0,1-.175.975,0.876,0.876,0,0,0,.394,0,1.883,1.883,0,0,1-.35.975,1.775,1.775,0,0,0,.35.045,2.575,2.575,0,0,1-.372.93,0.822,0.822,0,0,0,.328.045,3.437,3.437,0,0,1-.438.884,0.914,0.914,0,0,0,.306.023,4.906,4.906,0,0,1-.438,1.043,0.253,0.253,0,0,0,.175.068,9.073,9.073,0,0,1-.394.93,0.6,0.6,0,0,1,.219.046,3.707,3.707,0,0,0-.481,1,0.15,0.15,0,0,0,.175.091,6.474,6.474,0,0,0-.7,2.7,0.418,0.418,0,0,0,0,.385,5.939,5.939,0,0,0,1.51-2.495,0.4,0.4,0,0,0,.175.023,2.688,2.688,0,0,0,.241-0.771,1.7,1.7,0,0,1,.2.045c0.035-.266.143-0.457,0.2-0.7a0.548,0.548,0,0,0,.2.068,2.57,2.57,0,0,1,.263-0.816,0.53,0.53,0,0,0,.219.136,2.749,2.749,0,0,1,.175-0.7,1.747,1.747,0,0,0,.262.159,1.052,1.052,0,0,1,.263-0.7,0.484,0.484,0,0,0,.219.136,1.438,1.438,0,0,1,.284-0.7,0.773,0.773,0,0,0,.262.2,0.975,0.975,0,0,1,.372-0.613,0.722,0.722,0,0,0,.2.181,1.222,1.222,0,0,1,.438-0.612,0.314,0.314,0,0,0,.153.181,2.74,2.74,0,0,1,.547-0.544,0.21,0.21,0,0,0,.175.159,2.475,2.475,0,0,1,.656-0.522,1.054,1.054,0,0,1,.175.091c0.444-.236.812-0.549,1.248-0.794a0.3,0.3,0,0,1-.109.295,9.038,9.038,0,0,1-.547.975,1.211,1.211,0,0,1-.46.862,1.214,1.214,0,0,1,.153.182c-0.148.2-.359,0.338-0.5,0.544a1.431,1.431,0,0,1,.153.182,1.939,1.939,0,0,1-.569.431c0.005,0.116.151,0.085,0.153,0.2a1.106,1.106,0,0,1-.569.386,0.562,0.562,0,0,0,.2.25,0.128,0.128,0,0,0-.066.136,1.764,1.764,0,0,0-.613.2,1.213,1.213,0,0,1,.131.227,1.99,1.99,0,0,1-.678.249,1.67,1.67,0,0,0,.131.249,2.924,2.924,0,0,1-.679.2,1.1,1.1,0,0,0,.131.2,2.743,2.743,0,0,1-.744.295c-0.059.064,0.039,0.093,0.022,0.182-0.2.106-.482,0.136-0.678,0.249,0,0.073.117,0.1,0.066,0.159a1.628,1.628,0,0,0-.788.318c-0.016.07,0.06,0.043,0.044,0.113a4.745,4.745,0,0,0-1.926,1.18,1.115,1.115,0,0,0-.416.476,4.434,4.434,0,0,0,1.773-.884c-0.006.06,0.046,0.058,0.088,0.068,0.18-.108.3-0.279,0.482-0.386a0.123,0.123,0,0,0,.065.113,1.8,1.8,0,0,1,.416-0.363c0.026,0.034.019,0.1,0.087,0.091a2.183,2.183,0,0,1,.5-0.386c0,0.058,0,.117.066,0.114,0.177-.052.22-0.241,0.394-0.295,0.055,0.034.029,0.151,0.131,0.136a1.114,1.114,0,0,1,.416-0.295,0.147,0.147,0,0,0,.087.159,1.225,1.225,0,0,1,.46-0.3,0.911,0.911,0,0,0,.066.227,0.787,0.787,0,0,1,.5-0.227c0.007,0.069-.024.176,0.044,0.181a0.872,0.872,0,0,1,.5-0.181,0.208,0.208,0,0,0,.044.159,4.507,4.507,0,0,1,.547-0.113,0.164,0.164,0,0,0,.066.181,1.812,1.812,0,0,1,.635-0.068,0.164,0.164,0,0,0,.066.136c0.43,0.015.638,0,1.094,0A2.955,2.955,0,0,1,24.353,21.21Z"/>
</svg>
