<?xml version="1.0" encoding="utf-8"?>
<!-- Generator: Adobe Illustrator 16.0.0, SVG Export Plug-In . SVG Version: 6.00 Build 0)  -->
<!DOCTYPE svg PUBLIC "-//W3C//DTD SVG 1.1//EN" "http://www.w3.org/Graphics/SVG/1.1/DTD/svg11.dtd">
<svg version="1.1" id="Layer_1" xmlns="http://www.w3.org/2000/svg" xmlns:xlink="http://www.w3.org/1999/xlink" x="0px" y="0px"
	 width="27.047px" height="27.046px" viewBox="0 0 27.047 27.046" enable-background="new 0 0 27.047 27.046" xml:space="preserve">
<path fill="#FFFFFF" d="M22.28,12.193L7.427,27.046H0v-7.426L14.854,4.767L22.28,12.193z M8.105,23.137L3.91,18.942l-1.625,1.624
	v1.91H4.57v2.285h1.911L8.105,23.137z M15.425,7.802c-0.106,0-0.214,0.036-0.304,0.125l-9.676,9.676
	c-0.089,0.089-0.125,0.196-0.125,0.303c0,0.232,0.161,0.393,0.393,0.393c0.107,0,0.214-0.035,0.304-0.125l9.677-9.675
	c0.089-0.089,0.125-0.197,0.125-0.304C15.818,7.962,15.657,7.802,15.425,7.802z M26.387,8.087l-2.964,2.963l-7.427-7.427
	l2.964-2.946C19.371,0.25,19.959,0,20.566,0s1.196,0.25,1.625,0.678l4.195,4.178c0.41,0.428,0.66,1.018,0.66,1.625
	S26.797,7.677,26.387,8.087z"/>
</svg>
