<?xml version="1.0" encoding="utf-8"?>
<!-- Generator: Adobe Illustrator 16.0.0, SVG Export Plug-In . SVG Version: 6.00 Build 0)  -->
<!DOCTYPE svg PUBLIC "-//W3C//DTD SVG 1.1//EN" "http://www.w3.org/Graphics/SVG/1.1/DTD/svg11.dtd">
<svg version="1.1" id="Layer_1" xmlns="http://www.w3.org/2000/svg" xmlns:xlink="http://www.w3.org/1999/xlink" x="0px" y="0px"
	 width="56px" height="51.203px" viewBox="0 0 56 51.203" enable-background="new 0 0 56 51.203" xml:space="preserve">
<path fill-rule="evenodd" clip-rule="evenodd" fill="#969693" d="M51.741,4.43l-0.258-0.258C45.68-1.446,36.39-1.392,30.664,4.344
	L4.148,30.867c-2,2-4.148,5.634-4.148,8.892c0,3.054,1.196,5.928,3.352,8.086c2.164,2.164,5.038,3.358,8.102,3.358
	c3.062-0.009,5.936-1.194,8.1-3.358l22.893-22.892c1.57-1.578,2.43-3.759,2.357-5.984c-0.078-2.046-0.914-3.968-2.357-5.414
	c-1.524-1.523-3.549-2.36-5.705-2.36c-2.147,0-4.172,0.837-5.695,2.36L13.524,31.086c-0.446,0.436-0.72,1.038-0.72,1.71
	c0,1.328,1.072,2.397,2.4,2.397c0.664,0,1.256-0.264,1.694-0.701V34.5l17.548-17.557c0.623-0.624,1.492-0.93,2.35-0.913
	c0.828,0.008,1.658,0.319,2.258,0.922c0.586,0.578,0.922,1.359,0.954,2.18c0.032,0.914-0.312,1.782-0.954,2.422l-22.89,22.89
	c-1.258,1.259-2.93,1.954-4.71,1.954c-1.774,0-3.446-0.695-4.704-1.954c-1.258-1.25-1.954-2.922-1.954-4.686
	c0-1.494,1.258-4.008,2.75-5.5L34.062,7.734C37.946,3.85,44.25,3.82,48.172,7.64l0.25,0.258c3.758,3.931,3.702,10.181-0.155,14.046
	L26.32,43.89c-0.444,0.438-0.718,1.04-0.718,1.71c0,1.322,1.078,2.4,2.406,2.4c0.656,0,1.258-0.267,1.688-0.704l0.008,0.008
	l21.951-21.96C57.422,19.579,57.446,10.226,51.741,4.43"/>
</svg>
