<?xml version="1.0" encoding="utf-8"?>
<!-- Generator: Adobe Illustrator 16.0.0, SVG Export Plug-In . SVG Version: 6.00 Build 0)  -->
<!DOCTYPE svg PUBLIC "-//W3C//DTD SVG 1.1//EN" "http://www.w3.org/Graphics/SVG/1.1/DTD/svg11.dtd">
<svg version="1.1" id="Layer_1" xmlns="http://www.w3.org/2000/svg" xmlns:xlink="http://www.w3.org/1999/xlink" x="0px" y="0px"
	 width="43.926px" height="43.926px" viewBox="0 0 43.926 43.926" enable-background="new 0 0 43.926 43.926" xml:space="preserve">
<path fill="#0083CB" d="M40.547,43.926c-0.896,0-1.77-0.369-2.376-1.004l-9.055-9.027c-3.089,2.139-6.784,3.273-10.532,3.273
	C8.314,37.168,0,28.852,0,18.584C0,8.315,8.314,0,18.584,0c10.27,0,18.584,8.315,18.584,18.584c0,3.749-1.136,7.443-3.273,10.533
	l9.055,9.055c0.607,0.605,0.978,1.479,0.978,2.376C43.926,42.395,42.395,43.926,40.547,43.926z M18.584,6.758
	c-6.521,0-11.826,5.306-11.826,11.826c0,6.52,5.306,11.827,11.826,11.827c6.52,0,11.826-5.308,11.826-11.827
	C30.41,12.064,25.104,6.758,18.584,6.758z"/>
</svg>
