<?xml version="1.0" encoding="utf-8"?>
<!-- Generator: Adobe Illustrator 16.0.0, SVG Export Plug-In . SVG Version: 6.00 Build 0)  -->
<!DOCTYPE svg PUBLIC "-//W3C//DTD SVG 1.1//EN" "http://www.w3.org/Graphics/SVG/1.1/DTD/svg11.dtd">
<svg version="1.1" id="Layer_1" xmlns="http://www.w3.org/2000/svg" xmlns:xlink="http://www.w3.org/1999/xlink" x="0px" y="0px"
	 width="21.996px" height="44.53px" viewBox="0 0 21.996 44.53" enable-background="new 0 0 21.996 44.53" xml:space="preserve">
<path fill="#7CC144" d="M10.541,15.059c-0.576,0-1.152-0.036-1.705-0.094c-1.542,1.364-3.377,2.329-5.412,2.847
	C3,17.929,2.541,18.011,2.082,18.07c-0.258,0.023-0.505-0.165-0.564-0.447c0-0.012,0-0.012,0-0.012
	c-0.059-0.294,0.142-0.471,0.318-0.683c0.74-0.835,1.588-1.541,2.141-3.506C1.553,12.046,0,9.917,0,7.529C0,3.376,4.718,0,10.541,0
	c5.824,0,10.541,3.365,10.541,7.529C21.082,11.693,16.365,15.059,10.541,15.059z"/>
<g>
	<defs>
		<rect id="SVGID_1_" x="-658.501" y="-114.037" width="720" height="3121.329"/>
	</defs>
	<clipPath id="SVGID_2_">
		<use xlink:href="#SVGID_1_"  overflow="visible"/>
	</clipPath>
	<path clip-path="url(#SVGID_2_)" fill="#7CC144" d="M21.056,31.989L9.104,26.282c-0.139-0.067-0.306-0.009-0.373,0.13l-2.6,5.441
		h1.416l1.91-3.999l10.361,4.95l-3.239,6.779l-1.826-0.869v3.584l1.122,0.537c0.14,0.066,0.306,0.006,0.373-0.133l4.938-10.34
		C21.252,32.223,21.194,32.056,21.056,31.989"/>
	<path clip-path="url(#SVGID_2_)" fill="#7CC144" d="M13.645,32.512H0.401c-0.153,0-0.281,0.124-0.281,0.278v11.459
		c0,0.156,0.128,0.281,0.281,0.281h13.243c0.153,0,0.277-0.125,0.277-0.281V32.79C13.924,32.636,13.798,32.512,13.645,32.512
		 M12.881,41.296h-0.84c-0.489-1.254-1.092-3.01-2.006-2.775c-1.07,0.273-1.604,2.775-1.604,2.775s-0.547-2.824-2.06-4.333
		c-1.511-1.512-2.974,4.333-2.974,4.333h-2v-7.517h11.482V41.296z"/>
</g>
</svg>
