<?xml version="1.0" encoding="utf-8"?>
<!-- Generator: Adobe Illustrator 16.0.0, SVG Export Plug-In . SVG Version: 6.00 Build 0)  -->
<!DOCTYPE svg PUBLIC "-//W3C//DTD SVG 1.1//EN" "http://www.w3.org/Graphics/SVG/1.1/DTD/svg11.dtd">
<svg version="1.1" id="Layer_1" xmlns="http://www.w3.org/2000/svg" xmlns:xlink="http://www.w3.org/1999/xlink" x="0px" y="0px"
	 width="34.776px" height="48.836px" viewBox="0 0 34.776 48.836" enable-background="new 0 0 34.776 48.836" xml:space="preserve">
<path fill="#1383C6" d="M34.257,26.441c0,0,3.633-8.78-8.307-6.596c0,0-7.375,1.545-8.224-0.709c0,0-0.584-1.712,2.129-4.967
	c0,0,6.012-6.681-0.792-13.192c0,0-3.466-2.921-4.009,1.337c-0.542,4.258,0.083,4.508-2.254,7.806c0,0-6.579,6.346-7.944,11.229
	c0,0-1.817,5.542-4.856,5.632v19.287c1.013-0.019,4.278-0.146,7.737,1.058c0,0,6.324,1.505,10.442,1.505
	c0,0,8.351,0.194,10.898-1.781c0,0,2.233-1.656,1.775-3.827c0,0-0.417-1.429,0.679-2.253c0,0,3.192-2.02,1.634-5.218
	c0,0-0.818-1.463,0.49-2.714c0,0,1.925-1.482,0.599-3.298C34.255,29.74,33.371,28.186,34.257,26.441"/>
</svg>
