<?xml version="1.0" encoding="utf-8"?>
<!-- Generator: Adobe Illustrator 16.0.0, SVG Export Plug-In . SVG Version: 6.00 Build 0)  -->
<!DOCTYPE svg PUBLIC "-//W3C//DTD SVG 1.1//EN" "http://www.w3.org/Graphics/SVG/1.1/DTD/svg11.dtd">
<svg version="1.1" id="Layer_1" xmlns="http://www.w3.org/2000/svg" xmlns:xlink="http://www.w3.org/1999/xlink" x="0px" y="0px"
	 width="82.64px" height="84.58px" viewBox="0 0 82.64 84.58" enable-background="new 0 0 82.64 84.58" xml:space="preserve">
<path fill="#932A88" d="M64.885,46.162c-2.42,0-4.848-0.441-7.23-1.262c-1.656,0.883-3.737,1.552-6.129,1.781
	c-2.419,2.387-1.825,1.785-3.038,3.072h4.188c-0.176,3.707-0.661,7.151-1.382,10.28c-3.13,0.72-6.573,1.207-10.281,1.383v-6.214
	c-0.375-1.527-0.763-4.361,0.169-7.994c0.291-1.168,0.757-2.404,1.357-3.643h-1.526V31.902c1.79,0.084,3.509,0.249,5.168,0.47
	c-0.358-1.404-0.597-2.855-0.626-4.36c-0.013-0.659,0.036-1.298,0.09-1.937c-1.513-0.163-3.055-0.289-4.632-0.356v-9.956
	c1.984,1.023,3.929,2.997,5.647,5.741c1.426-3.818,4.196-6.921,8.04-8.801c-5.064-2.512-10.742-3.962-16.766-3.965H37.92
	C17.011,8.739,0,25.75,0,46.661v0.007C0.003,67.572,17.014,84.58,37.92,84.58h0.015c20.9-0.009,37.903-17.012,37.906-37.912v-0.007
	c0-1.253-0.07-2.489-0.188-3.711C72.502,44.986,68.849,46.162,64.885,46.162 M23.9,18.234c-1.771,2.834-3.278,6.189-4.426,9.979
	c-3.79,1.147-7.143,2.653-9.977,4.424C12.588,26.397,17.66,21.327,23.9,18.234 M17.811,35.375c-0.437,2.61-0.71,5.356-0.83,8.19
	H7.028C8.602,40.518,12.382,37.563,17.811,35.375 M16.981,49.753c0.12,2.835,0.393,5.581,0.83,8.191
	c-5.429-2.188-9.212-5.143-10.783-8.191H16.981z M9.5,60.685c2.834,1.771,6.184,3.274,9.976,4.422
	c1.146,3.789,2.653,7.142,4.423,9.976C17.66,71.992,12.591,66.923,9.5,60.685 M34.825,77.55c-3.045-1.576-6-5.354-8.188-10.779
	c2.612,0.435,5.354,0.707,8.188,0.828V77.55z M34.825,61.417c-3.707-0.176-7.147-0.663-10.278-1.383
	c-0.719-3.129-1.207-6.573-1.382-10.28h11.66V61.417z M34.825,43.566h-11.66c0.175-3.708,0.663-7.151,1.382-10.28
	c3.131-0.72,6.571-1.208,10.278-1.383V43.566z M34.825,25.719c-2.834,0.122-5.576,0.394-8.188,0.83
	c2.188-5.425,5.142-9.205,8.188-10.779V25.719z M41.013,77.556v-9.957c2.835-0.121,5.581-0.394,8.193-0.828
	C47.02,72.202,44.062,75.984,41.013,77.556 M51.948,75.08c1.768-2.832,3.272-6.186,4.42-9.975c3.789-1.146,7.14-2.649,9.974-4.42
	C63.251,66.921,58.184,71.99,51.948,75.08 M58.03,57.945c0.438-2.61,0.71-5.356,0.83-8.191h9.954
	C67.242,52.8,63.458,55.756,58.03,57.945"/>
<path fill="#932A88" d="M76.87,1.479C76.51,0.588,75.648,0.004,74.688,0c-0.96-0.004-1.827,0.572-2.195,1.458
	c-1.835,4.419-6.149,10.012-16.188,13.886c-8.946,4.156-9.559,15.311-4.317,21.981c-0.193,0.128-2.141,1.253-4.245,3.335
	c-4.646,4.596-5.328,10.26-5.284,13.434c0.003,0.26,0.188,0.483,0.444,0.535c0.256,0.049,0.515-0.086,0.616-0.326
	c0.855-2.002,2.357-5.02,4.548-7.674l0.003-0.005c1.142-1.428,3.32-3.806,5.816-5.912c1.838-1.788,12.461-8.195,17.48-19.191
	c0.061-0.133,0.211-0.2,0.352-0.157c0.14,0.041,0.226,0.182,0.201,0.326c-2.586,15.419-10.757,20.584-11.103,20.906
	c1.368,0.307,2.73,0.473,4.069,0.473c7.813,0,14.762-5.161,17.243-14.358C84.091,21.453,79.989,9.186,76.87,1.479"/>
</svg>
