<svg xmlns="http://www.w3.org/2000/svg" width="138" height="138" viewBox="0 0 138 138">
  <metadata><?xpacket begin="﻿" id="W5M0MpCehiHzreSzNTczkc9d"?>
<x:xmpmeta xmlns:x="adobe:ns:meta/" x:xmptk="Adobe XMP Core 5.6-c142 79.160924, 2017/07/13-01:06:39        ">
   <rdf:RDF xmlns:rdf="http://www.w3.org/1999/02/22-rdf-syntax-ns#">
      <rdf:Description rdf:about=""/>
   </rdf:RDF>
</x:xmpmeta>
                                                                                                    
                                                                                                    
                                                                                                    
                                                                                                    
                                                                                                    
                                                                                                    
                                                                                                    
                                                                                                    
                                                                                                    
                                                                                                    
                                                                                                    
                                                                                                    
                                                                                                    
                                                                                                    
                                                                                                    
                                                                                                    
                                                                                                    
                                                                                                    
                                                                                                    
                                                                                                    
                           
<?xpacket end="w"?></metadata>
<defs>
    <style>
      .cls-1 {
        fill: #942b88;
      }

      .cls-2 {
        fill: #fff;
        fill-rule: evenodd;
      }
    </style>
  </defs>
  <rect id="Rectangle_2458_copy" data-name="Rectangle 2458 copy" class="cls-1" width="138" height="138"/>
  <path id="Shape_2459_copy" data-name="Shape 2459 copy" class="cls-2" d="M96,49.071V39.992H33V89.925A8.846,8.846,0,0,0,41.606,99q0.2,0,.4,0H98.247S105,98.862,105,89.925V49.071H96ZM42,94.464a4.4,4.4,0,0,1-4.5-4.309q0-.115,0-0.23V44.531H91.5V89.925a6.59,6.59,0,0,0,1.519,4.539H42ZM42,53.61H87V58.15H42V53.61ZM66.751,80.846H82.5v4.539H66.751V80.846Zm0-9.079H87v4.539H66.751V71.768Zm0-9.079H87v4.539H66.751V62.689ZM42,62.689H62.251v22.7H42v-22.7Z"/>
</svg>
