<?xml version="1.0" encoding="utf-8"?>
<!-- Generator: Adobe Illustrator 16.0.0, SVG Export Plug-In . SVG Version: 6.00 Build 0)  -->
<!DOCTYPE svg PUBLIC "-//W3C//DTD SVG 1.1//EN" "http://www.w3.org/Graphics/SVG/1.1/DTD/svg11.dtd">
<svg version="1.1" id="Layer_1" xmlns="http://www.w3.org/2000/svg" xmlns:xlink="http://www.w3.org/1999/xlink" x="0px" y="0px"
	 width="47.698px" height="47.656px" viewBox="0 0 47.698 47.656" enable-background="new 0 0 47.698 47.656" xml:space="preserve">
<path fill="#B38BBF" d="M47.698,23.85C47.698,10.678,37.021,0,23.85,0C10.678,0,0,10.678,0,23.85c0,11.971,8.82,21.88,20.316,23.587
	c0,0,1.14,0.22,3.06,0.22c1.919,0,3.382-0.14,3.382-0.14C38.558,46.08,47.698,36.035,47.698,23.85"/>
<path fill="#333333" d="M43.061,24.13c0,10.61-8.601,19.212-19.211,19.212c-10.61,0-19.211-8.602-19.211-19.212
	c0-10.609,8.601-19.211,19.211-19.211C34.46,4.919,43.061,13.521,43.061,24.13"/>
<path fill="#FFFFFF" d="M33.03,35.554l-1.313-10.192h0.036c0.386,0,1.427,0.369,1.427-0.016V11.145c0-0.245-0.492-0.472-0.702-0.599
	c-0.21-0.126-0.543-0.134-0.759-0.019c-2.723,1.436-4.501,4.262-4.501,7.342v5.988c0,1.208,0.76,1.504,1.968,1.504h0.166
	l-1.314,10.192c-0.094,0.72,0.125,1.616,0.602,2.162c0.479,0.546,1.17,0.945,1.895,0.945c0.727,0,1.418-0.442,1.896-0.987
	C32.907,37.128,33.126,36.273,33.03,35.554"/>
<path fill="#FFFFFF" d="M22.25,10.106c-0.53,0-0.994,0.429-0.994,0.959v6.346h-1.987v-6.346c0-0.53-0.464-0.959-0.994-0.959
	c-0.53,0-0.994,0.429-0.994,0.959v6.346v-6.346c0-0.53-0.463-0.959-0.993-0.959c-0.53,0-0.994,0.429-0.994,0.959v8.651
	c0,1.422,1.234,1.669,2.656,1.669h0.213l-1.511,14.05c-0.08,0.728,0.153,1.681,0.64,2.227c0.489,0.546,1.187,0.971,1.918,0.971
	c0.733,0,1.43-0.255,1.919-0.801c0.488-0.546,0.721-1.698,0.64-2.425l-1.511-14.021h0.213c1.422,0,2.773-0.247,2.773-1.669v-8.651
	C23.244,10.535,22.78,10.106,22.25,10.106"/>
</svg>
