<svg xmlns="http://www.w3.org/2000/svg" width="25" height="17" viewBox="0 0 25 17">
  <metadata><?xpacket begin="﻿" id="W5M0MpCehiHzreSzNTczkc9d"?>
<x:xmpmeta xmlns:x="adobe:ns:meta/" x:xmptk="Adobe XMP Core 5.6-c142 79.160924, 2017/07/13-01:06:39        ">
   <rdf:RDF xmlns:rdf="http://www.w3.org/1999/02/22-rdf-syntax-ns#">
      <rdf:Description rdf:about=""/>
   </rdf:RDF>
</x:xmpmeta>
                                                                                                    
                                                                                                    
                                                                                                    
                                                                                                    
                                                                                                    
                                                                                                    
                                                                                                    
                                                                                                    
                                                                                                    
                                                                                                    
                                                                                                    
                                                                                                    
                                                                                                    
                                                                                                    
                                                                                                    
                                                                                                    
                                                                                                    
                                                                                                    
                                                                                                    
                                                                                                    
                           
<?xpacket end="w"?></metadata>
<defs>
    <style>
      .cls-1 {
        fill: #353535;
        fill-rule: evenodd;
      }
    </style>
  </defs>
  <path class="cls-1" d="M24.479,6.375H0.521A0.5,0.5,0,0,0,0,6.906v7.438A2.605,2.605,0,0,0,2.6,17H22.4A2.605,2.605,0,0,0,25,14.344V6.906A0.5,0.5,0,0,0,24.479,6.375ZM3.646,10.625H7.813a0.531,0.531,0,0,1,0,1.063H3.646A0.531,0.531,0,0,1,3.646,10.625Zm7.292,3.188H3.646a0.531,0.531,0,0,1,0-1.062h7.292A0.531,0.531,0,0,1,10.938,13.813Zm8.854,0a1.736,1.736,0,0,1-1.042-.319,1.736,1.736,0,0,1-1.042.319,2.125,2.125,0,0,1,0-4.25,1.736,1.736,0,0,1,1.042.319,1.736,1.736,0,0,1,1.042-.319A2.125,2.125,0,0,1,19.792,13.813ZM22.4,0H2.6A2.605,2.605,0,0,0,0,2.656V3.719a0.5,0.5,0,0,0,.521.531H24.479A0.5,0.5,0,0,0,25,3.719V2.656A2.605,2.605,0,0,0,22.4,0Z"/>
</svg>
