<?xml version="1.0" encoding="utf-8"?>
<!-- Generator: Adobe Illustrator 16.0.0, SVG Export Plug-In . SVG Version: 6.00 Build 0)  -->
<!DOCTYPE svg PUBLIC "-//W3C//DTD SVG 1.1//EN" "http://www.w3.org/Graphics/SVG/1.1/DTD/svg11.dtd">
<svg version="1.1" id="Layer_1" xmlns="http://www.w3.org/2000/svg" xmlns:xlink="http://www.w3.org/1999/xlink" x="0px" y="0px"
	 width="74.068px" height="48px" viewBox="0 0 74.068 48" enable-background="new 0 0 74.068 48" xml:space="preserve">
<path fill="#CCCCCC" d="M31.799,21.463h-5.615v-7.037h5.615v1.467h-3.931v1.267h3.842v1.441h-3.842v1.403h3.931V21.463z
	 M19.28,21.463l-2.44-5.519v5.519h-3.424l-0.648-1.569H9.265l-0.652,1.569H6.788l3.01-7.037h2.497l2.861,6.667v-6.667h2.747
	l2.203,4.772l2.023-4.772h2.805v7.037h-1.729l-0.008-5.513l-2.438,5.513H19.28z M12.16,18.428l-1.146-2.804l-1.146,2.804H12.16z
	 M39.376,28.86c0,1.952-1.461,2.357-2.936,2.357h-2.093v2.361h-3.272l-2.074-2.33l-2.151,2.33h-6.667v-7.043h6.768l2.069,2.311
	l2.146-2.311h5.372C37.871,26.542,39.376,26.907,39.376,28.86 M27.919,30.045l-1.838-2.051h-4.213v1.281h3.688v1.434h-3.688v1.402
	h4.129L27.919,30.045z M32.671,27.297l-2.587,2.771l2.587,2.869V27.297z M37.563,28.86c0-0.622-0.417-0.865-1.024-0.865h-2.19v1.793
	h2.17C37.166,29.788,37.563,29.467,37.563,28.86 M34.655,21.463h-1.685v-7.037h3.869c0.856,0,1.491,0.019,2.036,0.334
	c0.53,0.313,0.85,0.773,0.85,1.562c0,1.12-0.749,1.703-1.183,1.876c0.363,0.141,0.679,0.385,0.833,0.59
	c0.235,0.35,0.274,0.665,0.274,1.293v1.382h-1.697l-0.008-0.89c0-0.421,0.039-1.031-0.262-1.371
	c-0.249-0.242-0.621-0.299-1.229-0.299h-1.799V21.463z M34.649,17.455h2.049c0.326,0,0.596-0.007,0.832-0.148
	c0.21-0.114,0.346-0.359,0.346-0.665c0-0.302-0.136-0.518-0.352-0.622c-0.205-0.114-0.513-0.127-0.802-0.127h-2.073V17.455z
	 M42.416,14.426H40.7v7.038h1.716V14.426z M44.146,20.683c-0.597-0.595-0.902-1.41-0.902-2.684c0-1.044,0.185-1.998,0.902-2.754
	c0.544-0.562,1.396-0.819,2.555-0.819h1.625v1.504h-1.587c-0.62,0-0.967,0.097-1.3,0.416c-0.282,0.302-0.479,0.86-0.479,1.596
	c0,0.756,0.147,1.299,0.461,1.652c0.262,0.282,0.735,0.364,1.172,0.364h0.755l2.376-5.532h2.516l2.85,6.653v-6.653h2.562
	l2.959,4.899v-4.899h1.723v7.037h-2.383l-3.188-5.282v5.282h-3.426l-0.659-1.569h-3.49l-0.634,1.569h-1.972
	C45.759,21.463,44.728,21.278,44.146,20.683 M49.787,18.428h2.317l-1.166-2.804L49.787,18.428z M46.252,17.179
	c-0.014,0.027-0.134,0.276-0.134,0.763c0,0.486,0.076,0.716,0.134,0.819c0.058,0.02,0.166,0.038,0.333,0.038l0.729-1.703h-0.576
	C46.343,17.096,46.303,17.135,46.252,17.179 M74.068,1.908v44.19c0,1.049-0.852,1.902-1.907,1.902H1.907C0.852,48,0,47.147,0,46.098
	V1.908C0,0.85,0.852,0,1.907,0h70.254C73.217,0,74.068,0.85,74.068,1.908 M19.28,22.622h1.479c0.46,0,0.877-0.269,1.062-0.69
	l0.226-0.5v0.031c0,0.641,0.519,1.159,1.159,1.159h1.723c0.237,0,0.442-0.089,0.627-0.205c0.186,0.116,0.391,0.205,0.628,0.205
	h5.621c0.218,0,0.41-0.075,0.584-0.179c0.172,0.104,0.364,0.179,0.582,0.179h1.685c0.64,0,1.159-0.518,1.159-1.159v-1.402h0.64
	c0.147,0,0.251,0.007,0.327,0.013c0.006,0.122,0.006,0.263,0.006,0.353v0.159l0.007,0.883c0,0.642,0.525,1.153,1.159,1.153h1.697
	c0.192,0,0.364-0.057,0.525-0.141c0.159,0.084,0.332,0.141,0.524,0.141h1.716c0.563,0,1.012-0.403,1.122-0.934
	c0.953,0.8,2.291,0.934,3.041,0.934h1.972c0.467,0,0.896-0.287,1.075-0.723l0.339-0.846h1.94l0.354,0.853
	c0.185,0.436,0.601,0.716,1.075,0.716h3.426c0.641,0,1.159-0.518,1.159-1.159V20.35l1.031,1.71c0.212,0.35,0.589,0.562,0.998,0.562
	h2.383c0.641,0,1.158-0.518,1.158-1.159v-7.044c0-0.639-0.518-1.159-1.158-1.159h-1.723c-0.641,0-1.165,0.52-1.165,1.159v0.731
	l-0.802-1.326c-0.21-0.353-0.582-0.564-0.992-0.564h-2.562c-0.64,0-1.159,0.52-1.159,1.166v0.986l-0.619-1.447
	c-0.187-0.423-0.604-0.705-1.071-0.705h-2.516c-0.256,0-0.5,0.084-0.699,0.231c-0.19-0.147-0.434-0.231-0.69-0.231h-1.626
	c-1.385,0-2.409,0.339-3.158,0.987c-0.088-0.551-0.551-0.987-1.133-0.987H40.7c-0.454,0-0.847,0.275-1.031,0.654
	c-0.07-0.051-0.128-0.11-0.211-0.161c-0.787-0.454-1.62-0.493-2.618-0.493h-3.869c-0.218,0-0.41,0.077-0.582,0.18
	c-0.174-0.103-0.366-0.18-0.584-0.18h-5.621c-0.237,0-0.442,0.09-0.621,0.211c-0.187-0.121-0.392-0.211-0.628-0.211H22.13
	c-0.467,0-0.891,0.282-1.069,0.711l-0.999,2.358L18.96,13.94c-0.192-0.409-0.603-0.68-1.057-0.68h-2.747
	c-0.641,0-1.158,0.52-1.158,1.166v1.013l-0.628-1.474c-0.186-0.43-0.608-0.705-1.069-0.705H9.803c-0.467,0-0.889,0.282-1.069,0.705
	l-3.01,7.037c-0.159,0.359-0.121,0.769,0.097,1.102c0.211,0.32,0.575,0.518,0.968,0.518h1.831c0.468,0,0.89-0.28,1.068-0.716
	l0.354-0.853h1.952l0.346,0.853c0.18,0.436,0.607,0.716,1.077,0.716h3.424c0.641,0,1.159-0.518,1.159-1.159v-0.031l0.218,0.5
	C18.403,22.353,18.818,22.622,19.28,22.622 M68.446,31.358c0-0.986-0.263-1.717-0.84-2.307c-0.013-0.014-0.023-0.024-0.037-0.038
	c0.319-0.205,0.531-0.57,0.531-0.979v-1.498c0-0.642-0.518-1.16-1.159-1.16h-3.375c-1.05,0-1.838,0.308-2.413,0.775
	c-0.16-0.449-0.578-0.775-1.089-0.775h-3.369c-0.928,0-1.658,0.231-2.216,0.602c-0.198-0.353-0.562-0.602-0.998-0.602h-5.617
	c-0.453,0-0.832,0.262-1.023,0.641c-0.077-0.058-0.134-0.123-0.223-0.175c-0.815-0.434-1.68-0.466-2.575-0.466h-3.881
	c-0.454,0-0.84,0.262-1.031,0.647c-0.588-0.385-1.414-0.647-2.593-0.647h-5.372c-0.328,0-0.635,0.134-0.853,0.373l-1.273,1.369
	l-1.224-1.357c-0.218-0.243-0.53-0.384-0.866-0.384h-6.768c-0.639,0-1.159,0.518-1.159,1.16v7.043c0,0.642,0.521,1.159,1.159,1.159
	h6.667c0.326,0,0.634-0.135,0.851-0.372l1.288-1.389l1.217,1.371c0.218,0.249,0.538,0.39,0.87,0.39h3.266
	c0.647,0,1.166-0.518,1.166-1.165v-1.197h0.934c1.135,0,1.961-0.231,2.557-0.59v1.787c0,0.647,0.518,1.165,1.165,1.165h1.69
	c0.641,0,1.159-0.518,1.159-1.165v-1.408h0.634c0.161,0,0.27,0.006,0.346,0.012c0.007,0.123,0.007,0.275,0,0.378v1.019
	c0,0.647,0.519,1.165,1.165,1.165h1.685c0.191,0,0.359-0.051,0.513-0.135c0.159,0.084,0.326,0.135,0.511,0.135h5.617
	c0.186,0,0.353-0.051,0.506-0.128c0.153,0.077,0.32,0.128,0.506,0.128h3.271c1.044,0,1.89-0.256,2.53-0.711
	c0.18,0.416,0.59,0.711,1.069,0.711h3.279C67.024,34.738,68.446,33.476,68.446,31.358 M57.982,29.301l-0.902-0.025
	c-0.287,0-0.475-0.02-0.653-0.084c-0.211-0.076-0.372-0.256-0.372-0.523c0-0.219,0.071-0.391,0.258-0.508
	c0.165-0.115,0.364-0.127,0.672-0.127h3.087v-1.498h-3.376c-1.76,0-2.4,1.074-2.4,2.1c0,2.223,1.972,2.126,3.541,2.177
	c0.295,0,0.467,0.046,0.601,0.153c0.117,0.104,0.205,0.263,0.205,0.468c0,0.194-0.082,0.353-0.198,0.462
	c-0.141,0.128-0.371,0.173-0.685,0.173h-3.266v1.505h3.278c1.69,0,2.64-0.705,2.64-2.215c0-0.725-0.175-1.154-0.508-1.494
	C59.525,29.481,58.899,29.32,57.982,29.301 M45.738,30.307c0.38,0.134,0.687,0.384,0.827,0.588c0.237,0.346,0.275,0.668,0.281,1.287
	v1.396h-1.69v-0.883c0-0.424,0.038-1.051-0.274-1.378c-0.244-0.249-0.615-0.313-1.23-0.313h-1.799v2.574h-1.69v-7.043h3.887
	c0.853,0,1.467,0.039,2.022,0.332c0.533,0.321,0.866,0.762,0.866,1.563C46.938,29.558,46.182,30.127,45.738,30.307 M45.073,28.758
	c0-0.303-0.128-0.521-0.346-0.635c-0.205-0.121-0.505-0.129-0.8-0.129h-2.075v1.582h2.042c0.328,0,0.608-0.013,0.833-0.146
	C44.945,29.301,45.073,29.058,45.073,28.758 M47.864,33.579h5.617v-1.461l-3.938-0.006v-1.402h3.841v-1.434h-3.841v-1.281h3.938
	v-1.459h-5.617V33.579z M64.859,29.301l-0.907-0.025c-0.282,0-0.475-0.02-0.654-0.084c-0.212-0.076-0.364-0.256-0.364-0.523
	c0-0.219,0.064-0.391,0.249-0.508c0.167-0.115,0.372-0.127,0.679-0.127h3.08v-1.498h-3.369c-1.767,0-2.407,1.074-2.407,2.1
	c0,2.223,1.974,2.126,3.543,2.177c0.293,0,0.473,0.046,0.601,0.153c0.115,0.104,0.205,0.263,0.205,0.468
	c0,0.194-0.084,0.353-0.198,0.462c-0.141,0.128-0.365,0.173-0.686,0.173h-3.266v1.505h3.279c1.696,0,2.645-0.705,2.645-2.215
	c0-0.725-0.18-1.154-0.508-1.494C66.397,29.481,65.77,29.32,64.859,29.301"/>
</svg>
