<?xml version="1.0" encoding="utf-8"?>
<!-- Generator: Adobe Illustrator 16.0.0, SVG Export Plug-In . SVG Version: 6.00 Build 0)  -->
<!DOCTYPE svg PUBLIC "-//W3C//DTD SVG 1.1//EN" "http://www.w3.org/Graphics/SVG/1.1/DTD/svg11.dtd">
<svg version="1.1" id="Layer_1" xmlns="http://www.w3.org/2000/svg" xmlns:xlink="http://www.w3.org/1999/xlink" x="0px" y="0px"
	 width="77.518px" height="48px" viewBox="0 0 77.518 48" enable-background="new 0 0 77.518 48" xml:space="preserve">
<path fill="#CCCCCC" d="M53.487,24.001c0,8.126-6.593,14.719-14.72,14.719s-14.72-6.593-14.72-14.719
	c0-8.127,6.593-14.72,14.72-14.72S53.487,15.874,53.487,24.001 M41.565,23.067c-0.789-0.442-1.629-0.774-2.466-1.122
	c-0.474-0.205-0.949-0.427-1.344-0.759c-0.806-0.648-0.649-1.676,0.3-2.086c0.269-0.112,0.538-0.159,0.822-0.174
	c1.091-0.064,2.135,0.142,3.116,0.616c0.489,0.237,0.647,0.158,0.821-0.348c0.175-0.538,0.316-1.091,0.474-1.629
	c0.111-0.363-0.03-0.615-0.379-0.758c-0.633-0.285-1.279-0.475-1.959-0.585c-0.887-0.142-0.887-0.142-0.901-1.043
	c0-1.266,0-1.266-1.266-1.266H38.23c-0.586,0.016-0.697,0.127-0.712,0.712v0.806c0,0.791-0.016,0.775-0.759,1.06
	c-1.834,0.664-2.957,1.913-3.083,3.921c-0.111,1.77,0.806,2.956,2.261,3.826c0.901,0.537,1.881,0.854,2.83,1.264
	c0.363,0.159,0.728,0.349,1.026,0.601c0.918,0.76,0.744,2.008-0.331,2.483c-0.585,0.253-1.185,0.315-1.818,0.237
	c-0.965-0.127-1.897-0.379-2.766-0.838c-0.507-0.27-0.664-0.19-0.839,0.363c-0.142,0.475-0.284,0.965-0.41,1.438
	c-0.174,0.648-0.112,0.808,0.505,1.107c0.791,0.379,1.629,0.586,2.498,0.713c0.68,0.109,0.696,0.142,0.712,0.836
	c0,0.317,0,0.633,0.016,0.949c0,0.395,0.189,0.633,0.6,0.647c0.475,0.017,0.933,0.017,1.408,0c0.379-0.015,0.586-0.22,0.586-0.601
	c0-0.427,0.015-0.869,0-1.295c-0.018-0.443,0.172-0.664,0.6-0.775c0.98-0.27,1.818-0.791,2.451-1.565
	C44.774,27.637,44.095,24.475,41.565,23.067 M77.518,1.85v44.302c0,1.012-0.822,1.849-1.85,1.849H1.85C0.838,48,0,47.178,0,46.151
	V1.85C0,0.838,0.822,0,1.85,0h73.818C76.696,0,77.518,0.823,77.518,1.85 M71.795,13.976c-0.538,0.143-1.107,0.207-1.676,0.207
	c-3.765,0-6.799-3.052-6.799-6.799c0-0.569,0.078-1.123,0.205-1.66H13.612c0.08,0.411,0.112,0.822,0.112,1.249
	c0,3.763-3.052,6.798-6.799,6.798c-0.411,0-0.806-0.031-1.202-0.11v20.648c0.396-0.063,0.791-0.11,1.202-0.11
	c3.762,0,6.799,3.051,6.799,6.799c0,0.427-0.048,0.837-0.112,1.248h49.74c-0.031-0.27-0.047-0.553-0.047-0.838
	c0-3.762,3.05-6.799,6.798-6.799c0.585,0,1.138,0.08,1.677,0.207V13.976H71.795z M64.522,21.455h-5.708
	c-0.506,0-0.901,0.411-0.901,0.901v3.273c0,0.506,0.412,0.901,0.901,0.901h5.708c0.506,0,0.901-0.412,0.901-0.901v-3.273
	C65.439,21.85,65.028,21.455,64.522,21.455 M18.719,21.455h-5.707c-0.506,0-0.901,0.411-0.901,0.901v3.273
	c0,0.506,0.411,0.901,0.901,0.901h5.707c0.507,0,0.902-0.412,0.902-0.901v-3.273C19.621,21.85,19.226,21.455,18.719,21.455"/>
</svg>
