<?xml version="1.0" encoding="utf-8"?>
<!-- Generator: Adobe Illustrator 16.0.0, SVG Export Plug-In . SVG Version: 6.00 Build 0)  -->
<!DOCTYPE svg PUBLIC "-//W3C//DTD SVG 1.1//EN" "http://www.w3.org/Graphics/SVG/1.1/DTD/svg11.dtd">
<svg version="1.1" id="Layer_1" xmlns="http://www.w3.org/2000/svg" xmlns:xlink="http://www.w3.org/1999/xlink" x="0px" y="0px"
	 width="74.07px" height="48px" viewBox="0 0 74.07 48" enable-background="new 0 0 74.07 48" xml:space="preserve">
<path fill="#CCCCCC" d="M14.331,19.817c0.59,0.526,0.947,1.333,0.947,2.172c0,0.831-0.357,1.67-0.947,2.197
	c-0.531,0.478-1.223,0.69-2.318,0.69h-0.461v-5.763h0.461C13.108,19.113,13.773,19.312,14.331,19.817 M63.645,18.133
	c0-0.306,0.237-0.55,0.53-0.55c0.295,0,0.533,0.251,0.533,0.55c0,0.295-0.238,0.545-0.533,0.545
	C63.888,18.678,63.645,18.435,63.645,18.133 M63.896,18.512h0.185v-0.295l0.218,0.3h0.216l-0.249-0.32
	c0.11-0.024,0.168-0.101,0.168-0.211c0-0.152-0.104-0.236-0.288-0.236h-0.249V18.512z M74.07,1.908v44.19
	c0,1.049-0.854,1.902-1.908,1.902H1.908C0.853,48,0,47.147,0,46.098V1.908C0,0.85,0.853,0,1.908,0h70.254
	C73.217,0,74.07,0.85,74.07,1.908 M63.509,18.127c0,0.372,0.303,0.672,0.674,0.672c0.358,0,0.659-0.3,0.659-0.672
	c0-0.364-0.301-0.666-0.659-0.666C63.812,17.461,63.509,17.757,63.509,18.127 M57.818,26.35h1.703v-3.504h0.216l2.351,3.504h2.095
	l-2.746-3.669c1.279-0.264,1.989-1.141,1.989-2.472c0-1.633-1.126-2.576-3.085-2.576h-2.522V26.35z M51.875,26.35h4.815v-1.474
	h-3.118V22.52h3.01v-1.473h-3.01v-1.934h3.118v-1.48h-4.815V26.35z M42.729,17.633l3.701,8.941h0.91l3.766-8.941h-1.844
	l-2.351,5.854l-2.325-5.854H42.729z M33.989,22.027c0,2.555,2.075,4.63,4.636,4.63c2.082,0,3.843-1.371,4.427-3.253
	c0.024-0.083,0.043-0.167,0.063-0.242c0.013-0.071,0.038-0.136,0.051-0.205c0.063-0.302,0.097-0.615,0.097-0.936
	c0-2.554-2.076-4.629-4.638-4.629c-1.92,0-3.565,1.165-4.27,2.831C34.117,20.771,33.989,21.386,33.989,22.027 M26.709,22.001
	c0,2.555,2.011,4.546,4.598,4.546c0.73,0,1.358-0.146,2.126-0.512v-1.998c-0.68,0.679-1.282,0.954-2.049,0.954
	c-1.709,0-2.928-1.242-2.928-3.003c0-1.672,1.256-2.992,2.851-2.992c0.813,0,1.428,0.289,2.131,0.981v-1.999
	c-0.749-0.383-1.364-0.537-2.093-0.537C28.771,17.442,26.709,19.466,26.709,22.001 M17.027,22.001c0-2.574-1.921-4.368-4.675-4.368
	H9.856v8.717h2.483c1.32,0,2.267-0.309,3.106-1.005C16.437,24.518,17.027,23.282,17.027,22.001 M19.511,17.633h-1.703v8.716h1.703
	V17.633z M26.171,23.699c0-1.384-0.577-2.011-2.503-2.716c-1.026-0.377-1.326-0.627-1.326-1.101c0-0.545,0.538-0.967,1.267-0.967
	c0.513,0,0.93,0.212,1.371,0.71l0.89-1.165c-0.73-0.64-1.607-0.968-2.561-0.968c-1.544,0-2.716,1.071-2.716,2.499
	c0,1.196,0.551,1.811,2.146,2.388c0.665,0.236,1.005,0.39,1.172,0.494c0.346,0.222,0.511,0.537,0.511,0.903
	c0,0.703-0.562,1.23-1.318,1.23c-0.806,0-1.467-0.406-1.857-1.161l-1.095,1.057c0.782,1.146,1.723,1.659,3.016,1.659
	C24.929,26.561,26.171,25.382,26.171,23.699 M72.737,29.993c0,0-16.336,11.527-46.253,16.688h46.253V29.993z M61.672,20.298
	c0-0.845-0.576-1.288-1.633-1.288h-0.518v2.64h0.491C61.096,21.65,61.672,21.176,61.672,20.298 M64.252,17.986
	c0-0.064-0.044-0.095-0.141-0.095H64.08v0.198h0.031C64.201,18.089,64.252,18.056,64.252,17.986"/>
</svg>
