<?xml version="1.0" encoding="utf-8"?>
<!-- Generator: Adobe Illustrator 16.0.0, SVG Export Plug-In . SVG Version: 6.00 Build 0)  -->
<!DOCTYPE svg PUBLIC "-//W3C//DTD SVG 1.1//EN" "http://www.w3.org/Graphics/SVG/1.1/DTD/svg11.dtd">
<svg version="1.1" id="Layer_1" xmlns="http://www.w3.org/2000/svg" xmlns:xlink="http://www.w3.org/1999/xlink" x="0px" y="0px"
	 width="74.07px" height="48px" viewBox="0 0 74.07 48" enable-background="new 0 0 74.07 48" xml:space="preserve">
<path fill="#CCCCCC" d="M19.736,20.818c-1.384,0-2.446,0.447-2.446,0.447l-0.295,1.743c0,0,0.877-0.359,2.203-0.359
	c0.756,0,1.307,0.083,1.307,0.698c0,0.371-0.064,0.511-0.064,0.511s-0.597-0.051-0.871-0.051c-1.755,0-3.593,0.743-3.593,2.997
	c0,1.781,1.203,2.184,1.954,2.184c1.428,0,2.049-0.928,2.08-0.928l-0.07,0.774h1.786l0.794-5.571
	C22.514,20.895,20.454,20.818,19.736,20.818 M18.737,27.291c-0.627,0-0.788-0.479-0.788-0.763c0-0.557,0.302-1.222,1.78-1.222
	c0.346,0,0.385,0.04,0.443,0.051C20.21,25.696,19.96,27.291,18.737,27.291 M25.063,23.347c0,1.012,2.409,0.511,2.409,3.028
	c0,2.69-2.607,2.575-3.061,2.575c-1.698,0-2.223-0.238-2.267-0.252l0.269-1.772c0-0.012,0.85,0.313,1.8,0.313
	c0.544,0,1.247-0.057,1.247-0.704c0-0.979-2.529-0.742-2.529-3.06c0-2.049,1.518-2.644,3.016-2.644c1.152,0,1.864,0.159,1.864,0.159
	l-0.256,1.787c0,0-1.095-0.096-1.377-0.096C25.454,22.686,25.063,22.841,25.063,23.347 M29.867,26.427
	c-0.046,0.275,0.031,0.652,0.736,0.652c0.178,0,0.383-0.063,0.524-0.063l-0.256,1.723c-0.205,0.057-0.782,0.262-1.518,0.269
	c-0.94,0.007-1.613-0.524-1.613-1.717c0-0.806,1.153-7.414,1.197-7.46h2.025l-0.205,1.179h1.005l-0.256,1.907h-1.071L29.867,26.427z
	 M37.67,25.588c0,0,0.271-1.313,0.271-1.844c0-1.333-0.667-2.959-2.889-2.959c-2.036,0-3.541,2.196-3.541,4.675
	c0,2.855,1.889,3.534,3.495,3.534c1.487,0,2.14-0.326,2.14-0.326l0.359-1.954c0,0-1.133,0.493-2.153,0.493
	c-2.17,0-1.791-1.619-1.791-1.619H37.67z M35.06,22.598c1.146,0,0.934,1.287,0.934,1.388h-2.247
	C33.747,23.852,33.958,22.598,35.06,22.598 M16.706,19.203l-1.6,9.644h-2.068l1.152-7.267l-2.6,7.267h-1.395l-0.18-7.267
	l-1.236,7.267H6.826l1.62-9.644h2.952l0.11,5.918l1.99-5.918H16.706z M42.309,17.936h-10.51c0.104-0.199,0.469-0.992,1.025-2.036
	h8.665C41.795,16.559,42.071,17.238,42.309,17.936 M40.394,13.901h-6.449c0.416-0.685,0.871-1.383,1.357-2.035h3.613
	C39.452,12.512,39.945,13.19,40.394,13.901 M37.032,38.101c-0.705-0.641-1.344-1.346-1.948-2.082h3.926
	c-0.596,0.731-1.236,1.41-1.927,2.035h-0.007v0.008C37.063,38.075,37.045,38.088,37.032,38.101 M40.413,34.06H33.67
	c-0.41-0.652-0.794-1.326-1.122-2.029h8.972C41.194,32.728,40.822,33.407,40.413,34.06 M42.82,20.939
	c-0.269,0.544-0.506,1.051-0.756,2.344c-1.401-0.493-1.511,2.228-2.099,5.578h-2.082l1.262-7.844h1.888l-0.178,1.133
	c0,0,0.665-1.236,1.575-1.236C42.692,20.913,42.82,20.939,42.82,20.939 M46.566,27.028c0.679,0,1.672-0.5,1.672-0.5l-0.358,2.211
	c0,0-1.088,0.275-1.774,0.275c-2.414,0-3.644-1.666-3.644-4.189c0-3.809,2.279-5.832,4.611-5.832c1.055,0,2.278,0.492,2.278,0.492
	l-0.326,2.146c0,0-0.833-0.584-1.862-0.584c-1.371,0-2.606,1.319-2.606,3.708C44.556,25.935,45.131,27.028,46.566,27.028
	 M66.329,27.728c-0.104,0.051-0.18,0.127-0.232,0.229c-0.057,0.097-0.082,0.198-0.082,0.308c0,0.102,0.025,0.205,0.082,0.301
	c0.053,0.103,0.128,0.174,0.225,0.23c0.104,0.051,0.198,0.084,0.309,0.084c0.102,0,0.205-0.033,0.307-0.084
	c0.096-0.057,0.174-0.128,0.225-0.23c0.057-0.096,0.084-0.199,0.084-0.301c0-0.109-0.027-0.211-0.084-0.308
	c-0.058-0.103-0.135-0.179-0.231-0.229c-0.095-0.053-0.198-0.078-0.3-0.078C66.526,27.649,66.424,27.675,66.329,27.728
	 M67.07,28.009c0.044,0.076,0.071,0.166,0.071,0.249c0,0.091-0.027,0.179-0.071,0.257c-0.044,0.082-0.108,0.146-0.185,0.191
	c-0.084,0.046-0.168,0.07-0.256,0.07c-0.09,0-0.174-0.024-0.258-0.07c-0.082-0.045-0.141-0.109-0.191-0.191
	c-0.045-0.084-0.064-0.166-0.064-0.257c0-0.083,0.02-0.173,0.071-0.249c0.044-0.083,0.108-0.146,0.19-0.193
	c0.084-0.045,0.168-0.063,0.252-0.063c0.088,0,0.166,0.019,0.248,0.063C66.961,27.862,67.026,27.919,67.07,28.009 M58.854,25.678
	c0,1.657,0.82,3.279,2.511,3.279c1.21,0,1.882-0.84,1.882-0.84l-0.09,0.717h1.967l1.549-9.625l-2.028,0.007l-0.437,2.71
	c0,0-0.762-1.058-1.951-1.058C60.398,20.868,58.854,23.109,58.854,25.678 M63.702,24.493c0,1.068-0.531,2.496-1.627,2.496
	c-0.723,0-1.068-0.608-1.068-1.568c0-1.569,0.705-2.605,1.595-2.605C63.331,22.821,63.702,23.321,63.702,24.493 M66.993,34.637
	c-0.013-0.02-0.031-0.032-0.051-0.04c0.051-0.006,0.102-0.025,0.135-0.057c0.033-0.039,0.051-0.077,0.051-0.128
	c0-0.033-0.014-0.063-0.031-0.097c-0.02-0.031-0.045-0.051-0.083-0.063c-0.033-0.013-0.091-0.021-0.167-0.021h-0.23v0.66h0.108
	V34.61h0.063c0.041,0,0.064,0.014,0.084,0.026c0.031,0.019,0.07,0.069,0.115,0.152l0.057,0.103h0.129l-0.076-0.127
	C67.051,34.7,67.026,34.661,66.993,34.637 M66.852,34.521h-0.128v-0.199h0.122c0.052,0,0.09,0.007,0.109,0.014
	c0.018,0.007,0.031,0.02,0.045,0.031c0.006,0.02,0.013,0.033,0.013,0.053c0,0.031-0.013,0.057-0.033,0.077
	C66.956,34.515,66.917,34.521,66.852,34.521 M72.163,0H1.908C0.853,0,0,0.851,0,1.908v44.191C0,47.147,0.853,48,1.908,48h70.255
	c1.055,0,1.907-0.853,1.907-1.901V1.908C74.07,0.851,73.217,0,72.163,0 M67.422,34.86c-0.058,0.096-0.135,0.172-0.231,0.224
	c-0.095,0.058-0.198,0.084-0.306,0.084c-0.104,0-0.205-0.026-0.303-0.084c-0.095-0.052-0.172-0.128-0.229-0.224
	c-0.053-0.096-0.084-0.199-0.084-0.308c0-0.11,0.031-0.204,0.084-0.308c0.057-0.096,0.134-0.172,0.229-0.223
	c0.104-0.06,0.199-0.084,0.303-0.084c0.107,0,0.205,0.031,0.306,0.084c0.097,0.051,0.174,0.127,0.226,0.223
	c0.057,0.104,0.084,0.205,0.084,0.308S67.473,34.765,67.422,34.86 M68.793,23.999c0.006,10.502-8.506,19.013-19.006,19.02
	c-4.906,0-9.387-1.863-12.756-4.918c-3.375,3.047-7.844,4.911-12.744,4.911c-10.495,0-19.011-8.516-19.011-19.013
	c0-10.45,8.452-18.94,18.89-19.01h0.121c4.9,0,9.369,1.862,12.744,4.911c3.369-3.049,7.844-4.911,12.749-4.911
	c10.501-0.007,19.013,8.502,19.013,19.004V23.999z M66.359,27.938v0.658h0.11v-0.275h0.057c0.038,0,0.07,0.008,0.09,0.021
	c0.025,0.024,0.064,0.07,0.108,0.159l0.058,0.104h0.135l-0.082-0.135c-0.039-0.058-0.07-0.104-0.098-0.128
	c-0.013-0.013-0.031-0.026-0.057-0.032c0.057-0.007,0.102-0.025,0.134-0.064c0.038-0.031,0.058-0.077,0.058-0.121
	c0-0.039-0.013-0.07-0.033-0.098c-0.024-0.03-0.051-0.057-0.082-0.063c-0.039-0.019-0.09-0.024-0.166-0.024H66.359z M66.737,28.079
	c0.014,0.012,0.02,0.025,0.02,0.052c0,0.024-0.012,0.05-0.032,0.07c-0.024,0.018-0.063,0.024-0.128,0.024h-0.127v-0.199h0.121
	c0.051,0,0.082,0.008,0.109,0.014C66.711,28.047,66.731,28.06,66.737,28.079 M52.547,20.818c-1.39,0-2.453,0.447-2.453,0.447
	l-0.295,1.743c0,0,0.877-0.359,2.211-0.359c0.748,0,1.305,0.083,1.305,0.698c0,0.371-0.07,0.511-0.07,0.511
	s-0.596-0.051-0.871-0.051c-1.746,0-3.584,0.743-3.584,2.997c0,1.781,1.202,2.184,1.951,2.184c1.428,0,2.043-0.928,2.076-0.928
	l-0.07,0.774h1.786l0.794-5.571C55.327,20.895,53.264,20.818,52.547,20.818 M51.547,27.291c-0.627,0-0.787-0.479-0.787-0.763
	c0-0.557,0.301-1.222,1.781-1.222c0.346,0,0.383,0.04,0.44,0.051C53.021,25.696,52.771,27.291,51.547,27.291 M59.059,23.283
	c-1.402-0.493-1.512,2.221-2.107,5.578h-2.072l1.26-7.844h1.889l-0.186,1.133c0,0,0.673-1.236,1.582-1.236
	c0.263,0,0.391,0.026,0.391,0.026C59.545,21.483,59.303,21.99,59.059,23.283"/>
</svg>
