<?xml version="1.0" encoding="utf-8"?>
<!-- Generator: Adobe Illustrator 16.0.0, SVG Export Plug-In . SVG Version: 6.00 Build 0)  -->
<!DOCTYPE svg PUBLIC "-//W3C//DTD SVG 1.1//EN" "http://www.w3.org/Graphics/SVG/1.1/DTD/svg11.dtd">
<svg version="1.1" id="Layer_1" xmlns="http://www.w3.org/2000/svg" xmlns:xlink="http://www.w3.org/1999/xlink" x="0px" y="0px"
	 width="74.068px" height="48px" viewBox="0 0 74.068 48" enable-background="new 0 0 74.068 48" xml:space="preserve">
<path fill="#CCCCCC" d="M43.767,19.607c0.295,0.192,0.442,0.499,0.449,0.908c0,0.628-0.231,1.109-0.692,1.448
	c-0.467,0.333-1.107,0.507-1.94,0.507h-0.377c-0.334,0-0.552-0.265-0.474-0.584l0.467-1.992c0.064-0.319,0.403-0.588,0.729-0.588
	h0.5C43.018,19.306,43.46,19.407,43.767,19.607 M22.956,24.287c-0.391,0.058-0.736,0.135-1.012,0.231l-0.647,0.442
	c-0.154,0.191-0.225,0.436-0.225,0.75l0.295,0.576c0.198,0.108,0.493,0.166,0.87,0.166c0.251,0,0.526-0.058,0.809-0.173l0.602-0.313
	l0.236-0.32c0.097-0.366,0.288-1.19,0.314-1.294l-0.109-0.185C24,24.166,23.309,24.25,22.956,24.287 M50.837,24.301
	c-0.397,0.05-0.738,0.128-1.006,0.224c-0.281,0.108-0.513,0.262-0.659,0.441c-0.148,0.192-0.219,0.436-0.219,0.75l0.296,0.576
	c0.197,0.115,0.485,0.166,0.877,0.166c0.243,0,0.513-0.057,0.8-0.172l0.596-0.314l0.25-0.313c0.09-0.379,0.288-1.198,0.308-1.3
	l-0.109-0.185C51.88,24.173,51.189,24.255,50.837,24.301 M14.561,19.273h-0.506c-0.326,0-0.666,0.264-0.73,0.583l-0.46,1.992
	c-0.07,0.327,0.135,0.589,0.468,0.589h0.377c0.833,0,1.474-0.166,1.94-0.512c0.46-0.339,0.698-0.819,0.686-1.441
	c0.007-0.409-0.142-0.718-0.443-0.916C15.592,19.376,15.149,19.273,14.561,19.273 M74.068,1.908v44.19
	c0,1.049-0.852,1.902-1.908,1.902H1.907C0.852,48,0,47.147,0,46.098V1.908C0,0.85,0.852,0,1.907,0H72.16
	C73.217,0,74.068,0.85,74.068,1.908 M19.255,20.24c0-0.551-0.091-1.011-0.296-1.382c-0.186-0.372-0.48-0.674-0.837-0.903
	c-0.38-0.231-0.826-0.397-1.341-0.494c-0.517-0.09-1.112-0.134-1.811-0.14H11.77c-0.333,0.006-0.661,0.262-0.738,0.588l-2.156,9.395
	c-0.084,0.313,0.127,0.582,0.46,0.582h1.538c0.333,0,0.658-0.256,0.735-0.582l0.524-2.28c0.07-0.319,0.398-0.581,0.737-0.581h0.436
	c1.883-0.007,3.336-0.392,4.38-1.159C18.736,22.514,19.255,21.502,19.255,20.24 M27.232,21.721c0-0.686-0.293-1.192-0.877-1.519
	c-0.575-0.326-1.492-0.493-2.741-0.493c-0.614,0-1.235,0.051-1.856,0.147c-0.461,0.071-0.505,0.084-0.787,0.148
	c-0.582,0.121-0.672,0.71-0.672,0.71l-0.192,0.769c-0.103,0.493,0.179,0.473,0.3,0.436c0.251-0.077,0.397-0.155,0.916-0.276
	c0.499-0.109,1.025-0.191,1.441-0.191c0.615,0,1.082,0.07,1.395,0.198c0.309,0.135,0.464,0.364,0.464,0.697l-0.027,0.218
	l-0.225,0.134c-0.87,0.057-1.498,0.134-2.261,0.244c-0.749,0.109-1.4,0.287-1.945,0.538c-0.591,0.256-1.019,0.601-1.326,1.044
	c-0.288,0.441-0.435,0.972-0.435,1.601c0,0.594,0.21,1.082,0.619,1.461c0.417,0.369,0.968,0.551,1.622,0.551
	c0.416,0,0.736-0.041,0.96-0.092l0.743-0.254l0.634-0.354l0.576-0.379l0.006,0.007l-0.057,0.251v0.007
	c-0.064,0.3,0.115,0.55,0.41,0.575l0.006,0.007h1.428l0.02-0.007c0.307-0.038,0.596-0.282,0.659-0.575l1.119-4.843l0.06-0.397
	L27.232,21.721z M30.634,31.043l6.115-10.342c0,0,0.589-0.885,0.044-0.878c-0.364,0.006-1.845,0-1.845,0
	c-0.326,0-0.756,0.269-0.967,0.59c0,0-2.195,3.772-2.407,4.149l-0.257-0.007l-0.684-4.118c-0.077-0.326-0.416-0.601-0.832-0.601
	h-1.377c-0.333,0-0.538,0.262-0.461,0.59c0,0,1.043,5.943,1.254,7.338c0.097,0.774-0.014,0.909-0.014,0.909l-1.356,2.369
	c-0.205,0.326-0.095,0.588,0.237,0.588l1.589-0.004C30,31.627,30.434,31.37,30.634,31.043 M47.122,20.273
	c0-0.551-0.096-1.011-0.288-1.377c-0.192-0.379-0.48-0.679-0.845-0.91c-0.372-0.229-0.819-0.397-1.34-0.493
	c-0.504-0.089-1.113-0.135-1.804-0.14l-3.209,0.005c-0.332,0.007-0.654,0.264-0.731,0.584l-2.156,9.4
	c-0.084,0.313,0.135,0.582,0.461,0.582l1.537-0.006c0.326,0.006,0.658-0.256,0.735-0.576l0.519-2.287
	c0.076-0.314,0.409-0.583,0.742-0.577h0.437c1.877,0,3.336-0.39,4.387-1.152C46.604,22.547,47.122,21.534,47.122,20.273
	 M55.12,21.727c0-0.685-0.296-1.192-0.877-1.518c-0.591-0.326-1.499-0.493-2.748-0.493c-0.614,0-1.235,0.05-1.856,0.147
	c-0.454,0.07-0.505,0.084-0.787,0.148c-0.584,0.121-0.672,0.71-0.672,0.71l-0.188,0.768c-0.107,0.494,0.175,0.474,0.303,0.436
	c0.249-0.077,0.39-0.154,0.908-0.275c0.492-0.11,1.025-0.194,1.441-0.194c0.609,0,1.082,0.066,1.389,0.201
	c0.315,0.134,0.468,0.363,0.468,0.696l-0.025,0.218l-0.218,0.134c-0.883,0.058-1.511,0.135-2.268,0.245
	c-0.741,0.108-1.4,0.287-1.952,0.538c-0.576,0.256-1.018,0.601-1.319,1.042c-0.288,0.443-0.437,0.974-0.437,1.602
	c0,0.596,0.212,1.082,0.628,1.455c0.416,0.369,0.962,0.557,1.615,0.557c0.414-0.006,0.736-0.033,0.965-0.09l0.738-0.25l0.633-0.352
	l0.577-0.386l0.013,0.013l-0.053,0.245l-0.011,0.005h0.006c-0.07,0.301,0.109,0.551,0.41,0.577v0.007h1.428l0.019-0.007
	c0.308-0.038,0.597-0.282,0.66-0.577l1.119-4.841l0.059-0.397L55.12,21.727z M59.993,18.019c0.071-0.321-0.128-0.584-0.462-0.584
	h-1.375c-0.281,0-0.532,0.205-0.661,0.468l-0.076,0.116l-0.064,0.307l-1.928,8.733l-0.058,0.27v0.006
	c-0.063,0.289,0.116,0.508,0.386,0.545l0.024,0.039h1.428c0.281,0,0.545-0.218,0.66-0.48l0.077-0.109l2.057-9.31H59.993z
	 M62.728,16.796h-0.519v-0.423H61.96v0.423h-0.175v0.218h0.175v0.793l0.113,0.391l0.354,0.128l0.146-0.014l0.154-0.031v-0.225
	h-0.013l-0.097,0.033l-0.128,0.013l-0.161-0.019l-0.082-0.084l-0.032-0.121l-0.006-0.185v-0.679h0.519V16.796z M65.212,17.327
	l-0.121-0.423l-0.359-0.147l-0.269,0.057l-0.276,0.187l-0.159-0.18l-0.264-0.064l-0.249,0.057l-0.236,0.154v-0.165h-0.244v1.491
	h0.244V17.18l0.21-0.128l0.205-0.051l0.174,0.031l0.083,0.084l0.032,0.141l0.013,0.185v0.852h0.249v-1.037l-0.005-0.071l0.21-0.134
	l0.211-0.058l0.167,0.031l0.092,0.084l0.03,0.148l0.014,0.178v0.859h0.249V17.327z"/>
</svg>
