<?xml version="1.0" encoding="utf-8"?>
<!-- Generator: Adobe Illustrator 16.0.0, SVG Export Plug-In . SVG Version: 6.00 Build 0)  -->
<!DOCTYPE svg PUBLIC "-//W3C//DTD SVG 1.1//EN" "http://www.w3.org/Graphics/SVG/1.1/DTD/svg11.dtd">
<svg version="1.1" id="Layer_1" xmlns="http://www.w3.org/2000/svg" xmlns:xlink="http://www.w3.org/1999/xlink" x="0px" y="0px"
	 width="68.583px" height="48px" viewBox="0 0 68.583 48" enable-background="new 0 0 68.583 48" xml:space="preserve">
<path fill="#CCCCCC" d="M64.658,0H3.925C1.756,0,0,1.756,0,3.925v40.15C0,46.243,1.756,48,3.925,48h60.733
	c2.169,0,3.925-1.758,3.925-3.926V3.925C68.583,1.756,66.827,0,64.658,0 M64.551,43.969L4.031,44.075L3.925,4.031l60.626-0.106
	V43.969z"/>
<path fill="#CCCCCC" d="M9.754,18.451l2.026,14.589h4.999l9.321-18.059h-5.253l-3.968,8.368c-0.555,1.201-1.031,2.274-1.465,3.264
	c-0.063-1.032-0.143-2.042-0.249-3.058l-0.804-8.574H6.364l8.305,6.57L9.754,18.451z"/>
<polygon fill="#CCCCCC" points="29.692,33.04 33.104,14.98 28.412,14.98 24.984,33.04 "/>
<path fill="#CCCCCC" d="M32.443,31.966c1.095,0.825,3.036,1.322,5.185,1.322c4.442,0,7.442-2.502,7.442-6.242
	c0-2.042-1.201-3.676-3.661-4.956c-1.365-0.768-2.189-1.281-2.189-1.942c0-0.603,0.64-1.264,2.147-1.264
	c1.472,0,2.603,0.582,2.813,0.704l0.535,0.29l1.508-4.031l-0.393-0.206c-1.137-0.618-2.517-0.931-4.279-0.931
	c-4.252,0-7.23,2.502-7.23,6.057c0,2.581,2.025,4.01,3.824,4.978c1.672,0.867,2.005,1.364,2.005,1.92c0,1.095-1.179,1.47-2.169,1.47
	c-1.301,0-2.666-0.354-3.739-0.994l-0.54-0.328l-1.592,3.926L32.443,31.966z"/>
<path fill="#CCCCCC" d="M49.592,33.041l2.025-4.423h4.068l0.355,4.423h4.897l-2.132-18.06h-5.453l-8.782,18.06H49.592z
	 M54.512,21.883c0.185-0.396,0.369-0.867,0.555-1.343c0.043,0.433,0.085,0.825,0.105,1.174l0.266,3.079h-2.291L54.512,21.883z"/>
</svg>
