<?xml version="1.0" encoding="utf-8"?>
<!-- Generator: Adobe Illustrator 16.0.0, SVG Export Plug-In . SVG Version: 6.00 Build 0)  -->
<!DOCTYPE svg PUBLIC "-//W3C//DTD SVG 1.1//EN" "http://www.w3.org/Graphics/SVG/1.1/DTD/svg11.dtd">
<svg version="1.1" id="Layer_1" xmlns="http://www.w3.org/2000/svg" xmlns:xlink="http://www.w3.org/1999/xlink" x="0px" y="0px"
	 width="32.796px" height="32.796px" viewBox="0 0 32.796 32.796" enable-background="new 0 0 32.796 32.796" xml:space="preserve">
<path fill="#FFFFFF" d="M31.088,28.194l-2.954,2.934c-1.085,1.086-2.553,1.668-4.079,1.668c-1.548,0-3.015-0.603-4.1-1.708
	l-4.14-4.159c-1.085-1.086-1.668-2.553-1.668-4.08c0-1.587,0.643-3.095,1.768-4.199l-1.768-1.769
	c-1.105,1.125-2.593,1.769-4.18,1.769c-1.527,0-3.014-0.604-4.1-1.688l-4.18-4.18C0.583,11.676,0,10.229,0,8.682
	c0-1.527,0.623-3.015,1.708-4.08l2.954-2.934C5.747,0.583,7.214,0,8.742,0c1.547,0,3.014,0.603,4.099,1.708l4.14,4.16
	c1.084,1.085,1.668,2.552,1.668,4.079c0,1.588-0.644,3.095-1.769,4.2l1.769,1.769c1.104-1.126,2.592-1.769,4.18-1.769
	c1.527,0,3.014,0.603,4.1,1.688l4.18,4.181c1.105,1.105,1.688,2.552,1.688,4.1C32.796,25.643,32.173,27.13,31.088,28.194z
	 M14.248,8.581l-4.14-4.16C9.746,4.06,9.244,3.858,8.742,3.858c-0.502,0-1.005,0.201-1.367,0.543L4.421,7.335
	C4.059,7.696,3.858,8.179,3.858,8.682c0,0.522,0.201,1.005,0.563,1.366l4.18,4.18c0.362,0.362,0.864,0.543,1.367,0.543
	c0.583,0,1.045-0.201,1.447-0.623c-0.663-0.663-1.447-1.226-1.447-2.251c0-1.064,0.864-1.929,1.929-1.929
	c1.025,0,1.587,0.783,2.251,1.446c0.422-0.401,0.663-0.864,0.663-1.467C14.811,9.445,14.609,8.942,14.248,8.581z M28.375,22.749
	l-4.18-4.181c-0.362-0.361-0.864-0.563-1.366-0.563c-0.583,0-1.045,0.221-1.447,0.644c0.663,0.663,1.447,1.226,1.447,2.25
	c0,1.065-0.865,1.93-1.93,1.93c-1.025,0-1.588-0.784-2.25-1.447c-0.423,0.402-0.664,0.864-0.664,1.467
	c0,0.503,0.201,1.005,0.563,1.367l4.141,4.159c0.361,0.362,0.863,0.543,1.366,0.543c0.502,0,1.005-0.181,1.366-0.522l2.954-2.934
	c0.362-0.362,0.563-0.845,0.563-1.347C28.938,23.593,28.737,23.11,28.375,22.749z"/>
</svg>
