<?xml version="1.0" encoding="utf-8"?>
<!-- Generator: Adobe Illustrator 16.0.0, SVG Export Plug-In . SVG Version: 6.00 Build 0)  -->
<!DOCTYPE svg PUBLIC "-//W3C//DTD SVG 1.1//EN" "http://www.w3.org/Graphics/SVG/1.1/DTD/svg11.dtd">
<svg version="1.1" id="Layer_1" xmlns="http://www.w3.org/2000/svg" xmlns:xlink="http://www.w3.org/1999/xlink" x="0px" y="0px"
	 width="43.045px" height="32.992px" viewBox="0 0 43.045 32.992" enable-background="new 0 0 43.045 32.992" xml:space="preserve">
<path fill="#F4C42E" d="M42.268,8.331L22.161,28.438l-3.777,3.777c-0.5,0.499-1.194,0.777-1.888,0.777s-1.389-0.278-1.889-0.777
	l-3.777-3.777L0.777,18.385C0.278,17.885,0,17.19,0,16.496s0.278-1.389,0.777-1.889l3.777-3.776c0.5-0.5,1.194-0.777,1.889-0.777
	s1.389,0.277,1.888,0.777l8.165,8.192L34.713,0.777C35.213,0.278,35.908,0,36.602,0s1.389,0.278,1.889,0.777l3.777,3.777
	c0.499,0.5,0.777,1.194,0.777,1.889S42.767,7.831,42.268,8.331z"/>
</svg>
