<svg xmlns="http://www.w3.org/2000/svg" viewBox="0 0 370.85 253.19"><defs><style>.cls-1{fill:#d40505;}.cls-2{fill:#fefdfd;}.cls-3{fill:#f8dbdb;}.cls-4{fill:#fae7e7;}.cls-5{fill:#fdf6f6;}.cls-6{fill:#fefefe;}.cls-7{fill:#d40909;}.cls-8{fill:#d50d0d;}.cls-9{fill:#d30404;}.cls-10{fill:#d40404;}.cls-11{fill:#d40303;}.cls-12{fill:#d30303;}.cls-13{fill:#d40606;}.cls-14{fill:#fefcfc;}.cls-15{fill:#fefbfb;}.cls-16{fill:#f8dcdc;}</style></defs><title>coming soon</title><g id="Home_-_Default_After_Login_Budz_Feed_Indicator_" data-name="Home - Default (After Login Budz Feed Indicator)"><path class="cls-1" d="M0,168.44l.86-1-.31,0c.21-1.7.34-3.42.64-5.11a93.29,93.29,0,0,1,4.9-17.51,29.37,29.37,0,0,1,1.73-3.15c-.42-.92.33-2,.86-3.21a135.23,135.23,0,0,1,11.21-20.23c1.89-2.8,3.82-5.57,5.85-8.28s4.26-5.54,6.53-8.2c1.53-1.8,3.54-3.22,4.87-5.14,2.85-4.12,6.67-7.3,10.08-10.87.9-.94,1.86-1.82,2.81-2.71,2-1.83,3.73-4.06,6.64-4.56l.1-.46-.33.23L55.56,78c1.2-1,2.22-2,3.26-2.85A272.44,272.44,0,0,1,81.64,57.62c.47-.32,1.16-.38,1.57-.75.78-.69,2.36-.38,2.46-1.95,0-.19.45-.37.7-.53a292.21,292.21,0,0,1,32.21-18.64c1.83-.89,3.54-2,5.41-2.8,2.05-.88,4-1.91,6-2.85S134,28.31,136,27.44s4.09-1.78,6.14-2.65l6-2.5a8.08,8.08,0,0,1,.91-.22l-.83,1.66,1.23.48.93-1.66c1.6.64,3,0,4.57-1l-1.75-1.14c2.65-1,5.17-1.92,7.7-2.81A312.59,312.59,0,0,1,216.62,3.39c7-1.08,14-1.75,21-2.53,1.14-.13,2.34.22,3.5.16s2-.48,3.08-.55a201.64,201.64,0,0,1,31.28.3c18.82,1.61,37,5.54,54,14.14,11.63,5.89,21.72,13.67,29.35,24.38A63.68,63.68,0,0,1,370.52,70.6c1.36,14.08-1.51,27.47-6.74,40.44-5.77,14.27-14.06,27-23.82,38.85-16.47,20-36.08,36.34-57.7,50.39a338,338,0,0,1-91.5,41.45,299.46,299.46,0,0,1-46.69,9.54c-5.87.7-11.78,1-17.66,1.57a4.85,4.85,0,0,0-1.1.35H100.68a37.81,37.81,0,0,0-4-.65,175.34,175.34,0,0,1-29.87-4.77c-1.52-.38-3.06-.64-3.7-1.74a6.67,6.67,0,0,1-2,.15c-1.74-.49-3.45-1.08-5.16-1.67-11.42-3.94-22.08-9.3-31.41-17.07C12,216.91,3.8,203.74,1,187.4c-.28-1.62-.64-3.22-1-4.84Zm7.27-14.88c-.09-.11-.19-.21,0-.06-.21,0-.06,0,.08,0l0,.62,2.3-.24-1.23,4.25,0,.56c-1,5.09-1.95,10.18-1.86,15.41a2.72,2.72,0,0,1-.3.82l-1.05.67.1.33,1.3.14c.16,2.65.13,5.32.49,7.93a59.54,59.54,0,0,0,19.46,36.55,82,82,0,0,0,17.17,11.89A7.84,7.84,0,0,1,45,233.64l-.27.13.16.2.35-.36a10.5,10.5,0,0,1,1.69.45c1.53.66,3,1.53,4.56,2.06,5.89,2,11.81,3.9,17.72,5.84l-.29.9.85.43.56-.95a13.11,13.11,0,0,1,1.42.19,172.41,172.41,0,0,0,30.08,4.07,239.29,239.29,0,0,0,38.13-1.3,289.8,289.8,0,0,0,40.5-7.48,338.71,338.71,0,0,0,82.83-33.52c17.84-10.14,37.21-23.27,55.18-40.58,4.86-4.68,9.52-9.6,14-14.67a145.22,145.22,0,0,0,23.46-35.49c5.54-12.09,9-24.68,8.49-38.12a58.6,58.6,0,0,0-10.71-32.3c-6.73-9.6-15.66-16.65-25.94-22.08-14.55-7.68-30.23-11.5-46.44-13.41A199.13,199.13,0,0,0,250,6.52l-8.31.34.24-.56L241.61,6l-1.12,1c-1.12.11-2.24.19-3.36.32L220,9.38c-.29,0-.59,0-.93,0l-.59-1.33L217,8,216.9,6.7l-1.49.83.89.46.46,1.73c-.31.09-.59.18-.88.25s-.59.14-.88.19a321.16,321.16,0,0,0-61.17,17A337.46,337.46,0,0,0,96.3,55.66c-2.83,1.76-5.47,3.85-8.73,4.87-.56.17-.93.91-1.39,1.39l-.72.38L84.3,63h0l-.29.33-.65.78Q74.84,70.5,66.3,76.87c-.42.31-.78.7-1.18,1-1.18,1-2.37,2-3.55,3l-.41-.51c.08-.92-.55-1-1.18-1.15-.51.29-.94.59-1.41.8s-1,.34-1.54.54l.15,1.62,2,.17C58,83.78,57.08,85,56,86.08c-3.87,3.87-7.79,7.7-11.71,11.53-.59.58-1.27,1.07-1.91,1.61l-.38.41a14.4,14.4,0,0,1-1.14,1.7A170.73,170.73,0,0,0,21.67,127a109.93,109.93,0,0,0-11.55,25.41ZM5.8,150c-.07-.07-.13-.14,0,0l0,0,.16,1.92,4-1.42-.51-1.13-1.36.23c-.41-1,1.25-2-.2-2.84L6,147l1.51,1.84L7.06,151ZM53.26,82.13l-4.07,2.46C51.37,85.63,52.38,85,53.26,82.13Zm-48,93.71c-.91.07-.91.07-.43,1Z"/><path class="cls-2" d="M84,63.36l.29-.33.14.5.47-.37L84.3,63l1.16-.73c.67.69.66.09.72-.38.46-.48.83-1.22,1.39-1.39,3.26-1,5.9-3.11,8.73-4.87a337.46,337.46,0,0,1,57.53-28.54,321.16,321.16,0,0,1,61.17-17c.29-.05.59-.12.88-.19s.57-.16.88-.25L216.3,8,217,8l1.45.09.59,1.33c.34,0,.64,0,.93,0l17.12-2.09c1.12-.13,2.24-.21,3.36-.32l1.2-.11L250,6.52a199.13,199.13,0,0,1,31.27,1.13c16.21,1.91,31.89,5.73,46.44,13.41,10.28,5.43,19.21,12.48,25.94,22.08a58.6,58.6,0,0,1,10.71,32.3c.47,13.44-2.95,26-8.49,38.12a145.22,145.22,0,0,1-23.46,35.49c-4.46,5.07-9.12,10-14,14.67-18,17.31-37.34,30.44-55.18,40.58a338.71,338.71,0,0,1-82.83,33.52,289.8,289.8,0,0,1-40.5,7.48,239.29,239.29,0,0,1-38.13,1.3,172.41,172.41,0,0,1-30.08-4.07,13.11,13.11,0,0,0-1.42-.19L69.17,242c-5.91-1.94-11.83-3.84-17.72-5.84-1.57-.53-3-1.4-4.56-2.06a10.5,10.5,0,0,0-1.69-.45l-.24,0a7.84,7.84,0,0,0-1.34-1.19,82,82,0,0,1-17.17-11.89A59.54,59.54,0,0,1,7,184c-.36-2.61-.33-5.28-.49-7.93l-.35-1.14a2.72,2.72,0,0,0,.3-.82c-.09-5.23.9-10.32,1.86-15.41l0-.56,1.23-4.25.55-1.45A109.93,109.93,0,0,1,21.67,127a170.73,170.73,0,0,1,19.19-25.71A14.4,14.4,0,0,0,42,99.63l.38-.41c.64-.54,1.32-1,1.91-1.61C48.21,93.78,52.13,90,56,86.08c1.08-1.08,2-2.3,3.23-3.7l-2-.17L57,80.59c.56-.2,1.07-.33,1.54-.54s.9-.51,1.41-.8c.63.11,1.26.23,1.18,1.15-1,.33-.73.79-.09,1.49l.5-1c1.18-1,2.37-2,3.55-3,.4-.34.76-.73,1.18-1q8.52-6.37,17.07-12.73ZM20.21,137.71l-.29.67A9,9,0,0,0,17,142.76c-.31.84-.76,1.63-1,2.49a4.29,4.29,0,0,0,.08,1.46l-.13.34c-.37.39-.9.71-1.09,1.17-.48,1.17-1.14,2.33-.84,3.69-1.5,1.49-1.39,3.59-2,5.41A5,5,0,0,0,12,159c-.39.09-1,0-.51.72A54.78,54.78,0,0,0,9.73,173.5a1.24,1.24,0,0,1,0,.33,14,14,0,0,0-.12,1.44A56.19,56.19,0,0,0,25.8,215.45c8.37,8.74,18.59,14.6,29.78,18.93a131.79,131.79,0,0,0,27.54,7.17c2.61.4,5.25.54,7.88.8l.14,0c.14.1.28.27.43.29,4.13.3,8.26.6,12.39.87.26,0,.54-.3.81-.45l.25-.28.39-.07h.3a5.09,5.09,0,0,0,3.32,1c6.45-.22,12.9-.29,19.35-.63a239.12,239.12,0,0,0,34.22-4.54,324.91,324.91,0,0,0,62.24-19.09c29.31-12.26,56.55-28,80.9-48.54,13.47-11.38,25.64-24,35.71-38.52,7.64-11,13.78-22.76,17.26-35.79a67.61,67.61,0,0,0,1.89-27.43,56.42,56.42,0,0,0-18.24-34.06c-9-8.29-19.55-13.79-31-17.72-15.48-5.32-31.51-7.53-47.8-7.81-8.1-.14-16.22.28-24.32.73-4.91.28-9.79,1.09-14.69,1.66h-.4c-.76.15-1.52.32-2.29.45-5.74,1-11.52,1.78-17.22,3A311.46,311.46,0,0,0,146.4,33.66C138.1,37.18,130,41.17,121.8,45a6.6,6.6,0,0,0-1,.69l-1.23.14,0,1h0l-.17,0c-.63-.61-1.08.07-1.51.3-3.61,1.94-7.22,3.87-10.77,5.92A287.42,287.42,0,0,0,80.7,70.1a16.88,16.88,0,0,0-2.06,2.18c-.86-.13-1.44.68-2.24,1.36C74.83,75,73,76,71.36,77.19a5.88,5.88,0,0,0-.89,1.07l-.57.36a3.09,3.09,0,0,0-.77.39q-9.42,8.44-18.8,16.93a14.73,14.73,0,0,0-1.73,2.28c-.89.75-1.77,1.43-2.58,2.19s-1.48,1.55-2.2,2.34a170,170,0,0,0-15.34,19.42c-1.63,2.44-3.1,5-4.64,7.5l-.23.37.81.36c-.14.93-.92.23-1.41.56l-1.36,2.53L21,134.75l-.73,1.39-.44.81Z"/><path class="cls-3" d="M5.8,150l1.26,1,.42-2.14L6,147l1.92-.25c1.45.86-.21,1.82.2,2.84l1.36-.23.51,1.13-4,1.42L5.78,150Z"/><path class="cls-4" d="M53.26,82.13c-.88,2.9-1.89,3.5-4.07,2.46Z"/><path class="cls-5" d="M10.12,152.45l-.55,1.45-2.3.24,0-.62,0,0Z"/><path class="cls-5" d="M69.17,242l1.12.38-.56.95-.85-.43Z"/><path class="cls-5" d="M217,8l-.74,0-.89-.46,1.49-.83Z"/><path class="cls-5" d="M61.57,80.91l-.5,1c-.64-.7-.88-1.16.09-1.49Z"/><path class="cls-5" d="M241.69,6.86l-1.2.11,1.12-1,.32.28Z"/><path class="cls-5" d="M6.15,174.94l.35,1.14-1.3-.14-.1-.33Z"/><path class="cls-5" d="M5.26,175.84l-.43,1C4.35,175.91,4.35,175.91,5.26,175.84Z"/><path class="cls-5" d="M86.18,61.92c-.06.47-.05,1.07-.72.38Z"/><path class="cls-5" d="M84,63.36l-.65.78Z"/><path class="cls-5" d="M8.34,158.15l0,.56Z"/><path class="cls-5" d="M84.3,63l.62.13-.47.37-.14-.5Z"/><path class="cls-5" d="M45,233.64l.24,0-.35.36-.16-.2Z"/><path class="cls-5" d="M7.3,153.52c-.14,0-.29-.06-.08,0-.14-.15,0-.05,0,.06Z"/><path class="cls-6" d="M56.44,78.2l.33-.23-.1.46Z"/><path class="cls-3" d="M5.78,150l0,0c-.16-.18-.1-.11,0,0Z"/><path class="cls-5" d="M42.38,99.22l-.38.41Z"/><path class="cls-7" d="M9.73,173.5a54.78,54.78,0,0,1,1.78-13.78c.2-.22,1,0,.51-.72a5,5,0,0,1,0-1.68c.62-1.82.51-3.92,2-5.41-.3-1.36.36-2.52.84-3.69.19-.46.72-.78,1.09-1.17.16.17.36.49.49.47,1.1-.19,1.6-1.13,1.35-2.55-.69.5-.42,1.94-1.71,1.74a4.29,4.29,0,0,1-.08-1.46c.25-.86.7-1.65,1-2.49a9,9,0,0,1,2.93-4.38c.6.11,1,.05.72-.74l-.34-.34a.18.18,0,0,1-.07-.24l0-.92.73-1.39,1.86-.29-1.19-1L23,131c.49-.33,1.27.37,1.41-.56a.47.47,0,0,0,.19-.15l2.27.81-2.77,2.5.74.16L21.19,141l-1.5.64.12.37.83,0-.94,1.86-.39.22c.58,1.23-.3,1.83-1,2.4.41,1.27-.46,2.2-.73,3.24s-.69,2.05-1,3.07S15.86,155,15.51,156l-1,3.22c.6,1.12-.34,3.49-2.4,4.76l1.52,1.35c-.53,2.27-.15,4.89-1.11,7.34a8.86,8.86,0,0,1,.38,1.9,54.1,54.1,0,0,0,12.68,35.7,67.39,67.39,0,0,0,13.09,11.82l-.41,1.21,1.14-.73c.55.34,1.06.65,1.56,1A83.53,83.53,0,0,0,55.54,231a124.89,124.89,0,0,0,33.23,8.08c7.66.77,15.36,1.37,23,1.55,5.82.14,11.67-.41,17.49-.81a261.57,261.57,0,0,0,42.29-6.56,333.38,333.38,0,0,0,90.09-35.59c21.77-12.48,41.83-27.25,59.29-45.39,10.76-11.18,20.2-23.35,27.23-37.25,5.64-11.14,9.46-22.81,9.73-35.43A53.69,53.69,0,0,0,343.71,41.1c-7.47-8.26-16.7-14-26.87-18.25-12.62-5.31-25.87-8-39.43-9.33a211.75,211.75,0,0,0-42.57.38A261.88,261.88,0,0,0,196,20.72c-7.86,2.05-15.71,4.18-23.44,6.68a330.76,330.76,0,0,0-48.2,19.9,10,10,0,0,1-1.74.51c-3.61,2.36-7.53,4.27-11.28,6.47s-7.68,4.52-11.51,6.81c-3.62,2.17-7.23,4.37-10.88,6.57l-.29-.59-.33,0-.47,1.78q-6.12,4.53-12.21,9c-1.43,1.05-2.92,2-4.24,3A16.56,16.56,0,0,1,70,82.32c-2.59,2.24-5.28,4.36-7.77,6.7s-5.41,4-7.39,6.78c-.78,1.11-2.05,1.89-2.89,3s-2.13,1.68-3,2.79c-.27.36-1.31,1.52-2.41.71,0,0-.16.13-.34.29l1,1.13-2.45,2.73a162.23,162.23,0,0,0-15.1,19.63c-1.69,2.6-1.64,2.63-5.07,3.62h-.74c1.54-2.5,3-5.06,4.64-7.5a170,170,0,0,1,15.34-19.42c.72-.79,1.42-1.61,2.2-2.34S47.71,99,48.6,98.22a14.73,14.73,0,0,1,1.73-2.28q9.36-8.5,18.8-16.93a3.09,3.09,0,0,1,.77-.39l.47.61.23-.1-.13-.87a5.88,5.88,0,0,1,.89-1.07C73,76,74.83,75,76.4,73.64c.8-.68,1.38-1.49,2.24-1.36A16.88,16.88,0,0,1,80.7,70.1,287.42,287.42,0,0,1,107.08,53c3.55-2,7.16-4,10.77-5.92.43-.23.88-.91,1.51-.3l-.1.22.27-.2h0l1.28-1.11a6.6,6.6,0,0,1,1-.69c8.19-3.8,16.3-7.79,24.6-11.31a311.46,311.46,0,0,1,58.23-18.24c5.7-1.19,11.48-2,17.22-3,.77-.13,1.53-.3,2.29-.45l-.21.63.34.12.27-.76c4.9-.57,9.78-1.38,14.69-1.66,8.1-.45,16.22-.87,24.32-.73,16.29.28,32.32,2.49,47.8,7.81,11.46,3.93,22,9.43,31,17.72A56.42,56.42,0,0,1,360.6,69.19a67.61,67.61,0,0,1-1.89,27.43c-3.48,13-9.62,24.78-17.26,35.79-10.07,14.53-22.24,27.14-35.71,38.52-24.35,20.54-51.59,36.28-80.9,48.54a324.91,324.91,0,0,1-62.24,19.09,239.12,239.12,0,0,1-34.22,4.54c-6.45.34-12.9.41-19.35.63a5.09,5.09,0,0,1-3.32-1l-.08-.29-.22.28-.39.07-.37,0,.12.25c-.27.15-.55.46-.81.45-4.13-.27-8.26-.57-12.39-.87-.15,0-.29-.19-.43-.29l0-.22h-.12a2.33,2.33,0,0,0-.07.25c-2.63-.26-5.27-.4-7.88-.8a131.79,131.79,0,0,1-27.54-7.17c-11.19-4.33-21.41-10.19-29.78-18.93A56.19,56.19,0,0,1,9.65,175.27a14,14,0,0,1,.12-1.44l1.5.08v-.51Z"/><path class="cls-8" d="M16.06,146.71c1.29.2,1-1.24,1.71-1.74.25,1.42-.25,2.36-1.35,2.55-.13,0-.33-.3-.49-.47Z"/><path class="cls-8" d="M21.65,133.49l1.19,1-1.86.29Z"/><path class="cls-5" d="M120.8,45.66l-1.28,1.11,0-1Z"/><path class="cls-5" d="M9.73,173.5l1.53-.1v.51l-1.5-.08A1.24,1.24,0,0,0,9.73,173.5Z"/><path class="cls-8" d="M24.61,130.25a.47.47,0,0,1-.19.15l-.81-.36.23-.37h.74Z"/><path class="cls-5" d="M70.47,78.26l.13.87-.23.1-.47-.61Z"/><path class="cls-5" d="M12,159c.47.7-.31.5-.51.72C11,159,11.63,159.09,12,159Z"/><path class="cls-5" d="M20.23,137.06a.18.18,0,0,0,.07.24.59.59,0,0,0,0,.35l-.08.06c-.14-.25-.27-.51-.4-.76Z"/><path class="cls-5" d="M20.64,137.64c.32.79-.12.85-.72.74l.29-.67.08-.06Z"/><path class="cls-5" d="M224.54,12l-.27.76-.34-.12.21-.63Z"/><path class="cls-8" d="M20.23,137.06l-.42-.11.44-.81Z"/><path class="cls-5" d="M119.53,46.77l-.27.2.1-.22Z"/><path class="cls-5" d="M91,242.35a2.33,2.33,0,0,1,.07-.25h.12l0,.22Z"/><path class="cls-5" d="M105.41,242.69l.22-.28.08.29h-.3Z"/><path class="cls-5" d="M104.77,243l-.12-.25.37,0Z"/><path class="cls-2" d="M24.61,130.25l0-.57c3.43-1,3.38-1,5.07-3.62a162.23,162.23,0,0,1,15.1-19.63l2.45-2.73-1-1.13c.18-.16.32-.31.34-.29,1.1.81,2.14-.35,2.41-.71.86-1.11,2.14-1.7,3-2.79s2.11-1.87,2.89-3c2-2.82,5-4.48,7.39-6.78s5.18-4.46,7.77-6.7a16.56,16.56,0,0,0,1.38-1.52c1.32-.92,2.81-1.9,4.24-3q6.11-4.5,12.21-9L88.34,67l.33,0,.29.59c3.65-2.2,7.26-4.4,10.88-6.57q5.75-3.44,11.51-6.81c3.75-2.2,7.67-4.11,11.28-6.47a10,10,0,0,0,1.74-.51,330.76,330.76,0,0,1,48.2-19.9c7.73-2.5,15.58-4.63,23.44-6.68a261.88,261.88,0,0,1,38.83-6.82,211.75,211.75,0,0,1,42.57-.38c13.56,1.31,26.81,4,39.43,9.33,10.17,4.28,19.4,10,26.87,18.25a53.69,53.69,0,0,1,14.23,38.53c-.27,12.62-4.09,24.29-9.73,35.43-7,13.9-16.47,26.07-27.23,37.25-17.46,18.14-37.52,32.91-59.29,45.39a333.38,333.38,0,0,1-90.09,35.59,261.57,261.57,0,0,1-42.29,6.56c-5.82.4-11.67,1-17.49.81-7.69-.18-15.39-.78-23-1.55A124.89,124.89,0,0,1,55.54,231a83.53,83.53,0,0,1-14.63-7.44c-.5-.33-1-.64-1.56-1l-1.14.73.41-1.21a67.39,67.39,0,0,1-13.09-11.82,54.1,54.1,0,0,1-12.68-35.7,8.86,8.86,0,0,0-.38-1.9c1-2.45.58-5.07,1.11-7.34L12.06,164c2.06-1.27,3-3.64,2.4-4.76l1-3.22c.35-1.08.7-2.17,1.06-3.25s.76-2,1-3.07,1.14-2,.73-3.24c.68-.57,1.56-1.17,1-2.4l.39-.22.94-1.86.55-1.05,3.66-7.23-.74-.16,2.77-2.5Zm62.75,6.49c7.44,18,14.78,35.75,22.17,53.62l6.19-2.57L101.93,154.4l.45-.24,12.87,19.08,4.52-1.89c-1.49-7.71-3-15.25-4.43-22.79l.45-.15L129.72,182l6.52-2.71L134,173.84q-9-21.78-18-43.54a10.91,10.91,0,0,0-1.26-1.86c.67-.91-.28-1.7-.68-2.73l-7.56,3.15c1.75,9.53,3.48,18.89,5.2,28.24l-.39.14L95,133.58Zm66.27-5.14c.19,0,.37-.15.4-.11q12.39,15,24.84,30.2c2-.82,4.06-1.66,6.23-2.56q-11.15-26.9-22.17-53.54l-6.23,2.47,1.9,2.77c-.74.37-.12,1,.14,1.68q4.72,11.43,9.45,22.86c.28.67.45,1.39.67,2.08l-.24.08-21-25.7-7.81,3.36,22.15,53.54,6-2.53C163.12,154.56,158.37,143.09,153.63,131.6ZM308,67.19l.35-.34c8.36,10.29,16.62,20.66,25,31l6.33-2.63L317.5,41.61l-6,2.52c.35.87.63,1.54.9,2.2Q317.69,59.1,323,71.87a17,17,0,0,1,.56,2.13L302.18,48l-7.84,3.25c7.42,17.95,14.79,35.76,22.18,53.62l6-2.51C317.66,90.53,312.83,78.86,308,67.19ZM62,155.8l.19,0c.07,1.27,0,2.55.22,3.8a73.46,73.46,0,0,0,12,30.32,26.13,26.13,0,0,0,8,8c6.49,3.91,13.54,1,15.4-6.32A24.91,24.91,0,0,0,98,181.21a73.91,73.91,0,0,0-11.49-28.63,27,27,0,0,0-9-8.78,9.77,9.77,0,0,0-14.5,5.8A49,49,0,0,0,62,155.8Zm243.68-55.22-.4-.06c0-.85,0-1.69,0-2.53a4.4,4.4,0,0,0,0-.73A71.61,71.61,0,0,0,291.77,64.7a21.34,21.34,0,0,0-7.89-6.77,9.63,9.63,0,0,0-13.73,5.8,21.77,21.77,0,0,0-.89,8.93c.56,6.63,2.62,12.84,5.18,18.92a58.48,58.48,0,0,0,9.39,16,20.85,20.85,0,0,0,7,5.6c5.5,2.51,11.43.13,13.41-5.56A52.73,52.73,0,0,0,305.68,100.58Zm-29.77,12.29-.39-.06c0-.84.05-1.69,0-2.53a29.42,29.42,0,0,0-.42-3.23,73.93,73.93,0,0,0-10-25.59,45.84,45.84,0,0,0-6.33-7.85,18.6,18.6,0,0,0-5.68-3.73,9.3,9.3,0,0,0-11.34,3.42,12.68,12.68,0,0,0-.6,2c-.27.6-.88,1.09-1,1.7a27.18,27.18,0,0,0-.69,4.82,43.67,43.67,0,0,0,2.81,15.74c2.61,7.61,5.83,14.92,10.9,21.28a22.68,22.68,0,0,0,7.62,6.55c5.65,2.76,11.77.34,13.77-5.61A52.06,52.06,0,0,0,275.91,112.87Zm-72.17,28a7,7,0,0,1-8.53.21,17,17,0,0,1-4.94-5.22,51.26,51.26,0,0,1-7.25-17.6,15.29,15.29,0,0,1,.26-8.4,5.67,5.67,0,0,1,6.88-3.8,18.4,18.4,0,0,1,6.27,3.1c.55.37,1.13.71,1.7,1.06l.46-.4L193.46,97.3c-4.3-2-8.51-2.45-12.8-.3a10.29,10.29,0,0,0-5.24,5.93,24.71,24.71,0,0,0-.76,12,69.43,69.43,0,0,0,12.24,29.62,24.07,24.07,0,0,0,7.63,7.09,11,11,0,0,0,13-1,23,23,0,0,0,5.39-6.57l-11-26.48-11.75,4.88c1.44,3.48,2.79,6.74,4.18,10.08l5.09-2Zm26.58-60.11a17,17,0,0,0-7.75-.6,10.13,10.13,0,0,0-8.71,7.13,16.15,16.15,0,0,0-.81,7,32.32,32.32,0,0,0,6.38,15.9,13.16,13.16,0,0,0,9.75,5.53c1.68.15,3.37.16,5.06.23a6.59,6.59,0,0,1,6.17,7.07,4.47,4.47,0,0,1-2,3.48,7.41,7.41,0,0,1-5,1.24,16.13,16.13,0,0,1-7.53-2.82,12,12,0,0,0-1.57-.77l-.28.35,5.32,12.87c1.68.34,3.31.77,5,1a11.75,11.75,0,0,0,13.39-10.87c.54-6.27-1.47-11.87-4.39-17.23-3.05-5.58-7.69-8.46-14.12-8.36a20.91,20.91,0,0,1-4-.22c-2.72-.48-4.89-3.59-4.64-6.45A5.34,5.34,0,0,1,226,90.25a6.2,6.2,0,0,1,2.32.21c1.8.64,3.55,1.42,5.32,2.16.49.21,1,.47,1.45.71l.31-.35C233.7,88.9,232,84.82,230.32,80.72ZM54.16,154.4a45.67,45.67,0,0,0-4.54-1.4,10,10,0,0,0-11.53,6.27A19.13,19.13,0,0,0,37,164.71c-.41,6.57,1.28,12.79,3.52,18.87,2.53,6.87,5.58,13.47,10.22,19.22a21.13,21.13,0,0,0,7.73,6.4,9.84,9.84,0,0,0,12.27-3.13,47.64,47.64,0,0,0,2.79-4.78c-1.87-4.42-3.49-8.76-5.64-12.91a3,3,0,0,0-.51,1.21,46.26,46.26,0,0,1-1.41,5.77c-1.45,3.78-4.7,4.82-8,2.46a19.7,19.7,0,0,1-4.5-4.61A50.39,50.39,0,0,1,46,176.09a17.61,17.61,0,0,1-.4-8.41c.92-3.82,3.6-5.26,7.2-3.65a47.33,47.33,0,0,1,5.09,3.06c.41.25.83.46,1.25.69l.3-.31c-.16-.48-.3-1-.49-1.45-1.1-2.67-2.12-5.38-3.36-8a21.73,21.73,0,0,0-2.38-3.3Zm94.24,8.73L134.12,128.6l4.14-1.84c-1.35-3.24-2.62-6.28-3.92-9.42l-14.93,6.15,3.93,9.46,4.2-1.63c4.78,11.55,9.5,23,14.27,34.52l-4.14,1.81c1.35,3.23,2.64,6.32,3.94,9.46l14.91-6.18-3.94-9.47Zm64.47,14.08-6.63,10.09-11.94-1.87,7.6,9.39-5.5,10.77,11.52-4.34,8.29,8.05c-.17-3.73-.35-7.6-.53-11.5l10.73-5.52-11.62-3.15ZM150.52,68.84c.43,4,.84,7.82,1.29,12l7.13-9.75,11.83,2.47-7.08-9.78,5.7-10-.26-.32L158.21,57l-8.16-8.89v12a94.65,94.65,0,0,1-11.15,5ZM157,213.37l6.89,6.87c-.15-3.15-.31-6.44-.46-9.74l9.14-4.69-9.9-2.71c-.53-3.31-1.06-6.56-1.64-10.15l-5.64,8.59L145.25,200l6.41,8L147,217.15ZM216.69,49.43l5.09-8.94L212,43.63l-6.66-7.35-.3.21v9.83l-9.35,4.21,9.77,3.19c.37,3.4.73,6.63,1.13,10.26l6-8.31,10.09,2.08ZM263.2,169.27l9.14-4.69-9.89-2.72c-.54-3.29-1.06-6.5-1.58-9.71h-.34c-1.77,2.71-3.55,5.41-5.35,8.17L245,158.73l6.42,8-4.67,9.16,10-3.78,6.9,7.38C263.52,175.87,263.36,172.64,263.2,169.27ZM105.32,87.5,95.9,91.78,105.67,95c.37,3.31.74,6.53,1.1,9.76a55.36,55.36,0,0,0,5-6.55c.84-1.27,1.65-1.59,2.77-1.25,2.65.78,5.35,1.42,8,2.12l.17-.37c-.67-.92-1.33-1.85-2-2.75-.53-.71-1.13-1-2-.42-.23.16-.67,0-1,0l-.1-.43,1.86-.83-2.56-3.64L122,81.72l-9.81,3.14c-1.72-1.91-3.39-3.73-5-5.58-.55-.63-1.06-.9-1.87-.27Z"/><path class="cls-8" d="M21.19,141,20.64,142l-.83,0-.12-.37Z"/><path class="cls-8" d="M19.7,143.86l-.39.22Z"/><path class="cls-8" d="M20.64,137.64h-.35a.59.59,0,0,1,0-.35Z"/><path class="cls-9" d="M87.36,136.74,95,133.58l16.27,23.66.39-.14c-1.72-9.35-3.45-18.71-5.2-28.24l7.56-3.15c.4,1,1.35,1.82.68,2.73A10.91,10.91,0,0,1,116,130.3q9,21.76,18,43.54l2.25,5.47L129.72,182l-13.93-33.61-.45.15c1.47,7.54,2.94,15.08,4.43,22.79l-4.52,1.89-12.87-19.08-.45.24,13.79,33.39-6.19,2.57C102.14,172.49,94.8,154.72,87.36,136.74Zm14.57,17.34.16-.37-.53,0Z"/><path class="cls-10" d="M153.63,131.6c4.74,11.49,9.49,23,14.3,34.6l-6,2.53-22.15-53.54,7.81-3.36,21,25.7.24-.08c-.22-.69-.39-1.41-.67-2.08q-4.71-11.43-9.45-22.86c-.26-.63-.88-1.31-.14-1.68l-1.9-2.77,6.23-2.47q11.06,26.7,22.17,53.54c-2.17.9-4.21,1.74-6.23,2.56q-12.5-15.19-24.84-30.2S153.82,131.55,153.63,131.6Z"/><path class="cls-11" d="M308,67.19c4.83,11.67,9.66,23.34,14.53,35.13l-6,2.51C309.13,87,301.76,69.16,294.34,51.21L302.18,48l21.34,26a17,17,0,0,0-.56-2.13q-5.25-12.78-10.55-25.54c-.27-.66-.55-1.33-.9-2.2l6-2.52,22.19,53.62-6.33,2.63c-8.39-10.35-16.65-20.72-25-31Z"/><path class="cls-9" d="M62,155.8a49,49,0,0,1,1.08-6.2,9.77,9.77,0,0,1,14.5-5.8,27,27,0,0,1,9,8.78A73.91,73.91,0,0,1,98,181.21a24.91,24.91,0,0,1-.22,10.42C96,199,88.9,201.86,82.41,198a26.13,26.13,0,0,1-8-8,73.46,73.46,0,0,1-12-30.32c-.19-1.25-.15-2.53-.22-3.8Zm9.29-1.29a9.88,9.88,0,0,0-.92,6.62,56.32,56.32,0,0,0,9.54,23.39,15.38,15.38,0,0,0,3.56,3.55c3.13,2.2,6.28.8,6.67-3a20.8,20.8,0,0,0-.27-6.1,56.16,56.16,0,0,0-8.29-20.18,26.65,26.65,0,0,0-3.65-4.23,5.18,5.18,0,0,0-5.67-1.21,17.31,17.31,0,0,0-1.59.74Z"/><path class="cls-12" d="M305.68,100.58a52.73,52.73,0,0,1-1.43,7c-2,5.69-7.91,8.07-13.41,5.56a20.85,20.85,0,0,1-7-5.6,58.48,58.48,0,0,1-9.39-16c-2.56-6.08-4.62-12.29-5.18-18.92a21.77,21.77,0,0,1,.89-8.93,9.63,9.63,0,0,1,13.73-5.8,21.34,21.34,0,0,1,7.89,6.77,71.61,71.61,0,0,1,13.46,32.56,4.4,4.4,0,0,1,0,.73c0,.84,0,1.68,0,2.53Zm-8.15-3.17-.18,0a18.65,18.65,0,0,0-.12-2,56.45,56.45,0,0,0-9.66-23.51,14.51,14.51,0,0,0-3.45-3.41c-3.09-2.18-6.27-.76-6.68,3a20.52,20.52,0,0,0,.19,5.75,58.36,58.36,0,0,0,7.06,18.46,32.89,32.89,0,0,0,4,5.36,9.34,9.34,0,0,0,3.24,2.21,3.37,3.37,0,0,0,4.72-2A25.73,25.73,0,0,0,297.53,97.41Z"/><path class="cls-11" d="M275.91,112.87a52.06,52.06,0,0,1-1.38,6.86c-2,6-8.12,8.37-13.77,5.61a22.68,22.68,0,0,1-7.62-6.55c-5.07-6.36-8.29-13.67-10.9-21.28a43.67,43.67,0,0,1-2.81-15.74,27.18,27.18,0,0,1,.69-4.82c.13-.61.74-1.1,1-1.7a12.68,12.68,0,0,1,.6-2,9.3,9.3,0,0,1,11.34-3.42,18.6,18.6,0,0,1,5.68,3.73,45.84,45.84,0,0,1,6.33,7.85,73.93,73.93,0,0,1,10,25.59,29.42,29.42,0,0,1,.42,3.23c.07.84,0,1.69,0,2.53ZM249.3,80.23a8.88,8.88,0,0,0-1.64,7.93,85.21,85.21,0,0,0,2.61,9.74,44.5,44.5,0,0,0,7.33,14,14.81,14.81,0,0,0,3.76,3.3c2.57,1.51,5.19.33,5.83-2.59a15.16,15.16,0,0,0,.23-4.66c-.56-5.78-2.78-11.06-5.17-16.27a33.7,33.7,0,0,0-5.89-9.27C254.45,80.41,252.3,79,249.3,80.23Z"/><path class="cls-10" d="M203.74,140.83l-4.27-10.33-5.09,2c-1.39-3.34-2.74-6.6-4.18-10.08L202,117.58l11,26.48a23,23,0,0,1-5.39,6.57,11,11,0,0,1-13,1,24.07,24.07,0,0,1-7.63-7.09,69.43,69.43,0,0,1-12.24-29.62,24.71,24.71,0,0,1,.76-12A10.29,10.29,0,0,1,180.66,97c4.29-2.15,8.5-1.7,12.8.3l5.13,12.48-.46.4c-.57-.35-1.15-.69-1.7-1.06a18.4,18.4,0,0,0-6.27-3.1,5.67,5.67,0,0,0-6.88,3.8,15.29,15.29,0,0,0-.26,8.4,51.26,51.26,0,0,0,7.25,17.6,17,17,0,0,0,4.94,5.22A7,7,0,0,0,203.74,140.83ZM187.93,99.17c-2-.81-2.07-.77-2.74.86C186.49,101,187,99.32,187.93,99.17Z"/><path class="cls-11" d="M230.32,80.72c1.7,4.1,3.38,8.18,5.07,12.26l-.31.35c-.49-.24-1-.5-1.45-.71-1.77-.74-3.52-1.52-5.32-2.16a6.2,6.2,0,0,0-2.32-.21,5.34,5.34,0,0,0-5.34,4.89c-.25,2.86,1.92,6,4.64,6.45a20.91,20.91,0,0,0,4,.22c6.43-.1,11.07,2.78,14.12,8.36,2.92,5.36,4.93,11,4.39,17.23a11.75,11.75,0,0,1-13.39,10.87c-1.67-.21-3.3-.64-5-1l-5.32-12.87.28-.35a12,12,0,0,1,1.57.77,16.13,16.13,0,0,0,7.53,2.82,7.41,7.41,0,0,0,5-1.24,4.47,4.47,0,0,0,2-3.48,6.59,6.59,0,0,0-6.17-7.07c-1.69-.07-3.38-.08-5.06-.23a13.16,13.16,0,0,1-9.75-5.53,32.32,32.32,0,0,1-6.38-15.9,16.15,16.15,0,0,1,.81-7,10.13,10.13,0,0,1,8.71-7.13A17,17,0,0,1,230.32,80.72Z"/><path class="cls-9" d="M54.16,154.4l-1,.33a21.73,21.73,0,0,1,2.38,3.3c1.24,2.61,2.26,5.32,3.36,8,.19.47.33,1,.49,1.45l-.3.31c-.42-.23-.84-.44-1.25-.69A47.33,47.33,0,0,0,52.76,164c-3.6-1.61-6.28-.17-7.2,3.65a17.61,17.61,0,0,0,.4,8.41,50.39,50.39,0,0,0,7.47,17.12,19.7,19.7,0,0,0,4.5,4.61c3.29,2.36,6.54,1.32,8-2.46a46.26,46.26,0,0,0,1.41-5.77,3,3,0,0,1,.51-1.21c2.15,4.15,3.77,8.49,5.64,12.91a47.64,47.64,0,0,1-2.79,4.78,9.84,9.84,0,0,1-12.27,3.13,21.13,21.13,0,0,1-7.73-6.4c-4.64-5.75-7.69-12.35-10.22-19.22-2.24-6.08-3.93-12.3-3.52-18.87a19.13,19.13,0,0,1,1.14-5.44A10,10,0,0,1,49.62,153,45.67,45.67,0,0,1,54.16,154.4Z"/><path class="cls-9" d="M148.4,163.13l4.18-1.67,3.94,9.47-14.91,6.18c-1.3-3.14-2.59-6.23-3.94-9.46l4.14-1.81c-4.77-11.54-9.49-23-14.27-34.52l-4.2,1.63-3.93-9.46,14.93-6.15c1.3,3.14,2.57,6.18,3.92,9.42l-4.14,1.84Z"/><path class="cls-10" d="M212.87,177.21l1.92,11.92,11.62,3.15-10.73,5.52c.18,3.9.36,7.77.53,11.5l-8.29-8.05-11.52,4.34,5.5-10.77-7.6-9.39,11.94,1.87Z"/><path class="cls-1" d="M150.52,68.84,138.9,65a94.65,94.65,0,0,0,11.15-5v-12L158.21,57l10.92-3.51.26.32-5.7,10,7.08,9.78-11.83-2.47-7.13,9.75C151.36,76.66,151,72.85,150.52,68.84Z"/><path class="cls-1" d="M157,213.37l-10,3.78,4.65-9.17-6.41-8,10.15,1.59L161,193c.58,3.59,1.11,6.84,1.64,10.15l9.9,2.71-9.14,4.69c.15,3.3.31,6.59.46,9.74Z"/><path class="cls-13" d="M216.69,49.43l6,8.32-10.09-2.08-6,8.31c-.4-3.63-.76-6.86-1.13-10.26l-9.77-3.19L205,46.32V36.49l.3-.21L212,43.63l9.8-3.14Z"/><path class="cls-10" d="M263.2,169.27c.16,3.37.32,6.6.5,10.25l-6.9-7.38-10,3.78,4.67-9.16-6.42-8,10.16,1.58c1.8-2.76,3.58-5.46,5.35-8.17h.34c.52,3.21,1,6.42,1.58,9.71l9.89,2.72Z"/><path class="cls-13" d="M105.32,87.5V79c.81-.63,1.32-.36,1.87.27,1.62,1.85,3.29,3.67,5,5.58L122,81.72l-5.09,8.91,2.56,3.64-1.86.83.1.43c.34,0,.78.14,1,0,.86-.6,1.46-.29,2,.42.68.9,1.34,1.83,2,2.75l-.17.37c-2.68-.7-5.38-1.34-8-2.12-1.12-.34-1.93,0-2.77,1.25a55.36,55.36,0,0,1-5,6.55c-.36-3.23-.73-6.45-1.1-9.76L95.9,91.78Zm11-.19,2.38-.3-.35-1.43C117.47,85.92,116.11,85.45,116.29,87.31Z"/><path class="cls-2" d="M101.93,154.08l-.37-.32.53,0Z"/><path class="cls-14" d="M71.29,154.51l-.62-.42a17.31,17.31,0,0,1,1.59-.74,5.18,5.18,0,0,1,5.67,1.21,26.65,26.65,0,0,1,3.65,4.23A56.16,56.16,0,0,1,89.87,179a20.8,20.8,0,0,1,.27,6.1c-.39,3.8-3.54,5.2-6.67,3a15.38,15.38,0,0,1-3.56-3.55,56.32,56.32,0,0,1-9.54-23.39A9.88,9.88,0,0,1,71.29,154.51Z"/><path class="cls-15" d="M297.53,97.41a25.73,25.73,0,0,1-.91,3.83,3.37,3.37,0,0,1-4.72,2,9.34,9.34,0,0,1-3.24-2.21,32.89,32.89,0,0,1-4-5.36,58.36,58.36,0,0,1-7.06-18.46,20.52,20.52,0,0,1-.19-5.75c.41-3.77,3.59-5.19,6.68-3a14.51,14.51,0,0,1,3.45,3.41,56.45,56.45,0,0,1,9.66,23.51,18.65,18.65,0,0,1,.12,2Z"/><path class="cls-15" d="M249.3,80.23c3-1.26,5.15.18,7.06,2.21a33.7,33.7,0,0,1,5.89,9.27c2.39,5.21,4.61,10.49,5.17,16.27a15.16,15.16,0,0,1-.23,4.66c-.64,2.92-3.26,4.1-5.83,2.59a14.81,14.81,0,0,1-3.76-3.3,44.5,44.5,0,0,1-7.33-14,85.21,85.21,0,0,1-2.61-9.74A8.88,8.88,0,0,1,249.3,80.23Z"/><path class="cls-16" d="M187.93,99.17c-1,.15-1.44,1.83-2.74.86C185.86,98.4,186,98.36,187.93,99.17Z"/><path class="cls-16" d="M116.29,87.31c-.18-1.86,1.18-1.39,2-1.73l.35,1.43Z"/></g></svg>