<?xml version="1.0" encoding="utf-8"?>
<!-- Generator: Adobe Illustrator 22.0.1, SVG Export Plug-In . SVG Version: 6.00 Build 0)  -->
<svg version="1.1" id="Layer_1" xmlns="http://www.w3.org/2000/svg" xmlns:xlink="http://www.w3.org/1999/xlink" x="0px" y="0px"
	 viewBox="0 0 24 24" enable-background="new 0 0 24 24" xml:space="preserve">
<g>
	<g>
		<path fill="#676767" d="M9.008,14.366c-1.472-0.962-2.447-2.621-2.447-4.511c0-2.975,2.412-5.387,5.387-5.387
			s5.387,2.412,5.387,5.387c0,1.89-0.975,3.549-2.447,4.511c2.636,0.981,4.644,3.244,5.275,6.031
			c2.186-2.129,3.544-5.104,3.544-8.396c0-6.473-5.248-11.721-11.721-11.721S0.265,5.527,0.265,12c0,3.261,1.332,6.211,3.482,8.336
			C4.393,17.577,6.391,15.34,9.008,14.366z"/>
		<path fill="#CCCCCC" d="M11.948,14.618c-3.774,0-6.908,2.733-7.535,6.328c0.002,0.002,0.004,0.003,0.005,0.005
			c0.638-3.58,3.766-6.298,7.529-6.298c3.783,0,6.923,2.746,7.539,6.354c0.002-0.001,0.004-0.003,0.005-0.005
			C18.889,17.38,15.741,14.618,11.948,14.618z"/>
		<path fill="#FFFFFF" d="M14.888,14.366c1.472-0.962,2.447-2.621,2.447-4.511c0-2.975-2.412-5.387-5.387-5.387
			S6.561,6.88,6.561,9.855c0,1.89,0.975,3.549,2.447,4.511c-2.617,0.974-4.614,3.211-5.261,5.97c0.214,0.212,0.437,0.415,0.667,0.61
			c0.626-3.595,3.761-6.328,7.535-6.328c3.793,0,6.941,2.762,7.544,6.384c0.232-0.193,0.455-0.395,0.671-0.606
			C19.531,17.61,17.523,15.347,14.888,14.366z M7.66,9.855c0-2.368,1.92-4.288,4.288-4.288s4.288,1.92,4.288,4.288
			c0,2.368-1.92,4.288-4.288,4.288S7.66,12.223,7.66,9.855z"/>
		<g>
			<circle fill="#676767" cx="11.948" cy="9.855" r="4.288"/>
		</g>
		<g>
			<path fill="#676767" d="M11.948,14.653c-3.763,0-6.891,2.718-7.529,6.298c2.042,1.728,4.683,2.771,7.567,2.771
				c2.853,0,5.468-1.02,7.501-2.715C18.871,17.399,15.731,14.653,11.948,14.653z"/>
		</g>
	</g>
	<g>
		<g>
			<g>
				<radialGradient id="SVGID_1_" cx="12.0376" cy="1.9677" r="0.3603" gradientUnits="userSpaceOnUse">
					<stop  offset="0" style="stop-color:#F2F2F2"/>
					<stop  offset="1" style="stop-color:#D0D2D3"/>
				</radialGradient>
				<path fill="url(#SVGID_1_)" d="M12.467,1.968c0,0.152-0.192,0.275-0.429,0.275c-0.237,0-0.429-0.123-0.429-0.275
					s0.192-0.275,0.429-0.275C12.275,1.693,12.467,1.816,12.467,1.968z"/>
				<radialGradient id="SVGID_2_" cx="12.1018" cy="4.0777" r="5.6525" gradientUnits="userSpaceOnUse">
					<stop  offset="0" style="stop-color:#F2F2F2"/>
					<stop  offset="1" style="stop-color:#D0D2D3"/>
				</radialGradient>
				<path fill="url(#SVGID_2_)" d="M16.886,5.481c0.164,0.98,1.018,3.632,0.376,4.218c-0.904,0.823-3.724-1.979-5.32-1.979
					c-1.29,0-4.249,2.611-5.13,2.043C5.829,9.129,6.73,6.701,6.959,5.481c0.354-1.882,2.213-3.468,4.943-3.468
					C14.634,2.013,16.57,3.592,16.886,5.481z"/>
				<g opacity="0.31">
					<g>
						<path fill="#929497" d="M8.057,8.209C8.046,8.176,8.035,8.143,8.025,8.109l0.066-0.02c0.01,0.033,0.02,0.065,0.031,0.097
							L8.057,8.209L8.057,8.209z M7.997,8.009C7.988,7.976,7.98,7.942,7.972,7.908l0.067-0.015c0.008,0.033,0.016,0.066,0.024,0.099
							L7.997,8.009L7.997,8.009z M7.951,7.806C7.944,7.772,7.938,7.738,7.933,7.704L8,7.693c0.005,0.034,0.011,0.067,0.018,0.1
							L7.951,7.806L7.951,7.806z M7.917,7.601C7.913,7.567,7.909,7.532,7.905,7.498l0.068-0.007
							c0.003,0.034,0.007,0.068,0.012,0.101L7.917,7.601L7.917,7.601z M7.896,7.394C7.893,7.36,7.891,7.325,7.889,7.291l0.068-0.004
							C7.96,7.321,7.962,7.355,7.964,7.389L7.896,7.394L7.896,7.394z M7.885,7.187C7.884,7.153,7.884,7.118,7.884,7.083l0.069,0
							c0,0.034,0.001,0.068,0.002,0.102L7.885,7.187L7.885,7.187z M7.953,6.981L7.885,6.979C7.885,6.945,7.886,6.91,7.888,6.876
							l0.069,0.003C7.955,6.913,7.954,6.947,7.953,6.981L7.953,6.981z M7.962,6.776L7.893,6.772
							c0.002-0.034,0.005-0.069,0.007-0.103l0.068,0.006C7.966,6.708,7.964,6.742,7.962,6.776L7.962,6.776z M7.979,6.572L7.91,6.566
							c0.003-0.034,0.007-0.069,0.011-0.103L7.99,6.471C7.986,6.505,7.982,6.539,7.979,6.572L7.979,6.572z M8.003,6.369L7.935,6.36
							C7.94,6.326,7.945,6.291,7.95,6.257l0.068,0.011C8.013,6.302,8.008,6.335,8.003,6.369L8.003,6.369z M8.035,6.167L7.967,6.155
							c0.006-0.034,0.012-0.068,0.019-0.102l0.067,0.013C8.047,6.099,8.04,6.133,8.035,6.167L8.035,6.167z M8.073,5.966L8.006,5.952
							C8.013,5.918,8.02,5.884,8.027,5.851l0.067,0.015C8.087,5.899,8.08,5.932,8.073,5.966L8.073,5.966z M8.118,5.766L8.051,5.75
							c0.008-0.033,0.016-0.067,0.025-0.1l0.067,0.017C8.134,5.7,8.125,5.733,8.118,5.766L8.118,5.766z M8.168,5.568L8.102,5.55
							c0.009-0.033,0.018-0.067,0.028-0.1l0.066,0.019C8.186,5.502,8.177,5.535,8.168,5.568L8.168,5.568z M8.224,5.37l-0.066-0.02
							c0.01-0.033,0.02-0.066,0.031-0.099l0.065,0.021C8.244,5.305,8.234,5.337,8.224,5.37L8.224,5.37z M8.286,5.174L8.221,5.153
							C8.232,5.12,8.243,5.087,8.254,5.054l0.065,0.022C8.308,5.109,8.297,5.142,8.286,5.174L8.286,5.174z M8.353,4.98L8.289,4.957
							C8.301,4.924,8.313,4.892,8.325,4.86l0.064,0.024C8.377,4.916,8.365,4.948,8.353,4.98L8.353,4.98z M8.426,4.788L8.362,4.763
							C8.374,4.731,8.387,4.699,8.4,4.667l0.064,0.026C8.451,4.724,8.438,4.756,8.426,4.788L8.426,4.788z M8.503,4.598L8.44,4.571
							C8.453,4.539,8.467,4.508,8.48,4.476l0.063,0.027C8.53,4.535,8.516,4.566,8.503,4.598L8.503,4.598z M8.585,4.41L8.522,4.381
							C8.537,4.35,8.551,4.319,8.566,4.287l0.062,0.029C8.613,4.347,8.599,4.379,8.585,4.41L8.585,4.41z M8.672,4.224L8.61,4.194
							c0.015-0.031,0.03-0.062,0.046-0.093l0.061,0.031C8.702,4.162,8.687,4.193,8.672,4.224L8.672,4.224z M8.764,4.041L8.703,4.009
							c0.016-0.031,0.032-0.061,0.048-0.092L8.812,3.95C8.796,3.98,8.78,4.01,8.764,4.041L8.764,4.041z M8.861,3.86l-0.06-0.033
							c0.017-0.03,0.034-0.06,0.051-0.09l0.06,0.034C8.894,3.8,8.877,3.83,8.861,3.86L8.861,3.86z M8.963,3.682L8.904,3.647
							c0.018-0.03,0.036-0.059,0.054-0.089l0.059,0.036C8.998,3.623,8.98,3.652,8.963,3.682L8.963,3.682z M9.07,3.507L9.012,3.47
							C9.031,3.441,9.05,3.412,9.069,3.383l0.057,0.038C9.107,3.45,9.089,3.478,9.07,3.507L9.07,3.507z M9.183,3.336L9.127,3.297
							c0.02-0.029,0.039-0.057,0.059-0.085l0.056,0.04C9.222,3.28,9.203,3.308,9.183,3.336L9.183,3.336z M9.302,3.169L9.247,3.128
							C9.268,3.1,9.289,3.073,9.31,3.046l0.054,0.042C9.343,3.115,9.323,3.142,9.302,3.169L9.302,3.169z M9.427,3.008L9.374,2.964
							C9.396,2.937,9.418,2.91,9.44,2.884l0.052,0.044C9.471,2.954,9.449,2.981,9.427,3.008L9.427,3.008z M9.56,2.852L9.509,2.806
							c0.023-0.026,0.047-0.052,0.07-0.077l0.05,0.047C9.606,2.801,9.583,2.826,9.56,2.852L9.56,2.852z M9.7,2.703L9.651,2.655
							c0.025-0.025,0.05-0.049,0.075-0.072l0.047,0.05C9.749,2.656,9.724,2.679,9.7,2.703L9.7,2.703z M9.849,2.565L9.804,2.513
							C9.831,2.49,9.859,2.467,9.885,2.446L9.927,2.5C9.902,2.521,9.875,2.542,9.849,2.565L9.849,2.565z M10.008,2.44l-0.04-0.056
							c0.029-0.021,0.059-0.04,0.087-0.058l0.036,0.058C10.065,2.401,10.037,2.42,10.008,2.44L10.008,2.44z M10.179,2.334
							l-0.032-0.061c0.032-0.017,0.064-0.032,0.095-0.045l0.027,0.063C10.24,2.303,10.21,2.318,10.179,2.334L10.179,2.334z
							 M10.363,2.257l-0.02-0.066c0.035-0.011,0.07-0.019,0.104-0.025l0.011,0.068C10.427,2.239,10.395,2.247,10.363,2.257
							L10.363,2.257z M10.555,2.225l-0.001-0.069l0.008,0l-0.001,0.069L10.555,2.225L10.555,2.225z"/>
					</g>
					<g>
						<path fill="#929497" d="M15.629,8.209l-0.065-0.022c0.011-0.032,0.021-0.064,0.031-0.097l0.066,0.02
							C15.651,8.143,15.64,8.176,15.629,8.209L15.629,8.209z M15.689,8.009l-0.066-0.017c0.009-0.033,0.017-0.066,0.024-0.099
							l0.067,0.015C15.706,7.942,15.698,7.976,15.689,8.009L15.689,8.009z M15.735,7.806l-0.067-0.013
							c0.006-0.033,0.012-0.067,0.018-0.1l0.068,0.011C15.748,7.738,15.742,7.772,15.735,7.806L15.735,7.806z M15.769,7.601
							l-0.068-0.009c0.004-0.034,0.008-0.067,0.012-0.101l0.068,0.007C15.777,7.532,15.773,7.567,15.769,7.601L15.769,7.601z
							 M15.79,7.394l-0.068-0.005c0.003-0.034,0.005-0.068,0.006-0.102l0.069,0.004C15.795,7.325,15.793,7.36,15.79,7.394
							L15.79,7.394z M15.801,7.187l-0.069-0.002c0.001-0.034,0.001-0.068,0.001-0.102l0.069,0
							C15.802,7.118,15.802,7.153,15.801,7.187L15.801,7.187z M15.733,6.981c-0.001-0.034-0.002-0.068-0.003-0.102l0.069-0.003
							c0.001,0.035,0.002,0.069,0.003,0.104L15.733,6.981L15.733,6.981z M15.724,6.776c-0.002-0.034-0.005-0.068-0.007-0.102
							l0.068-0.006c0.003,0.035,0.005,0.069,0.007,0.103L15.724,6.776L15.724,6.776z M15.708,6.572
							c-0.003-0.034-0.007-0.068-0.011-0.102l0.068-0.008c0.004,0.034,0.008,0.069,0.011,0.103L15.708,6.572L15.708,6.572z
							 M15.683,6.369c-0.005-0.034-0.01-0.068-0.015-0.101l0.068-0.011c0.005,0.034,0.01,0.068,0.015,0.103L15.683,6.369
							L15.683,6.369z M15.652,6.167c-0.006-0.034-0.012-0.067-0.018-0.101l0.067-0.013c0.006,0.034,0.013,0.068,0.019,0.102
							L15.652,6.167L15.652,6.167z M15.613,5.966c-0.007-0.033-0.014-0.067-0.022-0.1l0.067-0.015
							c0.007,0.034,0.015,0.067,0.022,0.101L15.613,5.966L15.613,5.966z M15.569,5.766c-0.008-0.033-0.016-0.066-0.025-0.099
							l0.067-0.017c0.008,0.033,0.017,0.067,0.025,0.1L15.569,5.766L15.569,5.766z M15.518,5.568
							c-0.009-0.033-0.018-0.066-0.027-0.099l0.066-0.019c0.009,0.033,0.019,0.066,0.028,0.1L15.518,5.568L15.518,5.568z
							 M15.462,5.37c-0.01-0.033-0.02-0.066-0.03-0.098l0.065-0.021c0.01,0.033,0.021,0.066,0.031,0.099L15.462,5.37L15.462,5.37z
							 M15.4,5.174c-0.011-0.033-0.022-0.065-0.033-0.097l0.065-0.022c0.011,0.033,0.022,0.065,0.033,0.098L15.4,5.174L15.4,5.174z
							 M15.333,4.98c-0.012-0.032-0.023-0.064-0.035-0.096l0.064-0.024c0.012,0.032,0.024,0.065,0.036,0.097L15.333,4.98
							L15.333,4.98z M15.26,4.788c-0.012-0.032-0.025-0.064-0.038-0.095l0.064-0.026c0.013,0.032,0.026,0.064,0.038,0.096
							L15.26,4.788L15.26,4.788z M15.183,4.598c-0.013-0.032-0.027-0.063-0.04-0.094l0.063-0.027
							c0.014,0.032,0.027,0.063,0.041,0.095L15.183,4.598L15.183,4.598z M15.101,4.41c-0.014-0.031-0.028-0.062-0.043-0.093
							l0.062-0.029c0.015,0.031,0.029,0.063,0.043,0.094L15.101,4.41L15.101,4.41z M15.014,4.224
							c-0.015-0.031-0.03-0.062-0.045-0.092l0.061-0.031c0.015,0.031,0.031,0.062,0.046,0.093L15.014,4.224L15.014,4.224z
							 M14.922,4.041C14.906,4.01,14.891,3.98,14.874,3.95l0.061-0.032c0.016,0.03,0.032,0.061,0.048,0.092L14.922,4.041
							L14.922,4.041z M14.825,3.86c-0.017-0.03-0.033-0.06-0.05-0.089l0.06-0.034c0.017,0.03,0.034,0.06,0.051,0.09L14.825,3.86
							L14.825,3.86z M14.723,3.682c-0.018-0.03-0.035-0.059-0.053-0.088l0.058-0.036c0.018,0.029,0.036,0.059,0.054,0.089
							L14.723,3.682L14.723,3.682z M14.616,3.507c-0.018-0.029-0.037-0.058-0.056-0.086l0.057-0.038
							c0.019,0.029,0.038,0.058,0.056,0.087L14.616,3.507L14.616,3.507z M14.503,3.336c-0.019-0.028-0.039-0.056-0.059-0.084
							l0.056-0.04c0.02,0.028,0.04,0.056,0.059,0.085L14.503,3.336L14.503,3.336z M14.384,3.169
							c-0.02-0.028-0.041-0.055-0.062-0.082l0.054-0.042c0.021,0.027,0.042,0.055,0.063,0.083L14.384,3.169L14.384,3.169z
							 M14.259,3.008c-0.022-0.027-0.043-0.053-0.065-0.079l0.052-0.044c0.022,0.026,0.044,0.053,0.066,0.08L14.259,3.008
							L14.259,3.008z M14.126,2.852c-0.023-0.026-0.046-0.051-0.069-0.075l0.05-0.047c0.023,0.025,0.047,0.05,0.07,0.077
							L14.126,2.852L14.126,2.852z M13.986,2.703c-0.024-0.024-0.049-0.048-0.073-0.071l0.047-0.05
							c0.025,0.023,0.05,0.047,0.075,0.072L13.986,2.703L13.986,2.703z M13.837,2.565c-0.026-0.023-0.053-0.044-0.078-0.065
							l0.042-0.054c0.026,0.021,0.053,0.043,0.081,0.067L13.837,2.565L13.837,2.565z M13.678,2.44
							c-0.028-0.02-0.056-0.039-0.084-0.056l0.036-0.058c0.029,0.018,0.058,0.037,0.087,0.058L13.678,2.44L13.678,2.44z
							 M13.507,2.334c-0.03-0.016-0.061-0.03-0.09-0.043l0.027-0.063c0.031,0.013,0.063,0.029,0.095,0.045L13.507,2.334
							L13.507,2.334z M13.324,2.257c-0.032-0.01-0.064-0.018-0.095-0.023l0.011-0.068c0.034,0.006,0.069,0.014,0.104,0.025
							L13.324,2.257L13.324,2.257z M13.131,2.225l-0.006,0l0-0.069l0.008,0L13.131,2.225L13.131,2.225z"/>
					</g>
				</g>
				<g opacity="0.3">
					
						<image overflow="visible" opacity="0.75" width="1087" height="860" xlink:href="F23378A66CBCF80F.png"  transform="matrix(0.0082 0 0 0.0082 7.4057 1.7062)">
					</image>
				</g>
				<g>
					<path fill="#BBBDBF" d="M16.942,8.895c0.635,0.531,0.405,1.792,0.405,2.095c0,0.777-2.347-1.475-5.362-1.475
						c-3.015,0-5.4,2.141-5.4,1.364c0-0.295-0.369-1.4,0.232-1.915c0.983-0.843,3.297-1.666,5.169-1.666
						C13.822,7.299,15.953,8.067,16.942,8.895z"/>
					
						<radialGradient id="SVGID_3_" cx="12.0331" cy="4.5128" r="5.5516" gradientTransform="matrix(1 0 0 0.9496 0 5.2494)" gradientUnits="userSpaceOnUse">
						<stop  offset="0" style="stop-color:#F2F2F2"/>
						<stop  offset="1" style="stop-color:#BBBDBF"/>
					</radialGradient>
					<path fill="url(#SVGID_3_)" d="M16.942,8.758c0.635,0.531,0.405,1.792,0.405,2.095c0,0.777-2.347-1.475-5.362-1.475
						c-3.015,0-5.4,2.141-5.4,1.364c0-0.295-0.369-1.4,0.232-1.915c0.983-0.843,3.297-1.666,5.169-1.666
						C13.822,7.161,15.953,7.929,16.942,8.758z"/>
				</g>
			</g>
		</g>
		<g id="Logo:_Black_BG_8_">
			<g>
				<g id="Leaf_23_">
					<g id="Leaf_:_BG_23_">
						<path fill="#3E602E" d="M15.03,6.247c0,0-0.071,0.003-0.123,0.016C14.909,6.262,14.91,6.26,14.91,6.26
							s-0.092,0.005-0.144,0.024c0.015-0.015,0.024-0.026,0.024-0.026s-0.103,0.006-0.152,0.029
							c0.017-0.017,0.027-0.031,0.027-0.031c0,0-0.116,0.008-0.161,0.034c0.018-0.019,0.03-0.036,0.03-0.036
							c0,0-0.128,0.01-0.167,0.039c0,0-0.001,0-0.001,0c0.02-0.02,0.032-0.038,0.032-0.038S14.257,6.267,14.225,6.3h-0.003
							c0.02-0.022,0.034-0.042,0.034-0.042c0,0-0.14,0.019-0.185,0.051c0-0.001,0.038-0.044,0.038-0.044
							c0,0-0.153,0.014-0.178,0.051c0.007-0.014,0.024-0.04,0.024-0.04c0,0-0.146,0.013-0.177,0.048
							c0.007-0.014,0.017-0.042,0.017-0.042c0,0-0.146,0.023-0.177,0.058c0.005-0.013,0.023-0.053,0.024-0.058
							c-0.01,0.003-0.165,0.045-0.193,0.08c0.003-0.012,0.021-0.073,0.022-0.077c-0.01,0.004-0.176,0.068-0.198,0.105
							c0.002-0.011,0.017-0.072,0.017-0.072c0,0.001-0.116,0.038-0.218,0.13c-0.01,0.002,0.039-0.098,0.039-0.098
							c0,0.001-0.179,0.057-0.218,0.107c-0.003,0.011-0.006,0.021-0.006,0.026c0,0.001,0.001,0.002,0.001,0.003
							c-0.001,0-0.001-0.001-0.001-0.003c-0.004-0.008-0.001-0.017,0.006-0.026c0.006-0.023,0.016-0.051,0.016-0.051
							c0,0.001-0.154,0.019-0.219,0.112c-0.006,0.001,0.013-0.049,0.015-0.054c-0.011,0.004-0.206,0.062-0.218,0.105
							c0.001-0.008,0.004-0.038,0.004-0.038c0,0-0.127,0.014-0.216,0.089c-0.021,0.005-0.035-0.001-0.046-0.011
							c-0.128,0.056-0.221,0.106-0.221,0.106c0.143,0.013,0.289,0.019,0.433,0.019c-0.146,0-0.293-0.005-0.438-0.019
							c0,0,0.093-0.05,0.221-0.106c-0.001-0.001-0.003-0.002-0.004-0.003c0.072-0.03,0.143-0.061,0.211-0.093
							c0.083,0.007,0.285-0.115,0.324-0.146c0.011-0.006-0.037-0.012-0.026-0.019c0.183,0.011,0.295-0.126,0.295-0.127
							c0,0-0.044-0.03-0.038-0.034c0.087,0.023,0.352-0.109,0.329-0.146c0,0-0.019-0.007-0.041-0.011
							c0.095-0.007,0.262-0.145,0.262-0.146c0,0-0.016-0.019-0.041-0.028c0.101-0.006,0.313-0.16,0.313-0.161
							c0,0-0.046-0.013-0.091-0.019c0.11-0.026,0.293-0.159,0.293-0.16c0,0-0.065-0.017-0.122-0.021
							c0.097-0.035,0.241-0.183,0.241-0.184c0,0-0.034-0.003-0.075-0.002c0.082-0.043,0.181-0.161,0.181-0.162
							c0,0-0.029-0.012-0.069-0.013c0.081-0.043,0.185-0.202,0.185-0.205c0,0-0.04,0.009-0.071,0.015
							c0.076-0.033,0.168-0.19,0.168-0.192c0,0-0.042,0.012-0.074,0.02c0.071-0.037,0.149-0.183,0.153-0.192
							c-0.005,0.001-0.047,0.016-0.078,0.026c0.068-0.038,0.138-0.183,0.142-0.192c-0.005,0.002-0.047,0.019-0.077,0.031
							c0.065-0.042,0.126-0.184,0.128-0.191c-0.004,0.001-0.034,0.014-0.071,0.032c0.059-0.048,0.108-0.176,0.11-0.186
							c-0.004,0.001-0.028,0.013-0.06,0.03c0.054-0.056,0.091-0.177,0.091-0.177s-0.022,0.011-0.05,0.027
							c0.046-0.059,0.074-0.166,0.074-0.167c0,0-0.017,0.009-0.04,0.024c0.038-0.061,0.059-0.156,0.059-0.156
							s-0.017,0.01-0.04,0.026c0.009-0.057,0.001-0.115,0.001-0.115s-0.004,0.004-0.011,0.011c-0.02,0.021-0.065,0.069-0.093,0.113
							c0-0.003-0.001-0.006-0.001-0.006c0,0-0.087,0.086-0.119,0.149c-0.001-0.027-0.004-0.046-0.004-0.046
							s-0.099,0.097-0.126,0.161c-0.001-0.03-0.006-0.053-0.006-0.053c0,0.001-0.113,0.11-0.132,0.173
							c-0.001-0.033-0.006-0.058-0.006-0.06c0,0.001-0.125,0.12-0.136,0.182c0,0-0.001,0.001-0.001,0.001
							c-0.002-0.036-0.008-0.064-0.008-0.064c0.001,0-0.14,0.132-0.139,0.192c-0.001,0.001-0.002,0.001-0.003,0.002
							c-0.002-0.038-0.01-0.069-0.01-0.069c0.001,0-0.157,0.146-0.14,0.201c-0.004-0.008-0.016-0.069-0.016-0.069
							c0.001,0.001-0.156,0.142-0.143,0.199c-0.007-0.02-0.018-0.06-0.018-0.06c0,0.001-0.126,0.114-0.155,0.184
							c-0.004-0.022-0.013-0.081-0.013-0.081c0,0.001-0.147,0.16-0.168,0.231c-0.017-0.026-0.034-0.068-0.034-0.068
							c0,0.001-0.117,0.16-0.137,0.235c-0.023-0.031-0.053-0.057-0.053-0.057c0,0.001-0.112,0.142-0.123,0.225
							c-0.027-0.03-0.06-0.057-0.06-0.057c0.001,0.001-0.115,0.185-0.077,0.283c-0.023-0.032-0.054-0.093-0.054-0.093
							c0,0.001-0.163,0.2-0.131,0.282c-0.01-0.03-0.028-0.082-0.028-0.082s-0.007,0.01-0.019,0.025
							c0.006-0.03,0.009-0.049,0.009-0.049s-0.086,0.01-0.104,0.015c0.078-0.031,0.11-0.353,0.11-0.353s-0.056,0.021-0.074,0.028
							c0.067-0.061,0.113-0.343,0.113-0.343s-0.059,0.024-0.081,0.039c0.041-0.11,0.046-0.318,0.046-0.318S12.54,4.615,12.507,4.64
							c0.035-0.102,0.018-0.323,0.018-0.323s-0.03,0.026-0.054,0.045c0.053-0.068,0.027-0.313,0.027-0.313s-0.041,0.041-0.064,0.06
							c0.057-0.06,0.026-0.316,0.026-0.316s-0.051,0.057-0.066,0.071c0.056-0.062,0.02-0.313,0.02-0.313s-0.03,0.033-0.061,0.078
							c0-0.001-0.001-0.003-0.001-0.004c0.047-0.071,0.009-0.303,0.009-0.303s-0.027,0.031-0.056,0.074c0-0.001,0-0.001,0-0.002
							c0.036-0.081-0.003-0.29-0.003-0.29s-0.024,0.029-0.05,0.07c0.027-0.087-0.013-0.276-0.013-0.276s-0.02,0.026-0.042,0.062
							c0.017-0.092-0.022-0.257-0.022-0.257s-0.016,0.022-0.035,0.055c0.009-0.093-0.029-0.239-0.029-0.239
							s-0.002,0.003-0.004,0.007c-0.003-0.09-0.035-0.201-0.035-0.201s-0.044,0.071-0.07,0.145
							c-0.015-0.029-0.027-0.048-0.027-0.048s-0.037,0.128-0.035,0.22c-0.016-0.028-0.028-0.046-0.028-0.046
							s-0.038,0.146-0.029,0.239c-0.019-0.033-0.035-0.055-0.035-0.055s-0.039,0.165-0.022,0.257
							c-0.023-0.037-0.042-0.062-0.042-0.062s-0.04,0.189-0.013,0.276c-0.026-0.04-0.049-0.07-0.049-0.07s-0.039,0.21-0.003,0.29
							c-0.023-0.029-0.056-0.072-0.056-0.072s-0.036,0.219,0.005,0.296c-0.024-0.027-0.058-0.067-0.058-0.067
							s-0.032,0.227,0.012,0.302c-0.025-0.025-0.058-0.06-0.058-0.06s-0.028,0.234,0.019,0.306
							c-0.025-0.021-0.057-0.051-0.057-0.051s-0.024,0.241,0.027,0.311c-0.025-0.018-0.054-0.043-0.054-0.043
							s-0.021,0.251,0.035,0.317c-0.023-0.016-0.05-0.035-0.05-0.035s-0.019,0.294,0.055,0.332c-0.035-0.013-0.1-0.046-0.1-0.046
							s0.03,0.315,0.107,0.347c-0.02-0.008-0.11-0.03-0.11-0.03s0.042,0.289,0.119,0.34c0.031-0.127,0.069-0.239,0.106-0.228
							c0.001,0.004-0.026,0.238-0.053,0.466c-0.002,0.002-0.004,0.004-0.006,0.006c0.01-0.04-0.027-0.112-0.064-0.171
							c0.005-0.022,0.01-0.043,0.015-0.065c-0.02-0.003-0.048-0.008-0.068-0.012c-0.01-0.013-0.016-0.021-0.016-0.021
							s-0.043,0.064-0.053,0.094c0.031-0.083-0.069-0.257-0.069-0.258c0,0-0.06,0.027-0.082,0.06
							c0.038-0.098-0.088-0.286-0.087-0.287c0,0-0.032,0.038-0.059,0.068c0.009-0.113-0.123-0.236-0.123-0.237
							c0,0-0.019,0.044-0.041,0.074c-0.014-0.114-0.148-0.214-0.148-0.215c0,0-0.007,0.017-0.024,0.043
							c-0.022-0.072-0.161-0.205-0.161-0.206c0,0-0.01,0.033-0.014,0.055c-0.029-0.07-0.171-0.195-0.171-0.196
							c0,0-0.003,0.026-0.005,0.07c-0.018-0.102-0.135-0.19-0.135-0.191l-0.021,0.064c-0.012-0.063-0.156-0.212-0.156-0.213
							l-0.012,0.067c0.001-0.059-0.14-0.191-0.139-0.192c0,0.001-0.006,0.029-0.008,0.064c0,0-0.001-0.001-0.001-0.001
							C9.948,4.196,9.822,4.076,9.822,4.076S9.817,4.102,9.816,4.135C9.797,4.072,9.684,3.963,9.684,3.963
							c0,0-0.004,0.022-0.006,0.052c-0.027-0.064-0.126-0.16-0.126-0.161c0,0-0.003,0.019-0.004,0.046
							C9.516,3.836,9.429,3.751,9.429,3.75c0,0,0,0.003-0.001,0.006c-0.031-0.048-0.081-0.1-0.098-0.118
							C9.327,3.634,9.324,3.632,9.324,3.632S9.317,3.691,9.325,3.747c-0.023-0.016-0.04-0.026-0.04-0.026s0.02,0.095,0.058,0.156
							c-0.023-0.014-0.04-0.024-0.04-0.024s0.028,0.108,0.074,0.167c-0.029-0.017-0.05-0.027-0.05-0.027S9.365,4.114,9.419,4.17
							c-0.031-0.017-0.056-0.028-0.06-0.03C9.362,4.149,9.41,4.278,9.47,4.327C9.433,4.308,9.403,4.295,9.399,4.294
							c0.002,0.008,0.084,0.199,0.16,0.203C9.56,4.499,9.561,4.501,9.562,4.503c-0.056-0.029-0.112-0.05-0.112-0.05
							c-0.001,0,0.097,0.206,0.176,0.202C9.627,4.659,9.629,4.663,9.63,4.667C9.572,4.639,9.513,4.62,9.513,4.62
							c-0.001,0,0.112,0.214,0.192,0.2c0.003,0.005,0.005,0.01,0.008,0.015C9.653,4.808,9.593,4.791,9.593,4.791
							S9.72,5.012,9.8,4.988C9.804,4.994,9.808,5,9.812,5.006C9.75,4.982,9.689,4.968,9.689,4.968c0,0.001,0.104,0.161,0.185,0.205
							c-0.039,0-0.069,0.013-0.069,0.013c0,0.001,0.099,0.119,0.181,0.162C9.945,5.345,9.911,5.349,9.911,5.349
							c0,0.001,0.145,0.149,0.241,0.184c-0.057,0.004-0.122,0.021-0.122,0.021c0,0.001,0.184,0.135,0.293,0.16
							c-0.045,0.006-0.091,0.019-0.091,0.019c0,0.001,0.211,0.156,0.313,0.161c-0.024,0.009-0.041,0.028-0.041,0.028
							c0,0.001,0.167,0.139,0.262,0.146c-0.021,0.004-0.041,0.011-0.041,0.011c-0.023,0.037,0.214,0.169,0.301,0.147
							c0.006,0.004,0.012,0.008,0.018,0.011c-0.014,0.001-0.023,0.001-0.023,0.001c0,0,0.189,0.169,0.28,0.154
							c0.011,0.006,0.022,0.012,0.033,0.018c0.038,0.031,0.19,0.147,0.273,0.139c0.048,0.023,0.098,0.045,0.149,0.067
							c0.012,0.005,0.024,0.01,0.036,0.016c-0.018-0.004-0.037-0.009-0.057-0.013c-0.003-0.002-0.005-0.004-0.008-0.006
							c0,0-0.001-0.001-0.001-0.001c-0.015-0.009-0.037-0.015-0.061-0.021c-0.058-0.013-0.125-0.018-0.125-0.019
							c0,0,0,0.001,0.001,0.001c-0.005-0.001-0.01-0.002-0.016-0.004c-0.007-0.045-0.192-0.085-0.192-0.086
							c0,0-0.012,0.041-0.019,0.04c0.018-0.051-0.183-0.101-0.183-0.101c0,0-0.011,0.062-0.019,0.06
							c0.035-0.055-0.169-0.112-0.169-0.113c0,0-0.014,0.078-0.024,0.076c0.043-0.057-0.164-0.1-0.164-0.1
							c0,0-0.018,0.033-0.016,0.044c-0.023-0.038-0.181-0.084-0.181-0.084c0,0,0.001,0.043,0.005,0.056
							c-0.029-0.036-0.188-0.07-0.188-0.071c0,0,0.015,0.035,0.02,0.049c-0.031-0.035-0.178-0.048-0.178-0.049
							c0,0,0.01,0.019,0.017,0.033c-0.031-0.035-0.176-0.048-0.176-0.048c0,0,0.017,0.027,0.025,0.04
							c-0.025-0.037-0.178-0.05-0.178-0.051c0,0,0.014,0.022,0.036,0.045l-0.005,0C9.914,6.273,9.757,6.259,9.757,6.259
							c0,0,0.013,0.02,0.034,0.042H9.788C9.756,6.267,9.615,6.256,9.615,6.256s0.013,0.018,0.032,0.038c0,0-0.001,0-0.001,0
							c-0.04-0.029-0.167-0.039-0.167-0.039c0,0,0.012,0.017,0.03,0.036C9.464,6.264,9.348,6.256,9.348,6.256
							c0,0,0.011,0.014,0.027,0.031C9.326,6.264,9.223,6.258,9.223,6.258s0.009,0.011,0.024,0.026
							C9.195,6.265,9.103,6.26,9.103,6.26s0.001,0.001,0.003,0.003C9.053,6.25,8.982,6.247,8.982,6.247s0,0,0.001,0.001
							C8.99,6.256,9.018,6.285,9.051,6.307C9.031,6.31,9.017,6.313,9.017,6.313s0.066,0.04,0.12,0.055
							C9.118,6.371,9.105,6.374,9.105,6.374s0.077,0.044,0.134,0.054C9.216,6.432,9.2,6.437,9.2,6.437c0,0,0.089,0.047,0.146,0.052
							C9.32,6.494,9.301,6.5,9.301,6.5s0.104,0.05,0.16,0.048C9.432,6.555,9.41,6.563,9.41,6.563s0.116,0.05,0.171,0.043
							C9.559,6.614,9.528,6.625,9.528,6.625c0,0,0.123,0.049,0.176,0.038c-0.02,0.009-0.05,0.021-0.05,0.021
							c0,0,0.129,0.046,0.182,0.033c-0.019,0.01-0.046,0.023-0.046,0.023c0,0,0.135,0.044,0.187,0.027
							C9.96,6.777,9.937,6.79,9.937,6.79c0,0.001,0.141,0.041,0.192,0.022c-0.016,0.011-0.035,0.023-0.035,0.023
							c0,0,0.148,0.037,0.198,0.015c-0.013,0.011-0.029,0.023-0.029,0.023c0,0,0.158,0.034,0.204,0.008
							c-0.011,0.01-0.024,0.021-0.024,0.021s0.046,0.009,0.095,0.012h0.074c0.021-0.002,0.038-0.007,0.045-0.017
							c-0.005,0.005-0.011,0.012-0.016,0.017h0.207c0.004-0.003,0.007-0.007,0.008-0.012c0.003,0-0.001,0.006-0.005,0.012h0.205
							c0.003-0.003,0.005-0.005,0.006-0.009c0.003,0,0.001,0.004-0.001,0.009h0.193c0.013-0.004,0.022-0.01,0.026-0.018
							c0.005,0,0.006,0.008,0.006,0.008c0,0,0.191,0.01,0.224-0.032c0.009-0.001,0.018-0.003,0.027-0.004
							c0.037,0,0.181-0.003,0.215-0.037c0.035-0.007,0.07-0.014,0.105-0.023c0.004-0.001,0.008-0.002,0.012-0.003
							c-0.019,0.009-0.038,0.018-0.057,0.027c0,0-0.006,0-0.009,0c0,0-0.001,0-0.014,0c-0.013,0.002-0.018,0.01-0.036,0.02
							c-0.001,0-0.001,0.001-0.001,0.001c-0.028,0.015-0.054,0.033-0.065,0.04c-0.005,0.002-0.01,0.005-0.016,0.008
							c-0.01-0.003-0.028,0.003-0.047,0.011h0.278c0.009-0.014,0.019-0.03,0.027-0.044c0-0.001,0-0.001,0.001-0.001
							c0.01-0.016,0.019-0.031,0.025-0.038v0c0.001-0.001,0.002-0.002,0.003-0.003v0c0.004-0.004,0.007-0.009,0.01-0.012
							c0.002,0.031,0.003,0.065,0.002,0.1h0.041c0.002-0.033,0.004-0.067,0.006-0.102c0-0.006,0.001-0.013,0.001-0.02
							c0.002,0.002,0.003,0.006,0.004,0.009c0,0,0,0,0,0.001c0.002,0.006,0.004,0.013,0.007,0.016
							c0.007,0.009,0.02,0.072,0.028,0.081c0.001,0.004,0.003,0.009,0.007,0.014h0.162c-0.077-0.063-0.152-0.13-0.224-0.2
							c0.011,0.006,0.165,0.084,0.213,0.111c0.013,0.003,0.025,0.005,0.038,0.008c0.034,0.034,0.178,0.037,0.215,0.037
							c0.009,0.001,0.018,0.003,0.027,0.004c0.033,0.041,0.224,0.032,0.224,0.032c0,0,0.001-0.009,0.006-0.008
							c0.004,0.008,0.014,0.013,0.026,0.018h0.193c-0.002-0.004-0.003-0.009-0.001-0.009c0.001,0.003,0.003,0.006,0.006,0.009h0.205
							c-0.004-0.006-0.008-0.012-0.005-0.012c0.001,0.005,0.004,0.009,0.008,0.012h0.207c-0.005-0.005-0.011-0.011-0.016-0.017
							c0.008,0.009,0.024,0.014,0.045,0.017h0.074c0.05-0.004,0.095-0.012,0.095-0.012s-0.013-0.011-0.023-0.021
							c0.045,0.026,0.204-0.008,0.204-0.008c0,0-0.016-0.012-0.029-0.023c0.049,0.022,0.198-0.015,0.198-0.015
							c0,0-0.019-0.013-0.035-0.023c0.051,0.019,0.192-0.021,0.192-0.022c0,0-0.023-0.013-0.04-0.023
							c0.052,0.016,0.187-0.027,0.187-0.027c0,0-0.026-0.013-0.045-0.023c0.053,0.013,0.182-0.033,0.182-0.033
							c0,0-0.03-0.012-0.05-0.021c0.054,0.011,0.177-0.038,0.177-0.038c0,0-0.031-0.011-0.053-0.018
							c0.054,0.007,0.171-0.043,0.171-0.043s-0.023-0.008-0.051-0.015c0.057,0.001,0.16-0.048,0.16-0.048s-0.019-0.006-0.045-0.012
							c0.057-0.005,0.147-0.051,0.147-0.052c0,0-0.016-0.004-0.039-0.009c0.056-0.01,0.134-0.054,0.134-0.054
							s-0.013-0.003-0.033-0.006c0.054-0.014,0.12-0.055,0.12-0.055s-0.014-0.003-0.034-0.006c0.032-0.021,0.058-0.049,0.066-0.058
							C15.026,6.249,15.028,6.248,15.03,6.247C15.03,6.248,15.03,6.248,15.03,6.247z M12.347,6.224
							c0.032,0.004,0.06-0.032,0.084-0.083c0.009,0.056,0.013,0.094,0.013,0.094S12.345,6.236,12.347,6.224z M12.181,6.179
							c0.011-0.046,0.021-0.093,0.033-0.143c0.085-0.086,0.124-0.189,0.142-0.258c0.008,0.024,0.015,0.052,0.022,0.08
							c-0.066,0.1-0.195,0.3-0.174,0.298c-0.009,0.011-0.019,0.024-0.026,0.036C12.178,6.188,12.18,6.183,12.181,6.179z
							 M11.731,5.751c0.001,0.004-0.005,0.003-0.015,0C11.721,5.748,11.726,5.748,11.731,5.751z M11.514,5.813
							c0.022,0.064,0.051,0.123,0.084,0.14c0,0.003-0.001,0.005-0.001,0.008c-0.033,0.002-0.108-0.001-0.108-0.001
							S11.499,5.897,11.514,5.813z M11.837,6.195c0.023,0.002-0.127-0.228-0.187-0.318c0.008-0.025,0.016-0.047,0.024-0.067
							c0.032,0.108,0.1,0.281,0.148,0.315c0.007,0.027,0.015,0.054,0.023,0.08C11.842,6.202,11.84,6.199,11.837,6.195z"/>
						<path fill="#3E602E" d="M11.58,5.627c-0.008,0-0.017-0.003-0.024-0.008c-0.001,0.003-0.001,0.005-0.002,0.008
							C11.569,5.63,11.58,5.63,11.58,5.627z"/>
					</g>
					<g id="Leaf_:_Strokes_and_Highlights_23_">
						<g id="highlights_23_">
							<path id="highlight_119_" opacity="0.63" fill="#79A640" d="M15.03,6.247C15.029,6.248,15.029,6.248,15.03,6.247
								c-0.24,0.087-1.698,0.587-3.021,0.467c0,0,0.093-0.05,0.221-0.106c0.011,0.01,0.026,0.016,0.046,0.011
								c0.089-0.075,0.216-0.088,0.216-0.089c0,0-0.003,0.03-0.004,0.038c0.012-0.044,0.208-0.102,0.218-0.105
								c-0.002,0.006-0.021,0.056-0.015,0.054c0.065-0.093,0.219-0.111,0.219-0.112c0,0-0.01,0.028-0.016,0.051
								c0.001,0.005-0.004,0.017-0.001,0.025c0,0.002-0.005,0.004-0.004,0.003c-0.001-0.001-0.001-0.002-0.001-0.003
								c0-0.005,0.002-0.014,0.006-0.026c0.038-0.05,0.218-0.106,0.218-0.107c0,0-0.049,0.101-0.039,0.098
								c0.102-0.091,0.218-0.129,0.218-0.13c0,0-0.014,0.061-0.017,0.072c0.023-0.037,0.188-0.101,0.198-0.105
								c-0.001,0.004-0.019,0.064-0.022,0.077c0.028-0.035,0.183-0.077,0.193-0.08c-0.002,0.005-0.02,0.045-0.024,0.058
								c0.031-0.035,0.177-0.057,0.177-0.058c0,0-0.01,0.028-0.017,0.042c0.031-0.035,0.177-0.048,0.177-0.048
								c0,0-0.017,0.027-0.024,0.04c0.024-0.037,0.178-0.05,0.178-0.051c0,0-0.038,0.043-0.038,0.044
								c0.045-0.033,0.185-0.051,0.185-0.051c0,0-0.013,0.02-0.034,0.042h0.003c0.032-0.033,0.173-0.045,0.173-0.045
								s-0.013,0.018-0.032,0.038c0,0,0.001,0,0.001,0c0.04-0.029,0.167-0.039,0.167-0.039c0,0-0.012,0.017-0.03,0.036
								c0.045-0.026,0.161-0.034,0.161-0.034c0,0-0.01,0.014-0.027,0.031c0.049-0.023,0.152-0.029,0.152-0.029
								s-0.009,0.011-0.024,0.026c0.052-0.019,0.144-0.024,0.144-0.024s-0.001,0.001-0.003,0.003
								C14.959,6.25,15.03,6.247,15.03,6.247z"/>
							<path id="highlight_118_" opacity="0.63" fill="#79A640" d="M12.007,2.524c-0.015-0.029-0.027-0.049-0.027-0.049
								s-0.037,0.128-0.035,0.22c-0.016-0.027-0.028-0.046-0.028-0.046s-0.038,0.146-0.029,0.239
								c-0.019-0.032-0.035-0.055-0.035-0.055S11.813,3,11.83,3.091c-0.022-0.036-0.042-0.062-0.042-0.062s-0.04,0.189-0.013,0.276
								c-0.026-0.041-0.05-0.07-0.05-0.07s-0.039,0.21-0.002,0.29c-0.023-0.029-0.056-0.072-0.056-0.072s-0.036,0.219,0.005,0.297
								c-0.024-0.027-0.058-0.067-0.058-0.067s-0.033,0.227,0.012,0.302c-0.026-0.024-0.058-0.06-0.058-0.06
								s-0.028,0.234,0.02,0.307c-0.026-0.022-0.057-0.051-0.057-0.051s-0.024,0.241,0.027,0.312
								c-0.025-0.018-0.054-0.043-0.054-0.043s-0.021,0.252,0.035,0.317c-0.023-0.015-0.05-0.035-0.05-0.035
								s-0.019,0.294,0.054,0.332c-0.035-0.013-0.1-0.046-0.1-0.046s0.03,0.315,0.107,0.347c-0.02-0.008-0.109-0.031-0.109-0.031
								s0.05,0.349,0.143,0.348c0.001,0.009-0.118-0.017-0.118-0.017s0.062,0.249,0.151,0.259c0.001,0.008-0.123,0.003-0.123,0.003
								s0.09-0.592,0.172-0.568c0.001,0.008-0.103-0.015-0.103-0.015s0.094,0.336,0.172,0.374c0.003,0.014-0.078-0.032-0.075-0.018
								c0.003,0.059,0.103,0.348,0.166,0.393c0.01,0.038,0.175,0.573,0.177,0.584c0,0,0.014-0.349,0.004-0.768
								c-0.039-1.72,0.068-3.53,0.068-3.53C12.07,2.394,12.013,2.507,12.007,2.524z M11.564,5.068c0,0.002-0.004,0.001-0.012-0.001
								C11.556,5.068,11.56,5.068,11.564,5.068z M11.551,5.366c0.005,0.002,0.01,0.003,0.016,0.002
								C11.568,5.371,11.561,5.369,11.551,5.366z M11.564,4.782c0.003,0,0.006,0.001,0.009,0.001
								C11.573,4.785,11.569,4.784,11.564,4.782z M11.584,4.51c0,0,0.005,0.001,0.007,0.001C11.591,4.513,11.588,4.512,11.584,4.51z
								"/>
							<path id="highlight_117_" opacity="0.63" fill="#79A640" d="M14.721,3.594c-0.354,1.183-2.098,2.437-2.712,3.12
								c0.004-0.011,0.101-0.277,0.173-0.521c-0.001,0.005,0.001-0.004,0,0c0.008-0.012,0.017-0.024,0.026-0.036
								c-0.028,0.003,0.21-0.353,0.21-0.353s0.012,0.009,0.024,0.021c-0.02-0.077,0.134-0.268,0.134-0.268s0.017,0.051,0.027,0.081
								c-0.031-0.083,0.132-0.282,0.131-0.282c0,0,0.032,0.06,0.055,0.093c-0.038-0.098,0.078-0.282,0.077-0.283
								c0,0,0.032,0.026,0.06,0.057c0.011-0.083,0.123-0.224,0.123-0.225c0,0,0.029,0.026,0.053,0.057
								c0.02-0.075,0.137-0.233,0.137-0.235c0,0,0.018,0.042,0.035,0.068c0.022-0.071,0.168-0.23,0.168-0.231
								c0,0,0.008,0.059,0.013,0.081c0.029-0.07,0.155-0.183,0.155-0.184c0,0,0.02,0.074,0.024,0.071
								c-0.042-0.047,0.138-0.209,0.137-0.21c0,0,0.007,0.037,0.017,0.07c0.005-0.005-0.002,0.001,0,0
								c-0.019-0.054,0.141-0.201,0.14-0.201c0,0,0.007,0.03,0.01,0.069c0.001-0.001,0.001-0.001,0.003-0.002
								c-0.001-0.059,0.139-0.191,0.139-0.192c0,0,0.006,0.028,0.008,0.064c0,0,0.001-0.001,0.001-0.001
								c0.011-0.062,0.136-0.181,0.136-0.182c0,0.002,0.005,0.027,0.006,0.06c0.019-0.063,0.132-0.172,0.132-0.173
								c0,0,0.004,0.023,0.006,0.053c0.027-0.064,0.126-0.161,0.126-0.161s0.003,0.019,0.004,0.046
								c0.032-0.063,0.119-0.149,0.119-0.149c0,0,0,0.003,0.001,0.006C14.645,3.674,14.701,3.615,14.721,3.594z"/>
							<path id="highlight_116_" opacity="0.63" fill="#79A640" d="M12.009,6.714L12.009,6.714l-0.247-0.097
								c-0.051-0.022-0.101-0.044-0.149-0.067C11.53,6.557,11.378,6.441,11.34,6.41c-0.011-0.006-0.022-0.012-0.033-0.018
								c-0.091,0.015-0.281-0.154-0.28-0.154c0,0,0.008,0,0.023-0.001c-0.006-0.004-0.012-0.008-0.018-0.011
								c-0.087,0.023-0.323-0.11-0.301-0.147c0,0,0.019-0.007,0.041-0.011c-0.095-0.007-0.262-0.145-0.262-0.146
								c0,0,0.016-0.019,0.041-0.028c-0.102-0.005-0.313-0.16-0.313-0.161c0,0,0.045-0.013,0.091-0.019
								c-0.11-0.026-0.293-0.159-0.293-0.16c0,0,0.065-0.017,0.122-0.021C10.06,5.498,9.916,5.35,9.916,5.349
								c0,0,0.034-0.003,0.075-0.002C9.908,5.304,9.809,5.186,9.809,5.185c0,0,0.03-0.012,0.069-0.013
								C9.797,5.129,9.693,4.969,9.693,4.968c0,0,0.061,0.014,0.123,0.038C9.812,5,9.808,4.994,9.805,4.988
								c-0.08,0.024-0.209-0.196-0.209-0.196s0.061,0.017,0.122,0.043C9.715,4.83,9.712,4.825,9.71,4.82
								C9.63,4.834,9.517,4.62,9.518,4.62c0,0,0.058,0.019,0.117,0.047C9.633,4.663,9.631,4.659,9.63,4.656
								C9.551,4.66,9.453,4.454,9.454,4.454c0,0,0.057,0.021,0.112,0.05C9.566,4.501,9.564,4.499,9.564,4.497
								c-0.076-0.004-0.158-0.195-0.16-0.203c0.004,0.001,0.034,0.014,0.071,0.033c-0.06-0.048-0.108-0.178-0.111-0.186
								c0.004,0.001,0.029,0.013,0.06,0.03C9.37,4.114,9.332,3.993,9.332,3.993s0.022,0.011,0.05,0.027
								c-0.046-0.06-0.074-0.167-0.074-0.167s0.017,0.009,0.04,0.024C9.31,3.816,9.29,3.721,9.29,3.721s0.017,0.01,0.04,0.026
								C9.321,3.691,9.329,3.632,9.329,3.632s0.002,0.002,0.006,0.006C9.604,4.463,11.185,5.957,12.009,6.714z"/>
							<path id="highlight_115_" opacity="0.63" fill="#79A640" d="M12.009,6.714c0,0-0.028,0.038-0.147,0.096
								c-0.036,0.008-0.07,0.016-0.105,0.023c-0.034,0.034-0.178,0.037-0.215,0.037c-0.009,0.001-0.018,0.003-0.027,0.004
								c-0.033,0.041-0.224,0.032-0.224,0.032c0,0-0.001-0.009-0.006-0.008c-0.025,0.044-0.224,0.028-0.224,0.027
								c0,0,0.011-0.018,0.006-0.018c-0.018,0.047-0.223,0.024-0.223,0.023c0,0,0.022-0.026,0.017-0.027
								c-0.012,0.05-0.221,0.019-0.221,0.019c0,0,0.014-0.014,0.022-0.023c-0.031,0.038-0.215,0.005-0.214,0.004
								c0,0,0.013-0.011,0.024-0.021c-0.046,0.026-0.204-0.008-0.204-0.008c0,0,0.016-0.012,0.029-0.023
								c-0.049,0.022-0.198-0.015-0.198-0.015c0,0,0.019-0.013,0.035-0.023C10.083,6.831,9.942,6.791,9.942,6.79
								c0,0,0.023-0.013,0.04-0.023C9.93,6.783,9.795,6.74,9.795,6.739c0,0,0.026-0.013,0.046-0.023
								C9.788,6.73,9.659,6.684,9.659,6.684c0,0,0.03-0.012,0.05-0.021C9.655,6.673,9.532,6.625,9.532,6.625
								c0,0,0.031-0.011,0.053-0.018C9.531,6.613,9.414,6.563,9.414,6.563s0.023-0.008,0.051-0.015C9.409,6.549,9.305,6.5,9.305,6.5
								S9.324,6.494,9.35,6.488C9.293,6.483,9.204,6.437,9.204,6.437c0,0,0.016-0.004,0.039-0.009
								c-0.056-0.01-0.134-0.054-0.134-0.054s0.013-0.003,0.033-0.006c-0.054-0.014-0.12-0.055-0.12-0.055S9.036,6.31,9.056,6.307
								C9.023,6.285,8.995,6.256,8.988,6.249C9.404,6.402,10.625,6.796,12.009,6.714z"/>
						</g>
						<g id="strokes_23_">
							<g>
								<path fill="#7DC243" d="M12.172,6.331L12.27,6.11c0.042-0.073,0.057-0.145,0.142-0.213l0.013-0.01l0.015,0.019l0.033,0.045
									c-0.093,0.031-0.025-0.013-0.044-0.023c0.003-0.035,0.007-0.07,0.015-0.105c0.015-0.069,0.045-0.14,0.101-0.197l0.042-0.042
									l0.025,0.057l0.039,0.088l-0.084,0.013C12.582,5.618,12.6,5.493,12.7,5.384l0.048-0.053l0.033,0.074l0.023,0.053
									c0.002,0.016,0.034,0.031,0.001,0.018l-0.055,0.05c0.006-0.108,0.018-0.212,0.074-0.317l0.055-0.103l0.049,0.11
									c0.014,0.032,0.034,0.068,0.051,0.088l-0.105,0.031c0.019-0.106,0.042-0.213,0.143-0.302l0.054-0.048l0.041,0.066
									l0.052,0.083l-0.123,0.024c0.021-0.111,0.067-0.205,0.14-0.288l0.075-0.085l0.046,0.107l0.039,0.092l-0.14,0.013
									c0.018-0.112,0.078-0.211,0.157-0.287l0.093-0.09l0.032,0.125l0.021,0.083l-0.139-0.014
									c0.047-0.084,0.091-0.162,0.174-0.235l0.088-0.078l0.024,0.116l0.02,0.094l-0.129-0.013
									c0.043-0.087,0.094-0.162,0.155-0.235l0.071-0.084l0.035,0.103l0.023,0.067l-0.111-0.007
									c0.045-0.078,0.082-0.15,0.149-0.227l0.062-0.072l0.032,0.091l0.023,0.065l-0.1-0.007c0.042-0.068,0.072-0.129,0.139-0.199
									l0.09-0.094l-0.007,0.134l-0.004,0.077l-0.089-0.029c0.05-0.065,0.088-0.125,0.165-0.187l0.044-0.036l0.021,0.056
									l0.015,0.038L14.18,4.147c0.045-0.058,0.062-0.109,0.145-0.167l0.037-0.026l0.014,0.048l0.011,0.038l-0.064-0.008
									c0.045-0.053,0.079-0.103,0.14-0.156l0.028-0.025L14.5,3.89l0.006,0.036l-0.038-0.005c0.043-0.062,0.076-0.128,0.142-0.177
									l0.019-0.014l-0.008,0.023L14.608,3.79l-0.012-0.005c0.03-0.05,0.057-0.102,0.097-0.146c-0.036,0.046-0.059,0.1-0.085,0.152
									l-0.027,0.053l0.016-0.058l0.01-0.037l0.01,0.009c-0.048,0.045-0.08,0.119-0.113,0.182l-0.023,0.044l-0.015-0.049
									L14.455,3.9l0.035,0.014c-0.034,0.041-0.073,0.105-0.106,0.159L14.349,4.13L14.32,4.065l-0.016-0.037l0.051,0.022
									c-0.024,0.021-0.072,0.091-0.101,0.141l-0.043,0.073l-0.034-0.079l-0.016-0.038l0.065,0.02
									c-0.043,0.038-0.093,0.109-0.133,0.169L14,4.475l0.004-0.167l0.002-0.077l0.083,0.039c-0.036,0.04-0.076,0.116-0.109,0.177
									l-0.056,0.106L13.88,4.439l-0.025-0.064l0.093,0.019c-0.044,0.054-0.086,0.135-0.122,0.206l-0.061,0.121l-0.05-0.128
									l-0.026-0.066l0.107,0.018c-0.05,0.064-0.095,0.139-0.127,0.211l-0.081,0.183L13.54,4.744L13.517,4.65l0.112,0.038
									c-0.048,0.044-0.095,0.123-0.129,0.194l-0.087,0.177L13.36,4.868l-0.023-0.083l0.125,0.035
									c-0.053,0.061-0.104,0.129-0.117,0.207l-0.043,0.257l-0.098-0.243l-0.037-0.093l0.12,0.022
									c-0.055,0.055-0.098,0.136-0.115,0.21l-0.039,0.168l-0.084-0.144l-0.049-0.084l0.095,0.018
									c-0.052,0.037-0.089,0.132-0.103,0.214L12.97,5.485l-0.081-0.103c-0.034-0.043-0.05-0.08-0.068-0.122l0.103,0.008
									c-0.043,0.071-0.063,0.171-0.07,0.262l-0.005,0.065L12.8,5.58c-0.078-0.023-0.068-0.054-0.086-0.075
									c-0.011-0.023-0.02-0.045-0.027-0.069l0.081,0.021c-0.067,0.064-0.099,0.186-0.114,0.293l-0.023,0.172L12.57,5.762
									l-0.035-0.09l0.067,0.015c-0.042,0.037-0.067,0.095-0.088,0.155c-0.01,0.03-0.018,0.062-0.024,0.094
									c-0.028,0.006,0.05,0.052-0.068,0.039L12.4,5.935l0.027,0.009c-0.044,0.03-0.095,0.115-0.135,0.178L12.172,6.331z"/>
							</g>
							<g>
								<path fill="#7DC243" d="M11.791,6.081l-0.074-0.194c-0.028-0.052-0.059-0.175,0.043-0.125
									c-0.016-0.022-0.073-0.105-0.098-0.16c-0.031-0.062-0.057-0.127-0.075-0.195l-0.004-0.013l0.014,0.002l0.1,0.017
									l0.013,0.002l-0.004,0.013c-0.052,0.169-0.107,0.339-0.145,0.509c-0.01,0.011,0.006,0.066-0.018,0.026l0.072,0l0.073,0.001
									c-0.044,0.114-0.062,0.019-0.086,0.03c-0.088-0.063-0.117-0.162-0.137-0.251l-0.013-0.058l0.061,0.009l0.129,0.02
									L11.6,5.782c-0.072-0.11-0.139-0.22-0.165-0.362L11.42,5.334l0.085,0.035c0.048,0.02,0.101,0.039,0.146,0.047l-0.042,0.092
									c-0.117-0.107-0.157-0.247-0.169-0.386l-0.009-0.098l0.096,0.034l0.102,0.036l-0.081,0.095
									c-0.061-0.114-0.1-0.232-0.095-0.369l0.004-0.118l0.105,0.061l0.091,0.053l-0.1,0.103c-0.038-0.049-0.061-0.119-0.074-0.176
									c-0.014-0.06-0.017-0.117-0.018-0.18l-0.001-0.133l0.114,0.068l0.087,0.051l-0.106,0.095
									c-0.045-0.118-0.08-0.232-0.068-0.372L11.5,4.152l0.094,0.067l0.071,0.051l-0.092,0.071
									c-0.024-0.104-0.041-0.203-0.026-0.317l0.012-0.094l0.076,0.056l0.06,0.045L11.61,4.086
									c-0.012-0.097-0.033-0.179-0.012-0.297l0.015-0.085l0.066,0.061l0.051,0.047L11.65,3.854
									c-0.007-0.099-0.021-0.183-0.008-0.298l0.008-0.076l0.062,0.05l0.067,0.054L11.71,3.628c-0.016-0.101-0.026-0.2-0.005-0.306
									l0.014-0.071l0.051,0.052l0.061,0.063l-0.06,0.035c-0.013-0.091-0.029-0.181,0.007-0.278l0.035-0.094l0.002,0.087
									c0.001,0.019,0.077,0.031,0.012,0.046l-0.003-0.081c0.001-0.054,0.008-0.106,0.02-0.16l0.011-0.044l0.027,0.037l0.045,0.061
									L11.89,2.984c0.009-0.083,0.012-0.165,0.036-0.249l0.004-0.014l0.009,0.012l0.026,0.035l-0.011,0.003l0.03-0.179
									l-0.018,0.181l-0.001,0.014l-0.01-0.011l-0.029-0.033l0.013-0.002c-0.014,0.077-0.01,0.163-0.01,0.244l0,0.058l-0.037-0.046
									l-0.047-0.059l0.038-0.008c-0.011,0.048-0.017,0.1-0.018,0.15l0.004,0.075c-0.068,0.073-0.061-0.011-0.088-0.009
									l0.037-0.008c-0.02,0.073,0,0.164,0.021,0.243L11.872,3.5L11.78,3.416l-0.065-0.059l0.065-0.02
									c-0.015,0.085-0.003,0.183,0.014,0.273l0.022,0.113l-0.091-0.07l-0.068-0.052l0.07-0.025
									c-0.005,0.074,0.009,0.178,0.019,0.267l0.015,0.125l-0.096-0.083L11.613,3.84l0.081-0.024
									c-0.01,0.064,0.007,0.166,0.023,0.249l0.025,0.132L11.631,4.12L11.57,4.077l0.088-0.038
									c-0.008,0.083,0.011,0.181,0.035,0.268l0.038,0.135l-0.13-0.064l-0.078-0.038l0.105-0.052
									c-0.007,0.09,0.026,0.202,0.066,0.295l0.089,0.207l-0.195-0.112L11.5,4.628l0.114-0.065c0.001,0.047,0.009,0.1,0.017,0.148
									c0.01,0.05,0.021,0.087,0.048,0.128l0.181,0.275l-0.281-0.171l-0.09-0.055l0.109-0.057
									c-0.009,0.093,0.022,0.204,0.066,0.293l0.077,0.156l-0.158-0.06L11.483,5.18l0.087-0.064
									c-0.001,0.114,0.035,0.238,0.105,0.311l0.121,0.127l-0.163-0.035c-0.064-0.014-0.114-0.035-0.169-0.059l0.07-0.051
									c0.015,0.109,0.075,0.224,0.138,0.324l0.055,0.086L11.628,5.8L11.5,5.777l0.048-0.049c0.015,0.081,0.04,0.166,0.094,0.215
									c0.007,0.035,0.045-0.033,0.026,0.074l-0.06-0.001l-0.06-0.003c-0.08-0.042-0.02-0.063-0.031-0.085
									c0.047-0.174,0.109-0.339,0.169-0.507l0.009,0.015l-0.099-0.021l0.011-0.011c0.016,0.066,0.041,0.131,0.07,0.193
									c0.019,0.062,0.089,0.12,0.084,0.176c-0.103-0.051-0.056,0.052-0.037,0.113L11.791,6.081z"/>
							</g>
							<g>
								<path fill="#7DC243" d="M12.164,6.049c0.05-0.052,0.093-0.111,0.122-0.176c0.025-0.059,0.066-0.166-0.039-0.143
									c-0.063,0.009-0.014-0.057,0.003-0.073c0.02-0.029,0.039-0.06,0.056-0.092c0.033-0.063,0.059-0.131,0.073-0.2l0.009,0.011
									l-0.128,0.005l0.011-0.012l0.058,0.492c0.012,0.081,0.023,0.165,0.044,0.24c-0.02,0.044,0.061-0.11,0.044-0.161l0.027,0.024
									l-0.111,0.016l-0.014,0.002l-0.003,0c-0.018-0.011,0.027,0.032,0-0.052l-0.008-0.002c-0.005,0-0.001-0.001-0.001-0.001
									l0.019-0.009c0.013-0.008,0.025-0.02,0.036-0.033c0.042-0.054,0.068-0.125,0.085-0.198l0.047,0.051l-0.141,0.025
									l-0.107,0.019l0.065-0.09c0.068-0.094,0.138-0.21,0.141-0.31l0.07,0.045l-0.129,0.044l-0.201,0.069l0.158-0.161
									c0.073-0.074,0.114-0.197,0.12-0.313l0.096,0.063l-0.146,0.081l-0.226,0.126l0.139-0.223
									c0.063-0.101,0.106-0.228,0.116-0.349l0.106,0.071l-0.13,0.071l-0.237,0.129l0.136-0.227
									c0.053-0.089,0.057-0.184,0.071-0.29l0.122,0.064l-0.097,0.074l-0.227,0.174l0.112-0.263
									c0.041-0.095,0.076-0.208,0.074-0.301l0.101,0.058l-0.111,0.049L12.22,4.443l0.068-0.149
									c0.044-0.097,0.088-0.212,0.087-0.304l0.091,0.038l-0.103,0.084l-0.179,0.145l0.094-0.211
									c0.044-0.098,0.075-0.212,0.066-0.316l0.084,0.031l-0.084,0.078l-0.121,0.113l0.04-0.16c0.023-0.094,0.046-0.199,0.04-0.285
									l0.079,0.021l-0.083,0.108l-0.113,0.146l0.036-0.181c0.022-0.108,0.042-0.225,0.032-0.328l0.066,0.021l-0.07,0.066
									l-0.081,0.077l0.02-0.108c0.017-0.094,0.029-0.192,0.028-0.288l0.04,0.014l-0.064,0.065
									c-0.081-0.054-0.015-0.062-0.033-0.096c0.003-0.056,0-0.114-0.009-0.169l0.037,0.01l-0.049,0.053l-0.041,0.045l0.006-0.06
									c0.007-0.076,0.019-0.156,0.011-0.229l0.015-0.001l-0.021,0.08l-0.01,0.039l-0.002-0.04l-0.007-0.124l-0.003-0.062
									c-0.002-0.035,0.002-0.027,0.002,0.004c-0.004-0.031-0.002-0.04,0.001-0.004l0.006,0.062l0.013,0.124l-0.012-0.001
									l0.018-0.08l0.007-0.034l0.007,0.033c0.018,0.081,0.014,0.158,0.015,0.237l-0.035-0.015l0.048-0.055l0.03-0.034l0.007,0.045
									c0.01,0.06,0.013,0.119,0.011,0.179c-0.014,0.016,0.024,0.091-0.039,0.059l0.058-0.06l0.035-0.036l0.005,0.05
									c0.01,0.101,0.007,0.201-0.002,0.302L12.198,3.31l0.066-0.07l0.056-0.059l0.01,0.08c0.015,0.127-0.004,0.24-0.024,0.358
									l-0.077-0.035l0.082-0.109l0.068-0.091l0.011,0.112c0.011,0.118-0.011,0.217-0.033,0.322L12.277,3.77l0.082-0.08
									l0.074-0.072l0.01,0.103c0.013,0.133-0.018,0.254-0.066,0.373l-0.085-0.066l0.102-0.086l0.088-0.074l0.004,0.112
									c0.005,0.142-0.04,0.25-0.085,0.365l-0.085-0.082l0.105-0.062l0.097-0.058l0.004,0.115c0.005,0.138-0.031,0.252-0.076,0.37
									l-0.114-0.089l0.096-0.075l0.128-0.101L12.55,4.53c-0.004,0.113-0.028,0.244-0.09,0.347l-0.101-0.098l0.131-0.069
									l0.124-0.065l-0.017,0.136c-0.019,0.149-0.067,0.285-0.152,0.412l-0.086-0.097l0.147-0.079l0.114-0.061l-0.018,0.125
									c-0.02,0.139-0.067,0.277-0.185,0.381L12.374,5.37l0.109-0.033l0.076-0.023l-0.006,0.069
									c-0.014,0.154-0.094,0.259-0.172,0.365L12.34,5.677l0.142-0.021l0.064-0.009l-0.017,0.061
									c-0.022,0.079-0.051,0.162-0.117,0.225c-0.016,0.015-0.035,0.03-0.056,0.04c-0.011,0.005-0.022,0.01-0.036,0.012
									l-0.015,0.001l-0.011-0.002c-0.026-0.085,0.02-0.043,0.003-0.054l0.004,0l0.016-0.002l0.124-0.011l0.028-0.003L12.467,5.94
									c-0.002,0.047-0.013,0.089-0.03,0.129l-0.031,0.058c-0.02,0.007,0.017,0.023-0.051,0.022
									c-0.008-0.012-0.015-0.027-0.016-0.036c-0.021-0.084-0.03-0.165-0.041-0.247l-0.049-0.494L12.248,5.36l0.012,0l0.128-0.001
									l0.012,0L12.397,5.37c-0.016,0.072-0.044,0.139-0.079,0.203c-0.017,0.032-0.037,0.063-0.058,0.092
									c-0.013,0.032-0.073,0.06-0.012,0.056c0.106-0.023,0.075,0.103,0.042,0.154C12.259,5.94,12.215,5.999,12.164,6.049z"/>
							</g>
							<g>
								<path fill="#7DC243" d="M12.278,6.639c0.05-0.056,0.123-0.083,0.195-0.103l0.013-0.004l-0.001,0.015L12.481,6.6
									l-0.018-0.011c0.056-0.041,0.13-0.103,0.205-0.115l0.235-0.036l-0.203,0.065c-0.021,0.007,0.031,0.094-0.05,0.035
									l0.058-0.055c0.042-0.036,0.093-0.065,0.156-0.076l0.053-0.009L12.91,6.454L12.901,6.53l-0.073-0.038
									c0.063-0.057,0.128-0.107,0.212-0.142l0.09-0.037l-0.027,0.101l-0.013,0.048c-0.01,0.008,0.011,0.049-0.016,0.003
									l-0.064-0.001c0.064-0.049,0.125-0.094,0.203-0.131l0.104-0.05l-0.024,0.117c-0.005,0.022-0.008,0.051-0.006,0.066
									L13.19,6.421l0.093-0.07c0.037-0.022,0.053-0.044,0.124-0.065L13.5,6.261l-0.02,0.105l-0.018,0.09l-0.116-0.057
									c0.059-0.065,0.126-0.112,0.217-0.133l0.111-0.026l-0.027,0.115l-0.02,0.085l-0.121-0.072
									c0.06-0.06,0.135-0.096,0.214-0.114l0.136-0.031l-0.047,0.13l-0.025,0.068l-0.112-0.087
									c0.067-0.038,0.121-0.074,0.219-0.086l0.118-0.015L13.96,6.343l-0.025,0.056L13.84,6.312
									c0.062-0.029,0.122-0.048,0.186-0.063l0.138-0.032l-0.067,0.121l-0.027,0.049l-0.079-0.084l0.193-0.064l0.132-0.044
									l-0.072,0.126l-0.038,0.066l-0.075-0.074c0.065-0.031,0.117-0.063,0.206-0.076l0.116-0.016l-0.072,0.096l-0.04,0.053
									l-0.062-0.072c0.066-0.03,0.127-0.057,0.209-0.062l0.097-0.006l-0.061,0.077l-0.037,0.046l-0.054-0.065
									c0.057-0.026,0.113-0.044,0.176-0.05l0.127-0.013l-0.096,0.081L14.589,6.35l-0.035-0.061
									c0.062-0.013,0.112-0.029,0.186-0.037l0.073-0.008l-0.056,0.049l-0.03,0.027l-0.02-0.034
									c0.063-0.01,0.122-0.027,0.191-0.023l0.014,0.001l-0.009,0.011l-0.009,0.011l-0.007-0.009l0.105-0.022l-0.101,0.034
									l-0.014,0.005l0.007-0.014l0.006-0.012l0.005,0.012c-0.056,0.005-0.119,0.029-0.177,0.047l-0.06,0.019l0.04-0.053
									L14.72,6.26l0.017,0.041l-0.162,0.057L14.43,6.409l0.11-0.112l0.048-0.049l0.031,0.068c-0.048,0.007-0.1,0.026-0.144,0.049
									l-0.167,0.087l0.112-0.152l0.035-0.047l0.036,0.071c-0.05,0.005-0.114,0.032-0.166,0.06l-0.182,0.097l0.119-0.169
									l0.038-0.054l0.044,0.079c-0.042,0.007-0.108,0.041-0.159,0.071l-0.169,0.099l0.093-0.174l0.036-0.067l0.059,0.082
									l-0.165,0.066l-0.148,0.059l0.069-0.143l0.024-0.05l0.071,0.089c-0.053,0.016-0.108,0.038-0.154,0.063l-0.162,0.087
									l0.068-0.174l0.022-0.058L13.9,6.385C13.865,6.39,13.8,6.425,13.755,6.457l-0.186,0.131l0.074-0.218l0.023-0.068L13.755,6.4
									c-0.054,0.019-0.11,0.039-0.149,0.076l-0.187,0.179l0.066-0.251l0.022-0.085l0.084,0.089
									c-0.048,0.007-0.106,0.04-0.143,0.078l-0.167,0.167l0.051-0.225l0.02-0.09l0.072,0.078c0,0-0.047,0.022-0.072,0.039
									l-0.089,0.061L13.17,6.579l-0.003-0.106c-0.001-0.042,0.005-0.069,0.013-0.103l0.079,0.067
									c-0.061,0.025-0.127,0.067-0.186,0.108l-0.045,0.031l-0.02-0.032c-0.048-0.078-0.014-0.078-0.018-0.106l0.019-0.06
									l0.064,0.063c-0.064,0.022-0.13,0.066-0.186,0.113l-0.093,0.078l0.02-0.116l0.013-0.075l0.046,0.047
									c-0.04,0.003-0.082,0.026-0.124,0.05l-0.062,0.043c-0.106-0.054-0.018-0.058-0.037-0.089l0.031,0.029
									c-0.083,0.008-0.136,0.04-0.206,0.088l-0.022,0.015l0.004-0.026l0.008-0.053l0.012,0.011
									C12.407,6.569,12.332,6.588,12.278,6.639z"/>
							</g>
							<g>
								<path fill="#7DC243" d="M12.192,6.766c0.086,0.055,0.189,0.073,0.287,0.094l-0.006,0.006l-0.015-0.052l-0.004-0.013
									l0.012,0.006c0.073,0.035,0.137,0.065,0.218,0.061l-0.013,0.017c0.008-0.025-0.063-0.055,0.009-0.075l0.075,0.036
									c0.05,0.021,0.104,0.039,0.153,0.036l-0.023,0.029l-0.018-0.064l-0.023-0.086l0.071,0.062
									c0.048,0.042,0.131,0.058,0.204,0.054l-0.033,0.051l-0.029-0.056L13.005,6.77l0.11,0.052
									c0.065,0.031,0.144,0.049,0.21,0.039l-0.026,0.085c-0.023-0.023-0.043-0.03-0.065-0.082l-0.037-0.085L13.296,6.8
									c0.067,0.014,0.151,0.033,0.201,0.034l-0.037,0.105l-0.068-0.055l-0.17-0.136l0.222,0.029l0.125,0.016
									c0.035,0.004,0.096,0.001,0.096,0.001l-0.024,0.117l-0.003,0c-0.019-0.01-0.029-0.029-0.044-0.043l-0.172-0.16l0.232,0.034
									c0.064,0.009,0.134,0.018,0.191,0.017l-0.05,0.1l-0.023-0.041l-0.07-0.126l0.137,0.03c0.056,0.012,0.123,0.017,0.175,0.005
									l-0.016,0.098L13.95,6.789l-0.162-0.125l0.199,0.029c0.054,0.008,0.118,0.01,0.164-0.003l-0.014,0.078l-0.044-0.039
									l-0.121-0.107l0.154,0.03c0.065,0.012,0.106,0.014,0.168-0.003l-0.009,0.067l-0.051-0.032l-0.087-0.055l0.099-0.01
									l0.125-0.012c0.013,0.019,0.054-0.052,0.043,0.038l-0.049-0.018L14.21,6.566l0.164,0.006
									c0.058,0.002,0.122-0.004,0.173-0.029l0.002,0.037l-0.05-0.024l-0.051-0.025l0.054-0.01l0.15-0.028l-0.004,0.023
									l-0.04-0.028l-0.021-0.014l0.024-0.005l0.156-0.03l0,0.007l-0.033-0.017l-0.008-0.004l0.009-0.002
									c0.045-0.011,0.09-0.024,0.131-0.045c-0.04,0.023-0.085,0.038-0.129,0.051l0.001-0.006l0.034,0.015l0.01,0.004l-0.01,0.003
									L14.616,6.49l0.004-0.019l0.042,0.024l0.026,0.015l-0.03,0.008l-0.147,0.04l0.003-0.035l0.052,0.02l0.041,0.016L14.568,6.58
									c-0.062,0.034-0.128,0.043-0.196,0.045l0.009-0.052c0.023,0.007,0.037,0.008,0.067,0.025c-0.03,0.11-0.045,0.04-0.068,0.067
									l-0.121,0.021l0.011-0.064l0.052,0.029l0.065,0.036l-0.073,0.031c-0.056,0.024-0.141,0.029-0.198,0.02l0.033-0.077
									l0.047,0.037l0.063,0.05l-0.077,0.028c-0.073,0.026-0.138,0.026-0.208,0.023l0.037-0.096l0.05,0.033l0.096,0.063
									l-0.112,0.035c-0.08,0.025-0.153,0.024-0.231,0.014l0.067-0.096l0.026,0.039l0.061,0.09l-0.111,0.01
									c-0.081,0.008-0.147,0.003-0.22-0.002l0.06-0.126c0.015,0.015,0.034,0.024,0.045,0.043l0,0.003l-0.004,0.113l-0.02,0.004
									c-0.085,0.018-0.114,0.002-0.164-0.002l-0.133-0.027l0.052-0.107l0.066,0.058l0.14,0.124L13.5,6.953
									c-0.096-0.01-0.154-0.033-0.23-0.054l0.062-0.063c0,0,0.016,0.025,0.03,0.036l0.091,0.077l-0.117,0.007
									c-0.097,0.006-0.181-0.022-0.26-0.065l0.056-0.051l0.023,0.059l0.021,0.054L13.121,6.95
									c-0.085-0.005-0.175-0.02-0.246-0.091l0.048-0.024l0.011,0.065l0.005,0.03l-0.028-0.001
									c-0.065-0.001-0.119-0.026-0.17-0.051l-0.074-0.042c0.012-0.054,0.019,0.031,0.029,0.04l0.019,0.017l-0.032,0.001
									c-0.078,0.001-0.155-0.042-0.22-0.075l0.008-0.007l0.013,0.052l0.002,0.009L12.478,6.87
									C12.38,6.846,12.277,6.825,12.192,6.766z"/>
							</g>
							<g>
								<path fill="#7DC243" d="M11.797,6.796c-0.059,0.046-0.136,0.059-0.208,0.067l-0.007,0.001l0.002-0.007l0.013-0.052
									l0.008,0.007c-0.065,0.033-0.142,0.076-0.22,0.075l-0.032-0.001l0.019-0.017c0.01-0.009,0.017-0.094,0.029-0.04
									l-0.074,0.042c-0.051,0.025-0.106,0.05-0.17,0.051l-0.028,0.001l0.005-0.03l0.011-0.065l0.048,0.024
									c-0.071,0.07-0.16,0.086-0.246,0.091l-0.054,0.003l0.021-0.054l0.023-0.059l0.056,0.051
									c-0.079,0.044-0.164,0.072-0.26,0.065l-0.117-0.007l0.091-0.077c0.013-0.011,0.03-0.036,0.03-0.036l0.062,0.063
									c-0.076,0.02-0.134,0.043-0.23,0.054L10.39,6.964l0.14-0.124l0.066-0.058l0.052,0.107l-0.133,0.027
									c-0.051,0.004-0.079,0.02-0.164,0.002l-0.02-0.004l-0.004-0.113l0-0.003c0.01-0.019,0.03-0.028,0.045-0.043l0.06,0.126
									c-0.073,0.005-0.14,0.009-0.22,0.002l-0.111-0.01l0.061-0.09l0.026-0.039l0.067,0.096c-0.078,0.01-0.151,0.011-0.231-0.014
									L9.91,6.791l0.096-0.063l0.05-0.033l0.037,0.096c-0.07,0.003-0.135,0.003-0.208-0.023L9.808,6.74l0.063-0.05l0.047-0.037
									L9.951,6.73C9.893,6.739,9.809,6.734,9.753,6.71L9.679,6.679l0.065-0.036l0.052-0.029l0.011,0.064L9.687,6.658
									C9.664,6.631,9.649,6.701,9.619,6.591c0.03-0.016,0.045-0.017,0.067-0.025l0.009,0.052C9.627,6.616,9.561,6.607,9.499,6.573
									L9.46,6.551l0.041-0.016l0.052-0.02L9.556,6.55l-0.147-0.04l-0.03-0.008l0.026-0.015l0.042-0.024L9.45,6.482L9.296,6.439
									l-0.01-0.003l0.01-0.004l0.034-0.015L9.33,6.422C9.285,6.409,9.241,6.394,9.201,6.371c0.041,0.021,0.086,0.034,0.131,0.045
									L9.34,6.418L9.332,6.422L9.299,6.439l0-0.007l0.156,0.03l0.024,0.005L9.458,6.481l-0.04,0.028L9.414,6.486l0.15,0.028
									l0.054,0.01L9.568,6.549l-0.05,0.024L9.52,6.537C9.57,6.562,9.635,6.567,9.693,6.565l0.164-0.006L9.701,6.617L9.652,6.636
									c-0.011-0.09,0.03-0.019,0.043-0.038L9.821,6.61l0.099,0.01L9.832,6.675L9.781,6.707L9.773,6.64
									c0.062,0.017,0.103,0.016,0.168,0.003l0.154-0.03L9.974,6.72L9.93,6.76L9.916,6.682c0.046,0.013,0.11,0.011,0.164,0.003
									l0.199-0.029l-0.162,0.125L10.07,6.818L10.054,6.72c0.052,0.012,0.119,0.007,0.175-0.005l0.137-0.03l-0.07,0.126
									l-0.023,0.041l-0.05-0.1c0.057,0.001,0.127-0.007,0.191-0.017l0.232-0.034l-0.172,0.16
									c-0.015,0.014-0.025,0.034-0.044,0.043l-0.003,0l-0.024-0.117c0,0,0.06,0.004,0.096-0.001l0.125-0.016l0.222-0.029
									l-0.17,0.136l-0.068,0.055L10.57,6.827c0.051-0.002,0.135-0.02,0.201-0.034l0.099-0.021l-0.037,0.085
									c-0.022,0.051-0.042,0.059-0.065,0.082l-0.026-0.085c0.066,0.01,0.145-0.008,0.21-0.039l0.11-0.052l-0.054,0.103
									l-0.029,0.056l-0.033-0.051c0.073,0.003,0.155-0.012,0.204-0.054l0.071-0.062l-0.024,0.086L11.18,6.905l-0.023-0.029
									c0.049,0.003,0.103-0.015,0.153-0.036l0.075-0.036c0.072,0.021,0.002,0.05,0.009,0.075l-0.013-0.017
									C11.463,6.865,11.526,6.835,11.6,6.8l0.012-0.006l-0.004,0.013l-0.015,0.052l-0.005-0.006
									C11.66,6.849,11.736,6.84,11.797,6.796z"/>
							</g>
							<g>
								<path fill="#7DC243" d="M12.281,6.545l0.208-0.096c0.062-0.033,0.147-0.075,0.177-0.114l0.017,0.033
									c-0.01-0.028-0.055,0.046-0.038-0.067l0.049-0.011l0.091-0.026c0.058-0.021,0.115-0.046,0.154-0.084l0.004,0.064
									l-0.063-0.042l-0.1-0.067l0.122-0.013c0.117-0.013,0.254-0.039,0.33-0.105l0.02,0.084c-0.04-0.013-0.075-0.024-0.117-0.056
									L13.002,5.94l0.182,0.015c0.071,0.006,0.185-0.048,0.267-0.108L13.448,5.94l-0.073-0.048l-0.122-0.08L13.4,5.777
									c0.109-0.026,0.205-0.063,0.28-0.126l0.023,0.125l-0.101-0.034l-0.246-0.081l0.261-0.062
									c0.082-0.019,0.188-0.07,0.275-0.126l0.024,0.136l-0.128-0.033l-0.196-0.05l0.181-0.089
									c0.088-0.043,0.187-0.096,0.248-0.151l0.036,0.116l-0.103-0.024l-0.306-0.071l0.308-0.063
									c0.062-0.013,0.137-0.059,0.185-0.117l0.037,0.101L14.086,5.21l-0.179-0.036l0.165-0.08c0.061-0.03,0.127-0.087,0.173-0.148
									l0.032,0.087l-0.083-0.021l-0.172-0.044l0.168-0.062c0.051-0.019,0.113-0.072,0.157-0.128l0.04,0.08l-0.098,0l-0.139,0
									l0.107-0.087c0.061-0.05,0.13-0.104,0.177-0.156l0.039,0.071l-0.118,0.011L14.222,4.71l0.102-0.088
									c0.066-0.057,0.147-0.126,0.191-0.178l0.044,0.055l-0.13,0.028l-0.126,0.028l0.092-0.088l0.188-0.18l0.027,0.035
									l-0.066,0.025l-0.068,0.026l0.043-0.057l0.133-0.177l0.01,0.01l-0.058,0.028L14.59,4.186l0.007-0.015
									c0.024-0.055,0.044-0.113,0.078-0.163c-0.03,0.052-0.047,0.111-0.067,0.167l-0.009-0.008l0.056-0.031l0.024-0.013
									l-0.014,0.024L14.553,4.34L14.528,4.31l0.064-0.03l0.095-0.045l-0.068,0.08l-0.172,0.202l-0.034-0.06l0.129-0.033
									l0.105-0.027l-0.061,0.082c-0.07,0.094-0.134,0.141-0.204,0.209l-0.033-0.076l0.118-0.012l0.11-0.012L14.505,4.67
									c-0.062,0.072-0.122,0.121-0.185,0.177l-0.032-0.087l0.098-0.002l0.105-0.002l-0.064,0.083
									c-0.053,0.068-0.107,0.131-0.203,0.172L14.22,4.905l0.083,0.019l0.082,0.019l-0.05,0.069
									c-0.056,0.077-0.12,0.143-0.213,0.194L14.108,5.09l0.092,0.015l0.106,0.018l-0.069,0.083
									c-0.065,0.08-0.145,0.143-0.258,0.172l0.002-0.134l0.103,0.021l0.13,0.026l-0.094,0.09c-0.094,0.09-0.184,0.135-0.282,0.189
									l-0.015-0.14l0.129,0.032l0.178,0.044l-0.155,0.092c-0.104,0.062-0.199,0.129-0.342,0.147l0.015-0.143l0.101,0.036
									l0.126,0.045l-0.103,0.08c-0.104,0.081-0.228,0.121-0.341,0.141l0.025-0.115l0.064,0.059l0.061,0.056l-0.064,0.037
									c-0.104,0.06-0.202,0.13-0.361,0.113l0.049-0.089c0.015,0.014,0.049,0.03,0.077,0.04l0.089,0.031l-0.07,0.053
									c-0.126,0.097-0.259,0.106-0.392,0.12l0.023-0.079l0.06,0.046l0.042,0.032L12.996,6.24c-0.058,0.05-0.124,0.079-0.191,0.094
									l-0.1,0.018l-0.047,0.005c0.007-0.102,0.024-0.02,0.035-0.038l0.018,0.033c-0.07,0.077-0.14,0.085-0.213,0.119L12.281,6.545
									z"/>
							</g>
							<g>
								<path fill="#7DC243" d="M11.885,6.377c-0.069-0.126-0.14-0.257-0.228-0.365c-0.016-0.029-0.048-0.026-0.07-0.026
									c-0.084-0.072-0.028-0.08-0.053-0.121C11.52,5.8,11.496,5.736,11.452,5.697l0.067-0.014l-0.064,0.158l-0.071,0.176
									l-0.014-0.191c-0.008-0.107-0.031-0.221-0.08-0.312l0.082,0.008L11.273,5.63l-0.092,0.1l0.003-0.141
									c0.002-0.095-0.009-0.205-0.051-0.276l0.082,0.019c-0.029,0.021-0.062,0.047-0.08,0.069l-0.107,0.127l0.002-0.17
									c0.001-0.068-0.024-0.146-0.069-0.175l0.095-0.018L11.007,5.25l-0.084,0.144l-0.039-0.168
									c-0.017-0.074-0.06-0.155-0.115-0.21l0.12-0.022l-0.037,0.093L10.755,5.33l-0.043-0.257
									c-0.013-0.078-0.064-0.146-0.117-0.207l0.125-0.035l-0.023,0.083l-0.053,0.191l-0.087-0.177
									c-0.034-0.07-0.081-0.149-0.129-0.194l0.112-0.038L10.518,4.79l-0.047,0.195l-0.081-0.183
									c-0.032-0.072-0.077-0.147-0.127-0.211l0.107-0.018L10.343,4.64l-0.05,0.128l-0.061-0.121
									c-0.036-0.072-0.078-0.152-0.122-0.206l0.093-0.019l-0.025,0.064l-0.044,0.114l-0.056-0.107
									c-0.033-0.063-0.071-0.128-0.114-0.182l0.087-0.02l-0.022,0.083L9.992,4.515L9.936,4.38
									C9.907,4.309,9.868,4.235,9.818,4.182l0.075-0.025L9.884,4.221L9.865,4.349L9.803,4.236C9.769,4.176,9.73,4.114,9.686,4.064
									l0.066-0.02L9.739,4.105l-0.02,0.094L9.673,4.118c-0.034-0.06-0.075-0.132-0.11-0.178l0.035-0.017L9.592,3.978L9.584,4.045
									L9.554,3.986C9.521,3.923,9.489,3.849,9.441,3.804l0.01-0.009l0.01,0.037L9.477,3.89L9.45,3.837
									C9.424,3.786,9.4,3.731,9.365,3.685c0.039,0.044,0.066,0.096,0.096,0.146L9.45,3.836L9.437,3.8L9.428,3.777L9.447,3.79
									C9.514,3.839,9.547,3.905,9.59,3.967L9.551,3.975l0.002-0.056l0.001-0.05l0.034,0.032c0.064,0.061,0.098,0.116,0.145,0.177
									L9.668,4.092l0.008-0.062l0.01-0.079l0.056,0.059c0.054,0.057,0.096,0.118,0.136,0.183L9.798,4.21l0.008-0.065l0.011-0.091
									l0.065,0.066c0.066,0.067,0.108,0.142,0.146,0.224L9.934,4.35l0.02-0.084l0.022-0.095l0.064,0.075
									c0.054,0.062,0.094,0.126,0.134,0.195l-0.1,0.007l0.023-0.065l0.032-0.091l0.062,0.072c0.066,0.077,0.104,0.149,0.149,0.227
									l-0.111,0.007l0.023-0.067l0.035-0.103l0.071,0.084c0.061,0.072,0.111,0.148,0.155,0.235L10.385,4.76l0.02-0.094
									l0.024-0.116l0.088,0.078c0.083,0.073,0.127,0.151,0.174,0.235l-0.139,0.014l0.021-0.083l0.032-0.125l0.093,0.09
									c0.079,0.076,0.139,0.175,0.157,0.287l-0.14-0.013l0.039-0.092l0.046-0.107l0.075,0.085c0.073,0.083,0.119,0.177,0.14,0.288
									l-0.123-0.024l0.052-0.083l0.04-0.065L11.04,5.08c0.094,0.079,0.112,0.187,0.109,0.286l-0.105-0.043
									c0.036-0.039,0.069-0.062,0.107-0.087l0.054-0.037l0.028,0.055c0.06,0.117,0.06,0.228,0.056,0.342L11.2,5.556l0.096-0.098
									l0.052-0.053l0.03,0.062c0.056,0.116,0.075,0.234,0.08,0.357l-0.084-0.016l0.068-0.157l0.024-0.056l0.043,0.042
									c0.062,0.061,0.089,0.143,0.094,0.22c-0.01,0.022,0.032,0.114-0.031,0.077c0.049-0.007,0.096,0.016,0.119,0.052
									C11.775,6.111,11.829,6.243,11.885,6.377z"/>
							</g>
							<g>
								<path fill="#7DC243" d="M11.778,6.591L11.56,6.518c-0.072-0.034-0.142-0.041-0.213-0.119l0.018-0.033
									c0.012,0.018,0.029-0.064,0.035,0.038l-0.047-0.005l-0.1-0.018c-0.067-0.016-0.133-0.044-0.191-0.094l-0.038-0.033
									l0.042-0.032l0.06-0.046l0.023,0.079c-0.133-0.014-0.266-0.023-0.392-0.12l-0.07-0.053l0.089-0.031
									c0.028-0.01,0.062-0.026,0.077-0.04l0.049,0.089c-0.159,0.017-0.257-0.052-0.361-0.113l-0.064-0.037l0.061-0.056
									l0.064-0.059l0.025,0.115c-0.113-0.019-0.237-0.06-0.341-0.141l-0.103-0.08l0.126-0.044l0.101-0.036l0.015,0.143
									c-0.143-0.017-0.237-0.084-0.342-0.147L9.929,5.552l0.178-0.044l0.129-0.032l-0.015,0.14
									c-0.098-0.054-0.189-0.1-0.282-0.189l-0.094-0.09l0.13-0.026l0.103-0.021l0.002,0.134C9.967,5.395,9.887,5.332,9.822,5.252
									L9.753,5.169l0.106-0.018l0.092-0.015L9.937,5.251c-0.093-0.05-0.157-0.116-0.213-0.194l-0.05-0.069L9.755,4.97l0.083-0.019
									L9.835,5.057c-0.096-0.041-0.15-0.104-0.203-0.172L9.568,4.802l0.105,0.002L9.77,4.807L9.739,4.893
									C9.675,4.837,9.615,4.788,9.553,4.716L9.483,4.634l0.11,0.012L9.71,4.658L9.678,4.733c-0.07-0.068-0.134-0.115-0.204-0.209
									L9.413,4.442L9.518,4.47l0.129,0.033l-0.034,0.06L9.44,4.361l-0.068-0.08l0.095,0.045l0.064,0.03L9.506,4.386L9.392,4.193
									L9.378,4.17l0.024,0.013l0.056,0.031L9.45,4.221C9.43,4.165,9.414,4.106,9.384,4.054c0.034,0.05,0.054,0.108,0.078,0.163
									l0.007,0.015L9.453,4.224L9.396,4.197l0.01-0.01l0.133,0.177L9.582,4.42L9.514,4.393L9.449,4.368l0.027-0.035l0.188,0.18
									l0.092,0.088L9.63,4.573L9.5,4.545L9.543,4.49c0.044,0.051,0.126,0.121,0.191,0.178l0.102,0.088L9.702,4.744L9.584,4.733
									l0.039-0.071C9.67,4.713,9.74,4.768,9.801,4.818l0.107,0.087l-0.139,0l-0.098,0l0.04-0.08
									C9.755,4.88,9.817,4.933,9.868,4.952l0.168,0.062L9.864,5.058L9.782,5.079l0.032-0.087C9.86,5.053,9.926,5.11,9.987,5.14
									l0.165,0.08L9.973,5.256L9.882,5.274l0.037-0.101c0.049,0.058,0.123,0.104,0.185,0.117l0.308,0.063l-0.306,0.071
									l-0.103,0.024l0.036-0.116c0.06,0.055,0.16,0.108,0.248,0.151l0.181,0.089l-0.196,0.05l-0.128,0.033l0.024-0.136
									c0.086,0.056,0.193,0.107,0.275,0.126l0.261,0.062l-0.246,0.081l-0.101,0.034l0.023-0.125c0.074,0.063,0.171,0.1,0.28,0.126
									l0.146,0.035l-0.122,0.08L10.61,5.986l-0.003-0.093c0.082,0.06,0.196,0.114,0.267,0.108l0.182-0.015L10.922,6.09
									c-0.042,0.032-0.077,0.043-0.117,0.056l0.02-0.084c0.076,0.066,0.213,0.093,0.33,0.105l0.122,0.013l-0.1,0.067l-0.063,0.042
									l0.004-0.064c0.04,0.038,0.096,0.064,0.154,0.084l0.091,0.026l0.049,0.011c0.017,0.113-0.027,0.039-0.038,0.067l0.017-0.033
									c0.03,0.039,0.114,0.082,0.177,0.114L11.778,6.591z"/>
							</g>
							<g id="stroke_46_">
								<path fill="#7DC243" d="M11.793,6.682c-0.149-0.042-0.297-0.072-0.446-0.137l0.037-0.026
									c-0.019,0.031,0.069,0.035-0.037,0.089l-0.061-0.043c-0.042-0.024-0.083-0.048-0.124-0.051l0.047-0.047l0.012,0.075
									l0.019,0.117L11.146,6.58c-0.055-0.047-0.121-0.092-0.185-0.114l0.064-0.063l0.018,0.06
									c-0.004,0.027,0.03,0.028-0.019,0.105l-0.02,0.032l-0.044-0.031c-0.059-0.042-0.124-0.084-0.185-0.11l0.08-0.066
									c0.007,0.033,0.014,0.061,0.012,0.103l-0.004,0.106l-0.093-0.064l-0.088-0.061c-0.025-0.017-0.072-0.04-0.072-0.04
									l0.073-0.077l0.02,0.09l0.049,0.225l-0.165-0.169c-0.037-0.038-0.094-0.072-0.142-0.079l0.085-0.088l0.022,0.085
									l0.064,0.252l-0.186-0.181c-0.039-0.038-0.095-0.058-0.149-0.077l0.09-0.098l0.023,0.068l0.072,0.218L10.28,6.473
									C10.235,6.44,10.171,6.405,10.136,6.4l0.07-0.096l0.022,0.058l0.066,0.175l-0.161-0.089
									C10.086,6.423,10.031,6.4,9.979,6.384l0.072-0.088l0.024,0.05l0.068,0.143l-0.147-0.06L9.83,6.362L9.89,6.28l0.035,0.067
									l0.092,0.174L9.85,6.421C9.799,6.39,9.734,6.356,9.692,6.348l0.044-0.079l0.038,0.055l0.118,0.17L9.711,6.395
									C9.659,6.367,9.596,6.339,9.545,6.334l0.037-0.071l0.035,0.048l0.08,0.11L9.564,6.376L9.402,6.321l0.034-0.069l0.06,0.052
									l0.154,0.135L9.46,6.367L9.294,6.303l0.017-0.041L9.341,6.3l0.043,0.056L9.32,6.334C9.261,6.313,9.197,6.286,9.139,6.279
									l0.002-0.014l0.023,0.014l0.038,0.023L9.16,6.291L9.046,6.26l0.117,0.019L9.158,6.29L9.134,6.279L9.104,6.265l0.031-0.001
									c0.071-0.002,0.131,0.017,0.196,0.03L9.311,6.328L9.275,6.295L9.22,6.244l0.073,0.01C9.37,6.264,9.42,6.282,9.484,6.299
									L9.449,6.361L9.386,6.314L9.21,6.183l0.209,0.061l0.182,0.053L9.548,6.363L9.512,6.316l-0.06-0.078l0.097,0.007
									c0.082,0.006,0.143,0.034,0.209,0.064L9.694,6.381l-0.04-0.053L9.583,6.231l0.116,0.017C9.788,6.262,9.84,6.294,9.905,6.326
									L9.829,6.4L9.792,6.333L9.721,6.207l0.132,0.045l0.192,0.066L9.965,6.4L9.939,6.352L9.873,6.23l0.137,0.033
									c0.064,0.016,0.123,0.036,0.185,0.065l-0.095,0.086l-0.025-0.057l-0.048-0.111l0.118,0.016
									c0.098,0.013,0.152,0.05,0.218,0.088l-0.113,0.086l-0.024-0.068l-0.046-0.13l0.136,0.032
									c0.078,0.019,0.153,0.056,0.213,0.116l-0.122,0.071l-0.019-0.086l-0.026-0.116l0.111,0.027
									c0.09,0.022,0.157,0.07,0.216,0.135l-0.116,0.056l-0.017-0.09l-0.019-0.105l0.093,0.027
									c0.071,0.021,0.087,0.043,0.124,0.066l0.092,0.071l-0.096,0.042c0.002-0.015-0.001-0.044-0.006-0.066L10.72,6.302
									l0.103,0.051c0.077,0.038,0.138,0.084,0.202,0.133l-0.064,0c-0.027,0.046-0.006,0.005-0.016-0.003l-0.012-0.048
									l-0.026-0.101l0.09,0.038c0.083,0.035,0.148,0.086,0.21,0.143l-0.074,0.038l-0.008-0.076l-0.006-0.056l0.053,0.009
									c0.063,0.011,0.114,0.041,0.155,0.077l0.058,0.056c-0.081,0.059-0.029-0.028-0.049-0.035l0.037-0.026
									C11.5,6.576,11.651,6.626,11.793,6.682z"/>
							</g>
						</g>
					</g>
				</g>
				<path fill="#010101" d="M10.503,6.935c0.088-0.32,0.38-0.555,0.728-0.555c0.348,0,0.64,0.235,0.728,0.555h0.079
					c-0.066-0.268-0.261-0.485-0.517-0.58c0.145-0.095,0.242-0.259,0.242-0.445c0-0.294-0.238-0.532-0.532-0.532
					s-0.532,0.238-0.532,0.532c0,0.187,0.096,0.35,0.242,0.445c-0.255,0.095-0.451,0.312-0.517,0.58"/>
				<circle fill="#010101" cx="11.231" cy="5.91" r="0.423"/>
				<g>
					<circle fill="#FFFFFF" cx="11.231" cy="5.91" r="0.423"/>
				</g>
				<g>
					<g>
						<path fill="#FFFFFF" d="M10.503,6.935h1.455c-0.088-0.32-0.38-0.555-0.728-0.555C10.883,6.38,10.591,6.616,10.503,6.935"/>
					</g>
					<g>
						<path fill="#010101" d="M12.792,6.38c0.348,0,0.64,0.235,0.728,0.555h0.079c-0.066-0.268-0.261-0.485-0.517-0.58
							c0.145-0.095,0.242-0.259,0.242-0.445c0-0.294-0.238-0.532-0.532-0.532s-0.532,0.238-0.532,0.532
							c0,0.187,0.096,0.35,0.242,0.445c-0.255,0.095-0.451,0.312-0.517,0.58h0.079C12.152,6.616,12.445,6.38,12.792,6.38z
							 M12.369,5.91c0-0.234,0.189-0.423,0.423-0.423c0.234,0,0.423,0.189,0.423,0.423c0,0.234-0.189,0.423-0.423,0.423
							C12.559,6.333,12.369,6.144,12.369,5.91z"/>
						<g>
							<path fill="#FFFFFF" d="M12.792,6.38c-0.348,0-0.64,0.235-0.728,0.555h1.455C13.432,6.616,13.14,6.38,12.792,6.38z"/>
						</g>
						<g>
							<circle fill="#FFFFFF" cx="12.792" cy="5.91" r="0.423"/>
						</g>
					</g>
					<g>
						<path fill="#010101" d="M12.006,6.261c0.403,0,0.737,0.295,0.797,0.681h0.083c-0.046-0.327-0.269-0.596-0.57-0.708
							c0.155-0.101,0.258-0.276,0.258-0.476c0-0.314-0.254-0.568-0.568-0.568c-0.314,0-0.568,0.254-0.568,0.568
							c0,0.199,0.103,0.374,0.258,0.476c-0.3,0.112-0.523,0.381-0.57,0.708h0.083C11.27,6.556,11.604,6.261,12.006,6.261z
							 M11.554,5.758c0-0.25,0.202-0.452,0.452-0.452c0.25,0,0.452,0.202,0.452,0.452c0,0.25-0.202,0.452-0.452,0.452
							C11.757,6.21,11.554,6.008,11.554,5.758z"/>
						<g>
							<path fill="#FFFFFF" d="M12.006,6.264c-0.403,0-0.737,0.295-0.797,0.681h1.593C12.743,6.56,12.409,6.264,12.006,6.264z"/>
						</g>
						<g>
							<circle fill="#FFFFFF" cx="12.006" cy="5.758" r="0.452"/>
						</g>
					</g>
				</g>
			</g>
		</g>
	</g>
</g>
</svg>
