<?xml version="1.0" encoding="utf-8"?>
<!-- Generator: Adobe Illustrator 16.0.0, SVG Export Plug-In . SVG Version: 6.00 Build 0)  -->
<!DOCTYPE svg PUBLIC "-//W3C//DTD SVG 1.1//EN" "http://www.w3.org/Graphics/SVG/1.1/DTD/svg11.dtd">
<svg version="1.1" id="Layer_1" xmlns="http://www.w3.org/2000/svg" xmlns:xlink="http://www.w3.org/1999/xlink" x="0px" y="0px"
	 width="47.698px" height="47.655px" viewBox="0 0 47.698 47.655" enable-background="new 0 0 47.698 47.655" xml:space="preserve">
<path fill="#B13C96" d="M47.698,23.85C47.698,10.678,37.021,0,23.85,0C10.678,0,0,10.678,0,23.85C0,35.82,8.82,45.729,20.316,47.437
	c0,0,1.14,0.219,3.06,0.219c1.919,0,3.382-0.139,3.382-0.139C38.558,46.08,47.698,36.035,47.698,23.85"/>
<path fill="#333333" d="M43.061,24.13c0,10.61-8.601,19.212-19.211,19.212c-10.61,0-19.211-8.602-19.211-19.212
	c0-10.609,8.601-19.211,19.211-19.211C34.46,4.919,43.061,13.521,43.061,24.13"/>
<path fill="#FFFFFF" d="M34.943,14.317c-1.19,0.216-2.336-0.576-2.552-1.767c-0.096-0.519-0.592-0.862-1.109-0.769l-18.591,3.386
	c-0.519,0.094-0.863,0.591-0.768,1.109c0.216,1.19-0.576,2.336-1.767,2.553c-0.518,0.095-0.862,0.592-0.768,1.109l2.257,12.395
	c0.094,0.518,0.591,0.861,1.11,0.767c1.19-0.216,2.335,0.576,2.552,1.767c0.095,0.519,0.592,0.862,1.11,0.769l18.589-3.386
	c0.52-0.094,0.863-0.591,0.769-1.108c-0.217-1.191,0.576-2.337,1.767-2.553c0.519-0.096,0.862-0.591,0.769-1.11l-2.257-12.393
	C35.96,14.566,35.462,14.223,34.943,14.317 M29.087,22.382c0.133-0.024,0.24-0.012,0.324,0.041c0.086,0.054,0.139,0.136,0.158,0.241
	c0.02,0.106-0.001,0.201-0.06,0.283c-0.058,0.08-0.156,0.133-0.291,0.158l-1.38,0.251l0.147,0.81l1.562-0.284
	c0.136-0.025,0.248-0.009,0.334,0.045c0.091,0.056,0.146,0.142,0.166,0.255c0.021,0.109-0.002,0.209-0.065,0.293
	c-0.062,0.081-0.162,0.135-0.297,0.16l-1.931,0.351c-0.18,0.033-0.323,0.013-0.424-0.058c-0.103-0.071-0.17-0.197-0.203-0.375
	l-0.479-2.637c-0.021-0.117-0.021-0.216,0.001-0.3c0.025-0.093,0.077-0.167,0.155-0.221c0.069-0.049,0.163-0.084,0.276-0.104
	l1.877-0.343c0.137-0.024,0.248-0.01,0.334,0.043c0.086,0.056,0.142,0.138,0.162,0.246c0.02,0.11-0.002,0.207-0.065,0.29
	c-0.06,0.079-0.16,0.132-0.298,0.157l-1.506,0.274l0.123,0.674L29.087,22.382z M24.147,18.077l2.339-0.426
	c0.414-0.076,0.812,0.199,0.888,0.614s-0.199,0.813-0.614,0.888l-2.338,0.427c-0.415,0.075-0.813-0.199-0.888-0.615
	C23.458,18.551,23.732,18.152,24.147,18.077 M19.247,18.97l2.339-0.426c0.414-0.075,0.812,0.199,0.887,0.613
	c0.076,0.416-0.199,0.813-0.614,0.89l-2.338,0.425c-0.415,0.076-0.812-0.199-0.888-0.614C18.558,19.442,18.833,19.045,19.247,18.97
	 M20.633,25.068c0.098,0.15,0.217,0.254,0.355,0.311c0.138,0.057,0.295,0.069,0.464,0.039c0.183-0.033,0.331-0.107,0.439-0.22
	c0.109-0.111,0.18-0.265,0.213-0.454c0.014-0.104,0.041-0.197,0.08-0.273c0.048-0.094,0.138-0.153,0.267-0.177
	c0.11-0.021,0.213,0.002,0.305,0.063c0.093,0.063,0.15,0.152,0.171,0.266c0.023,0.123,0.017,0.264-0.017,0.416
	c-0.033,0.15-0.102,0.306-0.203,0.461c-0.102,0.156-0.245,0.297-0.424,0.416c-0.179,0.116-0.4,0.2-0.655,0.246
	c-0.192,0.035-0.372,0.05-0.537,0.041c-0.167-0.008-0.325-0.039-0.471-0.094s-0.288-0.138-0.421-0.247
	c-0.119-0.098-0.227-0.214-0.322-0.344c-0.094-0.13-0.174-0.275-0.237-0.43s-0.112-0.323-0.145-0.503
	c-0.053-0.292-0.058-0.567-0.014-0.814c0.043-0.251,0.132-0.477,0.263-0.674s0.299-0.362,0.501-0.489
	c0.2-0.126,0.425-0.213,0.669-0.257c0.297-0.055,0.578-0.043,0.834,0.034s0.466,0.194,0.625,0.35c0.162,0.159,0.26,0.324,0.29,0.492
	c0.02,0.104-0.001,0.206-0.06,0.299c-0.061,0.097-0.146,0.154-0.255,0.174c-0.115,0.021-0.211,0.007-0.285-0.041
	c-0.063-0.041-0.133-0.111-0.215-0.216c-0.114-0.144-0.236-0.246-0.362-0.302c-0.122-0.056-0.267-0.068-0.43-0.039
	c-0.264,0.049-0.451,0.182-0.57,0.41c-0.122,0.232-0.148,0.546-0.078,0.931C20.456,24.702,20.531,24.912,20.633,25.068
	 M14.346,19.861l2.339-0.426c0.415-0.075,0.812,0.2,0.888,0.615c0.075,0.415-0.2,0.812-0.614,0.888l-2.339,0.426
	c-0.415,0.075-0.812-0.2-0.888-0.614C13.657,20.335,13.932,19.938,14.346,19.861 M14.955,24.298
	c-0.144,0.025-0.263,0.012-0.352-0.044c-0.092-0.058-0.15-0.145-0.171-0.26c-0.021-0.119,0.003-0.224,0.073-0.31
	c0.066-0.081,0.171-0.135,0.31-0.161l2.258-0.411c0.147-0.026,0.267-0.012,0.357,0.044c0.093,0.059,0.151,0.146,0.171,0.262
	c0.022,0.115-0.002,0.218-0.071,0.304c-0.065,0.083-0.172,0.139-0.316,0.165l-0.681,0.124l0.447,2.454
	c0.031,0.171,0.013,0.309-0.052,0.413c-0.067,0.105-0.168,0.172-0.298,0.195c-0.132,0.023-0.25-0.003-0.351-0.079
	c-0.099-0.073-0.165-0.197-0.195-0.365l-0.447-2.455L14.955,24.298z M18.65,30.233l-2.339,0.426
	c-0.415,0.075-0.812-0.199-0.888-0.614c-0.075-0.414,0.2-0.813,0.615-0.889l2.338-0.426c0.415-0.075,0.813,0.2,0.888,0.615
	C19.34,29.761,19.065,30.157,18.65,30.233 M19.278,26.047c0.031,0.169,0.013,0.307-0.053,0.412c-0.068,0.105-0.17,0.173-0.303,0.196
	c-0.13,0.024-0.247-0.004-0.348-0.081c-0.098-0.074-0.164-0.197-0.194-0.364l-0.503-2.764c-0.031-0.167-0.013-0.305,0.052-0.409
	c0.067-0.106,0.167-0.173,0.298-0.196c0.133-0.024,0.252,0.001,0.353,0.077c0.099,0.072,0.164,0.195,0.195,0.364L19.278,26.047z
	 M23.552,29.341l-2.339,0.426c-0.415,0.076-0.812-0.199-0.888-0.614c-0.075-0.415,0.2-0.813,0.615-0.888l2.338-0.426
	c0.415-0.075,0.812,0.2,0.888,0.614C24.241,28.868,23.965,29.266,23.552,29.341 M24.416,25.11c0.031,0.172,0.013,0.312-0.055,0.414
	c-0.068,0.106-0.17,0.172-0.302,0.196c-0.077,0.014-0.155,0.007-0.232-0.021c-0.078-0.026-0.143-0.072-0.195-0.135
	c-0.04-0.054-0.069-0.114-0.087-0.184c-0.016-0.062-0.035-0.147-0.056-0.264l-0.474-2.606c-0.031-0.167-0.014-0.305,0.047-0.407
	c0.065-0.108,0.166-0.175,0.303-0.199c0.133-0.024,0.252,0.001,0.353,0.076c0.098,0.074,0.164,0.197,0.195,0.366l0.181,0.996
	l1-1.512c0.058-0.088,0.108-0.153,0.153-0.199c0.055-0.058,0.133-0.094,0.229-0.112c0.127-0.022,0.239-0.003,0.334,0.06
	c0.097,0.062,0.155,0.151,0.176,0.264c0.024,0.13-0.017,0.268-0.12,0.411L25.2,23.164l1.195,1.188
	c0.093,0.09,0.164,0.17,0.216,0.243c0.056,0.079,0.093,0.161,0.108,0.245c0.019,0.104-0.006,0.204-0.072,0.295
	c-0.066,0.088-0.165,0.144-0.294,0.168c-0.118,0.021-0.222,0.013-0.31-0.026c-0.082-0.036-0.155-0.091-0.221-0.164
	c-0.056-0.062-0.107-0.12-0.15-0.172L24.68,23.89l-0.389,0.536L24.416,25.11z M28.452,28.448l-2.339,0.427
	c-0.415,0.074-0.812-0.2-0.888-0.614c-0.075-0.415,0.2-0.813,0.615-0.89l2.338-0.425c0.415-0.076,0.813,0.2,0.888,0.614
	C29.142,27.976,28.866,28.373,28.452,28.448 M33.353,27.557l-2.338,0.426c-0.415,0.075-0.813-0.2-0.889-0.615
	c-0.074-0.414,0.201-0.812,0.615-0.888l2.338-0.425c0.414-0.076,0.813,0.2,0.887,0.614C34.042,27.084,33.768,27.48,33.353,27.557
	 M30.075,21.545c-0.146,0.026-0.264,0.012-0.353-0.043c-0.093-0.058-0.149-0.146-0.171-0.261c-0.022-0.118,0.003-0.223,0.072-0.309
	c0.066-0.082,0.17-0.136,0.31-0.161l2.259-0.412c0.146-0.025,0.266-0.011,0.355,0.045c0.094,0.059,0.152,0.146,0.173,0.26
	c0.021,0.116-0.003,0.219-0.071,0.306c-0.066,0.083-0.172,0.138-0.316,0.164l-0.681,0.124l0.446,2.455
	c0.031,0.17,0.014,0.309-0.053,0.412c-0.066,0.105-0.166,0.172-0.297,0.195c-0.131,0.024-0.25-0.003-0.352-0.079
	c-0.098-0.073-0.164-0.196-0.195-0.366l-0.445-2.454L30.075,21.545z M31.661,18.262l-2.338,0.426
	c-0.416,0.075-0.813-0.2-0.889-0.615c-0.076-0.414,0.199-0.812,0.613-0.888l2.339-0.425c0.415-0.076,0.813,0.2,0.888,0.613
	C32.351,17.789,32.075,18.186,31.661,18.262"/>
</svg>
