<svg xmlns="http://www.w3.org/2000/svg" viewBox="0 0 53.5 48.68"><defs><style>.cls-1{fill:#e24c4b;}.cls-2{fill:#fff;}.cls-3{fill:#3f4448;}</style></defs><title>error</title><g id="Layer_2" data-name="Layer 2"><g id="Capa_1" data-name="Capa 1"><path class="cls-1" d="M52.86,41.1,31.13,2.53a5.06,5.06,0,0,0-8.76,0L.64,41.1A5.09,5.09,0,0,0,5,48.68H48.31A5.14,5.14,0,0,0,52.86,41.1Z"/><path class="cls-2" d="M26.75,5.05,48.48,43.62H5L26.75,5.05Z"/><path class="cls-3" d="M23.54,24.34l1.22,8.07a2,2,0,0,0,2,1.67h0a2.1,2.1,0,0,0,2-1.67l1.22-8.07a3.17,3.17,0,0,0-3.19-3.66h0A3.26,3.26,0,0,0,23.54,24.34Z"/><circle class="cls-3" cx="26.74" cy="37.59" r="1.83"/></g></g></svg>