<?xml version="1.0" encoding="utf-8"?>
<!-- Generator: Adobe Illustrator 16.0.0, SVG Export Plug-In . SVG Version: 6.00 Build 0)  -->
<!DOCTYPE svg PUBLIC "-//W3C//DTD SVG 1.1//EN" "http://www.w3.org/Graphics/SVG/1.1/DTD/svg11.dtd">
<svg version="1.1" id="Layer_1" xmlns="http://www.w3.org/2000/svg" xmlns:xlink="http://www.w3.org/1999/xlink" x="0px" y="0px"
	 width="47.75px" height="47.651px" viewBox="0 0 47.75 47.651" enable-background="new 0 0 47.75 47.651" xml:space="preserve">
<g>
	<defs>
		<rect id="SVGID_1_" x="-104.583" y="-1586.231" width="720" height="3200.45"/>
	</defs>
	<clipPath id="SVGID_2_">
		<use xlink:href="#SVGID_1_"  overflow="visible"/>
	</clipPath>
	<path clip-path="url(#SVGID_2_)" fill="#C179B3" d="M47.667,23.849C47.667,10.677,36.989,0,23.818,0
		C10.646,0-0.032,10.677-0.032,23.849c0,11.971,8.82,21.88,20.316,23.587c0,0,1.14,0.219,3.06,0.219
		c1.919,0,3.382-0.139,3.382-0.139C38.525,46.08,47.667,36.035,47.667,23.849"/>
	<path clip-path="url(#SVGID_2_)" fill="#333333" d="M43.029,24.129c0,10.61-8.601,19.211-19.211,19.211
		c-10.61,0-19.211-8.601-19.211-19.211c0-10.609,8.601-19.21,19.211-19.21C34.428,4.919,43.029,13.52,43.029,24.129"/>
</g>
<g>
	<defs>
		<rect id="SVGID_3_" x="13.275" y="10.638" width="21.862" height="25.836"/>
	</defs>
	<clipPath id="SVGID_4_">
		<use xlink:href="#SVGID_3_"  overflow="visible"/>
	</clipPath>
	<path clip-path="url(#SVGID_4_)" fill="#FFFFFF" d="M31.963,14.613h-0.801v-1.63c0-1.011-1.002-1.836-1.987-1.836
		s-1.988,0.825-1.988,1.836v1.63H25.2v-1.63c0-1.011-0.009-1.836-0.994-1.836c-0.985,0-0.994,0.825-0.994,1.836v1.63h-1.987v-1.63
		c0-1.011-1.004-1.836-1.989-1.836c-0.982,0-1.986,0.825-1.986,1.836v1.63h-1.317c-1.561,0-2.658,0.442-2.658,2.008v1.967h21.862
		v-1.967C35.137,15.055,33.529,14.613,31.963,14.613 M19.237,16.252c0,0.46-0.565,0.835-0.996,0.835
		c-0.429,0-0.991-0.375-0.991-0.835v-3.27c0-0.46,0.562-0.835,0.991-0.835c0.431,0,0.996,0.375,0.996,0.835V16.252z M25.2,16.252
		c0,0.46-0.565,0.835-0.996,0.835c-0.431,0-0.992-0.375-0.992-0.835v-3.27c0-0.46,0.561-0.835,0.992-0.835
		c0.431,0,0.996,0.375,0.996,0.835V16.252z M31.162,16.252c0,0.46-0.563,0.835-0.993,0.835c-0.431,0-0.994-0.375-0.994-0.835v-3.27
		c0-0.46,0.563-0.835,0.994-0.835c0.43,0,0.993,0.375,0.993,0.835V16.252z"/>
	<path clip-path="url(#SVGID_4_)" fill="#FFFFFF" d="M13.274,32.646c0,1.565,1.097,3.828,2.659,3.828h16.03
		c1.565,0,3.173-2.263,3.173-3.828V18.587H13.274V32.646z M28.559,21.373h3.068v2.731h-3.068V21.373z M28.559,25.017h3.068v2.729
		h-3.068V25.017z M28.559,28.659h3.068v2.73h-3.068V28.659z M24.463,21.373h3.068v2.731h-3.068V21.373z M24.463,25.017h3.068v2.729
		h-3.068V25.017z M24.463,28.659h3.068v2.73h-3.068V28.659z M20.365,21.373h3.072v2.731h-3.072V21.373z M20.365,25.017h3.072v2.729
		h-3.072V25.017z M20.365,28.659h3.072v2.73h-3.072V28.659z M16.27,25.017h3.068v2.729H16.27V25.017z M16.27,28.659h3.068v2.73
		H16.27V28.659z"/>
</g>
</svg>
