<?xml version="1.0" encoding="utf-8"?>
<!-- Generator: Adobe Illustrator 16.0.0, SVG Export Plug-In . SVG Version: 6.00 Build 0)  -->
<!DOCTYPE svg PUBLIC "-//W3C//DTD SVG 1.1//EN" "http://www.w3.org/Graphics/SVG/1.1/DTD/svg11.dtd">
<svg version="1.1" id="Layer_1" xmlns="http://www.w3.org/2000/svg" xmlns:xlink="http://www.w3.org/1999/xlink" x="0px" y="0px"
	 width="78.719px" height="65.046px" viewBox="0 0 78.719 65.046" enable-background="new 0 0 78.719 65.046" xml:space="preserve">
<path fill="#F4C42E" d="M67.463,25.087v13.255c5.721-4.112,9.948-8.381,11.98-10.582C77.761,27.33,73.466,26.268,67.463,25.087"/>
<path fill="#F4C42E" d="M11.255,38.343V25.088c-6.008,1.18-10.299,2.24-11.98,2.672C1.306,29.962,5.535,34.23,11.255,38.343"/>
<path fill="#F4C42E" d="M44.432,24.743c-0.85,0.849-1.863,1.44-2.938,1.773v11.18c0,1.182-0.955,2.137-2.136,2.137
	c-1.179,0-2.136-0.955-2.136-2.137V26.517c-1.073-0.334-2.084-0.923-2.933-1.772c-1.729-1.729-4.231-2.676-7.005-2.307
	c-4.252,0.568-8.214,1.207-11.757,1.844v16.933c0,13.14,10.691,23.831,23.831,23.831c13.142,0,23.833-10.691,23.833-23.831V24.282
	c-3.545-0.637-7.508-1.276-11.758-1.845C48.664,22.069,46.157,23.019,44.432,24.743 M31.27,56.462
	c-0.77,0.892-2.119,0.993-3.013,0.222c-4.11-3.545-6.988-8.182-8.325-13.411c-0.292-1.143,0.398-2.307,1.541-2.599
	c1.144-0.292,2.307,0.396,2.599,1.54c1.118,4.379,3.531,8.263,6.976,11.235C31.939,54.22,32.04,55.569,31.27,56.462 M34.808,61.124
	c-1.179,0-2.136-0.957-2.136-2.137c0-1.179,0.957-2.136,2.136-2.136c1.179,0,2.136,0.957,2.136,2.136
	C36.943,60.167,35.988,61.124,34.808,61.124"/>
<path fill="#F4C42E" d="M26.857,18.184c3.82-0.509,7.728,0.815,10.45,3.538c1.133,1.132,2.971,1.132,4.1,0.003
	C44.134,19,48.04,17.677,51.86,18.184c9.355,1.245,18.957,3.068,26.859,4.993C74.175,16.832,62.571,2.627,48.177,0.05
	c-1.032-0.185-2.091,0.144-2.833,0.885l-3.729,3.729c-1.246,1.247-3.267,1.247-4.513,0l-3.73-3.729
	c-0.741-0.741-1.799-1.07-2.832-0.885C16.148,2.627,4.544,16.833,0,23.177C7.911,21.251,17.492,19.43,26.857,18.184"/>
</svg>
