<svg id="Layer_1" data-name="Layer 1" xmlns="http://www.w3.org/2000/svg" viewBox="0 0 60 60.01"><defs><style>.cls-1{fill:#fff;}</style></defs><title>full screen</title><path class="cls-1" d="M30,60V54H6V6H54V30h6V0H0V60Z" transform="translate(0 0)"/><path class="cls-1" d="M60,36H36V59.6c0,.13,0,.27,0,.4H60Z" transform="translate(0 0)"/><path class="cls-1" d="M35,30.78,21.57,17.28,27,12l-.68,0c-4.59,0-9.17,0-13.76,0-.42,0-.59.09-.58.55q0,7,0,13.94c0,.13,0,.25,0,.53l5.3-5.38L30.8,35.05Z" transform="translate(0 0)"/></svg>