<?xml version="1.0" encoding="utf-8"?>
<!-- Generator: Adobe Illustrator 16.0.0, SVG Export Plug-In . SVG Version: 6.00 Build 0)  -->
<!DOCTYPE svg PUBLIC "-//W3C//DTD SVG 1.1//EN" "http://www.w3.org/Graphics/SVG/1.1/DTD/svg11.dtd">
<svg version="1.1" id="Layer_1" xmlns="http://www.w3.org/2000/svg" xmlns:xlink="http://www.w3.org/1999/xlink" x="0px" y="0px"
	 width="48.1px" height="42.021px" viewBox="0 0 48.1 42.021" enable-background="new 0 0 48.1 42.021" xml:space="preserve">
<g>
	<g>
		<defs>
			<rect id="SVGID_1_" x="0" y="0" width="48.1" height="42.021"/>
		</defs>
		<clipPath id="SVGID_2_">
			<use xlink:href="#SVGID_1_"  overflow="visible"/>
		</clipPath>
		<path clip-path="url(#SVGID_2_)" fill="#FFFFFF" d="M47.565,13.031L20.41,0.064c-0.314-0.151-0.693-0.021-0.847,0.296
			l-5.909,12.361h3.221l4.338-9.084l23.542,11.244l-7.36,15.404l-4.148-1.978v8.146l2.551,1.218
			c0.315,0.152,0.694,0.013,0.847-0.302l11.219-23.492C48.014,13.562,47.881,13.183,47.565,13.031"/>
	</g>
</g>
<g>
	<g>
		<defs>
			<rect id="SVGID_3_" x="-636.401" y="-467.154" width="720" height="3159.698"/>
		</defs>
		<clipPath id="SVGID_4_">
			<use xlink:href="#SVGID_3_"  overflow="visible"/>
		</clipPath>
		<path clip-path="url(#SVGID_4_)" fill="#FFFFFF" d="M30.728,14.219H0.638C0.291,14.219,0,14.502,0,14.85v26.037
			c0,0.354,0.291,0.637,0.638,0.637h30.09c0.349,0,0.63-0.283,0.63-0.637V14.85C31.364,14.502,31.075,14.219,30.728,14.219
			 M28.992,34.175h-1.907c-1.112-2.846-2.481-6.837-4.56-6.307c-2.431,0.625-3.643,6.307-3.643,6.307s-1.244-6.415-4.679-9.843
			c-3.436-3.436-6.758,9.843-6.758,9.843H2.903V17.098h26.09V34.175z"/>
	</g>
	<g>
		<defs>
			<rect id="SVGID_5_" x="-636.401" y="-467.154" width="720" height="3159.698"/>
		</defs>
		<clipPath id="SVGID_6_">
			<use xlink:href="#SVGID_5_"  overflow="visible"/>
		</clipPath>
		<path clip-path="url(#SVGID_6_)" fill="#FFFFFF" d="M9.243,20.758c0,1.182-0.954,2.136-2.13,2.136
			c-1.174,0-2.127-0.954-2.127-2.136c0-1.173,0.953-2.127,2.127-2.127C8.289,18.631,9.243,19.585,9.243,20.758"/>
	</g>
	<g>
		<defs>
			<rect id="SVGID_7_" x="-636.401" y="-467.154" width="720" height="3159.698"/>
		</defs>
		<clipPath id="SVGID_8_">
			<use xlink:href="#SVGID_7_"  overflow="visible"/>
		</clipPath>
		<path clip-path="url(#SVGID_8_)" fill="#FFFFFF" d="M21.389,22.261c0.48,0,0.929-0.049,1.327-0.125
			c0.461,0.195,1.028,0.314,1.64,0.314c1.567,0,2.844-0.764,2.844-1.71s-1.275-1.712-2.844-1.712c-0.593,0-1.136,0.108-1.59,0.298
			c-0.183-0.185-0.436-0.298-0.713-0.298h-0.41c-0.531,0-0.939,0.397-1.004,0.909c-1.27,0.133-2.217,0.595-2.217,1.138
			C18.422,21.731,19.755,22.261,21.389,22.261"/>
	</g>
	<g>
		<defs>
			<rect id="SVGID_9_" x="-636.401" y="-467.154" width="720" height="3159.698"/>
		</defs>
		<clipPath id="SVGID_10_">
			<use xlink:href="#SVGID_9_"  overflow="visible"/>
		</clipPath>
		<g clip-path="url(#SVGID_10_)">
			<g opacity="0.25">
				<g>
					<defs>
						<rect id="SVGID_11_" x="-644.216" y="-471.836" width="735.595" height="52.75"/>
					</defs>
					<clipPath id="SVGID_12_">
						<use xlink:href="#SVGID_11_"  overflow="visible"/>
					</clipPath>
					<rect x="-644.215" y="-471.835" clip-path="url(#SVGID_12_)" fill="#010101" width="735.594" height="52.744"/>
				</g>
			</g>
		</g>
	</g>
</g>
</svg>
