<?xml version="1.0" encoding="utf-8"?>
<!-- Generator: Adobe Illustrator 16.0.0, SVG Export Plug-In . SVG Version: 6.00 Build 0)  -->
<!DOCTYPE svg PUBLIC "-//W3C//DTD SVG 1.1//EN" "http://www.w3.org/Graphics/SVG/1.1/DTD/svg11.dtd">
<svg version="1.1" id="Layer_1" xmlns="http://www.w3.org/2000/svg" xmlns:xlink="http://www.w3.org/1999/xlink" x="0px" y="0px"
	 width="52px" height="52px" viewBox="0 0 52 52" enable-background="new 0 0 52 52" xml:space="preserve">
<path fill="#7CC245" d="M48,52c-1.063,0-2.094-0.438-2.813-1.188L34.469,40.125C30.813,42.656,26.438,44,22,44
	C9.844,44,0,34.156,0,22C0,9.844,9.844,0,22,0s22,9.844,22,22c0,4.437-1.344,8.812-3.875,12.468l10.719,10.719
	C51.563,45.906,52,46.937,52,48C52,50.187,50.188,52,48,52z M22,8C14.281,8,8,14.281,8,22c0,7.718,6.281,14,14,14s14-6.281,14-14
	C36,14.281,29.719,8,22,8z"/>
</svg>
