<?xml version="1.0" encoding="utf-8"?>
<!-- Generator: Adobe Illustrator 16.0.0, SVG Export Plug-In . SVG Version: 6.00 Build 0)  -->
<!DOCTYPE svg PUBLIC "-//W3C//DTD SVG 1.1//EN" "http://www.w3.org/Graphics/SVG/1.1/DTD/svg11.dtd">
<svg version="1.1" id="Layer_1" xmlns="http://www.w3.org/2000/svg" xmlns:xlink="http://www.w3.org/1999/xlink" x="0px" y="0px"
	 width="43.559px" height="37.336px" viewBox="0 0 43.559 37.336" enable-background="new 0 0 43.559 37.336" xml:space="preserve">
<g>
	<path fill="#1383C6" d="M37.992,22.313L22.849,36.898c-0.292,0.292-0.681,0.438-1.069,0.438s-0.778-0.146-1.069-0.438L5.542,22.266
		C5.348,22.095,0,17.209,0,11.376C0,4.254,4.351,0,11.619,0c4.253,0,8.24,3.354,10.16,5.25C23.699,3.354,27.686,0,31.939,0
		c7.269,0,11.619,4.254,11.619,11.376C43.559,17.209,38.211,22.095,37.992,22.313z M31.939,3.111c-3.622,0-7.705,3.914-8.969,5.42
		c-0.584,0.705-1.799,0.705-2.383,0c-1.264-1.507-5.348-5.42-8.969-5.42c-3.89,0-8.508,1.434-8.508,8.265
		c0,4.448,4.497,8.58,4.546,8.629l14.122,13.612l14.099-13.588c0.072-0.073,4.569-4.205,4.569-8.653
		C40.447,4.545,35.829,3.111,31.939,3.111z"/>
</g>
<g>
	<g>
		<path fill="#1383C6" d="M17.394,18.059c3.224,0,3.224-5,0-5S14.169,18.059,17.394,18.059L17.394,18.059z"/>
	</g>
</g>
<g>
	<g>
		<path fill="#1383C6" d="M23.728,10.392c0.055-0.583,0.11-1.167,0.166-1.75c0.189-1.991-2.234-2.978-3.762-2.159
			c-2.51,1.345-2.885,3.428-4.48,5.564c1.553,0.42,3.106,0.841,4.659,1.262c-0.374-4.441,0.805-10.168-5.008-11.025
			C9.951,1.495,3.803,0.214,2.733,6.978c-0.479,3.026,1.572,13.8,7.03,10.095c2.87-1.947,6.125-8.691,2.319-11.308
			c-4.872-3.348-7.725,3.566-5.48,7.345c2.475,4.167,9.545,0.162,11.159-2.893c2.274-4.308-2.332-7.774-5.915-4.526
			c-1.748,1.585-1.069,4.257,0.013,5.923c0.963,1.078,1.277,2.435,0.944,4.069c-0.754,1.313-1.844,1.39-3.269,0.229
			c-0.666-1.01-1.256-1.848-2.206-2.62c-1.01,1.309-2.02,2.618-3.029,3.926c2.023,0.906,3.729,1.382,5.949,1.501
			c2.57,0.138,4.868-1.949,7.213-2.634c1.826-0.533,3.553-0.96,5.288-1.753c2.253-1.03,3.145-4.396,5.56-4.877
			c2.66-0.53,6.786-0.467,6.502-4.229c-0.285-3.764-4.726-2.832-7.082-2.077c0.643,1.523,1.285,3.046,1.927,4.569
			c2.116-1.308,4.438-0.965,5.712,1.162c2,3.334,1.659,6.827-1.568,9.271c1.254,0.72,2.508,1.439,3.762,2.159
			c-0.479-4.827,3.561-11.314-1.842-14.714c-3.465-2.18-6.116,1.726-9.314,1.711c-3.383-0.016-5.936,0.585-6.344,4.336
			c-0.11,1.009,0.836,2.244,1.835,2.411c4.144,0.693,7.657-1.092,11.748-1.161c-0.804-1.055-1.607-2.11-2.411-3.165
			c-0.773,2.477-7.505,1.356-9.575,1.564c-2.848,0.287-5.973,1.128-7.256,3.922c-0.595,1.294-0.245,3.423,1.494,3.672
			c2.852,0.409,5.072,0.013,7.83-0.833c0.99-0.304,6.799-1.971,7.989-1.168c-0.413-0.72-0.825-1.439-1.238-2.159
			c0.306,2.374-1.906,1.447-3.251,1.256c-2.021-0.288-3.844-0.219-5.83,0.167c-2.838,0.551-5.235,1.314-8.193,1.295
			c-1.8-0.012-3.328,0.582-4.904,1.373c-1.847,0.927-1.526,4.209,0.597,4.57c7.432,1.259,15.731,0.563,23.248,0.339
			c-0.72-1.254-1.439-2.508-2.158-3.762c-1.87,3.726-13.926,1.34-17.258,1.012c-1.626-0.16-2.834,1.716-2.411,3.165
			c2.003,6.849,13.274,6.774,18.575,5.663c3.154-0.662,1.816-5.481-1.33-4.822c-2.777,0.583-5.213,0.634-8.003,0.083
			c-0.912-0.18-4.111-1.198-4.42-2.254c-0.804,1.056-1.607,2.11-2.411,3.165c6.002,0.592,18.142,3.353,21.575-3.488
			c0.814-1.622-0.157-3.821-2.158-3.762c-6.99,0.208-15.01,1.011-21.919-0.161c0.199,1.523,0.398,3.046,0.597,4.569
			c2.38-1.195,4.849-0.33,7.333-0.875c2.922-0.641,5.471-1.779,8.548-1.341c3.403,0.484,5.781,0.93,7.821-2.243
			c1.441-2.242,1.594-5.93-1.512-6.785c-5.143-1.415-10.728,2.9-15.787,2.174c0.498,1.224,0.996,2.448,1.494,3.672
			c1.239-2.696,8.297-1.47,10.623-1.658c3.289-0.265,5.722-1.851,6.713-5.023c0.481-1.542-0.823-3.191-2.411-3.165
			c-3.457,0.058-6.991,1.913-10.418,1.339c0.611,0.804,1.224,1.607,1.835,2.411c-0.133,1.222,3.659,0.561,4.102,0.411
			c1.457-0.494,4.268-3.183,4.431-0.763c0.204,3.035-1.33,6.011-1.032,9.019c0.163,1.647,2.088,3.426,3.762,2.159
			c5.561-4.21,6.607-10.028,3.362-16.112C37.172,1.642,31.713,0.569,27.132,3.4c-2.357,1.457-0.845,5.458,1.927,4.569
			c0.654-0.223,1.318-0.418,1.99-0.585c-0.413-0.72-0.825-1.439-1.238-2.159c0.017,0.222,0.033,0.444,0.051,0.667
			c0.412-0.72,0.825-1.439,1.238-2.159c-2.518,1.802-6.763,0.035-8.51,3.394c-1.492,2.867-3.593,3.41-6.458,4.136
			c-3.332,0.843-5.327,3.42-9.31,1.637c-2.379-1.065-5.408,1.993-3.029,3.926c3.014,2.45,3.261,4.761,7.761,4.834
			c3.646,0.06,6.238-3.058,6.34-6.519c0.061-2.048-0.097-4.002-1.411-5.672c-2.477-3.145-3.402-1.343-5.218-0.114
			c-0.889,0.241-1.778,0.482-2.667,0.724c-0.224,1.653-0.591,1.38-1.101-0.819C7.304,6.186,8.705,6.45,11.146,6.97
			c0.489,0.104,3.841,0.2,3.893,0.326c0.71,1.732,0.116,4.17,0.271,6.013c0.218,2.586,3.158,3.272,4.659,1.262
			c0.915-1.226,1.235-2.992,2.687-3.77c-1.254-0.72-2.508-1.439-3.762-2.159c-0.056,0.583-0.111,1.167-0.167,1.75
			C18.422,13.602,23.425,13.573,23.728,10.392L23.728,10.392z"/>
	</g>
</g>
<g>
	<g>
		<path fill="#1383C6" d="M24.055,31.558c-1.232,0.601-1.453,0.879-0.661,0.835c-0.72-1.254-1.439-2.508-2.159-3.762
			c-0.225,0.327-0.52,0.604-0.851,0.804c2.268,0.603,2.888,0.555,1.86-0.144c-0.454-0.362-0.847-0.705-1.247-1.127
			c-0.622-0.654-1.061-1.519-1.529-2.283c-0.399-0.653-0.249-1.63-0.391-2.354c-0.363-1.854-1.229-3.235-3.235-3.415
			c-1.63-0.146-2.713,1.598-3.274,2.853c1.439,0,2.878,0,4.317,0c0.028,0.005,0.057,0.01,0.085,0.014
			c-0.218-1.347-1.87-2.077-3.075-1.746c-1.419,0.391-1.963,1.731-1.746,3.076c0.068,0.424,0.247,0.789,0.419,1.18
			c0.725,1.644,3.588,1.631,4.317,0c0.102-0.24,0.213-0.477,0.334-0.709c0.491-0.714,0.097-0.597-1.182,0.351
			c-0.589-0.244-1.179-0.488-1.768-0.732c-0.191-0.165,0.01,1.012,0.035,1.264c0.098,1.008,0.393,1.843,0.846,2.744
			c0.749,1.488,1.878,2.957,3.106,4.074c1.05,0.954,2.323,2.046,3.847,1.627c1.468-0.403,2.623-1.754,3.447-2.951
			c1.14-1.654-0.404-3.675-2.158-3.762c-2.026-0.101-3.514,0.931-4.161,2.835C18.192,33.289,23.022,34.593,24.055,31.558
			L24.055,31.558z"/>
	</g>
</g>
<g>
	<g>
		<path fill="#1383C6" d="M0.977,9.142c-0.249,2.352,0.501,5.619,2.821,6.742c1.227,0.594,2.692,0.346,3.42-0.897
			c0.648-1.106,0.329-2.827-0.897-3.42c-0.238-0.132-0.224-0.1,0.042,0.097c-0.452-0.362,0.23,0.415-0.093-0.105
			c-0.126-0.25-0.132-0.244-0.018,0.021c-0.083-0.207-0.139-0.424-0.196-0.638c-0.036-0.146-0.067-0.294-0.093-0.442
			c0.109,0.564-0.007-0.123-0.014-0.214C5.923,9.904,5.937,9.521,5.977,9.142c0.144-1.358-1.246-2.5-2.5-2.5
			C2.006,6.642,1.121,7.788,0.977,9.142L0.977,9.142z"/>
	</g>
</g>
<g>
	<g>
		<path fill="#1383C6" d="M11.655,13.551c1.384-0.742,2.745-1.513,4.083-2.333c-1.14-1.14-2.28-2.28-3.42-3.42
			c-1.275,2.002-3.003,3.981-2.085,6.509c0.554,1.525,2.178,2.326,3.672,1.494c2.299-1.279,2.401-4.039,1.646-6.297
			c-0.975-2.919-3.828-4.129-6.658-4.361c0.72,1.254,1.439,2.508,2.159,3.762c0.092-0.137,0.184-0.273,0.275-0.411
			c1.953-1.954-0.711-5.673-3.029-3.926C6.5,5.922,4.423,7.236,4.066,9.645c1.393-0.368,2.786-0.735,4.178-1.103
			c-0.991-1.209,2.99-1,3.065-0.993c1.186,0.103,2.691,0.016,3.425,1.077c1.392,2.012,1.649,4.974,1.742,7.351
			c0.125,3.213,5.125,3.226,5,0c-0.174-4.506-1.155-11.63-6.419-12.911c-3.206-0.78-7.241-1.313-9.88,1
			c-2.394,2.097-2.358,5.706-0.468,8.012c1.123,1.371,3.912,0.696,4.178-1.103c0.15-1.015,1.159-1.505,1.934-2.089
			c-1.01-1.309-2.02-2.618-3.029-3.926C7.341,5.409,7.016,5.807,6.735,6.38c-0.87,1.778,0.206,3.602,2.159,3.762
			c0.834,0.068,1.419,0.224,1.925,0.929c0.073,0.234,0.133,0.471,0.18,0.711c-0.067,0.639,0.061,0.539,0.383-0.299
			c1.224,0.498,2.448,0.996,3.672,1.494c-0.22-0.606,1.237-2.116,1.582-2.657c1.353-2.125-1.312-4.712-3.42-3.42
			c-1.339,0.82-2.7,1.591-4.083,2.333C6.29,10.757,8.814,15.074,11.655,13.551L11.655,13.551z"/>
	</g>
</g>
<g>
	<g>
		<path fill="#1383C6" d="M34.811,1.976c-3.441-0.134-9.627-1.198-10.745,3.335c-0.403,1.639,0.769,3.075,2.411,3.165
			c0.991,0.054,1.925-0.08,2.917-0.083c-0.589-1.422-1.179-2.845-1.768-4.268c-1.809,2.123-4.798,2.595-6.308,5.173
			c-0.891,1.521-0.645,1.978-2.716,2.147c-1.556,0.127-3.151-0.095-4.708-0.135c-3.226-0.084-3.218,4.916,0,5
			c3.314,0.086,6.54,0.503,9.551-1.172c1.631-0.907,1.533-2.48,2.582-3.779c1.32-1.637,3.73-2.049,5.135-3.698
			c1.363-1.6,0.547-4.275-1.768-4.268c-0.992,0.003-1.926,0.138-2.917,0.083c0.804,1.055,1.607,2.11,2.411,3.165
			c-0.495,0.479-0.325,0.543,0.511,0.195c0.807-0.101,1.64-0.057,2.449-0.038c0.989,0.023,1.975,0.139,2.963,0.178
			C38.036,7.101,38.024,2.101,34.811,1.976L34.811,1.976z"/>
	</g>
</g>
</svg>
