<svg xmlns="http://www.w3.org/2000/svg" width="44.999" height="44.999" viewBox="0 0 42 42">
  <metadata><?xpacket begin="﻿" id="W5M0MpCehiHzreSzNTczkc9d"?>
<x:xmpmeta xmlns:x="adobe:ns:meta/" x:xmptk="Adobe XMP Core 5.6-c142 79.160924, 2017/07/13-01:06:39        ">
   <rdf:RDF xmlns:rdf="http://www.w3.org/1999/02/22-rdf-syntax-ns#">
      <rdf:Description rdf:about=""
            xmlns:xmp="http://ns.adobe.com/xap/1.0/">
         <xmp:CreatorTool>Adobe Photoshop CC 2018 (Windows)</xmp:CreatorTool>
      </rdf:Description>
   </rdf:RDF>
</x:xmpmeta>
                                                                                                    
                                                                                                    
                                                                                                    
                                                                                                    
                                                                                                    
                                                                                                    
                                                                                                    
                                                                                                    
                                                                                                    
                                                                                                    
                                                                                                    
                                                                                                    
                                                                                                    
                                                                                                    
                                                                                                    
                                                                                                    
                                                                                                    
                                                                                                    
                                                                                                    
                                                                                                    
                           
<?xpacket end="w"?></metadata>
<defs>
    <style>
      .cls-1 {
        fill: #1f1f1f;
      }

      .cls-2 {
        fill: #f4c42f;
        fill-rule: evenodd;
      }
    </style>
  </defs>
  <circle id="Ellipse_1322_copy_4" data-name="Ellipse 1322 copy 4" class="cls-1" cx="21" cy="21" r="21"/>
  <path id="Shape_9_copy" data-name="Shape 9 copy" class="cls-2" d="M13.148,16.2a7.189,7.189,0,0,0,3.526,3.876,4.194,4.194,0,0,0,.626.182,6.622,6.622,0,0,1,1.538-1.607,7.834,7.834,0,0,1,1.593-.908,3.94,3.94,0,0,0-.5-0.245c-0.691-.381-1.473-0.69-2.163-1.026,0.691,0.182,1.464.254,2.117,0.49a4.784,4.784,0,0,1,1.132.59,15.707,15.707,0,0,1,3.222-.644,8.761,8.761,0,0,0-4.18-3.132,19.681,19.681,0,0,0-4.806-.817,8.244,8.244,0,0,1-2.918-.908,0.223,0.223,0,0,0-.311.034,0.215,0.215,0,0,0-.012.257A38.751,38.751,0,0,0,13.148,16.2ZM30.558,16c-1.841,1-3.986,1.117-6.076,1.352a18.092,18.092,0,0,0-2.992.545l-0.617.209a7.745,7.745,0,0,0-1.749.908,5.857,5.857,0,0,0-1.3,1.334,9.837,9.837,0,0,0-1.289,2.587,14.829,14.829,0,0,0-.838,5.337,10.4,10.4,0,0,0,.221,2.2,0.9,0.9,0,0,0,.2.472,0.242,0.242,0,0,0,.337-0.033,0.233,0.233,0,0,0,.05-0.194,7.481,7.481,0,0,1,.47-4.911,6.252,6.252,0,0,1,3.931-3.377c0.46-.172.921-0.318,1.418-0.454h0a0.1,0.1,0,0,1,.046.182c-0.571.254-1.142,0.508-1.676,0.79-2.642,1.353-3.793,4.539-2.762,4.539a0.708,0.708,0,0,0,.276-0.064,23.77,23.77,0,0,1,5.018-.908,8.9,8.9,0,0,0,1.676-.527,8.645,8.645,0,0,0,4.6-4.666,48.911,48.911,0,0,0,1.455-4.974,0.271,0.271,0,0,0-.143-0.358,0.278,0.278,0,0,0-.115-0.023,0.316,0.316,0,0,0-.147,0V16Z"/>
</svg>
