<?xml version="1.0" encoding="utf-8"?>
<!-- Generator: Adobe Illustrator 16.0.0, SVG Export Plug-In . SVG Version: 6.00 Build 0)  -->
<!DOCTYPE svg PUBLIC "-//W3C//DTD SVG 1.1//EN" "http://www.w3.org/Graphics/SVG/1.1/DTD/svg11.dtd">
<svg version="1.1" id="Layer_1" xmlns="http://www.w3.org/2000/svg" xmlns:xlink="http://www.w3.org/1999/xlink" x="0px" y="0px"
	 width="48.728px" height="50.698px" viewBox="0 0 48.728 50.698" enable-background="new 0 0 48.728 50.698" xml:space="preserve">
<path fill="#F4C42E" d="M2.903,12.109c1.797,4.179,4.83,8.313,9.075,10.094c0.483,0.202,1.033,0.354,1.6,0.48
	c1.131-1.687,2.428-3.054,3.947-4.174c1.307-0.959,2.675-1.711,4.083-2.303c-0.404-0.282-0.828-0.539-1.272-0.771
	c-1.766-0.924-3.679-1.736-5.542-2.609c1.751,0.475,3.76,0.651,5.437,1.263c1.045,0.383,2.009,0.913,2.906,1.544
	c2.681-0.914,5.481-1.354,8.278-1.687c-2.266-3.765-7.102-6.788-10.746-8.156c-3.805-1.429-8.116-1.604-12.35-2.044
	C5.724,3.479,2.903,2.51,0.838,1.38C0.369,1.121-0.13,1.551,0.031,2.07C1.045,5.315,1.56,8.99,2.903,12.109"/>
<path fill="#F4C42E" d="M47.646,11.614c-4.775,2.595-10.251,2.912-15.616,3.528c-2.62,0.303-5.214,0.676-7.682,1.423
	c-0.535,0.162-1.07,0.344-1.595,0.546c-1.56,0.596-3.064,1.377-4.482,2.422c-1.332,0.979-2.422,2.141-3.341,3.417
	c-1.464,2.039-2.483,4.387-3.321,6.824c-1.529,4.426-2.23,9.13-2.095,13.81c0.056,1.897,0.086,3.871,0.555,5.724
	c0.107,0.409,0.207,0.928,0.525,1.231c0.414,0.398,1.156-0.011,0.99-0.591c-1.202-4.094-0.455-8.878,1.206-12.79
	c1.907-4.497,5.592-7.172,10.094-8.802c1.197-0.434,2.418-0.813,3.66-1.171c0.024-0.01,0.05-0.01,0.074-0.01
	c0.248,0,0.354,0.363,0.097,0.479c-1.464,0.661-2.917,1.328-4.3,2.049c-6.773,3.533-9.731,11.761-7.192,11.761
	c0.207,0,0.449-0.056,0.727-0.171c3.916-1.62,8.57-1.637,12.875-2.434c1.515-0.277,2.988-0.656,4.371-1.231
	c5.491-2.291,9.418-6.773,11.755-12.163c1.741-4.023,2.417-8.772,3.735-12.951c0.171-0.535-0.207-0.995-0.672-0.995
	C47.898,11.514,47.772,11.545,47.646,11.614"/>
</svg>
