<?xml version="1.0" encoding="utf-8"?>
<!-- Generator: Adobe Illustrator 16.0.0, SVG Export Plug-In . SVG Version: 6.00 Build 0)  -->
<!DOCTYPE svg PUBLIC "-//W3C//DTD SVG 1.1//EN" "http://www.w3.org/Graphics/SVG/1.1/DTD/svg11.dtd">
<svg version="1.1" id="Layer_1" xmlns="http://www.w3.org/2000/svg" xmlns:xlink="http://www.w3.org/1999/xlink" x="0px" y="0px"
	 width="42.533px" height="26.611px" viewBox="0 0 42.533 26.611" enable-background="new 0 0 42.533 26.611" xml:space="preserve">
<path fill="#C178B2" d="M31.827,0.268c-3.96,1.087-5.335,4.649-5.1,6.137c0.072-0.045,0.144-0.09,0.216-0.139
	c2.665-1.745,5.688-2.598,8.768-3.089c1.401-0.226,2.357-0.267,2.357-0.267s-7.928,2.494-10.89,4.429
	c-3.393,2.21-4.979,5.835-5.912,9.781c-0.929-3.946-2.521-7.571-5.908-9.781c-2.962-1.93-10.89-4.424-10.89-4.424
	s0.956,0.041,2.357,0.266c3.08,0.492,6.106,1.344,8.768,3.089c0.072,0.05,0.144,0.09,0.216,0.14c0.229-1.488-1.146-5.051-5.1-6.138
	C6.398-0.909,2.291,2.23,0,2.099c3.155,2.259,3.598,4.482,8.184,6.476c3.117,1.352,5.214,0.577,6.417-0.433
	c0.028,0.027,3.825,2.371,5.764,9.984c-4.248,0.365-9.572,3.265-9.572,6.791c0,2.286,20.572,2.232,20.572,0
	c0-3.526-4.943-6.426-9.187-6.791c1.93-7.621,5.727-9.962,5.754-9.989c1.199,1.01,3.301,1.786,6.417,0.433
	c4.586-1.993,5.032-4.221,8.185-6.476C40.246,2.225,36.13-0.918,31.827,0.268"/>
</svg>
