<svg xmlns="http://www.w3.org/2000/svg" width="44.999" height="44.999" viewBox="0 0 42 42">
  <metadata><?xpacket begin="﻿" id="W5M0MpCehiHzreSzNTczkc9d"?>
<x:xmpmeta xmlns:x="adobe:ns:meta/" x:xmptk="Adobe XMP Core 5.6-c142 79.160924, 2017/07/13-01:06:39        ">
   <rdf:RDF xmlns:rdf="http://www.w3.org/1999/02/22-rdf-syntax-ns#">
      <rdf:Description rdf:about=""
            xmlns:xmp="http://ns.adobe.com/xap/1.0/">
         <xmp:CreatorTool>Adobe Photoshop CC 2018 (Windows)</xmp:CreatorTool>
      </rdf:Description>
   </rdf:RDF>
</x:xmpmeta>
                                                                                                    
                                                                                                    
                                                                                                    
                                                                                                    
                                                                                                    
                                                                                                    
                                                                                                    
                                                                                                    
                                                                                                    
                                                                                                    
                                                                                                    
                                                                                                    
                                                                                                    
                                                                                                    
                                                                                                    
                                                                                                    
                                                                                                    
                                                                                                    
                                                                                                    
                                                                                                    
                           
<?xpacket end="w"?></metadata>
<defs>
    <style>
      .cls-1 {
        fill: #1f1f1f;
      }

      .cls-2 {
        fill: #0081ca;
        fill-rule: evenodd;
      }
    </style>
  </defs>
  <circle id="Ellipse_1322_copy_4" data-name="Ellipse 1322 copy 4" class="cls-1" cx="21" cy="21" r="21"/>
  <path id="Shape_8_copy" data-name="Shape 8 copy" class="cls-2" d="M24,12H13.378A2.391,2.391,0,0,0,11,14.4V21a2.391,2.391,0,0,0,2.377,2.4V26.5l3.76-3.106H24A2.391,2.391,0,0,0,26.379,21V14.4A2.391,2.391,0,0,0,24,12m-9.727,7.265a1.492,1.492,0,1,1,1.48-1.492,1.486,1.486,0,0,1-1.48,1.492m4.415,0a1.492,1.492,0,1,1,1.48-1.492,1.486,1.486,0,0,1-1.48,1.492m4.39,0a1.492,1.492,0,1,1,1.48-1.492,1.486,1.486,0,0,1-1.48,1.492m5.543-2.788h-1.94v4.77a2.391,2.391,0,0,1-2.377,2.4H17.441l-1.819,1.5V25.5A2.391,2.391,0,0,0,18,27.9h6.865L28.623,31V27.9A2.391,2.391,0,0,0,31,25.5V18.9a2.428,2.428,0,0,0-2.377-2.421"/>
</svg>
