<svg xmlns="http://www.w3.org/2000/svg" width="44.999" height="44.999" viewBox="0 0 42 42">
  <metadata><?xpacket begin="﻿" id="W5M0MpCehiHzreSzNTczkc9d"?>
<x:xmpmeta xmlns:x="adobe:ns:meta/" x:xmptk="Adobe XMP Core 5.6-c142 79.160924, 2017/07/13-01:06:39        ">
   <rdf:RDF xmlns:rdf="http://www.w3.org/1999/02/22-rdf-syntax-ns#">
      <rdf:Description rdf:about=""
            xmlns:xmp="http://ns.adobe.com/xap/1.0/">
         <xmp:CreatorTool>Adobe Photoshop CC 2018 (Windows)</xmp:CreatorTool>
      </rdf:Description>
   </rdf:RDF>
</x:xmpmeta>
                                                                                                    
                                                                                                    
                                                                                                    
                                                                                                    
                                                                                                    
                                                                                                    
                                                                                                    
                                                                                                    
                                                                                                    
                                                                                                    
                                                                                                    
                                                                                                    
                                                                                                    
                                                                                                    
                                                                                                    
                                                                                                    
                                                                                                    
                                                                                                    
                                                                                                    
                                                                                                    
                           
<?xpacket end="w"?></metadata>
<defs>
    <style>
      .cls-1 {
        fill: #1f1f1f;
      }

      .cls-2 {
        fill: #f79320;
        fill-rule: evenodd;
      }
    </style>
  </defs>
  <circle id="Ellipse_1322_copy_4" data-name="Ellipse 1322 copy 4" class="cls-1" cx="21" cy="21" r="21"/>
  <path id="Shape_7_copy" data-name="Shape 7 copy" class="cls-2" d="M23.3,29.881H9.971A6.84,6.84,0,0,1,23.3,29.881ZM16.63,16.374a3.782,3.782,0,1,1-3.754,3.782A3.768,3.768,0,0,1,16.63,16.374Zm6.021,7.941-1.235-.856a5.835,5.835,0,0,0,0-6.6L22.651,16a7.4,7.4,0,0,1,0,8.308v0.01ZM25.525,26.3l-1.235-.856a9.384,9.384,0,0,0,0-10.571l1.235-.856a10.912,10.912,0,0,1,0,12.232V26.3Zm3.036,2.09-1.224-.846a13.168,13.168,0,0,0,0-14.771l1.224-.856A14.624,14.624,0,0,1,28.561,28.393Z"/>
</svg>
