<?xml version="1.0" encoding="utf-8"?>
<!-- Generator: Adobe Illustrator 16.0.0, SVG Export Plug-In . SVG Version: 6.00 Build 0)  -->
<!DOCTYPE svg PUBLIC "-//W3C//DTD SVG 1.1//EN" "http://www.w3.org/Graphics/SVG/1.1/DTD/svg11.dtd">
<svg version="1.1" id="Layer_1" xmlns="http://www.w3.org/2000/svg" xmlns:xlink="http://www.w3.org/1999/xlink" x="0px" y="0px"
	 width="63.599px" height="44.067px" viewBox="0 0 63.599 44.067" enable-background="new 0 0 63.599 44.067" xml:space="preserve">
<path fill="#C178B2" d="M1.306,30.252h32.928c0.492,0,0.895-0.403,0.895-0.895V2.684C35.128,1.202,33.926,0,32.443,0H3.095
	C1.613,0,0.411,1.202,0.411,2.684v26.673C0.411,29.849,0.814,30.252,1.306,30.252 M7.941,12.278c0-0.613,0.497-1.11,1.11-1.11h8.784
	v-3.13c0-0.99,1.196-1.485,1.896-0.785l7.569,7.573c0.434,0.433,0.434,1.136,0,1.57l-7.569,7.572
	c-0.699,0.7-1.896,0.204-1.896-0.786v-3.13H9.052c-0.613,0-1.11-0.497-1.11-1.111V12.278z M11.793,37.438H0.895
	C0.402,37.438,0,37.034,0,36.542v-2.72c0-0.492,0.402-0.895,0.895-0.895h13.367C12.955,34.063,12.052,35.647,11.793,37.438
	 M62.704,32.927H60.53v-12.16c0-1.422-0.43-2.818-1.227-3.999l-5.448-8.071c-1.333-1.968-3.553-3.149-5.933-3.149h-8.446
	c-0.993,0-1.789,0.805-1.789,1.789v25.59H23.854c1.314,1.136,2.219,2.72,2.478,4.51h14.585c0.52-3.552,3.579-6.299,7.274-6.299
	c3.694,0,6.746,2.747,7.265,6.299h7.248c0.492,0,0.895-0.403,0.895-0.896v-2.72C63.599,33.33,63.196,32.927,62.704,32.927
	 M53.792,18.378H42.645c-0.493,0-0.896-0.393-0.896-0.894v-6.183c0-0.492,0.402-0.895,0.896-0.895h6.791
	c0.295,0,0.563,0.143,0.732,0.376l4.358,6.192C54.938,17.564,54.518,18.378,53.792,18.378 M19.058,32.927
	c-3.068,0-5.565,2.496-5.565,5.575c0,3.068,2.497,5.565,5.565,5.565c3.078,0,5.565-2.497,5.565-5.565
	C24.623,35.423,22.136,32.927,19.058,32.927 M19.058,41.284c-1.538,0-2.782-1.253-2.782-2.782c0-1.54,1.244-2.783,2.782-2.783
	c1.539,0,2.782,1.243,2.782,2.783C21.84,40.031,20.597,41.284,19.058,41.284 M48.191,32.927c-3.078,0-5.566,2.496-5.566,5.575
	c0,3.068,2.488,5.565,5.566,5.565c3.068,0,5.564-2.497,5.564-5.565C53.756,35.423,51.26,32.927,48.191,32.927 M48.191,41.284
	c-1.539,0-2.783-1.253-2.783-2.782c0-1.54,1.244-2.783,2.783-2.783s2.782,1.243,2.782,2.783
	C50.974,40.031,49.73,41.284,48.191,41.284"/>
</svg>
