<?xml version="1.0" encoding="utf-8"?>
<!-- Generator: Adobe Illustrator 16.0.0, SVG Export Plug-In . SVG Version: 6.00 Build 0)  -->
<!DOCTYPE svg PUBLIC "-//W3C//DTD SVG 1.1//EN" "http://www.w3.org/Graphics/SVG/1.1/DTD/svg11.dtd">
<svg version="1.1" id="Layer_1" xmlns="http://www.w3.org/2000/svg" xmlns:xlink="http://www.w3.org/1999/xlink" x="0px" y="0px"
	 width="31.927px" height="38.035px" viewBox="0 0 31.927 38.035" enable-background="new 0 0 31.927 38.035" xml:space="preserve">
<path fill="#EE9B21" d="M29.994,22.729c-0.094-0.022-0.086-0.146-0.116-0.231c-0.42-0.008-0.819,0.006-1.121,0.115
	c-0.101-0.041-0.126-0.156-0.116-0.309c-0.371,0.014-0.627,0.145-0.966,0.193c-0.06-0.057-0.081-0.151-0.077-0.271
	c-0.406-0.007-0.633,0.166-0.89,0.309c-0.119-0.008-0.065-0.191-0.077-0.309c-0.421,0.004-0.641,0.21-0.889,0.387
	c-0.092-0.076-0.055-0.281-0.116-0.387c-0.367,0.071-0.547,0.329-0.812,0.503c-0.121-0.021-0.14-0.144-0.154-0.271
	c-0.322,0.09-0.51,0.314-0.734,0.503c-0.18,0.024-0.135-0.175-0.232-0.232c-0.307,0.092-0.383,0.415-0.695,0.502
	c-0.109,0.006-0.112-0.095-0.116-0.192c-0.353,0.162-0.612,0.418-0.89,0.656c-0.12,0.02-0.108-0.097-0.153-0.154
	c-0.282,0.17-0.522,0.38-0.735,0.619c-0.076-0.027-0.103-0.104-0.115-0.193c-0.32,0.182-0.532,0.473-0.851,0.656
	c-0.073-0.017-0.166-0.014-0.155-0.115c-0.781,0.765-1.965,1.126-3.131,1.507c0.104-0.356,0.459-0.579,0.735-0.812
	c0.938-0.787,1.976-1.662,3.401-2.01c0.029-0.119-0.106-0.074-0.078-0.192c0.294-0.353,0.9-0.389,1.392-0.542
	c0.091-0.102-0.11-0.146-0.116-0.271c0.348-0.194,0.838-0.245,1.199-0.425c0.029-0.151-0.143-0.201-0.039-0.311
	c0.48-0.125,0.938-0.273,1.314-0.502c-0.037-0.155-0.217-0.17-0.232-0.348c0.422-0.093,0.855-0.175,1.199-0.348
	c-0.042-0.178-0.211-0.228-0.232-0.426c0.463-0.077,0.853-0.229,1.197-0.425c-0.014-0.19-0.191-0.22-0.23-0.387
	c0.305-0.171,0.668-0.284,1.082-0.348c-0.035-0.149,0.064-0.167,0.115-0.232c-0.097-0.16-0.326-0.188-0.348-0.425
	c0.408-0.146,0.779-0.329,1.005-0.657c-0.003-0.203-0.261-0.151-0.271-0.348c0.369-0.21,0.744-0.415,1.004-0.734
	c-0.026-0.166-0.227-0.159-0.27-0.31c0.254-0.351,0.629-0.582,0.889-0.927c-0.035-0.158-0.215-0.17-0.271-0.309
	c0.263-0.461,0.994-0.817,0.812-1.469c0.336-0.541,0.69-1.061,0.967-1.662c0.104-0.128,0.25-0.214,0.193-0.503
	c-0.769,0.417-1.42,0.952-2.203,1.353c-0.146-0.008-0.146-0.162-0.31-0.153c-0.437,0.246-0.841,0.523-1.159,0.889
	c-0.191-0.002-0.236-0.15-0.31-0.271c-0.414,0.216-0.64,0.622-0.966,0.928c-0.117-0.077-0.23-0.156-0.271-0.31
	c-0.357,0.248-0.613,0.599-0.771,1.043c-0.207-0.013-0.184-0.256-0.349-0.309c-0.321,0.246-0.567,0.567-0.657,1.044
	c-0.256-0.015-0.268-0.274-0.463-0.348c-0.264,0.304-0.423,0.712-0.504,1.198c-0.214,0.008-0.23-0.182-0.387-0.232
	c-0.298,0.255-0.414,0.694-0.463,1.198c-0.23-0.014-0.256-0.234-0.465-0.27c-0.12,0.382-0.28,0.724-0.309,1.198
	c-0.244,0.039-0.195-0.218-0.387-0.232c-0.199,0.419-0.398,0.839-0.464,1.392c-0.167,0.014-0.216-0.093-0.347-0.116
	c-0.098,0.419-0.287,0.746-0.349,1.199c-0.196,0.057-0.239-0.167-0.348-0.077c-0.099,0.481-0.214,0.944-0.425,1.313
	c-0.133,0.018-0.217-0.016-0.31-0.039c-0.374,1.933-1.679,2.935-2.668,4.252c-0.192-0.166-0.026-0.435,0-0.656
	c0.212-1.725,0.452-3.478,1.237-4.601c-0.196,0.041-0.237-0.071-0.309-0.155c0.192-0.656,0.512-1.188,0.85-1.699
	c-0.094-0.061-0.251-0.058-0.387-0.078c0.16-0.6,0.586-0.934,0.697-1.584c-0.131-0.012-0.244-0.04-0.311-0.116
	c0.257-0.594,0.633-1.069,0.773-1.778c-0.188-0.005-0.408,0.02-0.541-0.039c0.262-0.498,0.635-0.886,0.772-1.507
	c-0.24,0.021-0.407-0.031-0.579-0.078c0.219-0.504,0.652-0.995,0.657-1.585c-0.248,0.016-0.407-0.056-0.619-0.077
	c0.263-0.473,0.655-1.018,0.619-1.662c-0.214,0.038-0.488,0.063-0.696,0c0.201-0.433,0.475-0.992,0.309-1.662
	c-0.18,0.039-0.342,0.096-0.58,0.077c0.162-0.465,0.418-1.178,0.232-1.739c-0.107,0.059-0.242,0.093-0.425,0.077
	c-0.039-0.025-0.04-0.089-0.116-0.077c0.08-0.562,0.057-1.063,0.039-1.662h-0.541c-0.082-0.933-0.068-1.371-0.309-2.048
	c-0.154,0.033-0.195,0.033-0.348,0c-0.123-1.181-0.443-2.16-0.813-3.093c-0.062-0.011-0.067,0.037-0.116,0.039
	c-0.209,1.144-0.412,2.293-0.773,3.286c-0.122,0.052-0.152-0.015-0.348,0.038c-0.196,0.564-0.299,1.222-0.271,2.01
	c-0.188-0.005-0.407,0.021-0.541-0.039c-0.102,0.548-0.065,1.142,0,1.701c-0.137,0.145-0.4,0.034-0.579,0
	c-0.105,0.59,0.084,1.163,0.231,1.623c-0.134,0.114-0.351,0.065-0.54,0.039c-0.162,0.653,0.112,1.199,0.309,1.623
	c-0.215,0.12-0.456,0.044-0.735,0.039c0.079,0.695,0.295,1.121,0.657,1.585c-0.084,0.187-0.456,0.085-0.657,0.154
	c0.148,0.612,0.41,1.111,0.735,1.546c-0.148,0.097-0.381,0.11-0.619,0.116c0.154,0.581,0.455,1.014,0.773,1.431
	c-0.055,0.163-0.332,0.105-0.541,0.116c0.164,0.686,0.522,1.178,0.773,1.777c-0.051,0.104-0.245,0.064-0.348,0.116
	c0.142,0.592,0.585,0.884,0.657,1.547c-0.005,0.11-0.161,0.07-0.27,0.077c0.232,0.605,0.631,1.043,0.811,1.7
	c-0.042,0.126-0.123,0.213-0.309,0.194c0.931,1.231,1.079,3.036,1.353,4.946c-0.045-0.006-0.069,0.01-0.077,0.039
	c-0.559-0.461-0.993-1.107-1.469-1.738c-0.532-0.707-1.111-1.381-1.237-2.475c-0.648,0.127-0.538-0.822-0.734-1.275
	c-0.105-0.094-0.138,0.12-0.309,0.078c-0.144-0.385-0.263-0.794-0.387-1.199c-0.137,0.005-0.141,0.144-0.309,0.116
	c-0.138-0.493-0.279-0.983-0.503-1.392c-0.163,0.03-0.15,0.236-0.348,0.232c-0.106-0.409-0.2-0.83-0.347-1.198
	c-0.182,0.05-0.254,0.21-0.426,0.27c-0.112-0.442-0.193-0.915-0.463-1.198c-0.181,0.026-0.21,0.203-0.387,0.232
	c-0.157-0.423-0.25-0.909-0.541-1.198c-0.182,0.075-0.215,0.3-0.425,0.348c-0.184-0.422-0.327-0.885-0.773-1.044
	c-0.021,0.159-0.127,0.233-0.232,0.309c-0.204-0.401-0.449-0.762-0.773-1.043c-0.121,0.072-0.142,0.244-0.271,0.31
	c-0.371-0.261-0.574-0.689-0.966-0.928c-0.124,0.069-0.132,0.254-0.309,0.271c-0.369-0.328-0.742-0.65-1.198-0.89
	c-0.142,0.001-0.174,0.109-0.271,0.154c-0.825-0.386-1.466-0.956-2.281-1.353c0.302,0.782,0.735,1.43,1.16,2.088
	c-0.108,0.758,0.527,1.056,0.85,1.507c-0.034,0.159-0.189,0.197-0.27,0.309c0.231,0.375,0.599,0.613,0.889,0.928
	c-0.008,0.199-0.246,0.167-0.271,0.348c0.261,0.319,0.635,0.524,1.005,0.734c0.016,0.223-0.273,0.139-0.27,0.348
	c0.242,0.299,0.539,0.543,1.004,0.619c-0.007,0.25-0.2,0.314-0.348,0.425c0.266,0.4,0.748,0.352,1.122,0.618
	c0.047,0.178-0.17,0.292-0.116,0.349c0.272,0.256,0.656,0.4,1.159,0.424c0.003,0.235-0.19,0.274-0.232,0.465
	c0.362,0.141,0.707,0.299,1.198,0.309c0.008,0.214-0.177,0.235-0.231,0.387c0.391,0.201,0.77,0.416,1.314,0.465
	c0.087,0.148-0.046,0.178-0.039,0.348c0.372,0.156,0.79,0.266,1.198,0.386c0.025,0.163-0.21,0.195-0.116,0.31
	c0.496,0.136,1.048,0.215,1.392,0.503c0.041,0.144-0.096,0.109-0.077,0.231c1.84,0.491,3.001,1.662,4.213,2.783
	c-1.011-0.175-2.072-0.634-2.861-1.16c-0.077-0.129-0.212-0.199-0.309-0.309c-0.052,0.038-0.076,0.104-0.154,0.115
	c-0.325-0.166-0.574-0.404-0.812-0.656c-0.132-0.029-0.049,0.156-0.193,0.115c-0.277-0.136-0.447-0.377-0.696-0.541
	c-0.099,0.004-0.056,0.151-0.155,0.154c-0.311-0.203-0.558-0.472-0.889-0.656c-0.078,0.024-0.025,0.181-0.116,0.192
	c-0.342-0.057-0.418-0.38-0.695-0.502c-0.157-0.002-0.07,0.239-0.232,0.232c-0.271-0.155-0.428-0.423-0.774-0.503
	c0.002,0.13-0.053,0.205-0.115,0.271C6.835,22.594,6.69,22.287,6.3,22.227c-0.061,0.081-0.027,0.257-0.077,0.348
	c-0.254-0.021-0.484-0.388-0.928-0.348c-0.005,0.112,0.021,0.253-0.038,0.309c-0.32-0.092-0.487-0.338-0.928-0.309
	c0.022,0.126-0.026,0.18-0.039,0.271c-0.367-0.032-0.617-0.183-1.004-0.193c0.022,0.15-0.034,0.224-0.078,0.309
	c-0.32-0.092-0.695-0.13-1.121-0.115c-0.056,0.06-0.081,0.149-0.116,0.231c-0.707,0.019-1.231-0.002-1.971,0
	c0.409,0.416,0.992,0.657,1.585,0.89c0.081,0.512,0.72,0.465,1.12,0.656c0.028,0.144-0.066,0.166-0.038,0.31
	c0.287,0.087,0.585,0.161,0.927,0.193c0.057,0.067-0.023,0.232-0.038,0.348c0.241,0.094,0.591,0.079,0.927,0.077
	c0.089,0.094-0.039,0.188-0.038,0.31c0.246,0.146,0.649,0.048,0.966,0.038c0.024,0.179-0.086,0.223-0.077,0.387
	c0.325,0.086,0.659-0.064,0.966-0.116c0.088,0.041,0.015,0.243,0.039,0.349c0.377,0.003,0.642-0.105,0.927-0.194
	c0.111,0.077-0.013,0.242,0,0.349c0.364-0.011,0.596-0.152,0.89-0.231c0.087,0.028,0.014,0.216,0.038,0.308
	c0.345,0.037,0.941-0.371,1.121,0c0.282-0.064,0.54-0.154,0.85-0.191c0.08,0.022,0.147,0.059,0.116,0.191
	c0.305-0.094,0.609-0.189,0.928-0.27c0.134,0.007,0.172,0.111,0.232,0.193c1.247-0.438,3.019-0.052,4.097,0.115
	c-0.559,0.422-1.19,0.735-2.01,0.735v0.153c-0.424-0.037-0.566,0.207-0.966,0.193c-0.051,0.221-0.41,0.132-0.58,0.232
	c-0.116-0.039-0.069,0.087-0.077,0.154c-0.116,0.053-0.296,0.039-0.464,0.039c-0.065,0.077,0.003,0.049,0,0.154
	c-0.148,0.124-0.627-0.014-0.464,0.311c-0.102,0.077-0.355,0.004-0.464,0.076c-0.084,0.081,0.02,0.11,0,0.232
	c-0.137,0.056-0.302,0.084-0.425,0.154c-0.073,0.074,0.023,0.069,0,0.193c-0.126,0.094-0.299,0.139-0.425,0.231
	c-0.028,0.105,0.077,0.078,0.077,0.155c-0.125,0.106-0.292,0.171-0.425,0.271c-0.072,0.068,0.017,0.112,0.038,0.193
	c-0.503,0.347-0.723,0.977-1.198,1.353c0.592-0.189,1.16-0.185,1.624-0.464c0.144-0.041,0.061,0.146,0.193,0.116
	c0.271-0.318,0.673-0.043,0.889-0.426c0.226,0.16,0.372-0.047,0.503-0.192c0.144-0.042,0.11,0.096,0.232,0.077
	c0.083-0.123,0.208-0.204,0.231-0.387c0.145-0.041,0.111,0.096,0.232,0.078c0.077-0.131,0.203-0.211,0.232-0.388
	c0.119-0.028,0.074,0.106,0.193,0.077c0.059-0.122,0.172-0.188,0.193-0.348c0.08-0.092,0.153,0.054,0.232-0.038
	c0.188-0.384,0.494-0.41,0.657-0.813c0.07-0.005,0.082,0.048,0.155,0.039c0.503-0.824,1.17-1.483,2.01-1.971
	c0.274,2.444,0.391,5.69,0.27,8.348c-0.032,0.731-0.124,1.517-0.579,1.972c-0.058,0.347-0.067,0.859,0.116,1.082
	c0.86-0.342,0.71-2.127,0.927-3.17c-0.02-1.58,0.008-3.838-0.115-5.836c-0.051-0.815-0.15-1.613-0.078-2.357
	c0.807,0.469,1.407,1.144,1.934,1.894c0.27-0.071,0.207,0.406,0.541,0.388c0.066,0.164,0.16,0.303,0.271,0.425
	c0.072,0.071,0.096,0.004,0.192,0c0.06,0.146,0.149,0.262,0.231,0.386c0.105,0.027,0.078-0.076,0.154-0.077
	c0.096,0.124,0.168,0.271,0.271,0.388c0.119,0.028,0.074-0.106,0.193-0.078c0.092,0.127,0.159,0.277,0.271,0.387
	c0.12,0.019,0.087-0.119,0.231-0.077c0.096,0.083,0.162,0.199,0.271,0.271c0.241-0.173,0.364,0.084,0.541,0.192
	c0.217-0.18,0.36,0.044,0.542,0.116c0.089,0.094,0.104-0.061,0.193-0.077c0.498,0.262,1.051,0.279,1.662,0.464
	c-0.483-0.354-0.662-1.015-1.199-1.314c0-0.092,0.066-0.113,0.039-0.231c-0.144-0.076-0.248-0.19-0.426-0.231
	c-0.029-0.119,0.106-0.075,0.077-0.193c-0.139-0.067-0.239-0.172-0.425-0.194c-0.031-0.133,0.072-0.163,0-0.23
	c-0.145-0.037-0.214-0.146-0.425-0.116c-0.089-0.09,0.071-0.125,0.038-0.271c-0.141-0.025-0.28-0.054-0.463-0.037
	c-0.109-0.041,0.011-0.166,0-0.232c-0.227-0.046-0.582-0.032-0.502-0.271c-0.267,0.021-0.508,0.019-0.504-0.231
	c-0.203,0.022-0.291-0.068-0.502-0.039c-0.053-0.037-0.051-0.13-0.115-0.154c-0.407,0.021-0.533-0.241-0.967-0.192
	c-0.068-0.011-0.088-0.067-0.078-0.155c-0.653,0.022-1.407-0.351-1.933-0.696c1.07-0.239,2.834-0.576,4.06-0.154
	c0.115-0.025,0.108-0.175,0.231-0.193c0.347,0.064,0.647,0.177,0.966,0.271c-0.033-0.123,0.034-0.146,0.078-0.192
	c0.322,0.024,0.58,0.115,0.85,0.192c0.217-0.362,0.785,0.029,1.16,0v-0.309c0.328,0.058,0.545,0.228,0.928,0.231
	c-0.002-0.127-0.065-0.192-0.039-0.348c0.32,0.064,0.568,0.205,0.967,0.193v-0.349c0.342,0.028,0.65,0.22,1.004,0.116
	c0.012-0.152-0.089-0.193-0.076-0.348c0.246-0.089,0.731,0.1,0.967-0.077c-0.008-0.109-0.072-0.161-0.078-0.271
	c0.271-0.089,0.73,0.009,0.966-0.116c-0.04-0.089-0.024-0.233-0.077-0.31c0.3-0.099,0.678-0.12,0.966-0.231
	c0.031-0.134-0.058-0.148-0.038-0.271c0.305-0.273,1.031-0.129,1.082-0.656c0.576-0.274,1.211-0.49,1.624-0.929
	C31.121,22.728,30.754,22.755,29.994,22.729"/>
</svg>
