<?xml version="1.0" encoding="utf-8"?>
<!-- Generator: Adobe Illustrator 16.0.0, SVG Export Plug-In . SVG Version: 6.00 Build 0)  -->
<!DOCTYPE svg PUBLIC "-//W3C//DTD SVG 1.1//EN" "http://www.w3.org/Graphics/SVG/1.1/DTD/svg11.dtd">
<svg version="1.1" id="Layer_1" xmlns="http://www.w3.org/2000/svg" xmlns:xlink="http://www.w3.org/1999/xlink" x="0px" y="0px"
	 width="66.436px" height="41.968px" viewBox="0 0 66.436 41.968" enable-background="new 0 0 66.436 41.968" xml:space="preserve">
<g>
	<path fill="#7BC044" d="M52.833,14.041v4.183c0,1.732,1.404,3.139,3.138,3.139c1.736,0,3.144-1.407,3.144-3.139v-4.183h4.185
		c1.729,0,3.137-1.413,3.137-3.144c0-1.738-1.407-3.143-3.137-3.143h-4.185V3.629c0-1.733-1.407-3.138-3.144-3.138
		c-1.733,0-3.138,1.405-3.138,3.138v4.125h-4.125c-1.737,0-3.145,1.405-3.145,3.143c0,1.731,1.407,3.144,3.145,3.144H52.833z"/>
	<path fill="#7BC044" d="M36.922,41.968c2,0,3.622-1.622,3.622-3.622V3.622c0-2-1.622-3.622-3.622-3.622h-5.476v21.653
		c0,0.558-0.66,0.85-1.072,0.481l-3.657-3.295c-0.239-0.224-0.616-0.224-0.857,0l-3.656,3.295c-0.412,0.369-1.073,0.077-1.073-0.481
		V0H7.956c-2,0-3.622,1.622-3.622,3.622V8.17H2.601C1.167,8.17,0,9.338,0,10.771s1.167,2.6,2.601,2.6h1.733v5.012H2.601
		C1.167,18.383,0,19.551,0,20.984s1.167,2.6,2.601,2.6h1.733v5.013H2.601c-1.434,0-2.601,1.167-2.601,2.6
		c0,1.434,1.167,2.601,2.601,2.601h1.733v4.549c0,2,1.622,3.622,3.622,3.622H36.922z"/>
</g>
</svg>
