<?xml version="1.0" encoding="utf-8"?>
<!-- Generator: Adobe Illustrator 22.0.1, SVG Export Plug-In . SVG Version: 6.00 Build 0)  -->
<svg version="1.1" id="Layer_1" xmlns="http://www.w3.org/2000/svg" xmlns:xlink="http://www.w3.org/1999/xlink" x="0px" y="0px"
	 viewBox="0 0 24 24" enable-background="new 0 0 24 24" xml:space="preserve">
<g id="_x39_YEUfQ_1_">
	<g>
		<g>
			<path fill="#30302F" d="M15.438,17.603c-0.594,0.076-1.012,0.046-0.947-0.633c0.024-0.248-0.182-0.326-0.383-0.363
				c-1.01-0.187-1.948-0.552-2.784-1.153c-0.3-0.216-0.451-0.001-0.625,0.172c-1.712,1.706-3.423,3.412-5.135,5.119
				c-0.503,0.502-1.014,0.997-1.505,1.511c-0.215,0.226-0.408,0.253-0.639,0.049c-0.12-0.106-0.246-0.204-0.36-0.315
				c-0.754-0.738-0.751-0.78,0.015-1.483c0.123-0.113,0.334-0.213,0.237-0.426c-0.109-0.24-0.326-0.239-0.549-0.161
				c-0.244,0.085-0.457,0.023-0.636-0.154c-0.328-0.325-0.664-0.644-0.972-0.988c-0.252-0.282-0.319-0.617-0.012-0.902
				c0.292-0.271,0.603-0.165,0.853,0.084c0.239,0.238,0.427,0.403,0.729,0.055c0.212-0.245,0.226-0.403-0.015-0.615
				c-0.294-0.259-0.477-0.593-0.157-0.921c0.328-0.337,0.694-0.197,0.977,0.11c0.253,0.275,0.429,0.187,0.659-0.035
				c0.251-0.243,0.188-0.41-0.039-0.609c-0.321-0.282-0.463-0.63-0.111-0.962c0.33-0.312,0.652-0.142,0.929,0.143
				c0.235,0.243,0.47,0.485,0.716,0.716c0.27,0.253,0.506,0.502,0.338,0.921c-0.065,0.162,0.002,0.321,0.159,0.413
				c0.162,0.094,0.273-0.023,0.366-0.127c0.903-1.003,1.951-1.862,2.833-2.886c0.197-0.229,0.213-0.414,0.044-0.66
				C8.902,12.743,8.576,11.9,8.42,10.997c-0.065-0.38-0.233-0.573-0.635-0.542c-0.353,0.028-0.467-0.179-0.454-0.5
				C7.34,9.76,7.351,9.562,7.328,9.37C7.283,9.001,7.427,8.831,7.8,8.862c0.399,0.034,0.538-0.168,0.626-0.547
				c0.672-2.898,2.451-4.743,5.34-5.477c0.459-0.117,0.818-0.216,0.753-0.799c-0.026-0.233,0.135-0.35,0.372-0.349
				c0.231,0.001,0.463,0.009,0.693-0.007c0.364-0.026,0.537,0.134,0.511,0.496c-0.028,0.404,0.174,0.536,0.556,0.61
				c2.799,0.539,4.974,2.689,5.543,5.467c0.077,0.375,0.181,0.643,0.631,0.611c0.306-0.022,0.461,0.13,0.447,0.449
				c-0.01,0.231-0.009,0.462,0,0.693c0.013,0.318-0.142,0.472-0.448,0.447c-0.421-0.035-0.533,0.206-0.613,0.563
				c-0.658,2.96-2.479,4.798-5.412,5.527c-0.436,0.108-0.737,0.205-0.726,0.763C16.084,17.847,15.596,17.542,15.438,17.603z
				 M15.804,14.474c0.033,0.344-0.157,0.836,0.53,0.758c2.09-0.239,4.317-2.477,4.539-4.583c0.017-0.158,0.051-0.325-0.11-0.437
				c-0.415-0.289-1.274,0.015-1.401,0.486c-0.426,1.576-1.45,2.583-3.003,3.013C15.903,13.837,15.708,14.007,15.804,14.474z
				 M14.806,14.417c0.08-0.377-0.076-0.587-0.573-0.719c-1.457-0.389-2.437-1.338-2.898-2.787c-0.25-0.786-0.238-0.771-1.098-0.761
				c-0.441,0.005-0.571,0.173-0.473,0.587c0.541,2.299,1.936,3.786,4.215,4.419C14.727,15.364,14.802,15.289,14.806,14.417z
				 M20.078,9.164c0.793-0.004,0.865-0.063,0.778-0.571c-0.379-2.22-2.442-4.209-4.641-4.48c-0.144-0.018-0.281-0.043-0.373,0.114
				c-0.279,0.475,0.033,1.278,0.554,1.43c1.514,0.444,2.526,1.413,2.937,2.938C19.465,9.084,19.69,9.247,20.078,9.164z
				 M14.797,4.788c-0.1-0.234,0.24-0.757-0.411-0.67c-2.216,0.295-4.324,2.38-4.628,4.574C9.736,8.851,9.7,9.012,9.876,9.117
				c0.473,0.283,1.253-0.032,1.417-0.563c0.448-1.445,1.383-2.438,2.841-2.846C14.67,5.557,14.919,5.357,14.797,4.788z
				 M15.801,12.123c0,0.209-0.002,0.368,0,0.527c0.003,0.237,0.116,0.292,0.345,0.249c1.008-0.188,2.184-1.32,2.363-2.296
				c0.033-0.179,0.06-0.349-0.176-0.431c-0.511-0.178-1.18,0.04-1.497,0.504c-0.152,0.221-0.316,0.444-0.562,0.551
				C15.842,11.418,15.731,11.745,15.801,12.123z M17.914,9.119c0.123-0.062,0.65,0.283,0.595-0.341
				c-0.08-0.906-1.448-2.205-2.366-2.307c-0.196-0.022-0.293,0.022-0.338,0.226c-0.14,0.631,0.035,1.108,0.545,1.496
				c0.168,0.128,0.356,0.272,0.442,0.453C17,9.086,17.316,9.248,17.914,9.119z M14.803,12.115c0.124-0.408-0.069-0.742-0.55-0.952
				c-0.169-0.074-0.39-0.22-0.429-0.373c-0.211-0.839-0.861-0.616-1.415-0.628c-0.295-0.006-0.35,0.17-0.303,0.424
				c0.171,0.922,1.436,2.152,2.36,2.31c0.233,0.04,0.339-0.014,0.338-0.252C14.802,12.502,14.803,12.361,14.803,12.115z
				 M12.915,9.163c0.36,0.096,0.703-0.055,0.915-0.519c0.069-0.151,0.215-0.314,0.365-0.372c0.727-0.286,0.617-0.893,0.611-1.471
				c-0.003-0.333-0.155-0.383-0.444-0.29c-0.965,0.309-1.662,0.921-2.088,1.835C11.944,9.052,12.022,9.164,12.915,9.163z
				 M15.333,8.692c-0.472-0.003-0.998,0.529-0.993,1.003c0.005,0.515,0.476,0.955,1.017,0.95c0.492-0.004,0.933-0.466,0.929-0.973
				C16.282,9.204,15.786,8.694,15.333,8.692z"/>
		</g>
	</g>
</g>
</svg>
