<?xml version="1.0" encoding="utf-8"?>
<!-- Generator: Adobe Illustrator 16.0.0, SVG Export Plug-In . SVG Version: 6.00 Build 0)  -->
<!DOCTYPE svg PUBLIC "-//W3C//DTD SVG 1.1//EN" "http://www.w3.org/Graphics/SVG/1.1/DTD/svg11.dtd">
<svg version="1.1" id="Layer_1" xmlns="http://www.w3.org/2000/svg" xmlns:xlink="http://www.w3.org/1999/xlink" x="0px" y="0px"
	 width="31.657px" height="34.177px" viewBox="0 0 31.657 34.177" enable-background="new 0 0 31.657 34.177" xml:space="preserve">
<g>
	<path fill="#F4C42E" d="M15.295,29.238c0,0-5.073,3.471-10.013-0.067C5.282,29.171,9.687,24.632,15.295,29.238"/>
	<path fill="#F4C42E" d="M1.143,14.685c0,0,9.546,0.135,14.152,14.02C15.295,28.704,4.079,24.765,1.143,14.685"/>
	<path fill="#F4C42E" d="M15.963,28.904c0,0,8.678-15.755,0-26.836C15.963,2.068,6.684,12.482,15.963,28.904"/>
	<path fill="#F4C42E" d="M16.163,28.637l14.019-13.752C30.182,14.885,21.236,16.021,16.163,28.637"/>
	<path d="M31.449,13.435c-0.238-0.238-0.612-0.276-0.895-0.091l-1.948,1.28L28.6,14.617c-0.239-0.239-0.611-0.277-0.895-0.093
		l-1.947,1.28l-0.008-0.006c-0.133-0.134-0.315-0.209-0.503-0.209c-0.189,0-0.369,0.075-0.503,0.209l-1.521,1.519
		c-0.139-0.098-0.31-0.143-0.481-0.125c-0.213,0.021-0.405,0.139-0.522,0.317l-1.149,1.748c-0.129-0.052-0.271-0.068-0.409-0.04
		c-0.207,0.041-0.382,0.17-0.483,0.35c-0.008-0.128-0.049-0.254-0.124-0.362c-0.092-0.136-0.227-0.232-0.379-0.279l1.342-2.789
		c0.107-0.221,0.092-0.479-0.038-0.688c-0.131-0.207-0.357-0.333-0.603-0.333h-0.005l0.696-2.9c0.052-0.212,0.003-0.436-0.133-0.608
		c-0.135-0.171-0.341-0.271-0.559-0.271h-0.197V8.27c0-0.394-0.319-0.712-0.713-0.712h-0.348L18.34,4.324
		c-0.077-0.32-0.363-0.545-0.692-0.545H17.3l-0.778-3.234C16.445,0.225,16.158,0,15.829,0s-0.615,0.225-0.692,0.545l-0.778,3.234
		H14.01c-0.328,0-0.615,0.225-0.692,0.545L12.54,7.558h-0.35c-0.393,0-0.711,0.318-0.711,0.712v3.067h-0.196
		c-0.22,0-0.426,0.1-0.561,0.271c-0.135,0.173-0.184,0.396-0.133,0.608l0.698,2.9h-0.005c-0.245,0-0.475,0.126-0.604,0.333
		c-0.13,0.208-0.145,0.467-0.04,0.688l1.344,2.789c-0.152,0.047-0.286,0.144-0.379,0.278c-0.075,0.109-0.118,0.235-0.124,0.363
		c-0.101-0.18-0.276-0.309-0.482-0.35c-0.141-0.028-0.283-0.012-0.41,0.04l-1.149-1.749c-0.118-0.178-0.31-0.295-0.522-0.316
		c-0.172-0.018-0.343,0.027-0.482,0.125l-1.519-1.52C6.781,15.665,6.6,15.59,6.411,15.59c-0.189,0-0.369,0.075-0.503,0.208
		L5.9,15.805l-1.947-1.28c-0.282-0.185-0.655-0.146-0.895,0.093l-0.008,0.007l-1.947-1.28c-0.281-0.186-0.655-0.147-0.895,0.091
		c-0.239,0.239-0.277,0.612-0.092,0.895l1.28,1.949l-0.007,0.007c-0.239,0.237-0.277,0.611-0.092,0.894l1.281,1.947l-0.007,0.009
		c-0.279,0.277-0.279,0.729,0,1.005l1.519,1.521c-0.098,0.138-0.143,0.31-0.126,0.481c0.022,0.212,0.139,0.404,0.317,0.521
		l1.749,1.148c-0.054,0.129-0.067,0.272-0.04,0.411c0.047,0.234,0.206,0.428,0.425,0.52l2.003,0.83
		c-0.013,0.073-0.013,0.148,0,0.224c0.036,0.226,0.178,0.421,0.383,0.524l0.073,0.034c-0.102,0.023-0.198,0.067-0.283,0.133
		c-0.089,0.067-0.158,0.153-0.206,0.252H7.516c-0.342,0-0.627,0.239-0.697,0.561L5.82,27.565c-0.262,0.069-0.457,0.28-0.513,0.536
		l-0.999,0.266c-0.311,0.083-0.529,0.364-0.529,0.688c0,0.322,0.219,0.605,0.529,0.688l0.999,0.264
		c0.056,0.257,0.251,0.467,0.513,0.537l0.998,0.264c0.07,0.32,0.355,0.561,0.697,0.561h0.871c0.048,0.098,0.117,0.186,0.206,0.254
		c0.125,0.097,0.279,0.147,0.434,0.147c0.061,0,0.122-0.008,0.184-0.023l0.8-0.212c0.045,0.051,0.101,0.097,0.161,0.133
		c0.215,0.129,0.479,0.137,0.701,0.02l0.802-0.425c0.196,0.122,0.439,0.143,0.654,0.05l2.789-1.183v3.336
		c0,0.392,0.318,0.711,0.713,0.711c0.393,0,0.712-0.319,0.712-0.711V30.13l2.789,1.183c0.213,0.093,0.457,0.071,0.653-0.05
		l0.803,0.425c0.22,0.117,0.485,0.109,0.699-0.02c0.062-0.036,0.115-0.082,0.162-0.134l0.801,0.213
		c0.061,0.016,0.121,0.023,0.183,0.023c0.155,0,0.308-0.051,0.434-0.147c0.089-0.068,0.158-0.156,0.206-0.254h0.871
		c0.341,0,0.627-0.24,0.696-0.561l0.998-0.264c0.263-0.07,0.458-0.28,0.514-0.537l0.998-0.264c0.313-0.083,0.53-0.366,0.53-0.688
		c0-0.324-0.218-0.605-0.53-0.688l-0.998-0.266c-0.056-0.256-0.251-0.467-0.514-0.536l-0.998-0.265
		c-0.069-0.321-0.355-0.561-0.696-0.561h-0.871c-0.048-0.099-0.117-0.185-0.206-0.252c-0.085-0.065-0.182-0.109-0.282-0.133
		l0.071-0.034c0.205-0.104,0.348-0.299,0.384-0.524c0.012-0.075,0.012-0.15,0-0.224l2.002-0.83c0.221-0.092,0.38-0.285,0.427-0.52
		c0.026-0.139,0.013-0.282-0.041-0.411l1.749-1.148c0.179-0.117,0.296-0.31,0.317-0.521c0.017-0.172-0.027-0.344-0.126-0.481
		l1.52-1.521c0.277-0.276,0.277-0.728,0-1.006l-0.007-0.008l1.28-1.947c0.185-0.282,0.147-0.656-0.092-0.894l-0.007-0.007
		l1.281-1.949C31.726,14.047,31.688,13.674,31.449,13.435 M12.19,12.761c0.395,0,0.714-0.319,0.714-0.712V8.981h0.196
		c0.329,0,0.615-0.225,0.692-0.545l0.777-3.233h0.35c0.328,0,0.615-0.227,0.691-0.546l0.218-0.902l0.217,0.902
		c0.078,0.319,0.363,0.546,0.692,0.546h0.349l0.778,3.233c0.076,0.32,0.362,0.545,0.691,0.545h0.198v3.067
		c0,0.393,0.318,0.712,0.711,0.712h0.007l-0.698,2.9c-0.051,0.213-0.002,0.436,0.133,0.607c0.091,0.115,0.214,0.198,0.351,0.24
		l-1.343,2.789c-0.105,0.22-0.09,0.481,0.039,0.688c0.107,0.173,0.284,0.288,0.479,0.323l-2.604,6.766l-2.604-6.766
		c0.196-0.035,0.371-0.15,0.479-0.323c0.13-0.206,0.145-0.468,0.038-0.688l-1.343-2.789c0.139-0.042,0.262-0.125,0.352-0.24
		c0.135-0.172,0.184-0.395,0.133-0.607l-0.698-2.9H12.19z M7.811,23.779c0.01-0.06,0.012-0.122,0.005-0.183
		c-0.021-0.214-0.139-0.406-0.317-0.523L5.75,21.925c0.035-0.086,0.054-0.179,0.054-0.273c0-0.187-0.075-0.368-0.209-0.502
		l-1.519-1.52c0.165-0.236,0.175-0.554,0.012-0.8l-1.281-1.949l0.008-0.006c0.171-0.171,0.238-0.412,0.196-0.638
		c0.226,0.043,0.466-0.025,0.638-0.196l0.006-0.007l1.949,1.279c0.247,0.163,0.565,0.153,0.801-0.012l1.519,1.521
		c0.21,0.208,0.518,0.26,0.775,0.153l1.149,1.748c0.117,0.181,0.309,0.296,0.522,0.317c0.062,0.007,0.123,0.004,0.183-0.004
		l0.83,2.002c0.092,0.22,0.286,0.378,0.519,0.425c0.107,0.021,0.215,0.018,0.316-0.009l2.009,3.998l-3.998-2.011
		c0.027-0.1,0.03-0.209,0.01-0.314c-0.047-0.233-0.206-0.428-0.427-0.52L7.811,23.779z M12.491,29.698
		c-0.023-0.019-0.049-0.035-0.073-0.052c-0.215-0.128-0.481-0.136-0.701-0.02l-0.802,0.426c-0.166-0.102-0.368-0.134-0.56-0.083
		l-0.8,0.212c-0.13-0.146-0.319-0.234-0.529-0.234h-0.87c-0.09-0.184-0.254-0.324-0.458-0.378l-0.999-0.266
		c-0.02-0.09-0.057-0.174-0.107-0.248c0.051-0.075,0.088-0.16,0.107-0.251l0.999-0.263c0.203-0.055,0.368-0.195,0.458-0.377h0.87
		c0.21,0,0.398-0.092,0.529-0.236l0.8,0.212c0.19,0.05,0.394,0.021,0.56-0.084l0.802,0.425c0.221,0.117,0.486,0.111,0.701-0.019
		c0.024-0.015,0.05-0.032,0.073-0.05l1.514,0.643L12.491,29.698z M23.503,28.165c0.088,0.182,0.252,0.322,0.458,0.377l0.998,0.263
		c0.02,0.091,0.056,0.176,0.106,0.251c-0.051,0.074-0.087,0.158-0.106,0.248l-0.998,0.266c-0.206,0.054-0.37,0.194-0.458,0.378
		h-0.871c-0.211,0-0.4,0.089-0.53,0.234l-0.8-0.212c-0.06-0.016-0.121-0.022-0.183-0.022c-0.131,0-0.262,0.034-0.375,0.105
		l-0.803-0.426c-0.221-0.116-0.486-0.108-0.7,0.02c-0.025,0.017-0.051,0.033-0.073,0.052l-1.517-0.643l1.517-0.643
		c0.022,0.018,0.048,0.035,0.073,0.05c0.214,0.13,0.479,0.136,0.7,0.019l0.803-0.425c0.166,0.104,0.367,0.134,0.558,0.084l0.8-0.212
		c0.13,0.145,0.319,0.236,0.53,0.236H23.503z M27.583,19.63l-1.521,1.52c-0.209,0.208-0.26,0.518-0.154,0.775l-1.748,1.148
		c-0.18,0.117-0.295,0.31-0.317,0.523c-0.007,0.061-0.004,0.123,0.005,0.183l-2.002,0.829c-0.22,0.092-0.379,0.286-0.425,0.52
		c-0.022,0.105-0.019,0.215,0.008,0.314l-3.998,2.011l2.01-3.997c0.102,0.025,0.209,0.028,0.315,0.008
		c0.232-0.047,0.428-0.205,0.519-0.425l0.83-2.002c0.061,0.009,0.122,0.011,0.184,0.004c0.213-0.021,0.404-0.137,0.522-0.317
		l1.149-1.748c0.258,0.107,0.565,0.055,0.774-0.153l1.521-1.521c0.235,0.165,0.553,0.175,0.8,0.012l1.948-1.279l0.007,0.007
		c0.171,0.171,0.412,0.239,0.638,0.196c-0.044,0.226,0.025,0.467,0.196,0.638l0.006,0.006L27.57,18.83
		C27.408,19.076,27.417,19.394,27.583,19.63"/>
</g>
</svg>
