<?xml version="1.0" encoding="utf-8"?>
<!-- Generator: Adobe Illustrator 16.0.0, SVG Export Plug-In . SVG Version: 6.00 Build 0)  -->
<!DOCTYPE svg PUBLIC "-//W3C//DTD SVG 1.1//EN" "http://www.w3.org/Graphics/SVG/1.1/DTD/svg11.dtd">
<svg version="1.1" id="Layer_1" xmlns="http://www.w3.org/2000/svg" xmlns:xlink="http://www.w3.org/1999/xlink" x="0px" y="0px"
	 width="52.428px" height="65.815px" viewBox="0 0 52.428 65.815" enable-background="new 0 0 52.428 65.815" xml:space="preserve">
<g>
	<defs>
		<rect id="SVGID_1_" width="52.428" height="65.815"/>
	</defs>
	<clipPath id="SVGID_2_">
		<use xlink:href="#SVGID_1_"  overflow="visible"/>
	</clipPath>
	<path clip-path="url(#SVGID_2_)" fill="#C24462" d="M51.637,29.798L50.833,28.7c-0.884-1.207-0.898-2.841-0.027-4.062l0.791-1.113
		c1.206-1.701,0.644-4.086-1.192-5.078l-1.206-0.644c-1.313-0.71-2.037-2.171-1.783-3.645l0.228-1.354
		c0.35-2.063-1.192-3.967-3.282-4.047l-1.367-0.054c-1.488-0.067-2.774-1.072-3.19-2.505l-0.375-1.314
		c-0.576-2.01-2.787-3.056-4.717-2.225l-1.26,0.536c-1.367,0.59-2.962,0.241-3.968-0.871l-0.91-1.019
		c-1.395-1.555-3.848-1.542-5.213,0.04l-0.898,1.032c-0.979,1.126-2.573,1.501-3.953,0.938l-1.26-0.521
		c-1.93-0.805-4.128,0.281-4.678,2.291L12.21,6.4c-0.389,1.433-1.662,2.465-3.15,2.559l-1.367,0.08
		C5.603,9.16,4.088,11.09,4.477,13.14l0.241,1.34c0.269,1.476-0.429,2.949-1.728,3.674l-1.193,0.67
		c-1.837,1.018-2.359,3.403-1.126,5.092l0.804,1.099c0.884,1.206,0.898,2.841,0.027,4.062l-0.791,1.111
		c-1.206,1.702-0.644,4.087,1.193,5.08L3.11,35.91c1.313,0.71,2.036,2.171,1.781,3.645l-0.227,1.354
		c-0.35,2.063,1.193,3.966,3.283,4.047l1.366,0.053c1.488,0.067,2.774,1.072,3.19,2.507l0.375,1.313
		c0.576,2.01,2.787,3.055,4.717,2.224l1.26-0.536c1.367-0.589,2.961-0.241,3.967,0.871l0.912,1.02
		c1.394,1.554,3.847,1.541,5.213-0.041l0.897-1.031c0.979-1.126,2.573-1.501,3.953-0.938l1.26,0.522
		c1.931,0.804,4.128-0.281,4.678-2.292l0.361-1.313c0.39-1.435,1.662-2.467,3.15-2.56l1.367-0.081c2.091-0.121,3.604-2.05,3.216-4.1
		l-0.241-1.342c-0.268-1.474,0.429-2.947,1.728-3.672l1.193-0.67C52.347,33.886,52.87,31.487,51.637,29.798 M26.134,44.271
		c-9.609,0-17.422-7.813-17.422-17.422c0-9.608,7.813-17.422,17.422-17.422s17.422,7.813,17.422,17.422
		C43.556,36.459,35.743,44.271,26.134,44.271"/>
</g>
<g>
	<defs>
		<rect id="SVGID_3_" x="-612.058" y="-2583.654" width="720" height="3930.695"/>
	</defs>
	<clipPath id="SVGID_4_">
		<use xlink:href="#SVGID_3_"  overflow="visible"/>
	</clipPath>
	<path clip-path="url(#SVGID_4_)" fill="#C24462" d="M44.333,48.548l-0.603,0.04l-0.296,1.071c-0.871,3.177-3.778,5.388-7.063,5.388
		c-0.965,0-1.902-0.188-2.787-0.549l-1.019-0.43l-0.321,0.375l4.973,9.047c0.294,0.522,0.804,0.897,1.393,1.006l5.991,1.111
		c0.938,0.174,1.876-0.335,2.237-1.232l2.266-5.655c0.228-0.563,0.187-1.193-0.107-1.716L44.333,48.548z"/>
	<path clip-path="url(#SVGID_4_)" fill="#C24462" d="M19.098,54.591c-0.925,0.402-1.89,0.604-2.895,0.604
		c-3.243,0-6.138-2.171-7.036-5.28l-0.308-1.058l-1.072-0.041l-4.503,8.202c-0.295,0.522-0.335,1.151-0.107,1.715l2.266,5.656
		c0.361,0.896,1.299,1.405,2.237,1.232l5.99-1.113c0.59-0.106,1.099-0.481,1.394-1.005l5.106-9.287l-0.04-0.04L19.098,54.591z"/>
	<path clip-path="url(#SVGID_4_)" fill="#C24462" d="M36.171,25.871c0,0,1.005-1.567-0.294-2.761
		c-1.622-1.486-6.03-0.495-6.03-0.495c-0.309,0.054-0.631,0.12-0.979,0.201c0,0-1.527,0.71,0-3.914
		c1.528-4.623-1.018-5.347-2.09-5.347c-1.073,0-0.711,2.292-0.711,2.292s-2.291,6.313-4.477,7.987
		c-0.575,0.616-0.896,1.3-1.058,1.782c-0.349-0.295-0.791-0.47-1.273-0.47h-2.936c-1.085,0-1.956,0.885-1.956,1.957v7.827
		c0,1.085,0.884,1.956,1.956,1.956h2.936c0.401,0,0.777-0.12,1.086-0.335c0.066-0.066,0.455-0.455,0.455-1.541v-4.865
		c0,0.188,0.027,6.031,3.391,6.394c1.206,0.079,2.693,0.146,4.181,0.12c1.354,0.107,2.801,0.12,3.941-0.12
		c3.886-0.831,2.921-3.538,2.921-3.538c2.104-1.582,0.911-3.551,0.911-3.551C37.994,27.507,36.171,25.871,36.171,25.871"/>
</g>
</svg>
