<?xml version="1.0" encoding="utf-8"?>
<!-- Generator: Adobe Illustrator 16.0.0, SVG Export Plug-In . SVG Version: 6.00 Build 0)  -->
<!DOCTYPE svg PUBLIC "-//W3C//DTD SVG 1.1//EN" "http://www.w3.org/Graphics/SVG/1.1/DTD/svg11.dtd">
<svg version="1.1" id="Layer_1" xmlns="http://www.w3.org/2000/svg" xmlns:xlink="http://www.w3.org/1999/xlink" x="0px" y="0px"
	 width="87.072px" height="73.472px" viewBox="0 0 87.072 73.472" enable-background="new 0 0 87.072 73.472" xml:space="preserve">
<g>
	<defs>
		<rect id="SVGID_1_" y="-6.379" width="93.154" height="86.056"/>
	</defs>
	<clipPath id="SVGID_2_">
		<use xlink:href="#SVGID_1_"  overflow="visible"/>
	</clipPath>
	<path clip-path="url(#SVGID_2_)" fill="#942B88" d="M87.072,36.805c0,20.243-17.1,36.806-38,36.806H-4.079
		c-20.9,0-38-16.563-38-36.806c0-20.243,17.1-36.805,38-36.805h53.151C69.973,0,87.072,16.563,87.072,36.805"/>
</g>
<path fill="#FFFFFF" d="M57.017,33.523l-9.525,20.255c-0.55,1.15-1.753,1.857-3.009,1.857c-1.257,0-2.461-0.707-2.984-1.857
	l-9.551-20.255c-0.681-1.439-0.863-3.088-0.863-4.684c0-7.406,5.992-13.398,13.398-13.398c7.405,0,13.398,5.993,13.398,13.398
	C57.881,30.436,57.697,32.084,57.017,33.523z M44.482,22.14c-3.69,0-6.699,3.009-6.699,6.699s3.009,6.699,6.699,6.699
	c3.689,0,6.699-3.009,6.699-6.699S48.172,22.14,44.482,22.14z"/>
</svg>
