<?xml version="1.0" encoding="utf-8"?>
<!-- Generator: Adobe Illustrator 16.0.0, SVG Export Plug-In . SVG Version: 6.00 Build 0)  -->
<!DOCTYPE svg PUBLIC "-//W3C//DTD SVG 1.1//EN" "http://www.w3.org/Graphics/SVG/1.1/DTD/svg11.dtd">
<svg version="1.1" id="Layer_1" xmlns="http://www.w3.org/2000/svg" xmlns:xlink="http://www.w3.org/1999/xlink" x="0px" y="0px"
	 width="66px" height="66.011px" viewBox="0 0 66 66.011" enable-background="new 0 0 66 66.011" xml:space="preserve">
<g>
	<path fill="#6D2672" d="M55.935,0c-1.457,0-2.75,0.663-3.902,1.848c-5.26,4.446-17.891,14.163-30.673,14.163
		c-0.978-0.869-2.261-1.413-3.663-1.413H5.5c-3.032,0-5.5,2.467-5.5,5.511V34.62c0,2.814,2.131,5.141,4.859,5.456l3.446,24.358
		c0.13,0.914,0.891,1.576,1.815,1.576h9.511h0.011c1.01,0,1.836-0.814,1.836-1.836c0-0.186-0.021-0.349-0.076-0.512l-3.337-23.564
		c1.457-0.109,2.75-0.772,3.685-1.793C35.044,38.5,47.478,48.663,52.196,53.011h0.01c1.109,1.076,2.338,1.674,3.729,1.674
		C62.544,54.685,66,40.925,66,27.337C66,13.75,62.544,0,55.935,0 M49.544,27.348c0-1.859,0.064-3.62,0.184-5.304
		c2.348,0.598,4.109,2.739,4.109,5.304s-1.75,4.707-4.109,5.304C49.608,30.978,49.544,29.196,49.544,27.348 M11.718,62.337
		L8.565,40.099h5.805l3.141,22.228h-5.793V62.337z M17.696,36.435H5.5c-1.011,0-1.837-0.814-1.837-1.836V32.87h3.576
		c1.011,0,1.837-0.815,1.837-1.837c0-1.011-0.815-1.837-1.837-1.837H3.663V25.5h9.087c1.011,0,1.837-0.815,1.837-1.837
		c0-1.011-0.815-1.837-1.837-1.837H3.663v-1.739c0-1.011,0.815-1.837,1.837-1.837h12.196c1.011,0,1.837,0.815,1.837,1.837v14.512
		C19.544,35.609,18.707,36.435,17.696,36.435 M23.207,19.62c9.728-0.587,18.75-5.642,24.935-10.109
		c-1.5,5.011-2.261,11.446-2.261,17.837c0,6.261,0.739,12.554,2.174,17.522c-6.239-4.533-15.207-9.576-24.859-10.174
		C23.196,34.663,23.207,19.62,23.207,19.62 M55.935,51.022c-1.957,0-4.707-5.609-5.848-14.707c4.207-0.793,7.424-4.521,7.424-8.979
		c0-4.456-3.195-8.185-7.424-8.978c1.152-9.098,3.881-14.707,5.848-14.707c2.543,0,6.391,9.446,6.391,23.685
		C62.325,41.576,58.478,51.022,55.935,51.022"/>
	<path fill="#AD7BAD" d="M17.696,18.25H5.5c-1.011,0-1.837,0.815-1.837,1.837v1.739h9.087c1.011,0,1.837,0.815,1.837,1.837
		c0,1.011-0.815,1.837-1.837,1.837H3.663v3.696h3.576c1.011,0,1.837,0.815,1.837,1.837c0,1.011-0.804,1.847-1.815,1.847H3.674v1.74
		c0,1.01,0.815,1.837,1.837,1.837h12.196c1.011,0,1.837-0.815,1.837-1.837V20.099C19.543,19.087,18.707,18.25,17.696,18.25"/>
	<path fill="#FFFFFF" d="M48.142,9.511c-6.186,4.478-15.207,9.532-24.935,10.109v15.087c9.652,0.608,18.62,5.642,24.859,10.175
		c-1.446-4.979-2.174-11.262-2.174-17.522C45.88,20.957,46.642,14.522,48.142,9.511"/>
	<polygon fill="#93298D" points="8.565,40.099 11.717,62.337 17.522,62.337 14.38,40.099 	"/>
	<path fill="#93298D" d="M55.935,3.663c-1.957,0-4.707,5.609-5.848,14.707c4.207,0.793,7.424,4.521,7.424,8.979
		c0,4.456-3.195,8.185-7.424,8.978c1.152,9.099,3.881,14.707,5.848,14.707c2.543,0,6.391-9.446,6.391-23.685
		C62.325,13.109,58.478,3.663,55.935,3.663"/>
	<path fill="#AD7BAD" d="M53.837,27.348c0-2.554-1.75-4.707-4.109-5.304c-0.119,1.674-0.184,3.456-0.184,5.304
		s0.064,3.62,0.184,5.304C52.087,32.055,53.837,29.913,53.837,27.348"/>
</g>
</svg>
