<?xml version="1.0" encoding="utf-8"?>
<!-- Generator: Adobe Illustrator 16.0.0, SVG Export Plug-In . SVG Version: 6.00 Build 0)  -->
<!DOCTYPE svg PUBLIC "-//W3C//DTD SVG 1.1//EN" "http://www.w3.org/Graphics/SVG/1.1/DTD/svg11.dtd">
<svg version="1.1" id="Layer_1" xmlns="http://www.w3.org/2000/svg" xmlns:xlink="http://www.w3.org/1999/xlink" x="0px" y="0px"
	 width="55.526px" height="71.849px" viewBox="0 0 55.526 71.849" enable-background="new 0 0 55.526 71.849" xml:space="preserve">
<g>
	<rect fill="#343F49" width="55.526" height="71.849"/>
	<rect x="4.552" y="4.552" fill="#FFFFFF" width="46.423" height="62.746"/>
	<rect x="4.552" y="4.552" fill="#8DD5EF" width="46.423" height="19.972"/>
	<path fill="#02793F" d="M27.115,15.906c-2.859-2.86-2.589-7.767-2.589-7.767s4.907-0.271,7.768,2.589
		c2.859,2.859,2.588,7.767,2.588,7.767S29.974,18.765,27.115,15.906"/>
	<path fill="#E9513D" d="M42.901,15.549c0,3.241-2.629,5.869-5.869,5.869c-3.241,0-5.869-2.628-5.869-5.869s2.628-5.868,5.869-5.868
		C40.272,9.681,42.901,12.308,42.901,15.549"/>
	<path fill="#02793F" d="M45.489,18.139c2.859-2.861,2.59-7.767,2.59-7.767s-4.908-0.271-7.767,2.588
		c-2.86,2.86-2.589,7.767-2.589,7.767S42.63,20.999,45.489,18.139"/>
	<path fill="#FFFFFF" d="M20.814,14.538c0,3.27-2.652,5.922-5.922,5.922c-3.271,0-5.922-2.652-5.922-5.922
		c0-3.271,2.651-5.922,5.922-5.922C18.163,8.616,20.814,11.267,20.814,14.538"/>
	<rect x="8.97" y="35.077" fill="#343F49" width="21.146" height="3.187"/>
	<rect x="8.97" y="42.244" fill="#5D6771" width="29.416" height="2.277"/>
	<rect x="8.97" y="46.859" fill="#5D6771" width="29.416" height="2.274"/>
	<rect x="8.97" y="51.474" fill="#5D6771" width="29.416" height="2.274"/>
	<rect x="8.97" y="56.088" fill="#5D6771" width="29.416" height="2.275"/>
	<rect x="41.653" y="42.244" fill="#343F49" width="4.902" height="2.277"/>
	<rect x="41.653" y="46.859" fill="#343F49" width="4.902" height="2.274"/>
	<rect x="41.653" y="51.474" fill="#343F49" width="4.902" height="2.274"/>
	<rect x="41.653" y="56.088" fill="#343F49" width="4.902" height="2.275"/>
</g>
</svg>
