<?xml version="1.0" encoding="utf-8"?>
<!-- Generator: Adobe Illustrator 16.0.0, SVG Export Plug-In . SVG Version: 6.00 Build 0)  -->
<!DOCTYPE svg PUBLIC "-//W3C//DTD SVG 1.1//EN" "http://www.w3.org/Graphics/SVG/1.1/DTD/svg11.dtd">
<svg version="1.1" id="Layer_1" xmlns="http://www.w3.org/2000/svg" xmlns:xlink="http://www.w3.org/1999/xlink" x="0px" y="0px"
	 width="57.741px" height="57.742px" viewBox="0 0 57.741 57.742" enable-background="new 0 0 57.741 57.742" xml:space="preserve">
<g>
	<g>
		<path fill="#45C6E6" d="M57.241,47.242c0,5.5-4.5,10-10,10H10.5c-5.5,0-10-4.5-10-10V10.5c0-5.5,4.5-10,10-10h36.741
			c5.5,0,10,4.5,10,10V47.242z"/>
	</g>
	<path fill="none" stroke="#178BB5" stroke-miterlimit="10" d="M57.241,47.242c0,5.5-4.5,10-10,10H10.5c-5.5,0-10-4.5-10-10V10.5
		c0-5.5,4.5-10,10-10h36.741c5.5,0,10,4.5,10,10V47.242z"/>
	<text transform="matrix(1 0 0 1 17.9014 42.3931)" fill="#010101" font-family="'Lato-Bold'" font-size="39.2514">#</text>
</g>
</svg>
