<?xml version="1.0" encoding="utf-8"?>
<!-- Generator: Adobe Illustrator 16.0.0, SVG Export Plug-In . SVG Version: 6.00 Build 0)  -->
<!DOCTYPE svg PUBLIC "-//W3C//DTD SVG 1.1//EN" "http://www.w3.org/Graphics/SVG/1.1/DTD/svg11.dtd">
<svg version="1.1" id="Layer_1" xmlns="http://www.w3.org/2000/svg" xmlns:xlink="http://www.w3.org/1999/xlink" x="0px" y="0px"
	 width="66px" height="73.343px" viewBox="0 0 66 73.343" enable-background="new 0 0 66 73.343" xml:space="preserve">
<g>
	<path fill="#7C7A7A" d="M52.603,29.241c-0.355,0-0.705-0.164-0.931-0.473L33,3.094L14.329,28.768
		c-0.373,0.513-1.091,0.626-1.604,0.253c-0.513-0.373-0.627-1.091-0.254-1.604L32.072,0.465c0.451-0.62,1.407-0.62,1.858,0
		l19.601,26.952c0.373,0.513,0.26,1.231-0.254,1.604C53.074,29.169,52.836,29.241,52.603,29.241"/>
	<path fill="#E9E9E9" d="M0,38.352v31.545c0,1.9,1.546,3.446,3.445,3.446h59.111c1.898,0,3.444-1.546,3.444-3.446V38.352H0z"/>
	<path fill="#78CED8" d="M62.555,26.943H3.446C1.543,26.943,0,28.486,0,30.39v11.102h66V30.39
		C66,28.486,64.458,26.943,62.555,26.943"/>
	<path fill="#D3D2D2" d="M4.824,69.896V38.352H0v31.545c0,1.9,1.546,3.446,3.446,3.446h4.823C6.37,73.343,4.824,71.797,4.824,69.896
		"/>
	<path fill="#50C5D5" d="M8.27,26.943H3.446C1.543,26.943,0,28.486,0,30.39v11.102h4.824V30.39
		C4.825,28.486,6.367,26.943,8.27,26.943"/>
	<path fill="#FFD791" d="M13.399,30.619c-1.984,0-3.599,1.614-3.599,3.599c0,1.984,1.615,3.598,3.599,3.598s3.599-1.614,3.599-3.598
		C16.999,32.232,15.383,30.619,13.399,30.619"/>
	<path fill="#FFD791" d="M52.601,30.619c-1.983,0-3.599,1.614-3.599,3.599c0,1.984,1.615,3.598,3.599,3.598
		c1.984,0,3.6-1.614,3.6-3.598C56.201,32.232,54.585,30.619,52.601,30.619"/>
	<path fill="#50C5D5" d="M45.251,35.366H20.75c-0.634,0-1.149-0.514-1.149-1.148c0-0.635,0.515-1.149,1.149-1.149h24.501
		c0.634,0,1.147,0.514,1.147,1.149C46.399,34.852,45.885,35.366,45.251,35.366"/>
	<path fill="#96CA63" d="M19.984,52.517h2.603c0.635,0,1.149-0.514,1.149-1.147c0-0.636-0.514-1.149-1.149-1.149h-2.603
		c-1.9,0-3.445,1.546-3.445,3.445v0.307c0,1.899,1.545,3.445,3.445,3.445h0.306c0.634,0,1.149,0.515,1.149,1.148v0.307
		c0,0.633-0.515,1.147-1.149,1.147h-2.603c-0.634,0-1.148,0.516-1.148,1.149s0.514,1.148,1.148,1.148h2.603
		c1.9,0,3.446-1.546,3.446-3.445v-0.307c0-1.899-1.546-3.446-3.446-3.446h-0.306c-0.633,0-1.148-0.515-1.148-1.147v-0.307
		C18.836,53.031,19.351,52.517,19.984,52.517"/>
	<path fill="#96CA63" d="M28.866,50.22h-0.307c-1.899,0-3.445,1.546-3.445,3.445v7.504c0,0.634,0.514,1.147,1.149,1.147
		c0.634,0,1.148-0.514,1.148-1.147v-3.752h2.603v3.752c0,0.634,0.514,1.147,1.149,1.147c0.634,0,1.148-0.514,1.148-1.147v-7.504
		C32.311,51.766,30.766,50.22,28.866,50.22 M27.411,55.12v-1.455c0-0.633,0.515-1.147,1.148-1.147h0.307
		c0.633,0,1.148,0.515,1.148,1.147v1.455H27.411z"/>
	<path fill="#96CA63" d="M39.738,60.02h-3.752v-8.651c0-0.634-0.514-1.149-1.147-1.149c-0.635,0-1.149,0.516-1.149,1.149v9.8
		c0,0.635,0.514,1.149,1.149,1.149h4.899c0.635,0,1.148-0.515,1.148-1.149C40.886,60.534,40.373,60.02,39.738,60.02"/>
	<path fill="#96CA63" d="M48.314,60.02h-3.752v-2.603h1.302c0.634,0,1.147-0.514,1.147-1.149c0-0.634-0.514-1.147-1.147-1.147
		h-1.302v-2.603h3.752c0.634,0,1.148-0.516,1.148-1.149s-0.515-1.149-1.148-1.149h-4.9c-0.635,0-1.148,0.516-1.148,1.149v9.8
		c0,0.635,0.514,1.149,1.148,1.149h4.9c0.634,0,1.148-0.515,1.148-1.149C49.462,60.534,48.948,60.02,48.314,60.02"/>
</g>
</svg>
