<?xml version="1.0" encoding="utf-8"?>
<!-- Generator: Adobe Illustrator 16.0.0, SVG Export Plug-In . SVG Version: 6.00 Build 0)  -->
<!DOCTYPE svg PUBLIC "-//W3C//DTD SVG 1.1//EN" "http://www.w3.org/Graphics/SVG/1.1/DTD/svg11.dtd">
<svg version="1.1" id="Layer_1" xmlns="http://www.w3.org/2000/svg" xmlns:xlink="http://www.w3.org/1999/xlink" x="0px" y="0px"
	 width="54.051px" height="54.051px" viewBox="0 0 54.051 54.051" enable-background="new 0 0 54.051 54.051" xml:space="preserve">
<g>
	<path fill="#45C6E6" d="M54.051,27.026c0,14.926-12.101,27.024-27.026,27.024C12.1,54.051,0,41.952,0,27.026S12.1,0,27.025,0
		C41.95,0,54.051,12.101,54.051,27.026"/>
	<path fill="#010101" d="M48.851,27.026c0,12.054-9.771,21.825-21.825,21.825S5.2,39.08,5.2,27.026
		c0-12.054,9.772-21.825,21.826-21.825S48.851,14.972,48.851,27.026"/>
	<path fill="#45C6E6" d="M40.38,21.542l-8.332-0.788c-0.525-0.048-0.978-0.381-1.193-0.884l-2.984-7.232
		c-0.477-1.193-2.172-1.193-2.649,0L22.26,19.87c-0.19,0.503-0.668,0.836-1.194,0.884l-8.331,0.788
		c-1.241,0.119-1.742,1.671-0.811,2.506l6.278,5.515c0.406,0.358,0.573,0.883,0.454,1.409l-1.886,7.733
		c-0.287,1.218,1.027,2.22,2.125,1.576l6.946-4.082c0.454-0.263,1.003-0.263,1.457,0l6.946,4.082
		c1.099,0.644,2.412-0.335,2.125-1.576l-1.862-7.733c-0.119-0.526,0.049-1.051,0.454-1.409l6.278-5.515
		C42.146,23.213,41.621,21.661,40.38,21.542"/>
</g>
</svg>
