<?xml version="1.0" encoding="utf-8"?>
<!-- Generator: Adobe Illustrator 16.0.0, SVG Export Plug-In . SVG Version: 6.00 Build 0)  -->
<!DOCTYPE svg PUBLIC "-//W3C//DTD SVG 1.1//EN" "http://www.w3.org/Graphics/SVG/1.1/DTD/svg11.dtd">
<svg version="1.1" id="Layer_1" xmlns="http://www.w3.org/2000/svg" xmlns:xlink="http://www.w3.org/1999/xlink" x="0px" y="0px"
	 width="124.962px" height="124.962px" viewBox="0 0 124.962 124.962" enable-background="new 0 0 124.962 124.962"
	 xml:space="preserve">
<path fill="#942B88" d="M124.962,62.48c0,34.508-27.974,62.481-62.48,62.481C27.974,124.962,0,96.988,0,62.48S27.974,0,62.482,0
	C96.989,0,124.962,27.973,124.962,62.48"/>
<path fill="#FFFFFF" d="M89.847,63.002c-2.42,0-4.848-0.441-7.231-1.263c-1.655,0.884-3.737,1.398-6.131,1.628
	c-2.42,2.387-1.825,2.919-3.038,2.919h4.188c-0.174,3.976-0.285,7.308-1.006,10.437c-3.129,0.721-7.92,1.363-9.908,1.537v-6.215
	c-1.986-1.528-1.137-4.402-0.205-8.036c0.289-1.169,0.381-1.698,0.981-3.685H66.72V48.739c1.988,0.085,3.135,0.25,4.793,0.47
	c-0.356-1.404-0.782-2.855-0.813-4.36c-0.012-0.66,0.316-1.299,0.372-1.938c-1.515-0.163-4.353-0.289-4.353-0.356v-9.958
	c1.988,1.023,3.555,2.997,5.274,5.742c1.427-3.819,4.009-6.439,7.854-8.319c-5.066-2.513-10.934-3.483-16.958-3.483h-0.015
	c-20.914,0-37.891,16.048-37.891,36.964v0.007c0,20.91,16.98,38.552,37.891,38.552h0.015c20.908,0,37.617-17.647,37.617-38.552
	v-0.007c0-1.253,0.08-2.49-0.037-3.712C97.318,61.825,93.813,63.002,89.847,63.002 M48.853,35.068
	c-1.772,2.835-3.279,6.19-4.427,9.981c-3.791,1.148-7.145,2.654-9.98,4.426C37.538,43.233,42.611,38.161,48.853,35.068
	 M42.763,52.132c-0.438,2.611-0.711,6.204-0.831,8.192h-9.955C33.551,58.336,37.332,54.321,42.763,52.132 M41.932,66.286
	c0.12,3.976,0.393,5.582,0.831,8.193c-5.431-2.189-9.215-4.218-10.786-8.193H41.932z M34.449,77.529
	c2.835,1.771,6.186,3.275,9.979,4.423c1.146,3.789,2.653,7.144,4.424,9.978C42.611,88.84,37.541,83.769,34.449,77.529
	 M60.759,94.397c-3.975-1.575-6.002-5.354-8.19-10.781c2.612,0.435,4.215,0.708,8.19,0.828V94.397z M60.759,78.26
	c-3.975-0.174-7.638-0.816-10.77-1.537c-0.719-3.129-1.696-6.461-1.871-10.437h12.641V78.26z M60.759,60.324H48.118
	c0.175-3.975,1.152-7.112,1.871-10.242c3.132-0.72,6.795-1.167,10.77-1.343V60.324z M60.759,42.554
	c-3.975,0.121-5.578,0.394-8.19,0.83c2.188-5.426,4.215-9.207,8.19-10.782V42.554z M66.72,94.403v-9.959
	c1.988-0.12,5.582-0.394,8.197-0.828C72.729,89.049,68.708,92.832,66.72,94.403 M76.908,91.928c1.768-2.834,3.271-6.188,4.421-9.978
	c3.789-1.147,7.14-2.649,9.976-4.421C88.214,83.768,83.144,88.836,76.908,91.928 M82.991,74.479c0.437-2.611,0.71-4.218,0.83-8.193
	h9.956C92.205,70.262,88.421,72.29,82.991,74.479"/>
<path fill="#FFFFFF" d="M101.835,18.309c-0.359-0.891-1.223-1.475-2.183-1.48c-0.96-0.004-1.828,0.573-2.196,1.459
	c-1.836,4.42-6.15,10.014-16.191,13.889c-8.949,4.158-9.562,15.315-4.319,21.986c-0.192,0.128-2.142,1.253-4.246,3.336
	c-4.647,4.596-5.329,10.263-5.286,13.436c0.004,0.261,0.189,0.485,0.445,0.535s0.516-0.084,0.617-0.325
	c0.855-2.002,2.357-5.021,4.549-7.676l0.003-0.005c1.142-1.428,3.321-3.806,5.817-5.913c1.839-1.788,12.465-8.197,17.484-19.195
	c0.061-0.134,0.211-0.201,0.352-0.157c0.14,0.041,0.226,0.182,0.201,0.326c-2.586,15.422-10.758,20.589-11.105,20.911
	c1.37,0.307,2.732,0.473,4.07,0.473c7.816,0,14.765-5.163,17.248-14.361C109.058,38.288,104.955,26.017,101.835,18.309"/>
</svg>
