<?xml version="1.0" encoding="utf-8"?>
<!-- Generator: Adobe Illustrator 16.0.0, SVG Export Plug-In . SVG Version: 6.00 Build 0)  -->
<!DOCTYPE svg PUBLIC "-//W3C//DTD SVG 1.1//EN" "http://www.w3.org/Graphics/SVG/1.1/DTD/svg11.dtd">
<svg version="1.1" id="Layer_1" xmlns="http://www.w3.org/2000/svg" xmlns:xlink="http://www.w3.org/1999/xlink" x="0px" y="0px"
	 width="47.698px" height="47.655px" viewBox="0 0 47.698 47.655" enable-background="new 0 0 47.698 47.655" xml:space="preserve">
<path fill="#93278C" d="M47.698,23.849C47.698,10.677,37.021,0,23.85,0C10.678,0,0,10.677,0,23.849
	c0,11.971,8.82,21.88,20.316,23.587c0,0,1.14,0.219,3.06,0.219c1.919,0,3.382-0.139,3.382-0.139
	C38.558,46.08,47.698,36.035,47.698,23.849"/>
<path fill="#333333" d="M43.061,24.13c0,10.61-8.601,19.211-19.211,19.211c-10.61,0-19.211-8.601-19.211-19.211
	c0-10.61,8.601-19.211,19.211-19.211C34.46,4.919,43.061,13.52,43.061,24.13"/>
<path fill="#FFFFFF" d="M29.453,14.788c0,3.299-2.675,5.972-5.972,5.972c-3.299,0-5.973-2.673-5.973-5.972
	c0-3.298,2.674-5.972,5.973-5.972C26.778,8.815,29.453,11.49,29.453,14.788"/>
<path fill="#FFFFFF" d="M37.548,30.678c-0.695-4.494-3.486-8.123-7.336-10.206c0.179,1.277,0.357,3.51-0.068,5.409
	c0.852,0.293,1.479,1.136,1.479,2.103c0,1.186-0.961,2.191-2.168,2.191c-1.187,0-2.17-0.95-2.17-2.158
	c0-1.029,0.713-1.876,1.68-2.095c0.582-2.238,0.109-5.119-0.023-5.878c-0.154-0.069-0.311-0.131-0.471-0.177
	c-1.295,1.255-3.044,2.038-4.989,2.038c-1.899,0-3.648-0.759-4.919-1.991c-0.202,0.426-0.581,1.456-0.512,2.998
	c1.898,0.357,3.354,2.549,3.354,5.213c0,0.983-0.201,1.944-0.581,2.772c-0.202,0.605-1.076,0.853-1.479,0.853
	c-0.604,0-1.093-0.495-1.093-1.093c0-0.6,0.495-1.094,1.093-1.094c0.178,0,0.426,0.047,0.696,0.133
	c0.443-1.468,0.11-2.953-0.109-3.533c-2.146-0.938-4.114-0.293-4.833,0c-0.201,0.58-0.57,1.933-0.11,3.533
	c0.271-0.109,0.513-0.155,0.697-0.155c0.604,0,1.093,0.493,1.093,1.093c0,0.598-0.495,1.093-1.093,1.093
	c-0.38,0-1.232-0.247-1.456-0.806c-0.403-0.852-0.604-1.813-0.604-2.819c0-2.618,1.433-4.787,3.285-5.19
	c-0.046-1.007,0.092-1.858,0.248-2.48c-4.08,2.054-7.031,5.597-7.745,10.246c-0.178,1.14,0.714,1.822,1.858,1.822h24.402
	C36.835,32.5,37.727,31.823,37.548,30.678"/>
</svg>
