<?xml version="1.0" encoding="utf-8"?>
<!-- Generator: Adobe Illustrator 16.0.0, SVG Export Plug-In . SVG Version: 6.00 Build 0)  -->
<!DOCTYPE svg PUBLIC "-//W3C//DTD SVG 1.1//EN" "http://www.w3.org/Graphics/SVG/1.1/DTD/svg11.dtd">
<svg version="1.1" id="Layer_1" xmlns="http://www.w3.org/2000/svg" xmlns:xlink="http://www.w3.org/1999/xlink" x="0px" y="0px"
	 width="151.121px" height="246px" viewBox="0 0 151.121 246" enable-background="new 0 0 151.121 246" xml:space="preserve">
<g>
	<path fill="#20B9A2" d="M75.561,0c-22.608,0-41,18.393-41,41c0,4.681,0.783,9.274,2.328,13.65c0.754,2.136,3.097,3.255,5.231,2.502
		c2.136-0.754,3.256-3.096,2.502-5.231c-0.781-2.212-1.317-4.494-1.606-6.821h12.151c0.266,5.635,1.069,11.096,2.377,15.981
		c0.333,1.241,1.205,2.185,2.293,2.671c0.734,1.112,1.992,1.848,3.424,1.848h31.775c2.265,0,4.1-1.836,4.1-4.101
		c0-2.264-1.835-4.1-4.1-4.1h-0.6c0.805-3.886,1.317-8.04,1.519-12.3h12.146c-0.328,2.643-0.97,5.227-1.933,7.718
		c-0.815,2.112,0.235,4.486,2.347,5.302c0.486,0.188,0.986,0.277,1.477,0.277c1.645,0,3.197-0.997,3.826-2.624
		c1.82-4.711,2.744-9.682,2.744-14.773C116.562,18.393,98.168,0,75.561,0 M47.173,24.601h9.477c-0.785,3.803-1.297,7.931-1.495,12.3
		H43.026C43.582,32.465,45.025,28.305,47.173,24.601 M83.28,16.4H67.841c2.394-5.259,5.317-8.2,7.72-8.2
		C77.964,8.2,80.887,11.142,83.28,16.4 M90.138,11.629c2.571,1.281,4.949,2.89,7.084,4.771h-5.039
		C91.563,14.698,90.881,13.104,90.138,11.629 M58.94,16.4h-5.039c2.134-1.881,4.512-3.49,7.083-4.771
		C60.241,13.104,59.559,14.698,58.94,16.4 M65.085,24.601h20.951c0.867,3.605,1.482,7.732,1.717,12.3H63.368
		C63.603,32.333,64.218,28.206,65.085,24.601 M94.472,24.601h9.477c2.148,3.705,3.592,7.865,4.146,12.3H95.967
		C95.769,32.531,95.257,28.403,94.472,24.601 M86.042,57.4H65.079c-0.904-3.812-1.48-7.983-1.705-12.3h24.374
		C87.524,49.417,86.946,53.588,86.042,57.4"/>
	<path fill="#E8E6D9" d="M136.792,72.603c-3.777-6.644-12.223-8.969-18.867-5.193s-8.971,12.223-5.194,18.867
		c5.558,9.781,11.896,25.616,10.526,45.513c-1.191,17.3-7.91,30.982-14.418,40.411H97.245c7.086-6.252,11.457-15.511,11.096-25.784
		c-0.612-17.354-14.943-31.368-32.305-31.613c-18.333-0.258-33.275,14.525-33.275,32.797c0,9.801,4.303,18.59,11.117,24.601H42.284
		c-6.508-9.429-13.226-23.11-14.418-40.411c-1.371-19.896,4.967-35.731,10.526-45.512c3.776-6.645,1.45-15.091-5.194-18.868
		c-6.645-3.775-15.091-1.449-18.867,5.195C6.892,85.693-1.588,106.916,0.257,133.691c2.329,33.815,20.242,57.221,30.205,67.764
		V237.8c0,4.529,3.671,8.2,8.2,8.2h73.8c4.529,0,8.199-3.671,8.199-8.2v-36.345c9.963-10.543,27.875-33.948,30.205-67.764
		C152.71,106.916,144.229,85.693,136.792,72.603"/>
	<path fill="#D1CDB3" d="M40.421,237.8v-36.345c-9.962-10.544-27.875-33.948-30.205-67.764
		c-1.844-26.775,6.636-47.998,14.074-61.088c1.644-2.893,4.173-4.964,7.053-6.073c-6.29-2.435-13.581,0.034-17.013,6.073
		c-7.439,13.09-15.919,34.313-14.074,61.088c2.329,33.815,20.242,57.22,30.205,67.764V237.8c0,4.529,3.671,8.2,8.2,8.2h9.96
		C44.093,246,40.421,242.329,40.421,237.8"/>
	<path fill="#D1CDB3" d="M45.041,159.623c0.888,1.913,1.822,3.732,2.781,5.458c1.677,2.651,3.713,5.053,6.056,7.12h9.96
		c-6.813-6.012-11.117-14.801-11.117-24.601c0-16.417,12.064-30.01,27.809-32.415c-1.472-0.227-2.97-0.36-4.495-0.382
		C57.702,114.545,42.76,129.328,42.76,147.6C42.76,151.846,43.571,155.9,45.041,159.623"/>
	<path fill="#68BD45" d="M11.3,46.482c0.793-0.793,1.895-1.199,3.012-1.115c1.597,0.124,39.283,3.185,54.608,18.51
		c12.904,12.904,14.177,31.847,2.899,43.125c-5.154,5.153-11.906,7.687-18.953,7.687c-8.374,0-17.164-3.578-24.172-10.585
		C13.37,88.778,10.309,51.092,10.186,49.495C10.1,48.376,10.506,47.275,11.3,46.482"/>
	<path fill="#68BD45" d="M140.034,46.482c-0.793-0.793-1.895-1.199-3.012-1.115c-1.597,0.124-39.283,3.185-54.607,18.51
		c-12.904,12.904-14.177,31.847-2.899,43.125c5.154,5.153,11.906,7.687,18.953,7.687c8.374,0,17.164-3.578,24.172-10.585
		c15.325-15.325,18.386-53.011,18.509-54.608C141.235,48.376,140.827,47.275,140.034,46.482"/>
	<path fill="#5AAC46" d="M140.538,47.106c-1.459,11.438-5.953,36.964-17.898,48.908c-7.006,7.008-15.796,10.586-24.171,10.586
		c-3.817,0-7.545-0.75-10.981-2.25l7.846-7.819h15.893c2.122,0,3.844-1.721,3.844-3.844s-1.722-3.844-3.844-3.844h-8.176
		l16.688-16.626c1.504-1.499,1.508-3.932,0.01-5.437c-1.498-1.504-3.933-1.508-5.436-0.01L97.676,83.348v-8.055
		c0-2.123-1.722-3.844-3.845-3.844s-3.844,1.722-3.844,3.844v15.714l-9.156,9.124c-0.447-0.391-0.889-0.791-1.314-1.217
		c-1.509-1.509-2.786-3.159-3.848-4.91c-1.062,1.751-2.339,3.4-3.848,4.91c-0.425,0.426-0.866,0.827-1.313,1.217l-9.157-9.124
		V75.292c0-2.123-1.721-3.844-3.844-3.844s-3.844,1.722-3.844,3.844v8.055L37.027,66.771c-1.503-1.498-3.937-1.495-5.436,0.01
		c-1.498,1.504-1.494,3.938,0.01,5.437l16.687,16.626h-8.175c-2.123,0-3.844,1.721-3.844,3.844s1.721,3.844,3.844,3.844h15.891
		l7.848,7.819c-3.438,1.5-7.166,2.25-10.983,2.25c-8.375,0-17.164-3.578-24.172-10.586C16.752,84.07,12.258,58.543,10.799,47.106
		c-0.457,0.702-0.676,1.54-0.611,2.389c0.123,1.597,3.184,39.282,18.509,54.607c7.007,7.008,15.797,10.586,24.172,10.586
		c7.047,0,13.799-2.533,18.953-7.686c1.509-1.51,2.786-3.16,3.848-4.91c1.062,1.75,2.339,3.4,3.848,4.91
		c5.153,5.152,11.906,7.686,18.953,7.686c8.374,0,17.164-3.578,24.172-10.586c15.324-15.325,18.386-53.011,18.509-54.607
		C141.215,48.646,140.995,47.809,140.538,47.106"/>
</g>
</svg>
