<?xml version="1.0" encoding="utf-8"?>
<!-- Generator: Adobe Illustrator 16.0.0, SVG Export Plug-In . SVG Version: 6.00 Build 0)  -->
<!DOCTYPE svg PUBLIC "-//W3C//DTD SVG 1.1//EN" "http://www.w3.org/Graphics/SVG/1.1/DTD/svg11.dtd">
<svg version="1.1" id="Layer_1" xmlns="http://www.w3.org/2000/svg" xmlns:xlink="http://www.w3.org/1999/xlink" x="0px" y="0px"
	 width="76px" height="76px" viewBox="0 0 76 76" enable-background="new 0 0 76 76" xml:space="preserve">
<path fill="#F4C42E" d="M47,28v6c0,4.963,4.037,9,9,9c4.964,0,9-4.036,9-9v-6c0-0.339,0.024-0.673,0.071-1H48
	C47.449,27,47,27.448,47,28"/>
<path fill="#F4C42E" d="M20,43c4.963,0,9-4.036,9-9v-6c0-0.552-0.449-1-1-1H10.929C10.976,27.327,11,27.661,11,28v6
	C11,38.963,15.037,43,20,43"/>
<path fill="#F4C42E" d="M28,21c2.397,0,4.516,1.212,5.779,3.054C35.038,23.382,36.475,23,38,23c1.525,0,2.962,0.382,4.222,1.054
	C43.484,22.212,45.603,21,48,21h23.992C65.752,8.549,52.875,0,38,0S10.248,8.549,4.008,21H28z"/>
<path fill="#F4C42E" d="M72,21.017V27c-0.551,0-1,0.448-1,1v6c0,8.271-6.729,15-15,15s-15-6.729-15-15v-2c0-1.654-1.346-3-3-3
	c-1.654,0-3,1.346-3,3v2c0,8.271-6.729,15-15,15S5,42.271,5,34v-6c0-0.552-0.449-1-1-1v-5.983C1.442,26.128,0,31.895,0,38
	c0,20.987,17.013,38,38,38c20.987,0,38-17.013,38-38C76,31.895,74.558,26.128,72,21.017 M38,65c-7.958,0-14.936-4.316-18.666-11.547
	l5.332-2.75C27.387,55.975,32.247,59,38,59s10.613-3.024,13.334-8.299l5.332,2.752C52.937,60.683,45.958,65,38,65"/>
</svg>
