<?xml version="1.0" encoding="utf-8"?>
<!-- Generator: Adobe Illustrator 16.0.0, SVG Export Plug-In . SVG Version: 6.00 Build 0)  -->
<!DOCTYPE svg PUBLIC "-//W3C//DTD SVG 1.1//EN" "http://www.w3.org/Graphics/SVG/1.1/DTD/svg11.dtd">
<svg version="1.1" id="Layer_1" xmlns="http://www.w3.org/2000/svg" xmlns:xlink="http://www.w3.org/1999/xlink" x="0px" y="0px"
	 width="76.186px" height="76.187px" viewBox="0 0 76.186 76.187" enable-background="new 0 0 76.186 76.187" xml:space="preserve">
<path fill="#F4C42E" d="M38.093,0C17.055,0,0,17.055,0,38.093c0,21.039,17.055,38.093,38.093,38.093
	c21.039,0,38.093-17.055,38.093-38.093C76.186,17.055,59.132,0,38.093,0 M51.125,27.066c2.212,0,4.011,1.799,4.011,4.01
	c-0.001,2.211-1.8,4.01-4.011,4.01s-4.01-1.799-4.01-4.01S48.914,27.066,51.125,27.066 M21.052,31.076
	c0-2.211,1.798-4.01,4.009-4.01c2.212,0,4.01,1.799,4.01,4.01c-0.001,2.211-1.799,4.01-4.01,4.01S21.052,33.287,21.052,31.076
	 M51.018,59.295c-3.583-4.749-8.897-6.913-14.581-5.937L24.549,55.32l-0.98-5.935l11.87-1.959c7.841-1.346,15.468,1.735,20.38,8.246
	L51.018,59.295z"/>
</svg>
