<?xml version="1.0" encoding="utf-8"?>
<!-- Generator: Adobe Illustrator 16.0.0, SVG Export Plug-In . SVG Version: 6.00 Build 0)  -->
<!DOCTYPE svg PUBLIC "-//W3C//DTD SVG 1.1//EN" "http://www.w3.org/Graphics/SVG/1.1/DTD/svg11.dtd">
<svg version="1.1" id="Layer_1" xmlns="http://www.w3.org/2000/svg" xmlns:xlink="http://www.w3.org/1999/xlink" x="0px" y="0px"
	 width="51.098px" height="48.772px" viewBox="0 0 51.098 48.772" enable-background="new 0 0 51.098 48.772" xml:space="preserve">
<g>
	<path fill="#1683C6" d="M50.436,23.058l-6.254-4.727l2.282-7.502c0.151-0.499,0.062-1.041-0.246-1.463
		c-0.307-0.423-0.794-0.676-1.315-0.686l-7.842-0.143l-2.557-7.415c-0.17-0.494-0.563-0.879-1.059-1.041
		c-0.498-0.161-1.041-0.08-1.469,0.219l-6.429,4.498L19.121,0.3c-0.428-0.299-0.972-0.38-1.469-0.219
		c-0.497,0.162-0.889,0.547-1.059,1.041l-2.557,7.415L6.195,8.68C5.674,8.69,5.186,8.943,4.88,9.366
		c-0.308,0.422-0.399,0.964-0.247,1.463l2.283,7.502l-6.255,4.727C0.244,23.373,0,23.864,0,24.386s0.244,1.013,0.661,1.328
		l6.255,4.728l-2.282,7.502c-0.153,0.5-0.061,1.042,0.246,1.464c0.306,0.422,0.794,0.676,1.316,0.686l7.841,0.144l2.556,7.414
		c0.17,0.493,0.563,0.88,1.059,1.041c0.497,0.161,1.041,0.08,1.469-0.22l6.428-4.498l6.428,4.498
		c0.283,0.199,0.617,0.301,0.955,0.301c0.172,0,0.346-0.026,0.514-0.081c0.496-0.161,0.889-0.548,1.059-1.041l2.557-7.414
		l7.842-0.144c0.521-0.011,1.009-0.264,1.315-0.686c0.308-0.422,0.397-0.964,0.246-1.464l-2.282-7.502l6.254-4.728
		c0.418-0.314,0.662-0.806,0.662-1.328S50.854,23.373,50.436,23.058 M17.647,28.173c0,0.36-0.292,0.651-0.652,0.651h-0.711
		c-0.36,0-0.652-0.291-0.652-0.651v-4.792c0-0.539-0.165-0.947-0.505-1.246c-0.343-0.303-0.823-0.456-1.425-0.456
		c-0.602,0-1.081,0.153-1.425,0.456c-0.34,0.299-0.505,0.707-0.505,1.246v4.792c0,0.36-0.291,0.651-0.652,0.651h-0.71
		c-0.36,0-0.652-0.291-0.652-0.651v-4.792c0-1.002,0.39-1.871,1.161-2.582c0.765-0.707,1.702-1.065,2.783-1.065
		c1.082,0,2.018,0.358,2.783,1.065c0.771,0.711,1.162,1.58,1.162,2.582V28.173z M27.568,25.773c-0.213,0.686-0.586,1.284-1.14,1.833
		c-0.908,0.908-1.974,1.35-3.258,1.35c-1.283,0-2.348-0.439-3.258-1.347c-0.91-0.906-1.353-1.974-1.353-3.264
		c0-1.283,0.442-2.349,1.352-3.258c0.91-0.91,1.976-1.352,3.259-1.352c1.202,0,2.181,0.325,2.911,0.968
		c0.509,0.449,0.875,0.86,1.087,1.223c0.088,0.153,0.112,0.335,0.064,0.505c-0.049,0.171-0.164,0.314-0.32,0.398l-5.791,3.102
		c0.067,0.084,0.14,0.166,0.219,0.246c0.509,0.508,1.108,0.756,1.83,0.756c0.723,0,1.323-0.248,1.835-0.76
		c0.275-0.275,0.476-0.584,0.597-0.921c0.105-0.29,0.4-0.467,0.706-0.423l0.73,0.105c0.189,0.027,0.357,0.136,0.459,0.297
		C27.6,25.394,27.625,25.591,27.568,25.773 M41.34,25.31c0,1.02-0.363,1.906-1.081,2.632c-0.718,0.727-1.596,1.097-2.612,1.097
		c-1.025,0-1.924-0.395-2.674-1.17c-0.75,0.775-1.648,1.17-2.675,1.17c-1.015,0-1.894-0.37-2.612-1.097
		c-0.716-0.726-1.08-1.612-1.08-2.632v-4.874c0-0.36,0.293-0.651,0.652-0.651h0.732c0.361,0,0.652,0.292,0.652,0.651v4.874
		c0,0.521,0.144,0.912,0.436,1.195c0.297,0.286,0.695,0.426,1.22,0.426s0.923-0.14,1.216-0.426c0.29-0.283,0.432-0.674,0.432-1.195
		v-4.874c0-0.36,0.291-0.651,0.651-0.651h0.753c0.358,0,0.65,0.292,0.65,0.651v4.874c0,0.521,0.143,0.912,0.432,1.195
		c0.293,0.287,0.691,0.426,1.215,0.426c0.525,0,0.924-0.14,1.221-0.426c0.293-0.283,0.436-0.674,0.436-1.195v-4.874
		c0-0.359,0.292-0.651,0.651-0.651h0.733c0.359,0,0.651,0.292,0.651,0.651L41.34,25.31L41.34,25.31z"/>
	<path fill="#1683C6" d="M23.171,21.758c-0.722,0-1.321,0.249-1.83,0.761c-0.474,0.476-0.721,1.025-0.754,1.675l3.903-2.083
		C24.1,21.877,23.658,21.758,23.171,21.758"/>
</g>
</svg>
