<?xml version="1.0" encoding="utf-8"?>
<!-- Generator: Adobe Illustrator 16.0.0, SVG Export Plug-In . SVG Version: 6.00 Build 0)  -->
<!DOCTYPE svg PUBLIC "-//W3C//DTD SVG 1.1//EN" "http://www.w3.org/Graphics/SVG/1.1/DTD/svg11.dtd">
<svg version="1.1" id="Layer_1" xmlns="http://www.w3.org/2000/svg" xmlns:xlink="http://www.w3.org/1999/xlink" x="0px" y="0px"
	 width="51.098px" height="48.773px" viewBox="0 0 51.098 48.773" enable-background="new 0 0 51.098 48.773" xml:space="preserve">
<g>
	<path fill="#F79324" d="M50.436,23.058l-6.255-4.727l2.283-7.502c0.151-0.499,0.062-1.041-0.246-1.463
		c-0.308-0.423-0.794-0.676-1.315-0.686l-7.842-0.143l-2.557-7.415c-0.17-0.494-0.563-0.879-1.059-1.041
		c-0.498-0.161-1.041-0.08-1.47,0.219l-6.428,4.498L19.121,0.3c-0.428-0.299-0.972-0.38-1.469-0.219
		c-0.497,0.162-0.889,0.547-1.059,1.041l-2.557,7.415L6.195,8.68C5.674,8.69,5.186,8.943,4.88,9.366
		c-0.308,0.422-0.399,0.964-0.247,1.463l2.283,7.502l-6.255,4.727C0.244,23.373,0,23.864,0,24.386s0.244,1.013,0.661,1.328
		l6.255,4.727l-2.282,7.502c-0.153,0.5-0.061,1.042,0.246,1.465c0.306,0.422,0.794,0.676,1.316,0.685l7.841,0.144l2.556,7.414
		c0.17,0.494,0.563,0.881,1.059,1.041c0.497,0.162,1.041,0.08,1.469-0.219l6.428-4.498l6.427,4.498c0.284,0.197,0.618,0.3,0.955,0.3
		c0.173,0,0.347-0.026,0.515-0.081c0.496-0.16,0.889-0.547,1.059-1.041l2.557-7.414l7.842-0.144
		c0.521-0.011,1.008-0.263,1.315-0.685c0.308-0.423,0.397-0.965,0.246-1.465l-2.283-7.502l6.255-4.727
		c0.417-0.315,0.662-0.806,0.662-1.328S50.853,23.373,50.436,23.058 M17.647,28.173c0,0.359-0.292,0.65-0.652,0.65h-0.711
		c-0.36,0-0.652-0.291-0.652-0.65v-4.792c0-0.539-0.165-0.947-0.505-1.246c-0.343-0.303-0.823-0.456-1.425-0.456
		s-1.081,0.153-1.425,0.456c-0.34,0.299-0.505,0.707-0.505,1.246v4.792c0,0.359-0.291,0.65-0.652,0.65h-0.71
		c-0.36,0-0.652-0.291-0.652-0.65v-4.792c0-1.002,0.39-1.871,1.161-2.582c0.765-0.707,1.702-1.065,2.783-1.065
		c1.082,0,2.018,0.358,2.783,1.065c0.771,0.711,1.162,1.58,1.162,2.582V28.173z M27.569,25.773c-0.214,0.686-0.587,1.285-1.14,1.833
		c-0.908,0.908-1.974,1.351-3.258,1.351c-1.283,0-2.348-0.44-3.258-1.348c-0.91-0.906-1.353-1.974-1.353-3.264
		c0-1.283,0.442-2.349,1.352-3.258c0.91-0.91,1.976-1.352,3.259-1.352c1.202,0,2.181,0.325,2.911,0.968
		c0.509,0.449,0.875,0.86,1.087,1.223c0.088,0.153,0.112,0.335,0.064,0.505c-0.049,0.171-0.164,0.314-0.32,0.398l-5.791,3.101
		c0.067,0.084,0.14,0.166,0.219,0.246c0.509,0.509,1.108,0.757,1.83,0.757c0.723,0,1.323-0.249,1.835-0.761
		c0.275-0.275,0.476-0.585,0.597-0.921c0.105-0.29,0.4-0.466,0.706-0.422l0.73,0.105c0.189,0.027,0.357,0.136,0.459,0.297
		C27.599,25.393,27.625,25.591,27.569,25.773 M41.34,25.31c0,1.02-0.364,1.905-1.081,2.631c-0.718,0.727-1.597,1.098-2.612,1.098
		c-1.025,0-1.924-0.395-2.674-1.17c-0.75,0.775-1.648,1.17-2.675,1.17c-1.015,0-1.894-0.371-2.612-1.098
		c-0.716-0.726-1.08-1.611-1.08-2.631v-4.874c0-0.36,0.292-0.651,0.652-0.651h0.732c0.36,0,0.652,0.292,0.652,0.651v4.874
		c0,0.521,0.143,0.911,0.436,1.193c0.297,0.287,0.695,0.427,1.22,0.427s0.923-0.14,1.216-0.425c0.29-0.283,0.432-0.674,0.432-1.195
		v-4.874c0-0.36,0.291-0.651,0.651-0.651h0.752c0.358,0,0.651,0.292,0.651,0.651v4.874c0,0.521,0.142,0.912,0.432,1.195
		c0.293,0.287,0.691,0.425,1.215,0.425c0.525,0,0.924-0.14,1.221-0.425c0.293-0.284,0.436-0.674,0.436-1.195v-4.874
		c0-0.359,0.292-0.651,0.65-0.651h0.734c0.359,0,0.651,0.292,0.651,0.651L41.34,25.31L41.34,25.31z"/>
	<path fill="#F79324" d="M23.172,21.757c-0.722,0-1.321,0.249-1.83,0.761c-0.474,0.476-0.721,1.025-0.754,1.675l3.903-2.083
		C24.101,21.876,23.659,21.757,23.172,21.757"/>
</g>
</svg>
