<svg version="1.1" id="el_8aJc_7oY4" xmlns="http://www.w3.org/2000/svg" xmlns:xlink="http://www.w3.org/1999/xlink" x="0px" y="0px" viewBox="0 0 100 100" style="enable-background:new 0 0 100 100;" xml:space="preserve"><style>@-webkit-keyframes el__G5b-ntkvX_Animation{0%{opacity: 0;}23.33%{opacity: 1;}50%{opacity: 0;}73.33%{opacity: 1;}100%{opacity: 0;}}@keyframes el__G5b-ntkvX_Animation{0%{opacity: 0;}23.33%{opacity: 1;}50%{opacity: 0;}73.33%{opacity: 1;}100%{opacity: 0;}}#el_8aJc_7oY4 *{-webkit-animation-duration: 1s;animation-duration: 1s;-webkit-animation-iteration-count: infinite;animation-iteration-count: infinite;-webkit-animation-timing-function: cubic-bezier(0, 0, 1, 1);animation-timing-function: cubic-bezier(0, 0, 1, 1);}#el__Ht_8zFFUu{fill: #8CC153;}#el_aiC6pTfbLC{fill: #A0D468;}#el_s7jnxHLa0f{fill: #8CC153;}#el_eAM5bbU26r{fill: #A0D468;}#el_eAM5bbU26r_ac6Ro0cJr{-webkit-transform-origin: 50% 50%;transform-origin: 50% 50%;transform-box: fill-box;-webkit-transform: translate(0px, 0px);transform: translate(0px, 0px);}#el__G5b-ntkvX{-webkit-animation-name: el__G5b-ntkvX_Animation;animation-name: el__G5b-ntkvX_Animation;opacity: 0;-webkit-animation-timing-function: cubic-bezier(0.42, 0, 0.58, 1);animation-timing-function: cubic-bezier(0.42, 0, 0.58, 1);}</style>

<g id="el__G5b-ntkvX">
	<path d="M50,100c-1.2,0-2.1-0.9-2.1-2.1V85c0-1.2,0.9-2.1,2.1-2.1s2.1,0.9,2.1,2.1v12.9C52.1,99.1,51.1,100,50,100z" id="el__Ht_8zFFUu"/>
	<path d="M83.7,83l-2.9-0.8c-0.2-0.8-0.7-1.4-1.5-1.6l-2.9-0.8c-0.2-0.9-1-1.6-2-1.6h-2.6c-0.1-0.3-0.3-0.5-0.6-0.7&#10;&#9;&#9;c-0.5-0.4-1.2-0.5-1.8-0.4L67,77.8c-0.1-0.1-0.3-0.3-0.5-0.4c-0.6-0.4-1.4-0.4-2.1-0.1l-2.3,1.2c-0.6-0.4-1.3-0.4-1.9-0.1L50,82.8&#10;&#9;&#9;l-10.2-4.3c-0.6-0.3-1.3-0.2-1.9,0.1l-2.3-1.2c-0.6-0.3-1.4-0.3-2,0.1c-0.2,0.1-0.3,0.2-0.5,0.4l-2.3-0.6c-0.6-0.2-1.3,0-1.8,0.4&#10;&#9;&#9;c-0.3,0.2-0.5,0.5-0.6,0.7h-2.5c-1,0-1.8,0.7-2,1.6l-2.9,0.8c-0.8,0.2-1.3,0.8-1.5,1.6L16.3,83c-0.9,0.2-1.6,1.1-1.6,2&#10;&#9;&#9;c0,0.9,0.6,1.8,1.6,2l2.9,0.8c0.2,0.8,0.7,1.4,1.5,1.6l2.9,0.8c0.2,0.9,1,1.6,2,1.6h2.5c0.1,0.3,0.3,0.5,0.6,0.7&#10;&#9;&#9;c0.4,0.3,0.8,0.4,1.3,0.4c0.2,0,0.4,0,0.5-0.1l2.3-0.6c0.1,0.1,0.3,0.3,0.5,0.4c0.6,0.4,1.4,0.4,2.1,0.1l2.3-1.2&#10;&#9;&#9;c0.6,0.4,1.3,0.4,1.9,0.1L50,87.3l10.2,4.3c0.6,0.3,1.3,0.2,1.9-0.1l2.3,1.2c0.6,0.3,1.4,0.3,2.1-0.1c0.2-0.1,0.3-0.2,0.5-0.4&#10;&#9;&#9;l2.3,0.6c0.2,0,0.4,0.1,0.5,0.1c0.5,0,0.9-0.1,1.3-0.4c0.3-0.2,0.5-0.5,0.6-0.7h2.6c1,0,1.8-0.7,2-1.6l2.9-0.8&#10;&#9;&#9;c0.8-0.2,1.3-0.8,1.5-1.6l2.9-0.8c0.9-0.2,1.6-1.1,1.6-2C85.3,84.1,84.6,83.2,83.7,83z" id="el_aiC6pTfbLC"/>
	<path d="M95.7,39.3c-0.7-0.7-1.8-0.8-2.6-0.3l-5.7,3.7l0,0c-0.7-0.7-1.8-0.8-2.6-0.3L79,46.2l0,0&#10;&#9;&#9;c-0.4-0.4-0.9-0.6-1.5-0.6l0,0c-0.6,0-1.1,0.2-1.5,0.6l-4.4,4.4c-0.4-0.3-0.9-0.4-1.4-0.4c-0.6,0.1-1.2,0.4-1.5,0.9l-3.4,5.1&#10;&#9;&#9;c-0.4-0.2-0.8-0.2-1.2-0.1c-0.7,0.1-1.3,0.6-1.5,1.2l-2.4,5.9c-0.2,0-0.4,0-0.7,0c-0.7,0.1-1.2,0.5-1.5,1.1l-8,15.9l-8-15.9&#10;&#9;&#9;c-0.3-0.6-0.9-1-1.5-1.1c-0.2,0-0.4,0-0.7,0l-2.4-5.9c-0.3-0.6-0.8-1.1-1.5-1.2c-0.4-0.1-0.8,0-1.2,0.1l-3.4-5.1&#10;&#9;&#9;c-0.3-0.5-0.9-0.9-1.5-0.9c-0.5-0.1-1,0.1-1.4,0.4l-4.4-4.4c-0.4-0.4-0.9-0.6-1.5-0.6s-1.1,0.2-1.5,0.6l0,0l-5.7-3.7&#10;&#9;&#9;c-0.8-0.5-1.9-0.4-2.6,0.3l0,0L6.9,39c-0.8-0.5-1.9-0.4-2.6,0.3C3.6,40,3.5,41.1,4,41.9l3.7,5.7l0,0c-0.7,0.7-0.8,1.8-0.3,2.6&#10;&#9;&#9;l3.7,5.7l0,0c-0.8,0.8-0.8,2.1,0,2.9l4.4,4.4c-0.3,0.4-0.4,0.9-0.4,1.4c0.1,0.6,0.4,1.2,0.9,1.5l5.1,3.4c-0.2,0.4-0.2,0.8-0.1,1.2&#10;&#9;&#9;c0.1,0.7,0.6,1.3,1.2,1.5l5.9,2.4c0,0.2,0,0.4,0,0.7c0.1,0.7,0.5,1.2,1.1,1.5l19.6,9.9c0,0,0,0,0,0c0,0,0.1,0,0.1,0.1&#10;&#9;&#9;c0,0,0.1,0,0.1,0c0,0,0.1,0,0.1,0c0,0,0.1,0,0.1,0c0,0,0.1,0,0.1,0c0,0,0.1,0,0.1,0c0.1,0,0.1,0,0.2,0c0,0,0,0,0,0l0,0c0,0,0,0,0,0&#10;&#9;&#9;l0,0c0,0,0,0,0,0c0.1,0,0.3,0,0.4-0.1c0,0,0,0,0,0c0.1,0,0.1,0,0.2-0.1c0,0,0,0,0,0c0.1,0,0.1-0.1,0.2-0.1c0,0,0,0,0,0L70.6,77&#10;&#9;&#9;c0.6-0.3,1-0.9,1.1-1.5c0-0.2,0-0.4,0-0.7l5.9-2.4c0.6-0.3,1.1-0.8,1.2-1.5c0.1-0.4,0-0.8-0.1-1.2l5.1-3.4c0.5-0.3,0.9-0.9,0.9-1.5&#10;&#9;&#9;c0.1-0.5-0.1-1-0.4-1.4l4.4-4.4c0.8-0.8,0.8-2.1,0-2.9l0,0l3.7-5.7c0.5-0.8,0.4-1.9-0.3-2.6l0,0l3.7-5.7&#10;&#9;&#9;C96.5,41.1,96.4,40,95.7,39.3z" id="el_s7jnxHLa0f"/>
	<path d="M65.1,45.2c-0.4-0.6-1-1-1.8-1h0l2-8.5c0.1-0.6,0-1.3-0.4-1.8c-0.4-0.5-1-0.8-1.6-0.8h-0.6v-9&#10;&#9;&#9;c0-1.2-0.9-2.1-2.1-2.1h-1l-2.3-9.5c-0.2-0.9-1.1-1.6-2-1.6h-1L52,1.6C51.8,0.7,51,0,50,0c-1,0-1.8,0.7-2,1.6l-2.3,9.5h-1&#10;&#9;&#9;c-1,0-1.8,0.7-2,1.6l-2.3,9.5h-1c-1.2,0-2.1,0.9-2.1,2.1v9h-0.6c-0.6,0-1.2,0.3-1.6,0.8c-0.4,0.5-0.5,1.2-0.4,1.8l2,8.5h0&#10;&#9;&#9;c-0.7,0-1.4,0.4-1.8,1c-0.4,0.6-0.4,1.4-0.1,2l3.9,8.2c-0.4,0.1-0.8,0.4-1.1,0.8c-0.4,0.6-0.5,1.3-0.2,1.9l10.6,27.6&#10;&#9;&#9;c0.3,0.8,1.1,1.3,1.9,1.3c0.9,0,1.6-0.5,1.9-1.3l10.6-27.6c0.2-0.6,0.2-1.4-0.2-1.9c-0.3-0.4-0.7-0.7-1.1-0.8l3.9-8.2&#10;&#9;&#9;C65.5,46.6,65.5,45.8,65.1,45.2z" id="el_eAM5bbU26r"/>
</g>
<script>(function(){var a=document.querySelector('#el_8aJc_7oY4'),b=a.querySelectorAll('style'),c=function(d){b.forEach(function(f){var g=f.textContent;g&amp;&amp;(f.textContent=g.replace(/transform-box:[^;\r\n]*/gi,'transform-box: '+d))})};c('initial'),window.requestAnimationFrame(function(){return c('fill-box')})})();</script></svg>