<svg version="1.1" id="el_Tn3S3vwJGRZ" xmlns="http://www.w3.org/2000/svg" xmlns:xlink="http://www.w3.org/1999/xlink" x="0px" y="0px" viewBox="0 0 259 251" style="enable-background:new 0 0 259.6 251.3;" xml:space="preserve"><style>@-webkit-keyframes el_NEA1GAXQSq4_Animation{0%{opacity: 0;}50%{opacity: 1;}100%{opacity: 0;}}@keyframes el_NEA1GAXQSq4_Animation{0%{opacity: 0;}50%{opacity: 1;}100%{opacity: 0;}}@-webkit-keyframes el_Ai57px-vD9L_Animation{40%{opacity: 1;}50%{opacity: 0;}100%{opacity: 1;}0%{opacity: 1;}}@keyframes el_Ai57px-vD9L_Animation{40%{opacity: 1;}50%{opacity: 0;}100%{opacity: 1;}0%{opacity: 1;}}@-webkit-keyframes el_9qrN6SH2tK3_Animation{30%{opacity: 1;}40%{opacity: 0;}90%{opacity: 1;}0%{opacity: 1;}100%{opacity: 1;}}@keyframes el_9qrN6SH2tK3_Animation{30%{opacity: 1;}40%{opacity: 0;}90%{opacity: 1;}0%{opacity: 1;}100%{opacity: 1;}}@-webkit-keyframes el_M9ClmLcSgZQ_Animation{20%{opacity: 1;}30%{opacity: 0;}80%{opacity: 1;}0%{opacity: 1;}100%{opacity: 1;}}@keyframes el_M9ClmLcSgZQ_Animation{20%{opacity: 1;}30%{opacity: 0;}80%{opacity: 1;}0%{opacity: 1;}100%{opacity: 1;}}@-webkit-keyframes el_yAorRBV0PXl_Animation{10%{opacity: 1;}20%{opacity: 0;}70%{opacity: 1;}0%{opacity: 1;}100%{opacity: 1;}}@keyframes el_yAorRBV0PXl_Animation{10%{opacity: 1;}20%{opacity: 0;}70%{opacity: 1;}0%{opacity: 1;}100%{opacity: 1;}}@-webkit-keyframes el_zPLUt-7T6Rz_Animation{0%{opacity: 1;}10%{opacity: 0;}60%{opacity: 1;}100%{opacity: 1;}}@keyframes el_zPLUt-7T6Rz_Animation{0%{opacity: 1;}10%{opacity: 0;}60%{opacity: 1;}100%{opacity: 1;}}#el_Tn3S3vwJGRZ *{-webkit-animation-duration: 1s;animation-duration: 1s;-webkit-animation-iteration-count: infinite;animation-iteration-count: infinite;-webkit-animation-timing-function: cubic-bezier(0, 0, 1, 1);animation-timing-function: cubic-bezier(0, 0, 1, 1);}#el_Ai57px-vD9L{fill: #79A641;-webkit-animation-name: el_Ai57px-vD9L_Animation;animation-name: el_Ai57px-vD9L_Animation;-webkit-animation-timing-function: cubic-bezier(0.42, 0, 0.58, 1);animation-timing-function: cubic-bezier(0.42, 0, 0.58, 1);}#el_9qrN6SH2tK3{fill: #79A641;-webkit-animation-name: el_9qrN6SH2tK3_Animation;animation-name: el_9qrN6SH2tK3_Animation;-webkit-animation-timing-function: cubic-bezier(0.42, 0, 0.58, 1);animation-timing-function: cubic-bezier(0.42, 0, 0.58, 1);}#el_M9ClmLcSgZQ{fill: #79A641;-webkit-animation-name: el_M9ClmLcSgZQ_Animation;animation-name: el_M9ClmLcSgZQ_Animation;-webkit-animation-timing-function: cubic-bezier(0.42, 0, 0.58, 1);animation-timing-function: cubic-bezier(0.42, 0, 0.58, 1);}#el_yAorRBV0PXl{fill: #79A641;-webkit-animation-name: el_yAorRBV0PXl_Animation;animation-name: el_yAorRBV0PXl_Animation;-webkit-animation-timing-function: cubic-bezier(0.42, 0, 0.58, 1);animation-timing-function: cubic-bezier(0.42, 0, 0.58, 1);}#el_zPLUt-7T6Rz{fill: #79A641;-webkit-animation-name: el_zPLUt-7T6Rz_Animation;animation-name: el_zPLUt-7T6Rz_Animation;-webkit-animation-timing-function: cubic-bezier(0.42, 0, 0.58, 1);animation-timing-function: cubic-bezier(0.42, 0, 0.58, 1);}#el_7nkZnwjpvhB{fill: #FFFFFF;}#el_hwtWc5pUDe1{fill: #FFFFFF;}#el_eL26YcB4zl_{fill: #FFFFFF;}#el_UFG08Nt1NHO{fill: #FFFFFF;}#el_LYURJ1BF_zM{fill: #FFFFFF;}#el_JHzmVfShlin{fill: #FFFFFF;}#el_zh8loWMw1j5{fill: #FFFFFF;}#el_zzwm-qZusjH{fill: #FFFFFF;}#el_AkLp5bta4DG{fill: #FFFFFF;}#el_qXg0YIrnlzZ{fill: #FFFFFF;}#el_L8Ff8g_EaxM{fill: #FFFFFF;}#el_WLU7bE8uQIq{fill: #FFFFFF;}#el_Hy1PjcOxhxk{fill: #FFFFFF;}#el_BWbwMf2uvEk{fill: #FFFFFF;}#el_vwXVZ93aUw_{fill: #FFFFFF;}#el_baTVwCh-er1{fill: #FFFFFF;}#el_NEA1GAXQSq4{-webkit-animation-name: el_NEA1GAXQSq4_Animation;animation-name: el_NEA1GAXQSq4_Animation;-webkit-animation-timing-function: cubic-bezier(0.42, 0, 0.58, 1);animation-timing-function: cubic-bezier(0.42, 0, 0.58, 1);}</style>

<title>hb</title>
<g id="el_AnU5Lxmobpt">
	<g id="el_-_orxNXo2Id">
		<path id="el_Ai57px-vD9L" d="M254.3,169.1c0,0,0.1-0.1,0.1-0.1c-2.1,0.1-4.2,0.4-6.2,1c0.6-0.6,1-1.1,1-1.1s-4.4,0.3-6.5,1.2&#10;&#9;&#9;&#9;c0.7-0.8,1.2-1.3,1.2-1.3s-5,0.4-6.9,1.5c0.5-0.5,0.9-1,1.3-1.5c0,0-5.5,0.4-7.2,1.7c0,0,0,0-0.1,0c0.5-0.5,1-1.1,1.4-1.7&#10;&#9;&#9;&#9;c0,0-6.1,0.5-7.4,1.9h-0.1c0.5-0.6,1-1.2,1.4-1.8c0,0-6,0.8-7.9,2.2c0-0.1,1.6-1.9,1.6-1.9s-6.6,0.6-7.6,2.2c0.3-0.6,1-1.7,1-1.7&#10;&#9;&#9;&#9;s-6.3,0.6-7.6,2.1c0.3-0.6,0.7-1.8,0.7-1.8s-6.3,1-7.6,2.5c0.2-0.6,1-2.3,1.1-2.5c-0.4,0.1-7.1,1.9-8.3,3.4&#10;&#9;&#9;&#9;c0.1-0.5,0.9-3.1,0.9-3.3c-0.4,0.2-7.5,2.9-8.5,4.5c0.1-0.5,0.7-3.1,0.7-3.1c-3.4,1.3-6.6,3.2-9.3,5.6c-0.4,0.1,1.6-4,1.7-4.2&#10;&#9;&#9;&#9;c-0.2,0.1-7.7,2.4-9.3,4.6c-0.1,0.4-0.2,0.7-0.2,1.1c0,0,0,0.1,0.1,0.1c-0.1,0-0.1,0-0.1-0.1c-0.1-0.4,0-0.8,0.2-1.1&#10;&#9;&#9;&#9;c0.3-1,0.7-2.2,0.7-2.2s-6.5,0.8-9.3,4.8c-0.3,0.1,0.6-2.1,0.6-2.3c-0.5,0.2-8.9,2.6-9.4,4.5c0-0.4,0.2-1.6,0.2-1.6&#10;&#9;&#9;&#9;s-5.4,0.6-9.3,3.8c-0.7,0.2-1.5,0-2-0.5c-4.6,2-8.1,3.8-9.2,4.4l0.1,0.2l1.9,0.2c-0.6,0-1.3-0.1-1.9-0.1l0.1,0.3&#10;&#9;&#9;&#9;c1.9,1,6.7,3.4,8.4,4.4l1.6,0.3c1.5,1.5,7.6,1.6,9.2,1.6c0.4,0,0.8,0.1,1.2,0.2c1.4,1.8,9.6,1.4,9.6,1.4s0-0.4,0.2-0.4&#10;&#9;&#9;&#9;c0.3,0.4,0.7,0.6,1.1,0.8h8.3c-0.1-0.2-0.1-0.4,0-0.4c0.1,0.1,0.1,0.3,0.3,0.4h8.8c-0.2-0.3-0.3-0.5-0.2-0.5&#10;&#9;&#9;&#9;c0,0.2,0.2,0.4,0.3,0.5h8.9c-0.2-0.2-0.5-0.5-0.7-0.7c0.6,0.5,1.3,0.7,2,0.7h3.2c1.4-0.1,2.7-0.3,4.1-0.5c0,0-0.6-0.5-1-0.9&#10;&#9;&#9;&#9;c1.9,1.1,8.8-0.3,8.7-0.3s-0.7-0.5-1.2-1c2.1,0.9,8.5-0.6,8.5-0.6l-1.5-1c2.2,0.8,8.2-0.9,8.2-0.9s-1-0.5-1.7-1&#10;&#9;&#9;&#9;c2.2,0.7,8-1.2,8-1.2s-1.1-0.5-1.9-1c2.3,0.6,7.8-1.4,7.8-1.4s-1.3-0.5-2.1-0.9c2.3,0.5,7.6-1.6,7.6-1.6s-1.3-0.5-2.3-0.8&#10;&#9;&#9;&#9;c2.3,0.3,7.3-1.8,7.3-1.8s-0.9-0.3-2.2-0.6c2.4,0.1,6.9-2,6.9-2.1s-0.8-0.3-1.9-0.5c2.5-0.2,6.3-2.2,6.3-2.2s-0.7-0.2-1.7-0.4&#10;&#9;&#9;&#9;c2-0.5,3.9-1.3,5.7-2.3c-0.5-0.1-0.9-0.2-1.4-0.3c1.8-0.6,3.5-1.4,5.2-2.4c0,0-0.6-0.1-1.5-0.2c1-0.7,2-1.6,2.9-2.5l0.3-0.1l0,0&#10;&#9;&#9;&#9;C257.8,168.5,256,168.7,254.3,169.1z M136.9,189c3.1,0.2,6.2,0.3,9.3,0.3C143.1,189.2,140,189.1,136.9,189z"/>
		<path id="el_9qrN6SH2tK3" d="M245.3,65.1c1.2-2.1,2-4.4,2.5-6.7c0,0-0.7,0.4-1.7,1.1c0.2-1.6,0.2-3.3,0.1-4.9l-0.5,0.5&#10;&#9;&#9;&#9;c-1.5,1.5-2.8,3.1-4,4.8c0-0.1,0-0.3,0-0.3s-3.7,3.7-5.1,6.4c-0.1-1.2-0.2-2-0.2-2s-4.2,4.2-5.4,6.9c0-0.8-0.1-1.5-0.2-2.3&#10;&#9;&#9;&#9;c0,0-4.8,4.7-5.7,7.4c0-0.9-0.1-1.7-0.3-2.6c0,0-5.4,5.2-5.8,7.8c0,0,0,0-0.1,0.1c0-0.9-0.2-1.9-0.4-2.8c0,0-6,5.7-6,8.2l-0.1,0.1&#10;&#9;&#9;&#9;c-0.1-1-0.2-2-0.4-2.9c0,0-6.8,6.3-6,8.6c-0.2-0.3-0.7-3-0.7-3s-6.7,6.1-6.1,8.6c-0.3-0.9-0.8-2.6-0.8-2.6s-5.4,4.9-6.6,7.9&#10;&#9;&#9;&#9;c-0.2-1-0.5-3.5-0.5-3.5s-6.3,7-7.2,10c-0.6-0.9-1.1-1.9-1.5-2.9c0,0.1-5,6.9-5.9,10.1c-0.7-0.9-1.4-1.7-2.3-2.4&#10;&#9;&#9;&#9;c0,0.1-4.8,6.1-5.3,9.7c-0.8-0.9-1.7-1.7-2.6-2.4c0.1,0-4.9,7.9-3.3,12.1c-1-1.4-2.3-4-2.4-4s-6.7,8.2-5.7,11.9&#10;&#9;&#9;&#9;c-0.5-1.3-1.1-3.3-1.1-3.3s-0.3,0.4-0.8,1.1c0.1-0.8,0.3-1.4,0.3-1.7l-7.9,13.2l0,0c0,0.1,0.1,0.3,0.1,0.4&#10;&#9;&#9;&#9;c-2.8,4.3-8.4,12.9-7.5,12.8c-0.4,0.5-0.8,1-1.1,1.5c0.1-0.2,0.1-0.4,0.1-0.6s0.1-0.3,0.1-0.5l-9.9,16.6l2.8,6.6&#10;&#9;&#9;&#9;c1.2-0.6,4.6-2.4,9-4.3c-0.1,0-0.1-0.1-0.2-0.1c3.1-1.3,6.1-2.6,9.1-4c3.6,0.3,12.3-4.9,13.9-6.3c0.5-0.3-1.6-0.5-1.1-0.8&#10;&#9;&#9;&#9;c4.8,0.2,9.5-1.8,12.6-5.4c0,0-1.9-1.3-1.6-1.5c3.7,1,15.1-4.7,14.1-6.3c-0.6-0.2-1.2-0.4-1.8-0.5c4.1-0.3,11.2-6.2,11.2-6.3&#10;&#9;&#9;&#9;c-0.5-0.5-1.1-0.9-1.8-1.2c4.4-0.2,13.4-6.9,13.4-6.9c-1.3-0.3-2.6-0.6-3.9-0.8c4.7-1.1,12.6-6.8,12.6-6.9&#10;&#9;&#9;&#9;c-1.7-0.4-3.5-0.7-5.3-0.9c4.1-1.5,10.4-7.9,10.4-7.9c-1.1-0.1-2.1-0.1-3.2-0.1c3.5-1.8,7.8-6.9,7.8-6.9c-0.9-0.3-1.9-0.5-2.9-0.5&#10;&#9;&#9;&#9;c3.5-1.9,7.9-8.7,7.9-8.8s-1.7,0.4-3.1,0.7c3.3-1.4,7.2-8.2,7.2-8.2s-1.8,0.5-3.2,0.9c3.1-1.6,6.4-7.8,6.6-8.2&#10;&#9;&#9;&#9;c-0.2,0.1-2,0.7-3.3,1.1c2.9-1.6,5.9-7.9,6.1-8.2c-0.2,0.1-2,0.8-3.3,1.3c2.8-1.8,5.4-7.9,5.5-8.2c-1,0.4-2,0.9-3,1.4&#10;&#9;&#9;&#9;c2.5-2.1,4.6-7.6,4.7-8c-0.2,0.1-1.2,0.6-2.6,1.3c2.3-2.3,3.8-7.3,3.9-7.6c-0.1,0-1,0.5-2.1,1.2c1.4-2.2,2.5-4.6,3.2-7.1&#10;&#9;&#9;&#9;C247,64,246.3,64.4,245.3,65.1z M144.4,167.5c1.4,0.2,2.6-1.4,3.6-3.6c0.4,2.4,0.6,4,0.6,4S144.3,168,144.4,167.5z"/>
		<path id="el_M9ClmLcSgZQ" d="M153.9,123.2c0,0-2.4,0.9-3.2,1.2c2.9-2.6,4.9-14.7,4.9-14.7c-1.2,0.5-2.4,1-3.5,1.7&#10;&#9;&#9;&#9;c1.8-4.7,2-13.7,2-13.7c-1,0.5-1.9,1-2.8,1.7c1.5-4.4,0.8-13.9,0.8-13.9s-1.3,1.1-2.3,1.9c2.3-2.9,1.2-13.4,1.2-13.4&#10;&#9;&#9;&#9;s-1.8,1.8-2.7,2.6c2.5-2.6,1.1-13.5,1.1-13.5s-2.2,2.4-2.8,3c2.4-2.7,0.8-13.4,0.8-13.4c-1,1.1-1.9,2.2-2.7,3.3c0-0.1,0-0.1,0-0.2&#10;&#9;&#9;&#9;c2-3,0.4-13,0.4-13c-0.9,1-1.7,2.1-2.4,3.2c0,0,0-0.1,0-0.1c1.6-3.5-0.1-12.4-0.1-12.4c-0.8,1-1.5,2-2.1,3&#10;&#9;&#9;&#9;c1.2-3.7-0.5-11.9-0.5-11.9s-0.9,1.1-1.9,2.6c0.7-3.9-0.9-11-0.9-11s-0.7,1-1.5,2.3c0.4-4-1.3-10.3-1.3-10.3l-0.2,0.3&#10;&#9;&#9;&#9;c-0.2-2.9-0.7-5.8-1.5-8.6c-1.2,2-2.2,4.1-3,6.2c-0.6-1.2-1.2-2.1-1.2-2.1c-0.9,3.1-1.4,6.3-1.5,9.4c-0.7-1.2-1.2-2-1.2-2&#10;&#9;&#9;&#9;s-1.6,6.3-1.3,10.3c-0.8-1.4-1.5-2.4-1.5-2.4s-1.7,7.1-1,11c-1-1.6-1.8-2.7-1.8-2.7s-1.7,8.1-0.6,11.9c-0.7-1-1.4-2-2.1-3&#10;&#9;&#9;&#9;c0,0-1.7,9-0.1,12.5c-1-1.3-2.4-3.1-2.4-3.1s-1.6,9.4,0.2,12.7c-1-1.2-2.5-2.9-2.5-2.9s-1.4,9.7,0.5,13c-1.1-1.1-2.5-2.6-2.5-2.6&#10;&#9;&#9;&#9;s-1.2,10.1,0.8,13.2c-1.1-0.9-2.4-2.2-2.4-2.2s-1.1,10.4,1.2,13.4c-1-0.7-2.3-1.8-2.3-1.8s-0.9,10.8,1.5,13.6&#10;&#9;&#9;&#9;c-1-0.7-2.1-1.5-2.1-1.5s-0.8,12.6,2.3,14.3c-1.5-0.6-4.3-2-4.3-2s1.3,13.5,4.6,14.9c-0.8-0.3-4.7-1.3-4.7-1.3s1.8,12.4,5.1,14.6&#10;&#9;&#9;&#9;c1.3-5.4,3-10.2,4.6-9.8c0,0.1-0.8,7.5-1.8,15.8l1.6,3.9c0.2-0.6,0.4-1.2,0.7-1.7c1.4,4.6,4.3,12,6.3,13.5c0.3,1.1,0.7,2.3,1,3.4&#10;&#9;&#9;&#9;c-0.1-0.1-0.2-0.3-0.4-0.4c0.8,0.1-2.8-5.7-5.7-10.1l10.6,25.5l10-16.6l0,0c0.4-1.8,0.9-3.7,1.3-5.7c3-3.1,5.1-6.9,6.1-11.1&#10;&#9;&#9;&#9;c0.3,0.9,0.6,1.9,0.9,3l7.9-13.2l0,0c0-0.2,0.1-0.4,0.1-0.4s-3.7,0.4-4.5,0.6C152.5,137,153.9,123.2,153.9,123.2z M117.3,147.1&#10;&#9;&#9;&#9;c0.2-0.1,0.4-0.1,0.6,0C118,147.3,117.7,147.3,117.3,147.1z"/>
		<path id="el_yAorRBV0PXl" d="M116.8,156.1c-0.9-1.4-1.7-2.6-2.3-3.5c0.1-0.4,0.3-0.8,0.4-1.1l-1.6-3.9&#10;&#9;&#9;&#9;c-0.2,1.4-0.3,2.8-0.5,4.2l-0.3,0.2c0.4-1.7-1.2-4.8-2.8-7.3c0.2-0.9,0.4-1.9,0.6-2.8c-0.9-0.1-2.1-0.4-2.9-0.5l-0.7-0.9&#10;&#9;&#9;&#9;c-0.9,1.3-1.6,2.6-2.3,4.1c1.3-3.5-3-11-2.9-11.1c-1.3,0.6-2.5,1.5-3.5,2.6c1.6-4.2-3.8-12.3-3.7-12.3s-1.4,1.6-2.5,2.9&#10;&#9;&#9;&#9;c0.4-4.9-5.3-10.1-5.3-10.2c-0.5,1.1-1.1,2.2-1.8,3.2c-0.6-4.9-6.3-9.2-6.3-9.3c-0.3,0.6-0.6,1.3-1,1.8c-0.9-3.1-6.9-8.8-6.9-8.8&#10;&#9;&#9;&#9;s-0.4,1.4-0.6,2.3c-1.3-3-7.3-8.4-7.3-8.4s-0.1,1.1-0.2,3c-0.8-4.4-5.8-8.1-5.8-8.2s-0.8,2.8-0.9,2.8c-0.5-2.7-6.7-9.1-6.7-9.2&#10;&#9;&#9;&#9;s-0.5,2.9-0.5,2.9c0-2.5-6-8.2-6-8.2c-0.2,0.9-0.3,1.8-0.3,2.7h0c-0.5-2.7-5.8-7.8-5.8-7.8c-0.2,0.8-0.2,1.7-0.3,2.6&#10;&#9;&#9;&#9;c-0.8-2.7-5.7-7.4-5.7-7.4c-0.1,0.7-0.2,1.5-0.2,2.2c-1.2-2.7-5.4-6.9-5.4-6.9s-0.1,0.8-0.2,2c-1.4-2.7-5.1-6.4-5.1-6.4&#10;&#9;&#9;&#9;c0,0.1,0,0.2,0,0.3c-1.3-1.8-2.7-3.5-4.2-5.1l-0.3-0.3c-0.2,1.6-0.2,3.3,0,4.9C13.7,60.5,13,60,13,60c0.5,2.3,1.4,4.6,2.5,6.7&#10;&#9;&#9;&#9;c-1-0.6-1.7-1-1.7-1s1.2,4.6,3.2,7.2c-1.1-0.7-2.1-1.1-2.2-1.2c0.1,0.3,1.7,5.3,3.9,7.6c-1.3-0.7-2.4-1.2-2.6-1.3&#10;&#9;&#9;&#9;c0.1,0.3,2.2,5.9,4.8,8c-1-0.5-2-1-3-1.4c0.1,0.3,3.6,8.5,6.9,8.7c0,0.1,0.1,0.2,0.1,0.3c-1.6-0.8-3.2-1.5-4.9-2.2&#10;&#9;&#9;&#9;c0,0,4.2,8.9,7.6,8.7c0.1,0.2,0.1,0.3,0.2,0.5c-1.6-0.8-3.3-1.4-5-2c0,0,4.8,9.2,8.3,8.6l0.3,0.6c-1.7-0.7-3.4-1.3-5.2-1.8&#10;&#9;&#9;&#9;c0,0,5.5,9.5,8.9,8.4c0.2,0.3,0.3,0.5,0.5,0.8c-1.7-0.6-3.5-1.2-5.3-1.6c0,0.1,4.5,6.9,7.9,8.8c-1,0-2,0.2-3,0.5&#10;&#9;&#9;&#9;c0,0.1,4.2,5.1,7.8,6.9c-1.1,0-2.1,0-3.2,0.1c0,0,6.2,6.4,10.3,7.9c-1.8,0.2-3.5,0.5-5.3,0.9c0,0,7.9,5.8,12.6,6.9&#10;&#9;&#9;&#9;c-1.3,0.2-2.6,0.5-3.9,0.8c0,0,9.1,6.7,13.4,6.9c-0.7,0.3-1.3,0.7-1.8,1.2c0,0,7.2,6,11.2,6.3c-0.6,0.1-1.2,0.3-1.8,0.5&#10;&#9;&#9;&#9;c-1,1.6,9.2,7.3,12.9,6.3c0.3,0.2,0.5,0.3,0.8,0.5h-1c0,0,8.1,7.3,12,6.6l1.4,0.8c1.6,1.3,8.2,6.3,11.7,6c2.1,1,4.2,1.9,6.4,2.9&#10;&#9;&#9;&#9;l1.5,0.7l-1.9-0.5l5.6,2.3l3.1-5.2L116.8,156.1z M112.2,156.1c-1.4,0.1-4.6,0-4.6,0s0.4-2.7,1.1-6.3c1,2.8,2.2,5.3,3.6,6&#10;&#9;&#9;&#9;C112.3,155.9,112.2,156,112.2,156.1L112.2,156.1z"/>
		<path id="el_zPLUt-7T6Rz" d="M124.3,186.8l-3.9,6.5c-0.5,0.1-1,0.2-1.5,0.3c-1.5,1.5-7.6,1.6-9.2,1.6c-0.4,0-0.8,0.1-1.2,0.2&#10;&#9;&#9;&#9;c-1.4,1.8-9.6,1.4-9.6,1.4s0-0.4-0.2-0.4c-0.3,0.4-0.7,0.6-1.1,0.8h-8.3c0.1-0.2,0.1-0.4,0-0.4c-0.1,0.1-0.1,0.3-0.3,0.4h-8.8&#10;&#9;&#9;&#9;c0.2-0.3,0.3-0.5,0.2-0.5c-0.1,0.2-0.2,0.4-0.3,0.5h-8.9c0.2-0.2,0.5-0.5,0.7-0.7c-0.6,0.5-1.3,0.7-2,0.7h-3.1&#10;&#9;&#9;&#9;c-1.4-0.1-2.7-0.3-4.1-0.5c0,0,0.6-0.5,1-0.9c-2,1.1-8.8-0.3-8.8-0.3s0.7-0.5,1.2-1c-2.1,0.9-8.5-0.6-8.5-0.6l1.5-1&#10;&#9;&#9;&#9;c-2.2,0.8-8.3-0.9-8.3-0.9s1-0.5,1.7-1c-2.2,0.7-8-1.2-8-1.2s1.1-0.5,2-1c-2.3,0.6-7.8-1.4-7.8-1.4s1.3-0.5,2.1-0.9&#10;&#9;&#9;&#9;c-2.3,0.5-7.6-1.6-7.6-1.6s1.3-0.5,2.3-0.8c-2.3,0.3-7.3-1.8-7.3-1.8s1-0.3,2.2-0.6c-2.4,0.1-6.9-2-6.9-2.1s0.8-0.3,1.9-0.5&#10;&#9;&#9;&#9;c-2.5-0.2-6.3-2.2-6.3-2.2s0.7-0.2,1.7-0.4c-2-0.5-3.9-1.3-5.7-2.3c0.5-0.1,0.9-0.2,1.4-0.3c-1.8-0.6-3.5-1.4-5.2-2.4&#10;&#9;&#9;&#9;c0,0,0.6-0.1,1.5-0.2c-1.1-0.7-2-1.6-2.9-2.5c0,0,0,0-0.1-0.1c1.8,0.1,3.6,0.3,5.3,0.7c0,0-0.1-0.1-0.1-0.1c2.1,0.1,4.2,0.4,6.2,1&#10;&#9;&#9;&#9;c-0.6-0.6-1-1.1-1-1.1s4.4,0.3,6.5,1.2c-0.7-0.8-1.2-1.3-1.2-1.3s5,0.4,6.9,1.5c-0.5-0.5-0.9-1-1.3-1.5c0,0,5.5,0.4,7.2,1.7&#10;&#9;&#9;&#9;c0,0,0,0,0,0c-0.5-0.5-1-1.1-1.4-1.7c0,0,6.1,0.5,7.4,1.9h0.1c-0.5-0.6-1-1.2-1.4-1.8c0,0,6.8,0.6,7.6,2.2h0.2&#10;&#9;&#9;&#9;c-0.6-0.6-1.1-1.3-1.5-1.9c0,0,6.6,0.6,7.6,2.2c-0.3-0.6-1.1-1.7-1.1-1.7s6.3,0.6,7.6,2.1c-0.3-0.6-0.8-1.4-0.8-1.4&#10;&#9;&#9;&#9;s6.3,0.6,7.6,2.1c-0.2-0.6-0.9-2.1-0.9-2.1s6.9,1.5,8.1,3c-0.1-0.8-0.2-1.6-0.2-2.4c0,0,6.8,2,7.8,3.6c0.1-0.7,0.4-1.3,0.7-1.9&#10;&#9;&#9;&#9;c0,0,8.9,1.9,7,4.3c0.4,0.1,1-3.2,1-3.2s8.7,2.5,7.2,4.8c0.4,0.1,0.8-2.6,0.8-2.6s8.6,2.1,7.9,4.4c0.3,0.1,0.8-1.7,0.8-1.7&#10;&#9;&#9;&#9;s7.9,1.7,8.2,3.7c0.2,0.1,0.5,0.1,0.7,0.2v-0.1c1.8,0.2,3.6,0.4,5.4,0.8c0.3,0.1,0.7,0.2,1,0.3l0,0l1.8,0.7&#10;&#9;&#9;&#9;c0.1,0.1,0.2,0.1,0.3,0.2l0.5,0.1l0,0L124.3,186.8z"/>
		<g id="el_cWwg0Uznbrr">
			<path d="M65.3,198c4.7-17.3,22.6-27.4,39.8-22.7c11,3,19.6,11.6,22.7,22.7h3.4c-2.8-11.4-11.1-20.8-22.1-24.9&#10;&#9;&#9;&#9;&#9;c10.6-6.9,13.6-21,6.7-31.6c-6.9-10.6-21-13.6-31.6-6.7c-10.6,6.9-13.6,21-6.7,31.6c1.7,2.7,4,4.9,6.7,6.7&#10;&#9;&#9;&#9;&#9;C73,177.2,64.7,186.5,61.9,198" id="el_xpcoM02L_Yr"/>
			<circle cx="96.5" cy="154" r="18.2" id="el_7nkZnwjpvhB"/>
			<path d="M65.3,198h62.5c-4.7-17.3-22.6-27.4-39.8-22.7C76.9,178.4,68.3,187,65.3,198" id="el_hwtWc5pUDe1"/>
			<path d="M163.5,174.1c14.6,0,27.4,9.8,31.2,23.9h3.4c-2.8-11.5-11.1-20.8-22.2-24.9c10.6-6.9,13.6-21,6.7-31.6&#10;&#9;&#9;&#9;&#9;c-6.9-10.6-21-13.6-31.6-6.7c-10.6,6.9-13.6,21-6.7,31.6c1.7,2.7,4,4.9,6.7,6.7c-11.1,4.1-19.4,13.5-22.2,24.9h3.4&#10;&#9;&#9;&#9;&#9;C136.2,183.9,148.9,174.2,163.5,174.1z M145.4,154c0-10,8.1-18.2,18.2-18.2s18.2,8.1,18.2,18.2c0,10-8.1,18.2-18.2,18.2&#10;&#9;&#9;&#9;&#9;c0,0,0,0,0,0C153.5,172.2,145.4,164,145.4,154z" id="el_CZBp2vtCjLo"/>
			<path d="M163.5,174.1c-14.6,0-27.4,9.8-31.2,23.9h62.5C190.9,183.9,178.1,174.2,163.5,174.1z" id="el_eL26YcB4zl_"/>
			<circle cx="163.5" cy="154" r="18.2" id="el_UFG08Nt1NHO"/>
			<path d="M129.8,169c17.1,0,31.6,12.4,34.2,29.3h3.6c-2-13.8-11.3-25.5-24.4-30.4c11.3-7.3,14.5-22.5,7.1-33.7&#10;&#9;&#9;&#9;&#9;s-22.5-14.5-33.7-7.1c-11.3,7.3-14.5,22.5-7.1,33.7c1.9,2.8,4.3,5.3,7.1,7.1c-13.1,4.9-22.5,16.5-24.5,30.4h3.6&#10;&#9;&#9;&#9;&#9;C98.2,181.4,112.7,169,129.8,169z M110.4,147.4c0-10.7,8.7-19.4,19.4-19.4s19.4,8.7,19.4,19.4s-8.7,19.4-19.4,19.4c0,0,0,0,0,0&#10;&#9;&#9;&#9;&#9;C119.1,166.8,110.4,158.2,110.4,147.4L110.4,147.4z" id="el_GNTyBvcxn2w"/>
			<path d="M129.8,169.2c-17,0-31.6,12.4-34.2,29.3H164C161.4,181.6,146.8,169.2,129.8,169.2z" id="el_LYURJ1BF_zM"/>
			<circle cx="129.8" cy="147.5" r="19.4" id="el_JHzmVfShlin"/>
		</g>
	</g>
</g>
<script>(function(){var a=document.querySelector('#el_Tn3S3vwJGRZ'),b=a.querySelectorAll('style'),c=function(d){b.forEach(function(f){var g=f.textContent;g&amp;&amp;(f.textContent=g.replace(/transform-box:[^;\r\n]*/gi,'transform-box: '+d))})};c('initial'),window.requestAnimationFrame(function(){return c('fill-box')})})();</script></svg>