<?xml version="1.0" encoding="utf-8"?>
<!-- Generator: Adobe Illustrator 16.0.0, SVG Export Plug-In . SVG Version: 6.00 Build 0)  -->
<!DOCTYPE svg PUBLIC "-//W3C//DTD SVG 1.1//EN" "http://www.w3.org/Graphics/SVG/1.1/DTD/svg11.dtd">
<svg version="1.1" id="Layer_1" xmlns="http://www.w3.org/2000/svg" xmlns:xlink="http://www.w3.org/1999/xlink" x="0px" y="0px"
	 width="161.531px" height="186.887px" viewBox="0 0 161.531 186.887" enable-background="new 0 0 161.531 186.887"
	 xml:space="preserve">
<g>
	
		<rect x="42.295" y="45.117" transform="matrix(-0.0135 -0.9999 0.9999 -0.0135 32.7444 130.6153)" fill="#444A54" width="77.017" height="8.076"/>
	<path fill="#ED5765" d="M47.834,32.305c0,17.847,14.464,32.311,32.308,32.311c17.841,0,32.305-14.464,32.305-32.311
		C112.447,14.463,97.984,0,80.142,0C62.298,0,47.834,14.463,47.834,32.305"/>
	<path fill="#5DC2A7" d="M56.637,54.471c5.892,6.241,14.241,10.145,23.505,10.145c9.365,0,17.797-3.986,23.698-10.357v-4.349
		c-0.573-1.656-1.896-2.999-3.639-3.578l-0.181-0.054c-2.6-0.698-3.478-1.366-4.634-1.804c-4.109-1.568-5.176-2.691-5.448-3.224
		c-0.009-0.023-0.018-0.041-0.026-0.059l-0.032-4.774l-9.738-0.107l-9.737,0.107l-0.035,4.774c-0.009,0.018-0.015,0.036-0.023,0.059
		c-0.276,0.532-1.343,1.656-5.449,3.224c-1.159,0.438-2.038,1.106-4.638,1.804l-0.177,0.054c-1.57,0.52-2.795,1.662-3.446,3.093
		V54.471z"/>
	<path fill="#EAC7BC" d="M66.631,30.725c0,8.779,8.367,16.853,13.511,16.853c5.142,0,13.512-8.075,13.512-16.853
		c0-8.779-6.052-14.57-13.512-14.57C72.68,16.155,66.631,21.946,66.631,30.725"/>
	<path fill="#E7E9ED" d="M161.531,102.049v-20.19c0-4.46-3.609-8.081-8.069-8.081H8.078C3.617,73.778,0,77.399,0,81.859v20.19
		H161.531z"/>
	<polygon fill="#F5F7FA" points="137.301,186.854 0,186.854 0,89.934 161.531,89.934 161.531,114.163 161.531,186.887 	"/>
	<rect x="16.155" y="156.936" fill="#A1CF69" width="60.574" height="24.23"/>
	<polygon fill="#A1CF69" points="145.264,181.166 84.806,181.166 84.806,156.937 145.382,156.937 	"/>
	<rect x="16.155" y="100.401" fill="#5DC2A7" width="129.229" height="48.46"/>
	<path fill="#444A54" d="M117.116,121.729H44.423c-2.23,0-4.041,1.81-4.041,4.041c0,2.23,1.811,4.033,4.041,4.033h72.693
		c2.225,0,4.034-1.805,4.034-4.033C121.151,123.538,119.341,121.729,117.116,121.729"/>
</g>
</svg>
