<?xml version="1.0" encoding="utf-8"?>
<!-- Generator: Adobe Illustrator 16.0.0, SVG Export Plug-In . SVG Version: 6.00 Build 0)  -->
<!DOCTYPE svg PUBLIC "-//W3C//DTD SVG 1.1//EN" "http://www.w3.org/Graphics/SVG/1.1/DTD/svg11.dtd">
<svg version="1.1" id="Layer_1" xmlns="http://www.w3.org/2000/svg" xmlns:xlink="http://www.w3.org/1999/xlink" x="0px" y="0px"
	 width="59.215px" height="59.216px" viewBox="0 0 59.215 59.216" enable-background="new 0 0 59.215 59.216" xml:space="preserve">
<path fill="#FFFFFF" d="M29.607,69.655c3.827,0,6.952-3.129,6.952-6.974H22.633C22.633,66.526,25.78,69.655,29.607,69.655"/>
<path fill="#FFFFFF" d="M52.241,48.754V29.608c0-10.801-7.314-19.508-17.414-21.937V5.22c0-2.786-2.434-5.22-5.221-5.22
	c-2.79,0-5.219,2.434-5.219,5.22v2.451C14.283,10.1,6.974,18.807,6.974,29.608v19.146L0,55.728v3.488h59.215v-3.488L52.241,48.754z
	 M44.638,37.881c-0.054,0.554-0.813,0.402-1.134,0.689c-0.021,0.127,0.073,0.143,0.04,0.282c-0.302,0.117-0.698,0.14-1.013,0.243
	c0.056,0.08,0.039,0.232,0.081,0.325c-0.247,0.13-0.728,0.028-1.014,0.12c0.007,0.115,0.075,0.17,0.082,0.285
	c-0.246,0.185-0.755-0.014-1.014,0.08c-0.012,0.161,0.094,0.203,0.082,0.365c-0.372,0.108-0.695-0.093-1.054-0.122v0.364
	c-0.418,0.014-0.677-0.134-1.013-0.202c-0.027,0.163,0.038,0.231,0.04,0.364c-0.4-0.004-0.628-0.182-0.973-0.242v0.323
	c-0.392,0.03-0.988-0.379-1.215,0c-0.283-0.081-0.554-0.177-0.892-0.202c-0.046,0.049-0.116,0.073-0.081,0.202
	c-0.334-0.099-0.648-0.216-1.013-0.283c-0.129,0.021-0.122,0.175-0.243,0.202c-1.284-0.441-3.133-0.089-4.254,0.162
	c0.549,0.361,1.34,0.754,2.026,0.729c-0.011,0.093,0.009,0.152,0.081,0.162c0.455-0.05,0.586,0.224,1.013,0.202
	c0.069,0.025,0.066,0.123,0.121,0.162c0.22-0.03,0.313,0.064,0.527,0.041c-0.007,0.262,0.247,0.264,0.526,0.243
	c-0.083,0.25,0.289,0.235,0.526,0.284c0.011,0.069-0.114,0.201,0,0.242c0.191-0.016,0.338,0.014,0.485,0.041
	c0.035,0.152-0.134,0.189-0.039,0.283c0.22-0.031,0.294,0.083,0.444,0.121c0.076,0.073-0.032,0.104,0,0.243
	c0.194,0.022,0.299,0.133,0.446,0.203c0.03,0.124-0.111,0.077-0.081,0.202c0.185,0.045,0.296,0.164,0.446,0.244
	c0.028,0.123-0.042,0.146-0.041,0.241c0.563,0.314,0.75,1.007,1.256,1.378c-0.639-0.193-1.219-0.212-1.742-0.485
	c-0.094,0.018-0.109,0.179-0.203,0.081c-0.189-0.075-0.34-0.312-0.566-0.122c-0.185-0.114-0.315-0.384-0.567-0.202
	c-0.114-0.075-0.182-0.196-0.284-0.284c-0.15-0.043-0.115,0.101-0.243,0.081c-0.116-0.113-0.187-0.271-0.282-0.405
	c-0.125-0.03-0.078,0.111-0.203,0.081c-0.108-0.122-0.185-0.275-0.283-0.404c-0.081,0-0.052,0.109-0.162,0.08
	c-0.086-0.131-0.18-0.252-0.244-0.404c-0.101,0.004-0.125,0.076-0.202,0c-0.116-0.129-0.213-0.273-0.284-0.446
	c-0.35,0.021-0.284-0.479-0.566-0.405c-0.551-0.785-1.182-1.492-2.026-1.984c-0.077,0.779,0.028,1.615,0.081,2.471
	c0.13,2.094,0.103,4.46,0.122,6.117c-0.228,1.094-0.071,2.965-0.973,3.322c-0.191-0.232-0.182-0.771-0.121-1.134
	c0.476-0.478,0.573-1.301,0.606-2.066c0.127-2.785,0.004-6.188-0.282-8.751c-0.881,0.511-1.58,1.203-2.107,2.065
	c-0.076,0.011-0.089-0.046-0.162-0.04c-0.171,0.422-0.492,0.449-0.688,0.852c-0.083,0.096-0.16-0.057-0.243,0.039
	c-0.022,0.168-0.142,0.238-0.202,0.365c-0.125,0.03-0.078-0.11-0.203-0.08c-0.03,0.185-0.162,0.27-0.243,0.404
	c-0.127,0.021-0.092-0.124-0.243-0.081c-0.023,0.192-0.155,0.277-0.242,0.405c-0.127,0.02-0.093-0.124-0.243-0.081
	c-0.138,0.154-0.29,0.371-0.527,0.203c-0.227,0.399-0.647,0.112-0.931,0.444c-0.14,0.031-0.053-0.164-0.203-0.12
	c-0.487,0.292-1.082,0.286-1.702,0.485c0.497-0.394,0.729-1.054,1.256-1.418c-0.021-0.084-0.116-0.131-0.04-0.203
	c0.139-0.104,0.314-0.17,0.445-0.283c0-0.08-0.11-0.051-0.081-0.161c0.132-0.099,0.313-0.146,0.446-0.243
	c0.023-0.13-0.076-0.126,0-0.203c0.129-0.074,0.302-0.104,0.445-0.162c0.021-0.128-0.089-0.158,0-0.242
	c0.114-0.076,0.379,0,0.486-0.082c-0.171-0.339,0.332-0.193,0.486-0.324c0.004-0.11-0.068-0.082,0-0.162
	c0.176,0.001,0.364,0.014,0.485-0.04c0.01-0.071-0.041-0.203,0.081-0.162c0.179-0.104,0.556-0.013,0.608-0.243
	c0.419,0.014,0.569-0.241,1.013-0.202v-0.162c0.859,0,1.521-0.327,2.106-0.771c-1.13-0.174-2.986-0.579-4.294-0.121
	c-0.063-0.086-0.103-0.195-0.243-0.203c-0.335,0.084-0.653,0.184-0.974,0.284c0.033-0.14-0.036-0.179-0.12-0.202
	c-0.325,0.039-0.596,0.134-0.892,0.202c-0.188-0.39-0.813,0.038-1.175,0c-0.025-0.097,0.051-0.294-0.041-0.324
	c-0.308,0.084-0.55,0.233-0.932,0.243c-0.014-0.112,0.116-0.284,0-0.365c-0.3,0.094-0.577,0.206-0.973,0.203
	c-0.024-0.109,0.053-0.321-0.041-0.364c-0.321,0.054-0.671,0.212-1.012,0.121c-0.01-0.172,0.106-0.218,0.081-0.405
	c-0.332,0.011-0.755,0.111-1.013-0.041c-0.001-0.127,0.134-0.226,0.04-0.323c-0.353,0.001-0.721,0.018-0.973-0.081
	c0.016-0.12,0.101-0.293,0.04-0.364c-0.357-0.033-0.671-0.112-0.972-0.203c-0.029-0.149,0.07-0.174,0.041-0.323
	c-0.42-0.201-1.09-0.152-1.175-0.689c-0.621-0.242-1.233-0.495-1.661-0.932c0.774-0.002,1.324,0.021,2.065,0
	c0.036-0.086,0.063-0.181,0.122-0.244c0.446-0.014,0.84,0.026,1.176,0.123c0.046-0.09,0.104-0.166,0.081-0.324
	c0.405,0.011,0.668,0.169,1.053,0.201c0.013-0.094,0.063-0.151,0.04-0.282c0.463-0.031,0.638,0.226,0.973,0.323
	c0.063-0.059,0.035-0.207,0.04-0.323c0.466-0.043,0.707,0.342,0.973,0.364c0.054-0.096,0.018-0.28,0.081-0.364
	c0.408,0.063,0.561,0.384,0.892,0.526c0.065-0.069,0.123-0.147,0.121-0.283c0.362,0.084,0.526,0.365,0.811,0.527
	c0.17,0.008,0.079-0.246,0.243-0.244c0.29,0.129,0.371,0.467,0.729,0.526c0.096-0.013,0.04-0.176,0.122-0.203
	c0.348,0.194,0.606,0.476,0.933,0.689c0.104-0.003,0.058-0.158,0.162-0.162c0.261,0.172,0.438,0.425,0.729,0.567
	c0.151,0.043,0.064-0.151,0.203-0.121c0.249,0.264,0.51,0.515,0.85,0.688c0.083-0.012,0.108-0.081,0.162-0.122
	c0.103,0.115,0.244,0.189,0.324,0.324c0.827,0.551,1.939,1.033,2.999,1.216c-1.271-1.175-2.487-2.403-4.416-2.918
	c-0.02-0.127,0.124-0.091,0.081-0.241c-0.361-0.303-0.939-0.386-1.459-0.527c-0.099-0.119,0.146-0.153,0.122-0.324
	c-0.428-0.126-0.866-0.242-1.256-0.405c-0.008-0.178,0.131-0.209,0.04-0.364c-0.57-0.052-0.967-0.276-1.377-0.486
	c0.057-0.159,0.251-0.181,0.241-0.405c-0.515-0.011-0.876-0.176-1.255-0.324c0.044-0.2,0.246-0.24,0.243-0.487
	c-0.528-0.026-0.931-0.177-1.215-0.445c-0.056-0.059,0.17-0.179,0.121-0.365c-0.392-0.28-0.897-0.228-1.175-0.648
	c0.153-0.116,0.356-0.184,0.365-0.446c-0.488-0.079-0.801-0.335-1.055-0.648c-0.003-0.219,0.301-0.131,0.284-0.365
	c-0.388-0.22-0.78-0.435-1.054-0.769c0.025-0.19,0.275-0.157,0.284-0.365c-0.305-0.331-0.69-0.58-0.933-0.973
	c0.085-0.117,0.248-0.157,0.284-0.324c-0.339-0.472-1.004-0.784-0.891-1.58c-0.446-0.688-0.9-1.369-1.217-2.187
	c0.854,0.415,1.525,1.013,2.392,1.418c0.101-0.048,0.135-0.162,0.283-0.163c0.478,0.252,0.868,0.589,1.256,0.932
	c0.186-0.017,0.193-0.211,0.324-0.283c0.41,0.25,0.623,0.699,1.013,0.972c0.134-0.068,0.157-0.248,0.284-0.324
	c0.339,0.295,0.596,0.673,0.81,1.094c0.11-0.08,0.221-0.157,0.243-0.324c0.468,0.167,0.617,0.652,0.81,1.094
	c0.222-0.05,0.255-0.286,0.446-0.365c0.305,0.303,0.403,0.813,0.567,1.256c0.186-0.031,0.216-0.216,0.404-0.243
	c0.284,0.297,0.369,0.792,0.486,1.256c0.181-0.063,0.256-0.231,0.446-0.284c0.153,0.386,0.253,0.827,0.363,1.256
	c0.208,0.005,0.194-0.212,0.365-0.243c0.234,0.428,0.383,0.941,0.527,1.459c0.177,0.028,0.18-0.117,0.324-0.122
	c0.13,0.424,0.255,0.853,0.404,1.256c0.181,0.044,0.216-0.179,0.324-0.081c0.206,0.474,0.09,1.47,0.771,1.337
	c0.132,1.146,0.738,1.853,1.296,2.594c0.499,0.662,0.955,1.339,1.54,1.822c0.009-0.031,0.034-0.047,0.081-0.041
	c-0.287-2.003-0.442-3.895-1.418-5.185c0.194,0.019,0.278-0.072,0.323-0.203c-0.188-0.689-0.606-1.148-0.851-1.783
	c0.115-0.007,0.279,0.035,0.284-0.081c-0.076-0.694-0.54-1-0.689-1.62c0.108-0.055,0.312-0.013,0.365-0.122
	c-0.263-0.628-0.639-1.144-0.81-1.863c0.218-0.011,0.509,0.05,0.566-0.122c-0.333-0.437-0.649-0.89-0.811-1.499
	c0.25-0.007,0.494-0.02,0.648-0.122c-0.341-0.456-0.615-0.979-0.77-1.62c0.211-0.073,0.601,0.033,0.688-0.162
	c-0.38-0.487-0.605-0.933-0.688-1.661c0.292,0.005,0.544,0.084,0.77-0.041c-0.206-0.445-0.493-1.017-0.324-1.701
	c0.198,0.027,0.427,0.078,0.567-0.041c-0.155-0.482-0.353-1.083-0.243-1.701c0.188,0.035,0.464,0.152,0.607,0
	c-0.068-0.586-0.107-1.209,0-1.783c0.141,0.062,0.37,0.036,0.568,0.04c-0.03-0.826,0.077-1.515,0.282-2.106
	c0.206-0.056,0.237,0.014,0.365-0.041c0.378-1.039,0.591-2.245,0.81-3.443c0.053-0.003,0.058-0.053,0.122-0.041
	c0.387,0.977,0.725,2.004,0.852,3.241c0.161,0.036,0.203,0.036,0.364,0c0.253,0.711,0.238,1.169,0.323,2.147h0.568
	c0.018,0.628,0.043,1.153-0.041,1.742c0.08-0.012,0.08,0.055,0.122,0.081c0.191,0.017,0.331-0.019,0.445-0.081
	c0.194,0.588-0.075,1.336-0.243,1.823c0.249,0.02,0.419-0.04,0.607-0.08c0.173,0.701-0.113,1.288-0.323,1.742
	c0.218,0.067,0.505,0.04,0.729,0c0.039,0.675-0.373,1.246-0.648,1.742c0.222,0.021,0.39,0.097,0.648,0.08
	c-0.005,0.619-0.459,1.134-0.688,1.662c0.181,0.049,0.355,0.104,0.607,0.081c-0.145,0.651-0.536,1.058-0.81,1.58
	c0.14,0.062,0.369,0.036,0.566,0.04c-0.146,0.744-0.541,1.242-0.81,1.864c0.069,0.08,0.188,0.109,0.324,0.122
	c-0.115,0.682-0.563,1.031-0.73,1.661c0.142,0.02,0.308,0.018,0.406,0.081c-0.355,0.537-0.689,1.094-0.893,1.782
	c0.075,0.088,0.119,0.206,0.324,0.162c-0.821,1.179-1.075,3.015-1.296,4.822c-0.028,0.231-0.203,0.515,0,0.688
	c1.036-1.381,2.404-2.431,2.796-4.456c0.098,0.024,0.186,0.059,0.324,0.041c0.221-0.387,0.343-0.873,0.445-1.378
	c0.113-0.094,0.159,0.141,0.364,0.081c0.065-0.475,0.265-0.817,0.365-1.256c0.139,0.024,0.188,0.135,0.364,0.122
	c0.069-0.58,0.278-1.019,0.486-1.459c0.2,0.015,0.148,0.284,0.405,0.243c0.03-0.497,0.197-0.856,0.324-1.256
	c0.218,0.039,0.244,0.269,0.486,0.284c0.052-0.529,0.173-0.989,0.485-1.256c0.163,0.053,0.181,0.251,0.405,0.243
	c0.085-0.51,0.252-0.937,0.527-1.256c0.205,0.078,0.218,0.349,0.486,0.365c0.094-0.5,0.353-0.836,0.688-1.094
	c0.173,0.056,0.148,0.31,0.364,0.324c0.168-0.467,0.436-0.834,0.81-1.094c0.043,0.161,0.162,0.244,0.284,0.324
	c0.341-0.321,0.578-0.746,1.013-0.972c0.076,0.126,0.123,0.282,0.324,0.283c0.334-0.382,0.759-0.673,1.216-0.931
	c0.17-0.009,0.17,0.153,0.324,0.162c0.821-0.421,1.503-0.981,2.309-1.418c0.06,0.302-0.094,0.392-0.201,0.526
	c-0.29,0.63-0.662,1.175-1.014,1.742c0.191,0.683-0.577,1.057-0.851,1.54c0.057,0.146,0.247,0.158,0.283,0.324
	c-0.273,0.361-0.665,0.605-0.933,0.972c0.046,0.158,0.256,0.15,0.284,0.325c-0.272,0.334-0.665,0.549-1.053,0.769
	c0.009,0.207,0.28,0.152,0.283,0.365c-0.237,0.343-0.626,0.535-1.054,0.688c0.022,0.249,0.265,0.278,0.364,0.447
	c-0.053,0.067-0.156,0.086-0.121,0.242c-0.433,0.067-0.813,0.186-1.134,0.365c0.041,0.175,0.227,0.205,0.243,0.405
	c-0.362,0.205-0.771,0.364-1.256,0.446c0.021,0.207,0.2,0.259,0.243,0.446c-0.359,0.18-0.813,0.266-1.257,0.364
	c0.016,0.187,0.204,0.201,0.243,0.365c-0.395,0.239-0.874,0.395-1.377,0.525c-0.109,0.114,0.071,0.168,0.04,0.325
	c-0.378,0.189-0.892,0.242-1.256,0.445c0.006,0.13,0.217,0.177,0.122,0.284c-0.515,0.16-1.152,0.199-1.459,0.566
	c-0.03,0.124,0.111,0.078,0.081,0.202c-1.493,0.366-2.582,1.283-3.565,2.107c-0.29,0.243-0.662,0.477-0.77,0.851
	c1.221-0.4,2.463-0.777,3.282-1.58c-0.013,0.107,0.085,0.104,0.161,0.122c0.334-0.192,0.557-0.498,0.892-0.688
	c0.014,0.094,0.042,0.174,0.122,0.201c0.222-0.25,0.474-0.47,0.77-0.647c0.047,0.062,0.035,0.182,0.162,0.162
	c0.289-0.25,0.563-0.517,0.931-0.689c0.006,0.104,0.009,0.209,0.122,0.203c0.327-0.092,0.407-0.43,0.729-0.526
	c0.102,0.061,0.055,0.27,0.243,0.244c0.235-0.197,0.432-0.434,0.77-0.527c0.017,0.132,0.035,0.262,0.162,0.283
	c0.277-0.183,0.466-0.453,0.852-0.526c0.064,0.11,0.025,0.325,0.12,0.405c0.262-0.187,0.491-0.401,0.933-0.405
	c0.013,0.122-0.044,0.315,0.081,0.323c0.269-0.149,0.506-0.332,0.932-0.323c-0.004,0.125,0.02,0.224,0.081,0.282
	c0.355-0.049,0.623-0.187,1.013-0.201c-0.011,0.158,0.017,0.281,0.122,0.324c0.316-0.115,0.735-0.129,1.174-0.123
	c0.032,0.091,0.024,0.221,0.122,0.244c0.798,0.026,1.182-0.002,2.026,0C45.907,37.368,45.242,37.594,44.638,37.881"/>
</svg>
