<svg id="Menu-Flyout" xmlns="http://www.w3.org/2000/svg" viewBox="0 0 194 29"><defs><style>.cls-1{fill:#616161;}.cls-2{fill:#494949;}.cls-3,.cls-6{fill:#fff;}.cls-4{fill:#6a6a6a;}.cls-5{fill:#388bb4;}.cls-6{font-size:12px;font-family:Lato-Bold, Lato;font-weight:700;}</style></defs><title>onoff</title><rect class="cls-1" width="97.5" height="29"/><path class="cls-2" d="M97,81.5v29h1v-29Z" transform="translate(0 -81.5)"/><rect class="cls-1" x="96.5" width="97.5" height="29"/><path class="cls-2" d="M96,81.5v29h1v-29Z" transform="translate(0 -81.5)"/><polygon class="cls-1" points="49.88 29 0 29 0 0 38.17 0 49.88 29"/><polygon class="cls-3" points="194 0 194 29 148.64 29 136.92 0 194 0"/><polygon class="cls-4" points="49.88 29 0 29 0 0 38.17 0 49.88 29"/><polygon class="cls-5" points="194 0 194 29 148.64 29 136.92 0 194 0"/><text class="cls-6" transform="translate(10.03 18.59)">OFF</text><text class="cls-6" transform="translate(161.03 18.59)">ON</text></svg>