<?xml version="1.0" encoding="utf-8"?>
<!-- Generator: Adobe Illustrator 16.0.0, SVG Export Plug-In . SVG Version: 6.00 Build 0)  -->
<!DOCTYPE svg PUBLIC "-//W3C//DTD SVG 1.1//EN" "http://www.w3.org/Graphics/SVG/1.1/DTD/svg11.dtd">
<svg version="1.1" id="Layer_1" xmlns="http://www.w3.org/2000/svg" xmlns:xlink="http://www.w3.org/1999/xlink" x="0px" y="0px"
	 width="93.313px" height="100.359px" viewBox="0 0 93.313 100.359" enable-background="new 0 0 93.313 100.359"
	 xml:space="preserve">
<path fill="#F4C42E" d="M34.846,70.216c-1.277-0.957-3.065-0.701-4.023,0.575c-4.79,6.343-12.091,9.983-20.031,9.983H2.874
	C1.278,80.775,0,82.052,0,83.649c0,1.596,1.278,2.874,2.874,2.874h7.94c4.917,0,9.621-1.128,13.964-3.342
	c4.15-2.108,7.832-5.193,10.643-8.941C36.357,72.985,36.123,71.174,34.846,70.216"/>
<path fill="#F4C42E" d="M42.956,29.816c0.532,0.404,1.15,0.596,1.766,0.596c0.852,0,1.703-0.383,2.278-1.105
	c4.791-6.173,12.005-9.707,19.796-9.707h16.709l-8.918,8.919c-1.129,1.128-1.129,2.937,0,4.065c0.553,0.553,1.297,0.852,2.022,0.852
	c0.724,0,1.468-0.277,2.021-0.852l13.836-13.836c1.129-1.129,1.129-2.938,0-4.065L78.63,0.846c-1.127-1.128-2.937-1.128-4.065,0
	c-1.127,1.128-1.127,2.937,0,4.066l8.92,8.918h-16.71c-9.579,0-18.455,4.343-24.351,11.942C41.488,27.049,41.7,28.837,42.956,29.816
	"/>
<path fill="#F4C42E" d="M78.653,67.791c-1.129-1.129-2.938-1.129-4.065,0c-1.129,1.128-1.129,2.938,0,4.065l8.918,8.919H66.796
	c-13.814,0-25.054-11.239-25.054-25.053V44.653c0-16.987-13.814-30.801-30.8-30.801h-7.94c-1.597,0-2.874,1.277-2.874,2.873
	c0,1.597,1.277,2.874,2.874,2.874h7.94c13.814,0,25.053,11.239,25.053,25.054v11.069c0,16.985,13.814,30.801,30.801,30.801h16.709
	l-8.918,8.918c-1.129,1.129-1.129,2.937,0,4.065c0.553,0.554,1.298,0.853,2.022,0.853c0.724,0,1.468-0.277,2.021-0.853L92.467,85.67
	c1.129-1.129,1.129-2.937,0-4.065L78.653,67.791z"/>
</svg>
