<?xml version="1.0" encoding="utf-8"?>
<!-- Generator: Adobe Illustrator 16.0.0, SVG Export Plug-In . SVG Version: 6.00 Build 0)  -->
<!DOCTYPE svg PUBLIC "-//W3C//DTD SVG 1.1//EN" "http://www.w3.org/Graphics/SVG/1.1/DTD/svg11.dtd">
<svg version="1.1" id="Layer_1" xmlns="http://www.w3.org/2000/svg" xmlns:xlink="http://www.w3.org/1999/xlink" x="0px" y="0px"
	 width="40.652px" height="40.652px" viewBox="0 0 40.652 40.652" enable-background="new 0 0 40.652 40.652" xml:space="preserve">
<g>
	<path fill="#1683C6" d="M25.422,17.805c-0.428,0.53-0.75,0.918-0.971,1.137c-0.22,0.22-0.518,0.505-0.893,0.854
		s-0.686,0.646-0.943,0.905c-0.259,0.259-0.466,0.478-0.621,0.659c-0.401,0.492-0.608,1.19-0.608,2.082v1.487h0.013h-0.013h-3.775
		v-2.043c0-0.892,0.103-1.564,0.323-1.991c0.207-0.44,0.672-1.009,1.397-1.72l2.443-2.444c0.517-0.556,0.776-1.254,0.776-2.081
		c0-0.828-0.271-1.513-0.803-2.056c-0.543-0.543-1.228-0.828-2.081-0.828c-0.854,0-1.552,0.259-2.134,0.789
		c-0.569,0.53-0.905,1.228-0.995,2.095h-4.06c0.219-1.991,0.995-3.543,2.327-4.668s2.987-1.694,4.978-1.694s3.607,0.543,4.861,1.629
		c1.255,1.086,1.875,2.599,1.875,4.539C26.52,15.8,26.158,16.912,25.422,17.805 M21.373,31.64c-0.491,0.491-1.099,0.737-1.797,0.737
		c-0.698,0-1.306-0.246-1.823-0.725c-0.517-0.479-0.776-1.061-0.776-1.746c0-0.685,0.246-1.267,0.75-1.758
		c0.504-0.492,1.112-0.736,1.81-0.736c0.699,0,1.306,0.244,1.824,0.724c0.517,0.478,0.762,1.06,0.762,1.745
		C22.123,30.566,21.878,31.148,21.373,31.64 M40.652,20.326C40.652,9.103,31.549,0,20.326,0C9.103,0,0,9.103,0,20.326
		s9.103,20.326,20.326,20.326c3.518,0,6.827-0.892,9.711-2.47l10.615,2.47l-2.471-10.616C39.76,27.153,40.652,23.843,40.652,20.326"
		/>
</g>
</svg>
