<?xml version="1.0" encoding="UTF-8" standalone="no"?>
<svg
   xmlns:dc="http://purl.org/dc/elements/1.1/"
   xmlns:cc="http://creativecommons.org/ns#"
   xmlns:rdf="http://www.w3.org/1999/02/22-rdf-syntax-ns#"
   xmlns:svg="http://www.w3.org/2000/svg"
   xmlns="http://www.w3.org/2000/svg"
   viewBox="0 0 50.666668 52"
   height="52"
   width="50.666668"
   xml:space="preserve"
   id="svg2"
   version="1.1"><metadata
     id="metadata8"><rdf:RDF><cc:Work
         rdf:about=""><dc:format>image/svg+xml</dc:format><dc:type
           rdf:resource="http://purl.org/dc/dcmitype/StillImage" /></cc:Work></rdf:RDF></metadata><defs
     id="defs6"><clipPath
       id="clipPath20"
       clipPathUnits="userSpaceOnUse"><path
         id="path18"
         d="m 0,6.08984 h 380 v 380 H 0 Z" /></clipPath></defs><g
     transform="matrix(1.3333333,0,0,-1.3333333,0,52)"
     id="g10"><g
       transform="scale(0.1)"
       id="g12"><g
         id="g14"><g
           clip-path="url(#clipPath20)"
           id="g16"><path
             id="path22"
             style="fill:#942b88;fill-opacity:1;fill-rule:nonzero;stroke:none"
             d="m 363.238,179.691 -193.75,193.547 c -8.547,8.563 -20.308,13.133 -32.379,12.852 L 35.3086,383.48 C 17.3008,383.012 2.80859,368.512 2.37891,350.512 L 0,248.828 C -0.269531,236.762 4.48828,225.191 13.0508,216.641 L 206.801,23.0898 C 224.02,5.85938 251.949,5.51172 269.18,22.7695 l 94.101,94.1795 c 17.231,17.231 17.188,45.512 -0.043,62.742 z M 69.1797,267.66 c -13.5586,13.512 -13.5899,35.461 -0.0391,49.02 13.5196,13.55 35.5074,13.55 49.0194,0.039 13.559,-13.559 13.559,-35.508 0.039,-49.028 -13.551,-13.55 -35.4998,-13.55 -49.0193,-0.031 z m 65.4293,-59.262 c -4.839,4.762 -8.359,10.704 -9.41,14.372 l 9.723,5.98 c 1.25,-3.828 3.906,-9.059 7.969,-13.051 4.379,-4.328 8.48,-4.801 11.211,-2.07 2.617,2.66 2.07,6.133 -1.211,12.973 -4.61,9.339 -5.352,17.738 0.738,23.867 7.109,7.222 18.562,6.793 28.519,-3.047 4.731,-4.692 7.262,-9.141 8.672,-12.731 l -9.73,-5.632 c -0.891,2.461 -2.731,6.64 -6.871,10.742 -4.141,4.07 -8.008,4.179 -10.16,1.961 -2.649,-2.703 -1.438,-6.211 1.992,-13.672 4.687,-10.121 4.379,-17.469 -1.481,-23.399 -6.992,-7.07 -18.398,-7.703 -29.961,3.707 z m 46.172,-44.339 7.418,14.062 -12.109,11.957 -13.668,-7.887 -9.922,9.758 54.57,29.492 12.539,-12.382 -28.558,-55.118 z m 12.809,-12.618 41.64,42.231 9.61,-9.453 -33.789,-34.219 16.801,-16.559 -7.891,-8.011 z m 88.871,-19.839 -16.481,16.25 -8.64,-8.75 15.512,-15.352 -7.653,-7.77 -15.551,15.348 -9.878,-10.039 17.339,-17.109 -7.699,-7.8519 -26.949,26.6019 41.68,42.23 26.058,-25.75 z" /><path
             id="path24"
             style="fill:#942b88;fill-opacity:1;fill-rule:nonzero;stroke:none"
             d="m 184.531,195.82 9.34,-9.179 11.988,21.91 C 202.77,206.68 184.531,195.82 184.531,195.82 Z" /></g></g></g></g></svg>