<?xml version="1.0" encoding="utf-8"?>
<!-- Generator: Adobe Illustrator 22.1.0, SVG Export Plug-In . SVG Version: 6.00 Build 0)  -->
<svg version="1.1"
	 id="svg2" xmlns:cc="http://creativecommons.org/ns#" xmlns:dc="http://purl.org/dc/elements/1.1/" xmlns:rdf="http://www.w3.org/1999/02/22-rdf-syntax-ns#" xmlns:svg="http://www.w3.org/2000/svg"
	 xmlns="http://www.w3.org/2000/svg" xmlns:xlink="http://www.w3.org/1999/xlink" x="0px" y="0px" viewBox="0 0 50.7 52"
	 style="enable-background:new 0 0 50.7 52;" xml:space="preserve">
<style type="text/css">
	.st0{fill:#FFFFFF;}
	.st1{fill:#942B88;}
</style>
<rect x="19.2" y="14.2" transform="matrix(0.7071 -0.7071 0.7071 0.7071 -12.5009 27.669)" class="st0" width="15.8" height="29.5"/>
<path id="path22" class="st1" d="M48.4,28L22.6,2.2c-1.1-1.1-2.7-1.7-4.3-1.7L4.7,0.9c-2.4,0.1-4.3,2-4.4,4.4L0,18.8
	c0,1.6,0.6,3.1,1.7,4.3l25.8,25.8c2.3,2.3,6,2.3,8.3,0l12.5-12.6C50.7,34.1,50.7,30.3,48.4,28z M9.2,16.3c-1.8-1.8-1.8-4.7,0-6.5
	C11,8,14,8,15.8,9.8c1.8,1.8,1.8,4.7,0,6.5C13.9,18.1,11,18.1,9.2,16.3z M17.9,24.2c-0.6-0.6-1.1-1.4-1.3-1.9l1.3-0.8
	c0.2,0.5,0.5,1.2,1.1,1.7c0.6,0.6,1.1,0.6,1.5,0.3c0.3-0.4,0.3-0.8-0.2-1.7c-0.6-1.2-0.7-2.4,0.1-3.2c0.9-1,2.5-0.9,3.8,0.4
	c0.6,0.6,1,1.2,1.2,1.7l-1.3,0.7c-0.1-0.3-0.4-0.9-0.9-1.4c-0.5-0.5-1.1-0.6-1.4-0.3c-0.3,0.4-0.2,0.8,0.3,1.8
	c0.6,1.3,0.6,2.3-0.2,3.1C21,25.7,19.5,25.7,17.9,24.2z M24.1,30.1l1-1.9l-1.6-1.6l-1.8,1.1l-1.3-1.3l7.3-3.9l1.7,1.7l-3.8,7.3
	L24.1,30.1z M25.8,31.8l5.5-5.6l1.3,1.3L28.1,32l2.2,2.2l-1.1,1.1L25.8,31.8z M37.7,34.5l-2.2-2.2l-1.1,1.2l2.1,2.1l-1,1l-2.1-2
	L32,35.8l2.3,2.3l-1,1.1l-3.6-3.5l5.6-5.6l3.5,3.4L37.7,34.5z"/>
<path id="path24" class="st1" d="M24.6,25.9l1.2,1.2l1.6-2.9C27,24.4,24.6,25.9,24.6,25.9z"/>
</svg>
