<?xml version="1.0" encoding="utf-8"?>
<!-- Generator: Adobe Illustrator 16.0.0, SVG Export Plug-In . SVG Version: 6.00 Build 0)  -->
<!DOCTYPE svg PUBLIC "-//W3C//DTD SVG 1.1//EN" "http://www.w3.org/Graphics/SVG/1.1/DTD/svg11.dtd">
<svg version="1.1" id="Layer_1" xmlns="http://www.w3.org/2000/svg" xmlns:xlink="http://www.w3.org/1999/xlink" x="0px" y="0px"
	 width="38.98px" height="34.9px" viewBox="0 0 38.98 34.9" enable-background="new 0 0 38.98 34.9" xml:space="preserve">
<g>
	<g enable-background="new    ">
		<path fill="#363736" d="M30.799,34.9H26.36c-0.64,0-1.217-0.087-1.73-0.26c-0.513-0.174-0.983-0.494-1.41-0.96L18.98,29
			c-0.68,0.188-1.377,0.327-2.09,0.42c-0.713,0.094-1.457,0.141-2.23,0.141c-2.187,0-4.18-0.37-5.98-1.11
			c-1.8-0.74-3.344-1.77-4.63-3.09s-2.283-2.883-2.99-4.69C0.353,18.863,0,16.9,0,14.78s0.353-4.083,1.06-5.89
			c0.707-1.807,1.703-3.37,2.99-4.69s2.83-2.35,4.63-3.09C10.48,0.37,12.473,0,14.66,0c1.466,0,2.846,0.17,4.14,0.51
			c1.293,0.341,2.48,0.82,3.56,1.44s2.05,1.373,2.91,2.26s1.59,1.877,2.19,2.971c0.6,1.093,1.056,2.279,1.371,3.56
			c0.313,1.28,0.469,2.627,0.469,4.04c0,1.293-0.133,2.53-0.399,3.71s-0.649,2.283-1.15,3.31c-0.5,1.027-1.11,1.971-1.83,2.83
			c-0.72,0.86-1.54,1.617-2.46,2.271L30.799,34.9z M5.5,14.78c0,1.587,0.213,3.01,0.64,4.27c0.426,1.261,1.037,2.327,1.83,3.2
			c0.793,0.874,1.753,1.544,2.88,2.01c1.126,0.468,2.396,0.7,3.81,0.7c1.413,0,2.683-0.232,3.81-0.7
			c1.126-0.466,2.083-1.136,2.87-2.01c0.787-0.873,1.393-1.939,1.82-3.2c0.426-1.26,0.64-2.683,0.64-4.27s-0.213-3.01-0.64-4.271
			c-0.427-1.26-1.034-2.329-1.82-3.21c-0.787-0.88-1.743-1.553-2.87-2.02c-1.127-0.467-2.397-0.7-3.81-0.7
			c-1.414,0-2.684,0.233-3.81,0.7C9.723,5.747,8.763,6.42,7.97,7.3c-0.793,0.881-1.404,1.95-1.83,3.21
			C5.713,11.771,5.5,13.193,5.5,14.78z"/>
		<path fill="#363736" d="M32.92,12.26c0-0.413,0.076-0.806,0.229-1.18c0.153-0.373,0.362-0.693,0.63-0.96
			c0.267-0.267,0.586-0.479,0.96-0.64c0.373-0.16,0.772-0.24,1.2-0.24c0.426,0,0.822,0.08,1.189,0.24s0.688,0.373,0.961,0.64
			c0.272,0.267,0.489,0.587,0.649,0.96c0.16,0.374,0.24,0.767,0.24,1.18c0,0.428-0.08,0.824-0.24,1.19
			c-0.16,0.367-0.377,0.684-0.649,0.95c-0.273,0.267-0.594,0.477-0.961,0.63s-0.764,0.229-1.189,0.229
			c-0.428,0-0.827-0.076-1.2-0.229c-0.374-0.153-0.693-0.363-0.96-0.63c-0.268-0.267-0.477-0.583-0.63-0.95
			C32.997,13.084,32.92,12.688,32.92,12.26z M32.92,26.521c0-0.413,0.076-0.807,0.229-1.181c0.153-0.373,0.362-0.692,0.63-0.96
			c0.267-0.267,0.586-0.479,0.96-0.64c0.373-0.16,0.772-0.24,1.2-0.24c0.426,0,0.822,0.08,1.189,0.24s0.688,0.373,0.961,0.64
			c0.272,0.268,0.489,0.587,0.649,0.96c0.16,0.374,0.24,0.768,0.24,1.181c0,0.427-0.08,0.823-0.24,1.189
			c-0.16,0.367-0.377,0.684-0.649,0.95c-0.273,0.267-0.594,0.477-0.961,0.63s-0.764,0.23-1.189,0.23c-0.428,0-0.827-0.077-1.2-0.23
			c-0.374-0.153-0.693-0.363-0.96-0.63c-0.268-0.267-0.477-0.583-0.63-0.95C32.997,27.344,32.92,26.947,32.92,26.521z"/>
	</g>
</g>
</svg>
