<?xml version="1.0" encoding="utf-8"?>
<!-- Generator: Adobe Illustrator 16.0.0, SVG Export Plug-In . SVG Version: 6.00 Build 0)  -->
<!DOCTYPE svg PUBLIC "-//W3C//DTD SVG 1.1//EN" "http://www.w3.org/Graphics/SVG/1.1/DTD/svg11.dtd">
<svg version="1.1" id="Layer_1" xmlns="http://www.w3.org/2000/svg" xmlns:xlink="http://www.w3.org/1999/xlink" x="0px" y="0px"
	 width="69.531px" height="162.014px" viewBox="0 0 69.531 162.014" enable-background="new 0 0 69.531 162.014"
	 xml:space="preserve">
<g>
	<path fill="#1383C6" d="M64.322,14.284l-9.694,9.337c-0.188,0.187-0.437,0.28-0.686,0.28c-0.248,0-0.497-0.094-0.684-0.28
		l-9.71-9.368C43.424,14.145,40,11.017,40,7.283C40,2.723,42.785,0,47.438,0c2.723,0,5.274,2.146,6.504,3.361
		C55.172,2.146,57.724,0,60.446,0c4.653,0,7.438,2.723,7.438,7.283C67.886,11.017,64.462,14.145,64.322,14.284z M60.446,1.992
		c-2.318,0-4.933,2.506-5.741,3.47c-0.374,0.452-1.152,0.452-1.525,0c-0.81-0.965-3.424-3.47-5.741-3.47
		c-2.491,0-5.448,0.917-5.448,5.291c0,2.847,2.88,5.493,2.911,5.524l9.04,8.714l9.025-8.698c0.047-0.047,2.925-2.692,2.925-5.54
		C65.893,2.909,62.938,1.992,60.446,1.992z"/>
</g>
<g>
	<g>
		<path fill="#1383C6" d="M51.135,11.561c2.064,0,2.064-3.201,0-3.201C49.071,8.359,49.07,11.561,51.135,11.561L51.135,11.561z"/>
	</g>
</g>
<g>
	<g>
		<path fill="#1383C6" d="M55.189,6.653c0.036-0.374,0.071-0.748,0.106-1.121c0.122-1.275-1.43-1.906-2.407-1.383
			c-1.607,0.862-1.848,2.195-2.869,3.563c0.995,0.269,1.988,0.539,2.983,0.808c-0.24-2.843,0.515-6.509-3.206-7.058
			c-3.426-0.505-7.362-1.325-8.047,3.005c-0.307,1.937,1.006,8.833,4.5,6.462c1.838-1.247,3.921-5.564,1.484-7.239
			c-3.119-2.144-4.945,2.283-3.508,4.701c1.585,2.668,6.11,0.104,7.144-1.852c1.456-2.758-1.492-4.976-3.786-2.897
			c-1.119,1.014-0.685,2.725,0.008,3.792c0.616,0.69,0.818,1.558,0.604,2.605c-0.483,0.84-1.181,0.89-2.093,0.146
			c-0.427-0.647-0.805-1.183-1.412-1.678c-0.646,0.839-1.293,1.676-1.938,2.514c1.294,0.58,2.387,0.884,3.808,0.961
			c1.645,0.089,3.117-1.248,4.618-1.687c1.169-0.341,2.273-0.614,3.385-1.122c1.442-0.66,2.013-2.814,3.559-3.122
			c1.703-0.339,4.344-0.299,4.163-2.707c-0.183-2.41-3.025-1.813-4.533-1.33c0.412,0.975,0.822,1.951,1.233,2.925
			c1.354-0.837,2.841-0.618,3.657,0.744c1.279,2.134,1.061,4.37-1.005,5.935c0.803,0.461,1.605,0.922,2.408,1.383
			c-0.307-3.091,2.28-7.243-1.179-9.42c-2.219-1.395-3.915,1.105-5.964,1.096c-2.165-0.01-3.799,0.375-4.061,2.775
			c-0.07,0.646,0.535,1.437,1.175,1.544c2.653,0.443,4.902-0.699,7.521-0.744c-0.515-0.675-1.028-1.351-1.544-2.026
			C59.5,7.813,55.19,7.095,53.865,7.229c-1.823,0.184-3.824,0.722-4.646,2.511c-0.38,0.829-0.156,2.191,0.957,2.351
			c1.826,0.262,3.247,0.008,5.012-0.533c0.635-0.194,4.354-1.262,5.115-0.748c-0.265-0.46-0.528-0.921-0.793-1.382
			c0.196,1.52-1.221,0.926-2.081,0.804c-1.294-0.185-2.461-0.14-3.732,0.106c-1.816,0.354-3.351,0.842-5.244,0.829
			c-1.153-0.007-2.131,0.373-3.14,0.879c-1.182,0.594-0.977,2.694,0.383,2.926c4.757,0.806,10.07,0.36,14.882,0.217
			c-0.461-0.803-0.921-1.606-1.382-2.409c-1.196,2.385-8.915,0.858-11.048,0.648c-1.04-0.103-1.814,1.098-1.543,2.026
			c1.281,4.385,8.497,4.337,11.891,3.626c2.02-0.424,1.163-3.509-0.852-3.087c-1.777,0.373-3.337,0.406-5.123,0.053
			c-0.584-0.115-2.632-0.767-2.829-1.443c-0.515,0.676-1.028,1.351-1.544,2.027c3.843,0.378,11.614,2.146,13.813-2.233
			c0.521-1.039-0.102-2.446-1.382-2.409c-4.476,0.133-9.608,0.646-14.032-0.104c0.127,0.975,0.255,1.951,0.383,2.925
			c1.523-0.765,3.104-0.211,4.693-0.56c1.871-0.41,3.503-1.139,5.473-0.858c2.179,0.31,3.7,0.595,5.007-1.436
			c0.923-1.435,1.021-3.796-0.968-4.343c-3.293-0.906-6.867,1.856-10.106,1.392c0.318,0.784,0.638,1.567,0.956,2.351
			c0.793-1.726,5.312-0.941,6.801-1.062c2.105-0.17,3.663-1.185,4.298-3.215c0.308-0.987-0.528-2.043-1.544-2.026
			c-2.213,0.037-4.476,1.224-6.67,0.856c0.392,0.515,0.785,1.029,1.175,1.544c-0.085,0.782,2.343,0.359,2.627,0.263
			c0.933-0.316,2.732-2.037,2.836-0.488c0.131,1.943-0.852,3.848-0.661,5.774c0.105,1.054,1.337,2.193,2.409,1.382
			c3.56-2.695,4.229-6.42,2.152-10.314c-1.611-3.016-5.105-3.704-8.038-1.891c-1.509,0.933-0.541,3.494,1.233,2.925
			c0.419-0.143,0.844-0.268,1.273-0.375c-0.264-0.46-0.528-0.92-0.792-1.382c0.012,0.142,0.021,0.285,0.032,0.428
			c0.264-0.462,0.528-0.922,0.793-1.383c-1.611,1.153-4.329,0.022-5.448,2.173c-0.954,1.835-2.3,2.183-4.134,2.648
			c-2.133,0.539-3.41,2.189-5.96,1.047c-1.523-0.682-3.462,1.275-1.938,2.513c1.929,1.568,2.088,3.048,4.968,3.095
			c2.335,0.038,3.993-1.958,4.059-4.174c0.039-1.311-0.063-2.562-0.903-3.631c-1.585-2.013-2.177-0.859-3.341-0.073
			c-0.567,0.154-1.138,0.309-1.707,0.463c-0.143,1.059-0.378,0.883-0.704-0.524c-0.124-1.968,0.773-1.798,2.336-1.466
			c0.313,0.067,2.458,0.128,2.492,0.208c0.454,1.109,0.074,2.67,0.173,3.85c0.14,1.655,2.022,2.094,2.982,0.808
			c0.586-0.785,0.791-1.915,1.721-2.413c-0.803-0.461-1.606-0.922-2.409-1.382c-0.035,0.373-0.07,0.747-0.106,1.121
			C51.794,8.708,54.996,8.689,55.189,6.653L55.189,6.653z"/>
	</g>
</g>
<g>
	<g>
		<path fill="#1383C6" d="M55.399,20.203c-0.788,0.384-0.931,0.563-0.423,0.534c-0.462-0.802-0.921-1.605-1.383-2.408
			c-0.145,0.209-0.332,0.386-0.545,0.515c1.452,0.386,1.849,0.355,1.191-0.093c-0.29-0.231-0.543-0.451-0.798-0.721
			c-0.399-0.419-0.68-0.973-0.979-1.462c-0.256-0.417-0.16-1.043-0.25-1.506c-0.233-1.188-0.787-2.071-2.071-2.187
			c-1.044-0.093-1.736,1.023-2.096,1.827c0.922,0,1.842,0,2.764,0c0.019,0.003,0.036,0.006,0.054,0.009
			c-0.139-0.862-1.196-1.329-1.969-1.118c-0.907,0.25-1.256,1.108-1.117,1.969c0.044,0.271,0.158,0.505,0.269,0.756
			c0.464,1.052,2.297,1.044,2.764,0c0.064-0.154,0.136-0.306,0.214-0.454c0.313-0.457,0.062-0.382-0.756,0.225
			c-0.378-0.156-0.756-0.313-1.133-0.469c-0.122-0.105,0.006,0.648,0.022,0.81c0.063,0.645,0.252,1.18,0.541,1.757
			c0.48,0.952,1.202,1.893,1.988,2.607c0.673,0.611,1.488,1.311,2.463,1.042c0.939-0.258,1.68-1.123,2.207-1.889
			c0.729-1.059-0.259-2.353-1.382-2.409c-1.296-0.064-2.249,0.596-2.664,1.815C51.646,21.31,54.738,22.145,55.399,20.203
			L55.399,20.203z"/>
	</g>
</g>
<g>
	<g>
		<path fill="#1383C6" d="M40.626,5.853c-0.16,1.505,0.32,3.597,1.805,4.315c0.786,0.38,1.725,0.222,2.19-0.575
			c0.415-0.708,0.211-1.809-0.574-2.189c-0.152-0.083-0.144-0.063,0.026,0.063c-0.288-0.232,0.147,0.266-0.06-0.067
			c-0.08-0.16-0.084-0.156-0.012,0.014c-0.053-0.132-0.089-0.271-0.125-0.409c-0.023-0.093-0.043-0.188-0.06-0.283
			c0.069,0.361-0.004-0.079-0.009-0.137c-0.017-0.244-0.008-0.49,0.018-0.732c0.093-0.87-0.798-1.601-1.601-1.601
			C41.284,4.252,40.719,4.986,40.626,5.853L40.626,5.853z"/>
	</g>
</g>
<g>
	<g>
		<path fill="#1383C6" d="M47.461,8.675c0.887-0.476,1.757-0.968,2.613-1.493c-0.729-0.73-1.458-1.46-2.189-2.19
			c-0.815,1.282-1.921,2.549-1.334,4.167c0.355,0.977,1.395,1.489,2.351,0.956c1.473-0.818,1.537-2.585,1.054-4.031
			c-0.624-1.869-2.45-2.644-4.262-2.792c0.46,0.803,0.922,1.605,1.382,2.409c0.059-0.088,0.118-0.175,0.177-0.263
			c1.249-1.25-0.456-3.632-1.939-2.513c-1.151,0.866-2.48,1.708-2.709,3.25c0.891-0.235,1.783-0.47,2.675-0.706
			c-0.636-0.774,1.913-0.64,1.961-0.636c0.761,0.066,1.724,0.01,2.193,0.689c0.892,1.289,1.056,3.184,1.114,4.706
			c0.08,2.057,3.281,2.065,3.201,0c-0.111-2.884-0.74-7.444-4.108-8.264c-2.054-0.5-4.637-0.841-6.325,0.64
			c-1.532,1.342-1.51,3.652-0.299,5.129c0.718,0.878,2.504,0.445,2.674-0.707c0.097-0.649,0.742-0.963,1.237-1.337
			c-0.646-0.838-1.292-1.676-1.938-2.514c-0.29,0.288-0.497,0.542-0.678,0.91c-0.556,1.138,0.132,2.306,1.383,2.408
			c0.533,0.043,0.908,0.144,1.231,0.594c0.047,0.15,0.086,0.302,0.116,0.456c-0.044,0.409,0.038,0.345,0.245-0.192
			c0.782,0.319,1.566,0.638,2.351,0.957c-0.141-0.388,0.792-1.354,1.013-1.701c0.865-1.36-0.84-3.017-2.189-2.189
			c-0.857,0.525-1.729,1.018-2.613,1.493C44.026,6.886,45.643,9.65,47.461,8.675L47.461,8.675z"/>
	</g>
</g>
<g>
	<g>
		<path fill="#1383C6" d="M62.285,1.265c-2.203-0.086-6.163-0.768-6.879,2.134c-0.258,1.05,0.492,1.969,1.544,2.027
			c0.634,0.034,1.231-0.052,1.866-0.054c-0.377-0.91-0.754-1.821-1.131-2.732C56.527,4,54.614,4.302,53.647,5.952
			c-0.571,0.974-0.413,1.266-1.739,1.375c-0.995,0.081-2.017-0.062-3.014-0.087c-2.065-0.054-2.06,3.147,0,3.201
			c2.122,0.055,4.187,0.321,6.114-0.75c1.044-0.582,0.98-1.588,1.653-2.42c0.845-1.048,2.387-1.312,3.287-2.367
			c0.872-1.024,0.35-2.737-1.133-2.732c-0.635,0.002-1.232,0.089-1.866,0.054c0.514,0.675,1.028,1.35,1.543,2.025
			c-0.317,0.307-0.209,0.348,0.327,0.125c0.518-0.065,1.051-0.036,1.567-0.024c0.634,0.014,1.265,0.089,1.897,0.114
			C64.351,4.546,64.342,1.346,62.285,1.265L62.285,1.265z"/>
	</g>
</g>
<g>
	<g>
		<path fill="#1383C6" d="M57.366,10.323c-0.667,0.819-1.411,1.58-1.916,2.515c-0.659,1.217-0.579,2.618-0.741,3.952
			c-0.105,0.868,0.809,1.601,1.6,1.601c0.953,0,1.496-0.734,1.602-1.601c0.091-0.74-0.004-1.646,0.304-2.336
			c0.315-0.712,0.931-1.271,1.415-1.867c0.549-0.677,0.664-1.6,0-2.264C59.059,9.752,57.916,9.644,57.366,10.323L57.366,10.323z"/>
	</g>
</g>
<g>
	<path fill="#B3B2B2" d="M10.156,109.267c0,0.077-0.018,0.148-0.021,0.225l7.981,3.989c0.683-0.578,1.557-0.94,2.522-0.94
		c2.171,0,3.931,1.76,3.931,3.932c0,2.174-1.76,3.934-3.931,3.934c-2.173,0-3.931-1.76-3.931-3.934c0-0.078,0.018-0.148,0.021-0.225
		l-7.979-3.99c-0.686,0.576-1.559,0.938-2.524,0.938c-2.17,0-3.93-1.757-3.93-3.929s1.76-3.932,3.93-3.932
		c0.966,0,1.839,0.362,2.524,0.939l7.979-3.989c-0.004-0.077-0.021-0.147-0.021-0.227c0-2.169,1.758-3.929,3.931-3.929
		c2.171,0,3.931,1.76,3.931,3.929c0,2.174-1.76,3.933-3.931,3.933c-0.968,0-1.84-0.363-2.522-0.941l-7.981,3.991
		C10.139,109.116,10.156,109.188,10.156,109.267"/>
</g>
<g>
	<path fill="#B3B2B2" d="M4.568,50.768c0-0.719-0.583-1.302-1.303-1.302c-0.718,0-1.302,0.583-1.302,1.302v23.583
		c0,0.718,0.583,1.303,1.302,1.303c0.72,0,1.303-0.585,1.303-1.303v-10.31c0,0.001,0,0.001,0,0.001L4.568,50.768z"/>
	<path fill="#B3B2B2" d="M21.872,56.596c-0.227-0.305-0.225-0.714,0.006-0.991c1.232-1.471,2.498-2.677,3.693-3.64
		c1.054-0.849-0.32-1.467-0.629-1.597c-6.273-2.641-12.542,2.887-18.812,1.203V64.62c6.28,1.685,12.56-3.867,18.837-1.191
		c0.307,0.13,0.588,0.098,0.723-0.106c0.135-0.202,0.101-0.549-0.088-0.89C24.36,60.184,23.116,58.279,21.872,56.596"/>
</g>
<g>
	<path fill="#1383C6" d="M43.733,51.15c0-0.679-0.551-1.229-1.23-1.229s-1.23,0.551-1.23,1.229v22.272c0,0.678,0.551,1.23,1.23,1.23
		s1.23-0.553,1.23-1.23v-9.736c0,0.001,0,0.001,0,0.001V51.15z"/>
	<path fill="#1383C6" d="M60.075,56.654c-0.213-0.287-0.211-0.674,0.006-0.936c1.164-1.39,2.359-2.528,3.488-3.438
		c0.996-0.802-0.302-1.385-0.594-1.508c-5.925-2.495-11.846,2.726-17.766,1.136v12.323c5.93,1.591,11.861-3.652,17.791-1.125
		c0.289,0.122,0.555,0.092,0.681-0.101c0.127-0.191,0.096-0.519-0.082-0.841C62.426,60.042,61.251,58.243,60.075,56.654"/>
</g>
<g>
	<path fill="#6FC414" d="M65.969,152.396l-9.694,9.338c-0.188,0.187-0.437,0.28-0.686,0.28c-0.248,0-0.497-0.094-0.684-0.28
		l-9.71-9.367c-0.125-0.109-3.549-3.237-3.549-6.971c0-4.561,2.785-7.283,7.438-7.283c2.723,0,5.274,2.146,6.504,3.361
		c1.229-1.215,3.781-3.361,6.504-3.361c4.653,0,7.438,2.723,7.438,7.283C69.532,149.129,66.108,152.257,65.969,152.396z
		 M62.093,140.104c-2.318,0-4.933,2.506-5.741,3.469c-0.374,0.452-1.152,0.452-1.525,0c-0.81-0.965-3.424-3.469-5.741-3.469
		c-2.491,0-5.448,0.917-5.448,5.291c0,2.847,2.88,5.492,2.911,5.523l9.04,8.714l9.025-8.698c0.047-0.047,2.925-2.692,2.925-5.539
		C67.539,141.021,64.584,140.104,62.093,140.104z"/>
</g>
<g>
	<g>
		<path fill="#6FC414" d="M52.781,149.673c2.064,0,2.064-3.201,0-3.201C50.718,146.472,50.717,149.673,52.781,149.673
			L52.781,149.673z"/>
	</g>
</g>
<g>
	<g>
		<path fill="#6FC414" d="M56.836,144.765c0.036-0.373,0.071-0.747,0.106-1.12c0.122-1.274-1.43-1.906-2.407-1.383
			c-1.607,0.862-1.848,2.195-2.869,3.563c0.995,0.269,1.988,0.539,2.983,0.808c-0.24-2.842,0.515-6.509-3.206-7.057
			c-3.426-0.506-7.362-1.326-8.047,3.004c-0.307,1.938,1.006,8.834,4.5,6.463c1.838-1.246,3.921-5.564,1.484-7.238
			c-3.119-2.145-4.945,2.282-3.508,4.701c1.585,2.668,6.11,0.104,7.144-1.852c1.456-2.758-1.492-4.977-3.786-2.897
			c-1.119,1.015-0.685,2.726,0.008,3.792c0.616,0.689,0.818,1.558,0.604,2.604c-0.483,0.84-1.181,0.89-2.093,0.146
			c-0.427-0.647-0.805-1.183-1.412-1.678c-0.646,0.839-1.293,1.677-1.938,2.514c1.294,0.579,2.387,0.884,3.808,0.961
			c1.645,0.089,3.117-1.248,4.618-1.687c1.169-0.342,2.273-0.614,3.385-1.122c1.442-0.659,2.013-2.814,3.559-3.122
			c1.703-0.34,4.344-0.299,4.163-2.707c-0.183-2.41-3.025-1.813-4.533-1.33c0.412,0.975,0.822,1.951,1.233,2.926
			c1.354-0.838,2.841-0.618,3.657,0.743c1.279,2.134,1.061,4.37-1.005,5.935c0.803,0.461,1.605,0.922,2.408,1.383
			c-0.307-3.091,2.28-7.243-1.179-9.42c-2.219-1.395-3.915,1.105-5.964,1.096c-2.165-0.01-3.799,0.375-4.061,2.775
			c-0.07,0.646,0.535,1.438,1.175,1.544c2.653,0.443,4.902-0.699,7.521-0.743c-0.515-0.676-1.028-1.352-1.544-2.026
			c-0.494,1.586-4.804,0.868-6.129,1.001c-1.823,0.184-3.824,0.723-4.646,2.511c-0.38,0.829-0.156,2.191,0.957,2.351
			c1.826,0.262,3.247,0.008,5.012-0.533c0.635-0.194,4.354-1.262,5.115-0.748c-0.265-0.46-0.528-0.921-0.793-1.381
			c0.196,1.52-1.221,0.926-2.081,0.804c-1.294-0.185-2.461-0.14-3.732,0.106c-1.816,0.354-3.351,0.842-5.244,0.828
			c-1.153-0.007-2.131,0.373-3.14,0.879c-1.182,0.595-0.977,2.695,0.383,2.927c4.757,0.806,10.07,0.36,14.882,0.218
			c-0.461-0.803-0.921-1.606-1.382-2.409c-1.196,2.386-8.915,0.858-11.048,0.647c-1.04-0.102-1.814,1.099-1.543,2.026
			c1.281,4.385,8.497,4.337,11.891,3.626c2.02-0.424,1.163-3.51-0.852-3.088c-1.777,0.373-3.337,0.406-5.123,0.053
			c-0.584-0.114-2.632-0.766-2.829-1.442c-0.515,0.677-1.028,1.351-1.544,2.026c3.843,0.379,11.614,2.146,13.813-2.232
			c0.521-1.039-0.102-2.446-1.382-2.408c-4.476,0.133-9.608,0.646-14.032-0.104c0.127,0.975,0.255,1.95,0.383,2.925
			c1.523-0.765,3.104-0.211,4.693-0.56c1.871-0.41,3.503-1.139,5.473-0.859c2.179,0.311,3.7,0.596,5.007-1.436
			c0.923-1.435,1.021-3.797-0.968-4.344c-3.293-0.906-6.867,1.856-10.106,1.393c0.318,0.783,0.638,1.566,0.956,2.35
			c0.793-1.726,5.312-0.941,6.801-1.061c2.105-0.17,3.663-1.186,4.298-3.216c0.308-0.987-0.528-2.043-1.544-2.026
			c-2.213,0.037-4.476,1.225-6.67,0.857c0.392,0.515,0.785,1.028,1.175,1.543c-0.085,0.782,2.343,0.359,2.627,0.264
			c0.933-0.316,2.732-2.037,2.836-0.488c0.131,1.943-0.852,3.848-0.661,5.773c0.105,1.055,1.337,2.193,2.409,1.382
			c3.56-2.694,4.229-6.42,2.152-10.314c-1.611-3.016-5.105-3.704-8.038-1.891c-1.509,0.933-0.541,3.493,1.233,2.925
			c0.419-0.143,0.844-0.268,1.273-0.375c-0.264-0.461-0.528-0.92-0.792-1.382c0.012,0.142,0.021,0.284,0.032,0.428
			c0.264-0.462,0.528-0.922,0.793-1.383c-1.611,1.153-4.329,0.022-5.448,2.173c-0.954,1.836-2.3,2.184-4.134,2.648
			c-2.133,0.539-3.41,2.189-5.96,1.047c-1.523-0.682-3.462,1.275-1.938,2.514c1.929,1.568,2.088,3.048,4.968,3.095
			c2.335,0.038,3.993-1.958,4.059-4.174c0.039-1.312-0.063-2.562-0.903-3.631c-1.585-2.013-2.177-0.859-3.341-0.073
			c-0.567,0.154-1.138,0.309-1.707,0.464c-0.143,1.059-0.378,0.884-0.704-0.524c-0.124-1.969,0.773-1.799,2.336-1.466
			c0.313,0.067,2.458,0.128,2.492,0.208c0.454,1.109,0.074,2.67,0.173,3.85c0.14,1.655,2.022,2.095,2.982,0.809
			c0.586-0.785,0.791-1.916,1.721-2.414c-0.803-0.461-1.606-0.922-2.409-1.382c-0.035,0.373-0.07,0.747-0.106,1.12
			C53.44,146.819,56.643,146.802,56.836,144.765L56.836,144.765z"/>
	</g>
</g>
<g>
	<g>
		<path fill="#6FC414" d="M57.046,158.315c-0.788,0.384-0.931,0.563-0.423,0.533c-0.462-0.803-0.921-1.605-1.383-2.408
			c-0.145,0.21-0.332,0.387-0.545,0.516c1.452,0.386,1.849,0.355,1.191-0.093c-0.29-0.231-0.543-0.451-0.798-0.722
			c-0.399-0.418-0.68-0.973-0.979-1.461c-0.256-0.418-0.16-1.044-0.25-1.507c-0.233-1.188-0.787-2.071-2.071-2.187
			c-1.044-0.094-1.736,1.023-2.096,1.826c0.922,0,1.842,0,2.764,0c0.019,0.004,0.036,0.006,0.054,0.009
			c-0.139-0.862-1.196-1.329-1.969-1.118c-0.907,0.251-1.256,1.109-1.117,1.97c0.044,0.271,0.158,0.505,0.269,0.756
			c0.464,1.052,2.297,1.044,2.764,0c0.064-0.153,0.136-0.306,0.214-0.454c0.313-0.457,0.062-0.382-0.756,0.225
			c-0.378-0.156-0.756-0.313-1.133-0.469c-0.122-0.105,0.006,0.648,0.022,0.81c0.063,0.646,0.252,1.18,0.541,1.757
			c0.48,0.951,1.202,1.893,1.988,2.607c0.673,0.611,1.488,1.311,2.463,1.041c0.939-0.258,1.68-1.123,2.207-1.889
			c0.729-1.059-0.259-2.352-1.382-2.408c-1.296-0.064-2.249,0.596-2.664,1.815C53.293,159.423,56.385,160.257,57.046,158.315
			L57.046,158.315z"/>
	</g>
</g>
<g>
	<g>
		<path fill="#6FC414" d="M42.272,143.966c-0.16,1.505,0.32,3.596,1.805,4.314c0.786,0.381,1.725,0.223,2.19-0.574
			c0.415-0.707,0.211-1.809-0.574-2.189c-0.152-0.084-0.144-0.063,0.026,0.063c-0.288-0.232,0.147,0.266-0.06-0.067
			c-0.08-0.159-0.084-0.156-0.012,0.014c-0.053-0.132-0.089-0.271-0.125-0.409c-0.023-0.093-0.043-0.188-0.06-0.282
			c0.069,0.361-0.004-0.079-0.009-0.137c-0.017-0.244-0.008-0.489,0.018-0.731c0.093-0.87-0.798-1.602-1.601-1.602
			C42.931,142.364,42.365,143.099,42.272,143.966L42.272,143.966z"/>
	</g>
</g>
<g>
	<g>
		<path fill="#6FC414" d="M49.107,146.787c0.887-0.476,1.757-0.968,2.613-1.493c-0.729-0.73-1.458-1.46-2.189-2.189
			c-0.815,1.281-1.921,2.549-1.334,4.166c0.355,0.977,1.395,1.489,2.351,0.957c1.473-0.818,1.537-2.586,1.054-4.031
			c-0.624-1.869-2.45-2.644-4.262-2.792c0.46,0.803,0.922,1.605,1.382,2.409c0.059-0.088,0.118-0.176,0.177-0.264
			c1.249-1.25-0.456-3.633-1.939-2.513c-1.151,0.866-2.48,1.708-2.709,3.249c0.891-0.234,1.783-0.47,2.675-0.705
			c-0.636-0.774,1.913-0.641,1.961-0.637c0.761,0.066,1.724,0.01,2.193,0.689c0.892,1.289,1.056,3.185,1.114,4.706
			c0.08,2.057,3.281,2.065,3.201,0c-0.111-2.884-0.74-7.444-4.108-8.265c-2.054-0.499-4.637-0.841-6.325,0.641
			c-1.532,1.342-1.51,3.652-0.299,5.129c0.718,0.877,2.504,0.445,2.674-0.707c0.097-0.649,0.742-0.963,1.237-1.337
			c-0.646-0.838-1.292-1.676-1.938-2.514c-0.29,0.288-0.497,0.542-0.678,0.909c-0.556,1.139,0.132,2.307,1.383,2.408
			c0.533,0.044,0.908,0.145,1.231,0.595c0.047,0.149,0.086,0.302,0.116,0.456c-0.044,0.408,0.038,0.344,0.245-0.192
			c0.782,0.319,1.566,0.638,2.351,0.956c-0.141-0.387,0.792-1.354,1.013-1.7c0.865-1.36-0.84-3.017-2.189-2.188
			c-0.857,0.524-1.729,1.018-2.613,1.492C45.673,144.999,47.289,147.763,49.107,146.787L49.107,146.787z"/>
	</g>
</g>
<g>
	<g>
		<path fill="#6FC414" d="M63.932,139.378c-2.203-0.086-6.163-0.768-6.879,2.134c-0.258,1.05,0.492,1.97,1.544,2.027
			c0.634,0.034,1.231-0.052,1.866-0.054c-0.377-0.91-0.754-1.821-1.131-2.732c-1.158,1.359-3.071,1.661-4.038,3.312
			c-0.571,0.974-0.413,1.267-1.739,1.375c-0.995,0.081-2.017-0.062-3.014-0.087c-2.065-0.054-2.06,3.147,0,3.201
			c2.122,0.055,4.187,0.321,6.114-0.75c1.044-0.582,0.98-1.588,1.653-2.42c0.845-1.048,2.387-1.312,3.287-2.367
			c0.872-1.024,0.35-2.736-1.133-2.732c-0.635,0.002-1.232,0.089-1.866,0.054c0.514,0.675,1.028,1.351,1.543,2.025
			c-0.317,0.308-0.209,0.348,0.327,0.125c0.518-0.065,1.051-0.036,1.567-0.024c0.634,0.015,1.265,0.09,1.897,0.115
			C65.997,142.658,65.988,139.458,63.932,139.378L63.932,139.378z"/>
	</g>
</g>
<g>
	<g>
		<path fill="#6FC414" d="M59.013,148.435c-0.667,0.819-1.411,1.58-1.916,2.516c-0.659,1.217-0.579,2.617-0.741,3.951
			c-0.105,0.867,0.809,1.601,1.6,1.601c0.953,0,1.496-0.734,1.602-1.601c0.091-0.74-0.004-1.646,0.304-2.336
			c0.315-0.713,0.931-1.271,1.415-1.867c0.549-0.676,0.664-1.6,0-2.264C60.705,147.864,59.563,147.756,59.013,148.435
			L59.013,148.435z"/>
	</g>
</g>
<g>
	<path fill="#0083CB" d="M48.407,109.933c0,0.078-0.018,0.148-0.021,0.225l7.981,3.99c0.683-0.578,1.557-0.941,2.522-0.941
		c2.171,0,3.931,1.76,3.931,3.932c0,2.174-1.76,3.934-3.931,3.934c-2.173,0-3.931-1.76-3.931-3.934c0-0.078,0.018-0.148,0.021-0.225
		l-7.979-3.99c-0.686,0.576-1.559,0.939-2.524,0.939c-2.17,0-3.93-1.758-3.93-3.93s1.76-3.932,3.93-3.932
		c0.966,0,1.839,0.363,2.524,0.939l7.979-3.988c-0.004-0.078-0.021-0.148-0.021-0.227c0-2.17,1.758-3.93,3.931-3.93
		c2.171,0,3.931,1.76,3.931,3.93c0,2.174-1.76,3.932-3.931,3.932c-0.968,0-1.84-0.363-2.522-0.941l-7.981,3.992
		C48.39,109.782,48.407,109.854,48.407,109.933"/>
</g>
<g>
	<path fill="#B2B1B1" d="M24.322,14.284l-9.694,9.337c-0.188,0.187-0.437,0.28-0.686,0.28c-0.248,0-0.497-0.094-0.684-0.28
		l-9.71-9.368C3.424,14.145,0,11.017,0,7.283C0,2.723,2.785,0,7.438,0c2.723,0,5.274,2.146,6.504,3.361
		C15.172,2.146,17.724,0,20.446,0c4.653,0,7.438,2.723,7.438,7.283C27.886,11.017,24.462,14.145,24.322,14.284z M20.446,1.992
		c-2.318,0-4.933,2.506-5.741,3.47c-0.374,0.452-1.152,0.452-1.525,0c-0.81-0.965-3.424-3.47-5.741-3.47
		c-2.491,0-5.448,0.917-5.448,5.291c0,2.847,2.88,5.493,2.911,5.524l9.04,8.714l9.025-8.698c0.047-0.047,2.925-2.692,2.925-5.54
		C25.893,2.909,22.938,1.992,20.446,1.992z"/>
</g>
</svg>
