<?xml version="1.0" encoding="utf-8"?>
<!-- Generator: Adobe Illustrator 16.0.0, SVG Export Plug-In . SVG Version: 6.00 Build 0)  -->
<!DOCTYPE svg PUBLIC "-//W3C//DTD SVG 1.1//EN" "http://www.w3.org/Graphics/SVG/1.1/DTD/svg11.dtd">
<svg version="1.1" id="Layer_1" xmlns="http://www.w3.org/2000/svg" xmlns:xlink="http://www.w3.org/1999/xlink" x="0px" y="0px"
	 width="47.925px" height="41.116px" viewBox="0 0 47.925 41.116" enable-background="new 0 0 47.925 41.116" xml:space="preserve">
<path fill="#C178B2" d="M47.566,13.03L20.411,0.063c-0.315-0.152-0.694-0.02-0.846,0.296l-5.909,12.362h3.219l4.338-9.085
	l23.542,11.245l-7.359,15.405l-4.149-1.978v8.144l2.55,1.219c0.317,0.152,0.695,0.014,0.848-0.301l11.219-23.493
	C48.015,13.56,47.881,13.182,47.566,13.03"/>
<path fill="#C178B2" d="M30.729,14.218H0.639C0.291,14.218,0,14.5,0,14.849v26.037c0,0.353,0.291,0.637,0.639,0.637h30.09
	c0.347,0,0.63-0.284,0.63-0.637V14.849C31.365,14.5,31.075,14.218,30.729,14.218 M28.992,34.173h-1.907
	c-1.111-2.846-2.48-6.837-4.558-6.307c-2.431,0.626-3.644,6.307-3.644,6.307s-1.244-6.415-4.679-9.843
	c-3.434-3.434-6.756,9.843-6.756,9.843H2.904V17.097h26.088V34.173z"/>
</svg>
