<svg xmlns="http://www.w3.org/2000/svg" width="50" height="36" viewBox="0 0 50 36">
  <metadata><?xpacket begin="﻿" id="W5M0MpCehiHzreSzNTczkc9d"?>
<x:xmpmeta xmlns:x="adobe:ns:meta/" x:xmptk="Adobe XMP Core 5.6-c142 79.160924, 2017/07/13-01:06:39        ">
   <rdf:RDF xmlns:rdf="http://www.w3.org/1999/02/22-rdf-syntax-ns#">
      <rdf:Description rdf:about=""/>
   </rdf:RDF>
</x:xmpmeta>
                                                                                                    
                                                                                                    
                                                                                                    
                                                                                                    
                                                                                                    
                                                                                                    
                                                                                                    
                                                                                                    
                                                                                                    
                                                                                                    
                                                                                                    
                                                                                                    
                                                                                                    
                                                                                                    
                                                                                                    
                                                                                                    
                                                                                                    
                                                                                                    
                                                                                                    
                                                                                                    
                           
<?xpacket end="w"?></metadata>
<defs>
    <style>
      .cls-1 {
        fill: #7bc344;
        fill-rule: evenodd;
      }
    </style>
  </defs>
  <path class="cls-1" d="M31.842,0a3,3,0,0,0-3.028,2.913V4.195C27.244,5.751,23.482,8.41,17.2,10.312c-4.33,1.31-11.87,2.057-13.246,2.184a2.1,2.1,0,0,0-.208-0.27A2.161,2.161,0,0,0,.056,13.7L0,22.417a2.145,2.145,0,0,0,.625,1.53,2.18,2.18,0,0,0,1.527.656H2.166a2.2,2.2,0,0,0,1.524-.644,7.415,7.415,0,0,0,1.045,3.059,7.656,7.656,0,0,0,4.738,3.466,7.861,7.861,0,0,0,1.906.231,7.608,7.608,0,0,0,7.032-4.635,28.916,28.916,0,0,1,10.4,5.726v1.282a3.03,3.03,0,0,0,6.055,0V2.912A3,3,0,0,0,31.842,0h0ZM2.166,23.906h0Zm9.213,2.285a3.184,3.184,0,0,1-.772-0.1,3.094,3.094,0,0,1-1.913-1.4A3,3,0,0,1,8.386,24c1.718,0.224,3.7.52,5.546,0.886a3.126,3.126,0,0,1-2.553,1.31h0Zm0,0M47.608,10.261a2.331,2.331,0,0,0-3.2-.578,2.234,2.234,0,0,0-.589,3.144,8.883,8.883,0,0,1,1.577,5.147,9,9,0,0,1-1.6,5.188,2.234,2.234,0,0,0,.568,3.148,2.333,2.333,0,0,0,3.207-.559A13.32,13.32,0,0,0,50,17.973a13.319,13.319,0,0,0-2.391-7.712h0Zm0,0-5.851,2.491a2.33,2.33,0,0,0-3.2-.578,2.233,2.233,0,0,0-.589,3.143,4.785,4.785,0,0,1-.014,5.353,2.233,2.233,0,0,0,.569,3.147,2.33,2.33,0,0,0,3.206-.558,9.231,9.231,0,0,0,.032-10.507h0Zm0,0"/>
</svg>
