<?xml version="1.0" encoding="utf-8"?>
<!-- Generator: Adobe Illustrator 16.0.0, SVG Export Plug-In . SVG Version: 6.00 Build 0)  -->
<!DOCTYPE svg PUBLIC "-//W3C//DTD SVG 1.1//EN" "http://www.w3.org/Graphics/SVG/1.1/DTD/svg11.dtd">
<svg version="1.1" id="Layer_1" xmlns="http://www.w3.org/2000/svg" xmlns:xlink="http://www.w3.org/1999/xlink" x="0px" y="0px"
	 width="86.053px" height="63.182px" viewBox="0 0 86.053 63.182" enable-background="new 0 0 86.053 63.182" xml:space="preserve">
<path fill="#FFFFFF" d="M54.836,0c-2.819,0-5.216,2.293-5.216,5.112v2.253c-2.704,2.731-9.182,7.397-20.006,10.735
	c-7.458,2.299-20.443,3.609-22.812,3.832c-0.119-0.166-0.213-0.326-0.358-0.473c-0.7-0.709-1.615-1.102-2.633-1.109
	c-2.041,0-3.704,1.661-3.718,3.702L0,39.342c-0.006,0.996,0.377,1.977,1.077,2.684c0.7,0.709,1.633,1.152,2.629,1.152h0.023
	c1.022,0,1.95-0.46,2.625-1.13c0.2,1.881,0.803,3.694,1.8,5.368c1.817,3.054,4.714,5.208,8.16,6.083
	c1.075,0.272,2.179,0.405,3.282,0.405c5.411,0,10.058-3.264,12.109-8.135c9.554,3.272,15.211,7.503,17.915,10.049v2.25
	c0,2.819,2.396,5.113,5.216,5.113s5.213-2.294,5.213-5.113V5.112C60.051,2.293,57.656,0,54.836,0 M3.729,41.956v0.002V41.956z
	 M19.596,45.966c-0.445,0-0.893-0.056-1.33-0.168c-1.393-0.353-2.562-1.228-3.295-2.459c-0.232-0.392-0.405-0.802-0.53-1.226
	c2.96,0.392,6.368,0.912,9.551,1.554C23.01,45.076,21.39,45.966,19.596,45.966"/>
<path fill="#FFFFFF" d="M81.988,18.009c-1.243-1.803-3.714-2.257-5.517-1.014c-1.803,1.244-2.257,3.713-1.016,5.516
	c1.779,2.578,2.717,5.701,2.717,9.033c0,3.319-0.98,6.551-2.763,9.103c-1.257,1.797-0.816,4.271,0.979,5.525
	c0.692,0.482,1.483,0.714,2.269,0.714c1.25,0,2.484-0.59,3.255-1.694c2.743-3.928,4.193-8.648,4.193-13.647
	C86.107,26.598,84.683,21.917,81.988,18.009"/>
<path fill="#FFFFFF" d="M71.911,22.381c-1.245-1.805-3.714-2.258-5.517-1.014c-1.805,1.242-2.257,3.713-1.015,5.516
	c0.901,1.307,1.397,2.969,1.397,4.679c0,1.729-0.505,3.403-1.422,4.716c-1.256,1.795-0.817,4.268,0.979,5.522
	c0.692,0.483,1.484,0.716,2.27,0.716c1.25,0,2.481-0.592,3.253-1.695c1.867-2.67,2.853-5.871,2.853-9.259
	C74.708,28.213,73.742,25.037,71.911,22.381"/>
</svg>
