<?xml version="1.0" encoding="utf-8"?>
<!-- Generator: Adobe Illustrator 16.0.0, SVG Export Plug-In . SVG Version: 6.00 Build 0)  -->
<!DOCTYPE svg PUBLIC "-//W3C//DTD SVG 1.1//EN" "http://www.w3.org/Graphics/SVG/1.1/DTD/svg11.dtd">
<svg version="1.1" id="Layer_1" xmlns="http://www.w3.org/2000/svg" xmlns:xlink="http://www.w3.org/1999/xlink" x="0px" y="0px"
	 width="47.925px" height="41.117px" viewBox="0 0 47.925 41.117" enable-background="new 0 0 47.925 41.117" xml:space="preserve">
<path fill="#FFFFFF" d="M47.566,12.903L20.411,0.063c-0.315-0.15-0.694-0.02-0.846,0.293l-5.909,12.241h3.219L21.213,3.6
	l23.542,11.135l-7.359,15.255l-4.148-1.96v8.065l2.549,1.207c0.317,0.15,0.695,0.013,0.849-0.298l11.219-23.264
	C48.015,13.427,47.88,13.053,47.566,12.903"/>
<path fill="#FFFFFF" d="M30.729,14.079H0.639C0.291,14.079,0,14.358,0,14.704v25.782c0,0.351,0.291,0.631,0.639,0.631h30.09
	c0.347,0,0.63-0.28,0.63-0.631V14.704C31.365,14.358,31.076,14.079,30.729,14.079 M28.992,33.839h-1.906
	c-1.111-2.818-2.48-6.771-4.559-6.245c-2.431,0.619-3.644,6.245-3.644,6.245s-1.244-6.354-4.679-9.748
	c-3.434-3.4-6.756,9.748-6.756,9.748H2.904V16.93h26.088V33.839z"/>
</svg>
