<?xml version="1.0" encoding="utf-8"?>
<!-- Generator: Adobe Illustrator 16.0.0, SVG Export Plug-In . SVG Version: 6.00 Build 0)  -->
<!DOCTYPE svg PUBLIC "-//W3C//DTD SVG 1.1//EN" "http://www.w3.org/Graphics/SVG/1.1/DTD/svg11.dtd">
<svg version="1.1" id="Layer_1" xmlns="http://www.w3.org/2000/svg" xmlns:xlink="http://www.w3.org/1999/xlink" x="0px" y="0px"
	 width="35px" height="35.003px" viewBox="0 0 35 35.003" enable-background="new 0 0 35 35.003" xml:space="preserve">
<g>
	<path fill="#363736" d="M0.011,0v6.707c15.582,0,28.26,12.701,28.26,28.292H35C34.999,15.699,19.3,0,0.011,0"/>
	<path fill="#363736" d="M0,11.888v6.707c4.369,0,8.481,1.709,11.565,4.809c3.098,3.084,4.795,7.207,4.795,11.6h6.738
		C23.101,22.259,12.741,11.888,0,11.888"/>
	<path fill="#363736" d="M4.657,25.664c-2.563,0-4.656,2.095-4.656,4.646c0,2.574,2.094,4.646,4.656,4.646
		c2.584,0,4.667-2.07,4.667-4.646C9.324,27.757,7.24,25.664,4.657,25.664"/>
</g>
</svg>
