<?xml version="1.0" encoding="utf-8"?>
<!-- Generator: Adobe Illustrator 16.0.0, SVG Export Plug-In . SVG Version: 6.00 Build 0)  -->
<!DOCTYPE svg PUBLIC "-//W3C//DTD SVG 1.1//EN" "http://www.w3.org/Graphics/SVG/1.1/DTD/svg11.dtd">
<svg version="1.1" id="Layer_1" xmlns="http://www.w3.org/2000/svg" xmlns:xlink="http://www.w3.org/1999/xlink" x="0px" y="0px"
	 width="47.131px" height="41.894px" viewBox="0 0 47.131 41.894" enable-background="new 0 0 47.131 41.894" xml:space="preserve">
<path fill="#353635" d="M19.638,0L19.638,0c10.845,0,19.636,7.115,19.636,15.892c0,8.777-8.791,15.892-19.636,15.892
	c-1.042,0-2.064-0.065-3.062-0.192c-4.218,4.202-9.089,4.955-13.958,5.065v-1.027c2.629-1.283,4.746-3.62,4.746-6.29
	c0-0.373-0.029-0.739-0.083-1.097C2.84,25.329,0,20.879,0,15.892C0,7.115,8.792,0,19.638,0 M40.748,35.622
	c0,2.289,1.485,4.291,3.765,5.391v0.882c-4.22-0.095-8.093-0.741-11.748-4.342c-0.865,0.108-1.75,0.165-2.654,0.165
	c-3.905,0-7.503-1.055-10.375-2.824c5.919-0.021,11.507-1.918,15.745-5.346c2.136-1.729,3.822-3.758,5.009-6.029
	c1.258-2.408,1.896-4.974,1.896-7.626c0-0.428-0.018-0.853-0.051-1.276c2.969,2.453,4.798,5.795,4.798,9.479
	c0,4.274-2.462,8.089-6.311,10.587C40.774,34.989,40.748,35.302,40.748,35.622"/>
</svg>
