<?xml version="1.0" encoding="utf-8"?>
<!-- Generator: Adobe Illustrator 16.0.0, SVG Export Plug-In . SVG Version: 6.00 Build 0)  -->
<!DOCTYPE svg PUBLIC "-//W3C//DTD SVG 1.1//EN" "http://www.w3.org/Graphics/SVG/1.1/DTD/svg11.dtd">
<svg version="1.1" id="Layer_1" xmlns="http://www.w3.org/2000/svg" xmlns:xlink="http://www.w3.org/1999/xlink" x="0px" y="0px"
	 width="59.971px" height="56.517px" viewBox="0 0 59.971 56.517" enable-background="new 0 0 59.971 56.517" xml:space="preserve">
<path fill="#1881C4" d="M38.987,0H7.129C3.201,0,0,3.201,0,7.128v19.64c0,3.928,3.201,7.128,7.129,7.128v9.237l11.274-9.237h20.584
	c3.928,0,7.128-3.2,7.128-7.128V7.128C46.116,3.201,42.915,0,38.987,0 M9.82,21.604c-2.451,0-4.437-1.986-4.437-4.438
	c0-2.45,1.986-4.437,4.437-4.437c2.45,0,4.437,1.986,4.437,4.437C14.257,19.617,12.27,21.604,9.82,21.604 M23.058,21.604
	c-2.451,0-4.437-1.986-4.437-4.438c0-2.45,1.986-4.437,4.437-4.437c2.45,0,4.437,1.986,4.437,4.437
	C27.495,19.617,25.508,21.604,23.058,21.604 M36.223,21.604c-2.45,0-4.437-1.986-4.437-4.438c0-2.45,1.987-4.437,4.437-4.437
	s4.437,1.986,4.437,4.437C40.66,19.617,38.673,21.604,36.223,21.604"/>
<path fill="#1881C4" d="M52.843,13.312h-5.819v14.184c0,3.927-3.199,7.128-7.127,7.128H19.313l-5.456,4.469v1.06
	c0,3.927,3.201,7.128,7.129,7.128h20.584l11.274,9.237v-9.237c3.929,0,7.128-3.201,7.128-7.128v-19.64
	C59.971,16.584,56.772,13.384,52.843,13.312"/>
</svg>
