<?xml version="1.0" encoding="utf-8"?>
<!-- Generator: Adobe Illustrator 16.0.0, SVG Export Plug-In . SVG Version: 6.00 Build 0)  -->
<!DOCTYPE svg PUBLIC "-//W3C//DTD SVG 1.1//EN" "http://www.w3.org/Graphics/SVG/1.1/DTD/svg11.dtd">
<svg version="1.1" id="Layer_1" xmlns="http://www.w3.org/2000/svg" xmlns:xlink="http://www.w3.org/1999/xlink" x="0px" y="0px"
	 width="30.935px" height="41.783px" viewBox="0 0 30.935 41.783" enable-background="new 0 0 30.935 41.783" xml:space="preserve">
<g>
	<g>
		<defs>
			<rect id="SVGID_1_" width="30.935" height="41.783"/>
		</defs>
		<clipPath id="SVGID_2_">
			<use xlink:href="#SVGID_1_"  overflow="visible"/>
		</clipPath>
		<path clip-path="url(#SVGID_2_)" fill="#353535" d="M30.811,18.849l-2.034-2.783c-0.127-0.179-0.136-0.426-0.008-0.604l1.99-2.807
			c0.179-0.256,0.094-0.613-0.178-0.758l-3.037-1.625c-0.197-0.103-0.308-0.323-0.265-0.544l0.57-3.396
			c0.051-0.306-0.179-0.596-0.494-0.604l-3.437-0.146c-0.222-0.008-0.418-0.161-0.477-0.374L22.49,1.892
			c-0.085-0.299-0.417-0.459-0.706-0.332l-3.166,1.36c-0.204,0.085-0.442,0.034-0.595-0.127l-2.297-2.561
			c-0.213-0.23-0.57-0.23-0.783,0.008L12.68,2.835c-0.145,0.17-0.383,0.223-0.587,0.137L8.911,1.661
			c-0.29-0.119-0.613,0.042-0.698,0.34l-0.91,3.318c-0.06,0.213-0.247,0.366-0.468,0.383L3.398,5.898
			C3.083,5.915,2.861,6.204,2.913,6.511l0.621,3.387c0.042,0.221-0.069,0.441-0.256,0.544l-3.011,1.668
			c-0.273,0.153-0.349,0.51-0.171,0.757l2.034,2.782c0.127,0.179,0.136,0.426,0.008,0.604l-1.991,2.809
			c-0.178,0.255-0.093,0.612,0.179,0.757l3.038,1.625c0.195,0.103,0.306,0.324,0.263,0.545l-0.57,3.395
			c-0.051,0.307,0.179,0.596,0.494,0.604l3.437,0.144c0.221,0.01,0.417,0.162,0.476,0.375l0.962,3.31
			c0.085,0.298,0.417,0.46,0.706,0.332l3.165-1.361c0.204-0.085,0.443-0.034,0.596,0.127l2.297,2.563
			c0.213,0.229,0.57,0.229,0.783-0.01l2.263-2.595c0.145-0.17,0.382-0.221,0.587-0.136l3.183,1.31
			c0.289,0.119,0.611-0.042,0.697-0.34l0.91-3.317c0.059-0.214,0.247-0.366,0.469-0.384l3.437-0.195
			c0.315-0.018,0.536-0.307,0.485-0.612l-0.621-3.387c-0.043-0.222,0.067-0.442,0.254-0.544l3.013-1.668
			C30.921,19.46,30.998,19.104,30.811,18.849 M15.462,25.203c-5.147,0-9.342-4.195-9.342-9.342c0-5.147,4.195-9.342,9.342-9.342
			c5.148,0,9.342,4.194,9.342,9.342C24.804,21.018,20.61,25.203,15.462,25.203"/>
	</g>
	<path fill="#353535" d="M23.876,31.244c-0.494,0.502-1.184,0.8-1.923,0.8c-0.263,0-0.527-0.043-0.774-0.111l-2.195-0.663
		l-1.693,1.549c-0.059,0.051-0.109,0.102-0.169,0.145l2.722,8.44c0.094,0.298,0.477,0.366,0.672,0.119l1.983-2.544
		c0.093-0.129,0.263-0.18,0.407-0.138l3.089,0.902c0.298,0.086,0.571-0.195,0.478-0.484L23.876,31.244z"/>
	<path fill="#353535" d="M11.948,31.27l-2.195,0.664c-0.255,0.076-0.511,0.109-0.775,0.109c-0.739,0-1.42-0.298-1.922-0.799
		l-2.595,8.023c-0.094,0.297,0.179,0.569,0.476,0.484l3.089-0.901c0.153-0.042,0.314,0.008,0.408,0.136l1.983,2.544
		c0.187,0.247,0.578,0.178,0.672-0.119l2.722-8.439c-0.059-0.043-0.119-0.095-0.17-0.146L11.948,31.27z"/>
	<path fill="#353535" d="M21,13.538l-3.522-0.255l-1.328-3.266c-0.247-0.614-1.123-0.614-1.37,0l-1.327,3.266l-3.522,0.255
		c-0.664,0.052-0.928,0.877-0.426,1.303l2.697,2.279l-0.842,3.429c-0.161,0.646,0.545,1.158,1.106,0.809l2.995-1.863l2.995,1.863
		c0.563,0.35,1.268-0.162,1.105-0.809L18.72,17.12l2.697-2.279C21.927,14.415,21.664,13.59,21,13.538"/>
</g>
</svg>
