<?xml version="1.0" encoding="utf-8"?>
<!-- Generator: Adobe Illustrator 16.0.0, SVG Export Plug-In . SVG Version: 6.00 Build 0)  -->
<!DOCTYPE svg PUBLIC "-//W3C//DTD SVG 1.1//EN" "http://www.w3.org/Graphics/SVG/1.1/DTD/svg11.dtd">
<svg version="1.1" id="Layer_1" xmlns="http://www.w3.org/2000/svg" xmlns:xlink="http://www.w3.org/1999/xlink" x="0px" y="0px"
	 width="40.542px" height="41.972px" viewBox="285.855 375.13 40.542 41.972" enable-background="new 285.855 375.13 40.542 41.972"
	 xml:space="preserve">
<path fill="#7BC044" d="M322.775,417.098c2,0,3.621-1.622,3.621-3.622v-34.724c0-2-1.621-3.622-3.621-3.622H317.3v21.652
	c0,0.559-0.661,0.851-1.073,0.48l-3.655-3.295c-0.24-0.224-0.617-0.224-0.858,0l-3.656,3.295c-0.411,0.369-1.072,0.077-1.072-0.48
	V375.13H293.81c-1.998,0-3.621,1.622-3.621,3.622v4.548h-1.733c-1.435,0-2.601,1.167-2.601,2.601s1.166,2.601,2.601,2.601h1.733
	v5.012h-1.733c-1.435,0-2.601,1.168-2.601,2.601c0,1.434,1.166,2.601,2.601,2.601h1.733v5.014h-1.733
	c-1.435,0-2.601,1.167-2.601,2.601c0,1.433,1.166,2.6,2.601,2.6h1.733v4.55c0,2,1.623,3.622,3.621,3.622h28.965V417.098z"/>
</svg>
