<?xml version="1.0" encoding="utf-8"?>
<!-- Generator: Adobe Illustrator 16.0.0, SVG Export Plug-In . SVG Version: 6.00 Build 0)  -->
<!DOCTYPE svg PUBLIC "-//W3C//DTD SVG 1.1//EN" "http://www.w3.org/Graphics/SVG/1.1/DTD/svg11.dtd">
<svg version="1.1" id="Layer_1" xmlns="http://www.w3.org/2000/svg" xmlns:xlink="http://www.w3.org/1999/xlink" x="0px" y="0px"
	 width="41.073px" height="42.037px" viewBox="0 0 41.073 42.037" enable-background="new 0 0 41.073 42.037" xml:space="preserve">
<g>
	<path fill="#353535" d="M32.249,22.944c-1.203,0-2.408-0.222-3.593-0.629c-0.823,0.438-1.858,0.771-3.047,0.886
		c-1.202,1.186-0.907,0.887-1.509,1.527h2.08c-0.086,1.842-0.328,3.554-0.687,5.108c-1.555,0.358-3.267,0.601-5.109,0.688v-3.088
		c-0.187-0.76-0.379-2.167,0.083-3.974c0.145-0.581,0.376-1.195,0.675-1.81h-0.758v-5.797c0.889,0.042,1.743,0.123,2.568,0.232
		c-0.178-0.697-0.296-1.419-0.312-2.166c-0.006-0.328,0.019-0.645,0.046-0.963c-0.752-0.081-1.519-0.144-2.302-0.177V7.834
		c0.986,0.509,1.952,1.49,2.806,2.854c0.709-1.898,2.086-3.44,3.996-4.374c-2.517-1.249-5.339-1.97-8.333-1.972h-0.007
		C8.455,4.343,0,12.798,0,23.19v0.005c0.002,10.389,8.456,18.842,18.847,18.842h0.007c10.389-0.004,18.839-8.455,18.84-18.842V23.19
		c0-0.621-0.034-1.237-0.094-1.845C36.035,22.359,34.219,22.944,32.249,22.944 M11.879,9.063c-0.88,1.408-1.629,3.075-2.2,4.96
		c-1.883,0.569-3.55,1.318-4.958,2.198C6.257,13.12,8.778,10.599,11.879,9.063 M8.853,17.582C8.635,18.879,8.5,20.244,8.44,21.653
		H3.493C4.276,20.137,6.154,18.669,8.853,17.582 M8.44,24.729c0.06,1.408,0.195,2.773,0.413,4.07
		c-2.699-1.087-4.579-2.556-5.36-4.07H8.44z M4.722,30.161c1.409,0.88,3.074,1.627,4.958,2.198c0.57,1.883,1.319,3.549,2.198,4.959
		C8.778,35.781,6.258,33.261,4.722,30.161 M17.309,38.543c-1.513-0.783-2.982-2.661-4.07-5.357c1.298,0.218,2.661,0.352,4.07,0.411
		V38.543z M17.309,30.524c-1.843-0.087-3.553-0.329-5.108-0.688c-0.358-1.555-0.6-3.267-0.687-5.108h5.795V30.524z M17.309,21.653
		h-5.795c0.087-1.843,0.329-3.556,0.687-5.11c1.555-0.357,3.265-0.599,5.108-0.687V21.653z M17.309,12.782
		c-1.409,0.06-2.772,0.196-4.07,0.413c1.088-2.697,2.556-4.575,4.07-5.358V12.782z M20.385,38.546v-4.949
		c1.408-0.06,2.773-0.193,4.073-0.411C23.37,35.885,21.9,37.765,20.385,38.546 M25.819,37.315c0.878-1.408,1.626-3.074,2.197-4.956
		c1.883-0.571,3.548-1.318,4.957-2.198C31.437,33.26,28.918,35.779,25.819,37.315 M28.842,28.799
		c0.217-1.297,0.353-2.662,0.412-4.07h4.947C33.42,26.242,31.54,27.712,28.842,28.799"/>
	<path fill="#353535" d="M38.206,0.734C38.028,0.292,37.598,0.002,37.122,0c-0.478-0.002-0.91,0.284-1.092,0.725
		c-0.912,2.196-3.056,4.976-8.046,6.901c-4.446,2.065-4.751,7.609-2.146,10.925c-0.096,0.063-1.064,0.621-2.11,1.657
		c-2.309,2.284-2.648,5.1-2.626,6.677c0.001,0.129,0.093,0.24,0.221,0.266c0.127,0.024,0.255-0.042,0.306-0.162
		c0.425-0.994,1.172-2.494,2.26-3.813l0.002-0.004c0.566-0.708,1.65-1.89,2.891-2.938c0.914-0.888,6.193-4.072,8.688-9.538
		c0.03-0.064,0.104-0.099,0.174-0.077c0.069,0.021,0.112,0.091,0.101,0.161c-1.285,7.663-5.347,10.231-5.519,10.392
		c0.681,0.151,1.358,0.235,2.022,0.235c3.884,0,7.336-2.566,8.57-7.137C41.793,10.662,39.754,4.564,38.206,0.734"/>
</g>
</svg>
