<?xml version="1.0" encoding="utf-8"?>
<!-- Generator: Adobe Illustrator 16.0.0, SVG Export Plug-In . SVG Version: 6.00 Build 0)  -->
<!DOCTYPE svg PUBLIC "-//W3C//DTD SVG 1.1//EN" "http://www.w3.org/Graphics/SVG/1.1/DTD/svg11.dtd">
<svg version="1.1" id="Layer_1" xmlns="http://www.w3.org/2000/svg" xmlns:xlink="http://www.w3.org/1999/xlink" x="0px" y="0px"
	 width="55.256px" height="30.021px" viewBox="0 0 55.256 30.021" enable-background="new 0 0 55.256 30.021" xml:space="preserve">
<path fill="#343434" d="M17.762,4.7c-1.257-0.88-2.786-1.396-4.436-1.396c-4.28,0-7.75,3.471-7.75,7.751
	c0,4.281,3.47,7.751,7.75,7.751c2.729,0,5.127-1.41,6.509-3.541c-1.68-1.845-2.705-4.294-2.705-6.986
	C17.13,7.021,17.353,5.815,17.762,4.7"/>
<path fill="#343434" d="M16.718,20.086c-1.085-0.273-2.221-0.42-3.391-0.42c-6.369,0-11.722,4.311-13.327,10.17h11.443
	C12.016,25.98,13.939,22.563,16.718,20.086"/>
<path fill="#343434" d="M41.929,19.666c-1.225,0-2.41,0.16-3.54,0.459c2.757,2.473,4.663,5.873,5.233,9.711h11.634
	C53.651,23.977,48.298,19.666,41.929,19.666"/>
<path fill="#343434" d="M35.341,15.141c1.367,2.2,3.807,3.665,6.588,3.665c4.281,0,7.75-3.47,7.75-7.75s-3.469-7.751-7.75-7.751
	c-1.717,0-3.305,0.56-4.588,1.504c0.383,1.086,0.592,2.254,0.592,3.471C37.933,10.91,36.954,13.312,35.341,15.141"/>
<path fill="#343434" d="M42.093,29.836c-0.623-3.688-2.611-6.911-5.427-9.131c-0.431-0.338-0.88-0.653-1.345-0.943
	c-2.262-1.406-4.931-2.22-7.79-2.22c-2.824,0-5.462,0.794-7.706,2.169C19.354,20,18.9,20.314,18.464,20.654
	c-2.851,2.222-4.865,5.466-5.493,9.182c-0.01,0.063-0.021,0.124-0.031,0.186h29.184C42.114,29.96,42.103,29.898,42.093,29.836"/>
<path fill="#343434" d="M35.628,6.542c-0.164-0.765-0.433-1.489-0.791-2.159C33.443,1.774,30.695,0,27.531,0
	c-3.111,0-5.821,1.718-7.236,4.256c-0.361,0.647-0.637,1.35-0.815,2.089c-0.148,0.621-0.227,1.268-0.227,1.934
	c0,1.8,0.575,3.466,1.55,4.825c0.438,0.609,0.957,1.157,1.542,1.627c1.419,1.143,3.223,1.828,5.186,1.828
	c2.031,0,3.892-0.733,5.331-1.946c0.588-0.496,1.105-1.071,1.537-1.71c0.891-1.32,1.411-2.911,1.411-4.624
	C35.811,7.684,35.747,7.104,35.628,6.542"/>
</svg>
