<?xml version="1.0" encoding="utf-8"?>
<!-- Generator: Adobe Illustrator 16.0.0, SVG Export Plug-In . SVG Version: 6.00 Build 0)  -->
<!DOCTYPE svg PUBLIC "-//W3C//DTD SVG 1.1//EN" "http://www.w3.org/Graphics/SVG/1.1/DTD/svg11.dtd">
<svg version="1.1" id="Layer_1" xmlns="http://www.w3.org/2000/svg" xmlns:xlink="http://www.w3.org/1999/xlink" x="0px" y="0px"
	 width="90px" height="49.786px" viewBox="260.75 371.25 90 49.786" enable-background="new 260.75 371.25 90 49.786"
	 xml:space="preserve">
<path fill="#1D1D1C" d="M263.953,420.757c2.422-8.841,10.496-15.344,20.105-15.344s17.686,6.503,20.106,15.344h2.189
	c-1.826-7.406-7.223-13.405-14.278-16.031c4.017-2.622,6.675-7.148,6.675-12.302c0-8.114-6.578-14.692-14.692-14.692
	c-8.113,0-14.691,6.578-14.691,14.692c0,5.152,2.658,9.68,6.674,12.302c-7.057,2.626-12.452,8.625-14.278,16.031"/>
<path fill="#010101" d="M272.365,392.424c0-6.458,5.235-11.693,11.693-11.693s11.693,5.235,11.693,11.693
	s-5.235,11.692-11.693,11.692S272.365,398.882,272.365,392.424"/>
<path fill="#F79226" d="M295.752,392.424c0-6.458-5.234-11.693-11.693-11.693c-6.457,0-11.692,5.235-11.692,11.693
	s5.235,11.692,11.692,11.692C290.518,404.116,295.752,398.882,295.752,392.424"/>
<path fill="#F79226" d="M263.953,420.757h40.212c-2.421-8.841-10.497-15.344-20.106-15.344S266.375,411.916,263.953,420.757"/>
<path fill="#1D1D1C" d="M327.21,405.413c9.609,0,17.685,6.503,20.106,15.344h2.188c-1.826-7.406-7.222-13.404-14.277-16.031
	c4.017-2.622,6.675-7.147,6.675-12.302c0-8.114-6.578-14.692-14.692-14.692s-14.692,6.578-14.692,14.692
	c0,5.153,2.66,9.68,6.675,12.302c-7.056,2.627-12.451,8.625-14.277,16.031h2.188C309.525,411.916,317.602,405.413,327.21,405.413
	 M315.518,392.424c0-6.458,5.234-11.693,11.692-11.693s11.693,5.235,11.693,11.693s-5.235,11.692-11.693,11.692
	S315.518,398.882,315.518,392.424"/>
<path fill="#F79226" d="M327.211,405.413c-9.609,0-17.686,6.503-20.105,15.344h40.212
	C344.896,411.916,336.819,405.413,327.211,405.413"/>
<path fill="#F79226" d="M338.904,392.424c0-6.458-5.236-11.693-11.693-11.693c-6.459,0-11.693,5.235-11.693,11.693
	s5.234,11.692,11.693,11.692C333.668,404.116,338.904,398.882,338.904,392.424"/>
<path fill="#1D1D1C" d="M305.49,402.108c11.131,0,20.354,8.161,22.014,18.827h2.287c-1.272-9.023-7.438-16.474-15.736-19.563
	c4.289-2.801,7.129-7.635,7.129-13.14c0-8.667-7.024-15.693-15.692-15.693c-8.666,0-15.693,7.026-15.693,15.693
	c0,5.505,2.841,10.339,7.129,13.14c-8.299,3.09-14.465,10.539-15.736,19.563h2.286C285.137,410.271,294.359,402.108,305.49,402.108
	 M293,388.233c0-6.898,5.592-12.49,12.49-12.49c6.897,0,12.488,5.592,12.488,12.49s-5.591,12.49-12.488,12.49
	C298.592,400.723,293,395.132,293,388.233"/>
<path fill="#F79226" d="M305.49,402.21c-11.131,0-20.354,8.161-22.016,18.826h44.031C325.844,410.371,316.621,402.21,305.49,402.21"
	/>
<path fill="#F79226" d="M317.98,388.233c0-6.898-5.594-12.49-12.49-12.49c-6.898,0-12.489,5.592-12.489,12.49
	s5.591,12.49,12.489,12.49C312.388,400.724,317.98,395.132,317.98,388.233"/>
</svg>
