<?xml version="1.0" encoding="utf-8"?>
<!-- Generator: Adobe Illustrator 16.0.0, SVG Export Plug-In . SVG Version: 6.00 Build 0)  -->
<!DOCTYPE svg PUBLIC "-//W3C//DTD SVG 1.1//EN" "http://www.w3.org/Graphics/SVG/1.1/DTD/svg11.dtd">
<svg version="1.1" id="Layer_1" xmlns="http://www.w3.org/2000/svg" xmlns:xlink="http://www.w3.org/1999/xlink" x="0px" y="0px"
	 width="36.953px" height="38.252px" viewBox="0 0 36.953 38.252" enable-background="new 0 0 36.953 38.252" xml:space="preserve">
<path fill="#353635" d="M33.652,38.252c1.822,0,3.301-1.479,3.301-3.302V3.301C36.953,1.479,35.475,0,33.652,0H28.66v19.735
	c0,0.51-0.602,0.775-0.977,0.438l-3.332-3.003c-0.22-0.204-0.563-0.204-0.783,0l-3.332,3.003c-0.375,0.337-0.978,0.071-0.978-0.438
	V0H7.251C5.429,0,3.95,1.479,3.95,3.301v4.146H2.37C1.064,7.447,0,8.511,0,9.817c0,1.307,1.064,2.371,2.37,2.371h1.58v4.568H2.37
	c-1.306,0-2.37,1.064-2.37,2.37c0,1.307,1.064,2.37,2.37,2.37h1.58v4.569H2.37c-1.306,0-2.37,1.063-2.37,2.369
	c0,1.307,1.064,2.37,2.37,2.37h1.58v4.146c0,1.822,1.479,3.302,3.301,3.302H33.652z"/>
</svg>
