<?xml version="1.0" encoding="utf-8"?>
<!-- Generator: Adobe Illustrator 16.0.0, SVG Export Plug-In . SVG Version: 6.00 Build 0)  -->
<!DOCTYPE svg PUBLIC "-//W3C//DTD SVG 1.1//EN" "http://www.w3.org/Graphics/SVG/1.1/DTD/svg11.dtd">
<svg version="1.1" id="Layer_1" xmlns="http://www.w3.org/2000/svg" xmlns:xlink="http://www.w3.org/1999/xlink" x="0px" y="0px"
	 width="50.786px" height="51.978px" viewBox="280.233 370.988 50.786 51.978"
	 enable-background="new 280.233 370.988 50.786 51.978" xml:space="preserve">
<path fill="#942B88" d="M320.107,399.356c-1.488,0-2.979-0.271-4.443-0.776c-1.018,0.543-2.297,0.954-3.767,1.095
	c-1.487,1.466-1.121,1.099-1.867,1.89h2.573c-0.107,2.276-0.406,4.395-0.849,6.315c-1.923,0.443-4.04,0.743-6.318,0.852v-3.818
	c-0.23-0.939-0.469-2.68,0.104-4.913c0.179-0.718,0.465-1.477,0.835-2.239h-0.938v-7.167c1.099,0.053,2.156,0.153,3.175,0.289
	c-0.22-0.862-0.366-1.754-0.385-2.679c-0.007-0.405,0.022-0.798,0.056-1.191c-0.931-0.1-1.877-0.177-2.846-0.218v-6.119
	c1.219,0.629,2.414,1.843,3.47,3.528c0.877-2.346,2.579-4.253,4.94-5.408c-3.112-1.544-6.601-2.435-10.303-2.437h-0.01
	c-12.85,0-23.303,10.454-23.303,23.304v0.005c0.002,12.846,10.455,23.298,23.303,23.298h0.01
	c12.844-0.005,23.292-10.454,23.294-23.298v-0.005c0-0.769-0.042-1.529-0.114-2.28C324.789,398.633,322.544,399.356,320.107,399.356
	 M294.921,382.194c-1.088,1.741-2.016,3.803-2.721,6.132c-2.329,0.705-4.389,1.63-6.131,2.719
	C287.969,387.21,291.086,384.094,294.921,382.194 M291.179,392.728c-0.27,1.604-0.437,3.292-0.51,5.032h-6.117
	C285.52,395.887,287.843,394.072,291.179,392.728 M290.669,401.563c0.073,1.741,0.24,3.431,0.51,5.033
	c-3.336-1.345-5.661-3.159-6.627-5.033H290.669z M286.071,408.281c1.741,1.088,3.8,2.012,6.13,2.718
	c0.704,2.328,1.632,4.388,2.719,6.13C291.086,415.23,287.971,412.114,286.071,408.281 M301.635,418.646
	c-1.871-0.97-3.688-3.29-5.032-6.624c1.605,0.267,3.29,0.435,5.032,0.509V418.646z M301.635,408.73
	c-2.279-0.107-4.394-0.407-6.317-0.852c-0.44-1.922-0.741-4.039-0.849-6.316h7.166V408.73z M301.635,397.76h-7.166
	c0.107-2.277,0.408-4.394,0.849-6.316c1.924-0.443,4.038-0.742,6.317-0.851V397.76z M301.635,386.793
	c-1.742,0.074-3.427,0.242-5.032,0.51c1.344-3.334,3.16-5.656,5.032-6.624V386.793z M305.438,418.648v-6.118
	c1.741-0.074,3.429-0.242,5.035-0.509C309.129,415.358,307.311,417.683,305.438,418.648 M312.156,417.127
	c1.086-1.741,2.012-3.801,2.717-6.129c2.328-0.705,4.388-1.629,6.129-2.717C319.104,412.113,315.989,415.229,312.156,417.127
	 M315.895,406.597c0.271-1.604,0.437-3.292,0.511-5.032h6.117C321.556,403.436,319.23,405.252,315.895,406.597"/>
<path fill="#942B88" d="M327.472,371.896c-0.22-0.547-0.751-0.905-1.341-0.908c-0.589-0.004-1.123,0.352-1.349,0.896
	c-1.128,2.716-3.778,6.153-9.948,8.534c-5.498,2.554-5.874,9.409-2.653,13.508c-0.118,0.078-1.314,0.769-2.607,2.049
	c-2.855,2.824-3.274,6.306-3.248,8.255c0.002,0.159,0.116,0.298,0.272,0.328c0.157,0.031,0.316-0.052,0.379-0.199
	c0.525-1.229,1.448-3.085,2.796-4.717l0.002-0.003c0.7-0.877,2.039-2.338,3.572-3.633c1.13-1.098,7.659-5.036,10.743-11.793
	c0.037-0.083,0.129-0.124,0.216-0.097c0.085,0.024,0.14,0.111,0.124,0.199c-1.59,9.477-6.609,12.65-6.822,12.849
	c0.842,0.188,1.679,0.29,2.501,0.29c4.802,0,9.069-3.171,10.597-8.823C331.91,384.172,329.389,376.633,327.472,371.896"/>
</svg>
