<?xml version="1.0" encoding="utf-8"?>
<!-- Generator: Adobe Illustrator 16.0.0, SVG Export Plug-In . SVG Version: 6.00 Build 0)  -->
<!DOCTYPE svg PUBLIC "-//W3C//DTD SVG 1.1//EN" "http://www.w3.org/Graphics/SVG/1.1/DTD/svg11.dtd">
<svg version="1.1" id="Layer_1" xmlns="http://www.w3.org/2000/svg" xmlns:xlink="http://www.w3.org/1999/xlink" x="0px" y="0px"
	 width="37.437px" height="37.948px" viewBox="286.928 377.659 37.437 37.948"
	 enable-background="new 286.928 377.659 37.437 37.948" xml:space="preserve">
<g>
	<path fill="#353635" d="M289.158,385.962c1.38,3.211,3.711,6.387,6.972,7.756c0.372,0.155,0.795,0.271,1.229,0.368
		c0.869-1.295,1.866-2.347,3.033-3.207c1.005-0.737,2.056-1.315,3.138-1.769c-0.311-0.218-0.637-0.415-0.978-0.594
		c-1.356-0.709-2.827-1.334-4.258-2.004c1.345,0.364,2.889,0.5,4.176,0.97c0.804,0.294,1.544,0.701,2.234,1.187
		c2.059-0.702,4.211-1.04,6.358-1.296c-1.74-2.893-5.455-5.216-8.255-6.266c-2.924-1.098-6.235-1.233-9.489-1.572
		c-1.993-0.204-4.161-0.948-5.747-1.817c-0.361-0.198-0.745,0.132-0.62,0.531C287.731,380.741,288.126,383.566,289.158,385.962"/>
	<path fill="#353635" d="M323.534,385.581c-3.668,1.993-7.876,2.238-11.998,2.711c-2.012,0.232-4.006,0.52-5.902,1.094
		c-0.411,0.124-0.821,0.264-1.225,0.419c-1.198,0.458-2.354,1.059-3.444,1.86c-1.022,0.753-1.861,1.646-2.566,2.626
		c-1.125,1.566-1.907,3.369-2.551,5.242c-1.175,3.402-1.714,7.016-1.609,10.609c0.042,1.459,0.066,2.975,0.426,4.396
		c0.082,0.314,0.159,0.714,0.403,0.945c0.318,0.308,0.888-0.006,0.76-0.452c-0.923-3.146-0.349-6.82,0.927-9.827
		c1.466-3.455,4.297-5.51,7.756-6.762c0.919-0.334,1.857-0.625,2.812-0.9c0.021-0.008,0.039-0.008,0.058-0.008
		c0.19,0,0.272,0.279,0.074,0.369c-1.125,0.508-2.241,1.02-3.304,1.574c-5.204,2.713-7.477,9.035-5.526,9.035
		c0.159,0,0.345-0.043,0.559-0.133c3.01-1.244,6.584-1.257,9.893-1.869c1.163-0.213,2.295-0.504,3.356-0.945
		c4.221-1.762,7.236-5.205,9.031-9.345c1.338-3.091,1.858-6.74,2.87-9.951c0.132-0.411-0.159-0.764-0.516-0.764
		C323.729,385.504,323.631,385.527,323.534,385.581"/>
</g>
</svg>
