<svg xmlns="http://www.w3.org/2000/svg" viewBox="0 0 48.68 48.68"><defs><style>.cls-1{fill:#58ad0e;}.cls-2{fill:#fff;}.cls-3{fill:#3f4448;}</style></defs><title>successfully</title><g id="Layer_2" data-name="Layer 2"><g id="Capa_1" data-name="Capa 1"><circle class="cls-1" cx="24.34" cy="24.34" r="24.34"/><circle class="cls-2" cx="24.34" cy="24.34" r="19.29"/><path class="cls-3" d="M21.35,28.93l-6.57-4.85a2,2,0,0,0-2.58.22h0A2.11,2.11,0,0,0,12,26.88l4.85,6.57a3.16,3.16,0,0,0,4.84.32h0A3.24,3.24,0,0,0,21.35,28.93Z"/><path class="cls-3" d="M22,33.48,36.66,17.07a2,2,0,0,0-.22-2.58h0a2.11,2.11,0,0,0-2.58-.22L17.45,29a3.17,3.17,0,0,0-.33,4.85h0A3.25,3.25,0,0,0,22,33.48Z"/></g></g></svg>