<svg id="Menu-Flyout" xmlns="http://www.w3.org/2000/svg" viewBox="0 0 44.06 44.06"><defs><style>.cls-1{fill:#353535;}</style></defs><title>support</title><path class="cls-1" d="M22,0a22,22,0,1,0,22,22A22,22,0,0,0,22,0Zm2.4,35.32a3,3,0,0,1-.64.95,2.89,2.89,0,0,1-1,.63,3.08,3.08,0,0,1-1.18.23,3.13,3.13,0,0,1-1.2-.23,3,3,0,0,1-1-.63,2.84,2.84,0,0,1-.64-.95,3.17,3.17,0,0,1,0-2.37,2.82,2.82,0,0,1,.64-1,3.15,3.15,0,0,1,1-.64,3,3,0,0,1,1.2-.24,3,3,0,0,1,1.18.24,2.94,2.94,0,0,1,1.6,1.6,3,3,0,0,1,0,2.37Zm5.38-18.26A7.24,7.24,0,0,1,28.7,19a8.81,8.81,0,0,1-1.45,1.42l-1.48,1.13a11.66,11.66,0,0,0-1.21,1,2.05,2.05,0,0,0-.61,1.15l-.46,2.92H20.11l-.34-3.26a.86.86,0,0,1,0-.17v-.17a2.66,2.66,0,0,1,.44-1.53,6.22,6.22,0,0,1,1.1-1.22q.66-.57,1.42-1.11A12.75,12.75,0,0,0,24.13,18a5.89,5.89,0,0,0,1.1-1.43,3.85,3.85,0,0,0,.44-1.88,3,3,0,0,0-.27-1.29,2.92,2.92,0,0,0-.75-1,3.38,3.38,0,0,0-1.15-.63A4.63,4.63,0,0,0,22,11.59a6.45,6.45,0,0,0-1.93.25,7.11,7.11,0,0,0-1.34.56q-.55.31-.93.56a1.28,1.28,0,0,1-.68.25,1.09,1.09,0,0,1-1-.6l-1.3-2.06a13.81,13.81,0,0,1,1.49-1.14,10.69,10.69,0,0,1,1.75-.94,10.89,10.89,0,0,1,2-.63,11.62,11.62,0,0,1,2.38-.23,9.91,9.91,0,0,1,3.17.48,7.14,7.14,0,0,1,2.45,1.37,6.11,6.11,0,0,1,1.58,2.15,6.88,6.88,0,0,1,.56,2.82A7.13,7.13,0,0,1,29.81,17.06Z"/></svg>