<?xml version="1.0" encoding="utf-8"?>
<!-- Generator: Adobe Illustrator 16.0.0, SVG Export Plug-In . SVG Version: 6.00 Build 0)  -->
<!DOCTYPE svg PUBLIC "-//W3C//DTD SVG 1.1//EN" "http://www.w3.org/Graphics/SVG/1.1/DTD/svg11.dtd">
<svg version="1.1" id="Layer_1" xmlns="http://www.w3.org/2000/svg" xmlns:xlink="http://www.w3.org/1999/xlink" x="0px" y="0px"
	 width="28.295px" height="28.295px" viewBox="0 0 28.295 28.295" enable-background="new 0 0 28.295 28.295" xml:space="preserve">
<path fill="#FFFFFF" d="M27.672,25.14c-0.422,0.984-1.548,1.628-2.452,2.13c-1.186,0.643-2.392,1.025-3.737,1.025
	c-1.869,0-3.558-0.764-5.266-1.387c-1.226-0.442-2.412-0.985-3.517-1.668c-3.417-2.11-7.536-6.23-9.646-9.646
	c-0.684-1.105-1.226-2.291-1.668-3.517C0.764,10.369,0,8.681,0,6.813C0,5.466,0.382,4.26,1.025,3.074
	C1.527,2.17,2.17,1.045,3.155,0.622C3.818,0.321,5.225,0,5.948,0c0.141,0,0.281,0,0.422,0.06C6.792,0.2,7.234,1.186,7.436,1.587
	c0.643,1.146,1.266,2.312,1.929,3.437c0.321,0.522,0.924,1.166,0.924,1.789c0,1.226-3.637,3.014-3.637,4.099
	c0,0.543,0.502,1.246,0.784,1.729c2.03,3.657,4.562,6.189,8.219,8.22c0.482,0.281,1.186,0.783,1.729,0.783
	c1.085,0,2.873-3.637,4.1-3.637c0.623,0,1.266,0.603,1.788,0.924c1.126,0.663,2.291,1.286,3.437,1.93
	c0.402,0.2,1.387,0.643,1.527,1.064c0.061,0.141,0.061,0.281,0.061,0.422C28.295,23.069,27.973,24.477,27.672,25.14z"/>
</svg>
