<?xml version="1.0" encoding="utf-8"?>
<!-- Generator: Adobe Illustrator 16.0.0, SVG Export Plug-In . SVG Version: 6.00 Build 0)  -->
<!DOCTYPE svg PUBLIC "-//W3C//DTD SVG 1.1//EN" "http://www.w3.org/Graphics/SVG/1.1/DTD/svg11.dtd">
<svg version="1.1" id="Layer_1" xmlns="http://www.w3.org/2000/svg" xmlns:xlink="http://www.w3.org/1999/xlink" x="0px" y="0px"
	 width="89.103px" height="95.287px" viewBox="0 0 89.103 95.287" enable-background="new 0 0 89.103 95.287" xml:space="preserve">
<path fill="#CCCCCC" d="M83.486,94.349l5.23-5.229c0.258-0.259,0.387-0.564,0.387-0.918c0-0.355-0.129-0.661-0.387-0.921
	c-0.26-0.259-0.566-0.387-0.921-0.387h-2.614V12.699h2.614c0.354,0,0.661-0.13,0.921-0.389c0.258-0.259,0.387-0.564,0.387-0.92
	c0-0.353-0.129-0.66-0.387-0.918l-5.23-5.229c-0.258-0.258-0.564-0.389-0.918-0.389c-0.355,0-0.661,0.131-0.92,0.389l-5.229,5.229
	c-0.259,0.258-0.388,0.565-0.388,0.918c0,0.355,0.129,0.661,0.388,0.92s0.565,0.389,0.919,0.389h2.615v74.194h-2.615
	c-0.354,0-0.66,0.128-0.919,0.387c-0.259,0.26-0.388,0.565-0.388,0.921c0,0.354,0.129,0.659,0.388,0.918l5.229,5.229
	c0.259,0.259,0.564,0.389,0.92,0.389C82.921,94.737,83.228,94.607,83.486,94.349"/>
<path fill="#81C685" d="M28.419,65.196c0-21.655-9.086-26.747-28.419-26.747C0,59.354,12.775,65.196,28.419,65.196"/>
<path fill="#81C685" d="M46.808,70.211c0-18.201,8.19-21.731,23.403-21.731C70.498,66.124,62.564,70.211,46.808,70.211"/>
<path fill="#81C685" d="M51.823,0c4.258,13.138-6.254,20.733-14.418,21.731C31.33,12.708,35.524,2.22,51.823,0"/>
<path fill="#81C685" d="M30.091,36.777c-14.001,0-16.717-6.687-16.717-18.389C26.947,18.168,30.091,24.657,30.091,36.777"/>
<path fill="#81C685" d="M43.464,43.464c15.242,0,21.732-1.734,21.732-21.731C49.955,21.732,43.464,23.467,43.464,43.464"/>
<path fill="#4EAE4D" d="M58.371,59.515c-0.369-0.849-1.355-1.235-2.199-0.866c-5.15,2.242-8.301,6.567-10.699,10.543
	c-2.25,2.403-4.708,5.153-7.023,8.483V55.166c0-2.269,2.51-6.516,6.244-10.569c0.189-0.204,0.451-0.497,0.777-0.859
	c1.834-2.052,5.65-6.315,9.056-8.988c0.728-0.57,0.853-1.621,0.284-2.347c-0.571-0.728-1.621-0.853-2.348-0.284
	c-3.637,2.855-7.585,7.268-9.484,9.388l-0.742,0.825c-0.766,0.83-2.322,2.602-3.787,4.728V28.433
	c0.045-6.042,1.09-9.741,3.987-14.14c0.508-0.771,0.296-1.807-0.474-2.315c-0.773-0.51-1.809-0.296-2.317,0.477
	c-3.257,4.943-4.487,9.266-4.539,15.951c0,0.004,0.002,0.005,0.002,0.007c0,0-0.002,0.005-0.002,0.007v11.769
	c-1.685-2.403-3.446-4.202-3.787-4.543l-6.686-7.245c-0.626-0.678-1.682-0.721-2.362-0.094c-0.679,0.625-0.721,1.683-0.096,2.361
	l6.734,7.292c1.723,1.725,6.197,6.975,6.197,10.521v21.236c-1.516-1.899-2.951-3.256-4.124-4.355
	c-0.478-0.448-0.9-0.846-1.262-1.228c-4.547-7.074-9.121-11.604-13.977-13.829c-0.838-0.384-1.833-0.019-2.217,0.821
	c-0.385,0.84-0.017,1.833,0.824,2.217c4.293,1.969,8.434,6.141,12.66,12.755c0.043,0.065,0.098,0.117,0.149,0.177
	c0.016,0.021,0.021,0.047,0.041,0.066c0.42,0.449,0.927,0.925,1.495,1.459c1.752,1.643,4.127,3.888,6.411,7.885v17.932
	c0,0.923,0.749,1.672,1.672,1.672c0.922,0,1.671-0.749,1.671-1.672v-9.592c2.896-5.335,6.455-9.337,9.579-12.668
	c0.019-0.021,0.024-0.045,0.04-0.067c0.061-0.068,0.124-0.136,0.172-0.216c2.141-3.566,4.912-7.464,9.266-9.358
	C58.351,61.345,58.739,60.36,58.371,59.515"/>
<path fill="#9E5C26" d="M65.197,95.287H8.358c-0.923,0-1.672-0.749-1.672-1.672s0.749-1.673,1.672-1.673h56.838
	c0.923,0,1.672,0.75,1.672,1.673S66.12,95.287,65.197,95.287"/>
</svg>
