<?xml version="1.0" encoding="utf-8"?>
<!-- Generator: Adobe Illustrator 16.0.0, SVG Export Plug-In . SVG Version: 6.00 Build 0)  -->
<!DOCTYPE svg PUBLIC "-//W3C//DTD SVG 1.1//EN" "http://www.w3.org/Graphics/SVG/1.1/DTD/svg11.dtd">
<svg version="1.1" id="Layer_1" xmlns="http://www.w3.org/2000/svg" xmlns:xlink="http://www.w3.org/1999/xlink" x="0px" y="0px"
	 width="58.508px" height="63.165px" viewBox="0 0 58.508 63.165" enable-background="new 0 0 58.508 63.165" xml:space="preserve">
<path d="M58.123,24.831c-0.441-0.442-1.132-0.513-1.652-0.169l-3.601,2.364l-0.013-0.012c-0.442-0.442-1.133-0.512-1.654-0.17
	l-3.6,2.366l-0.015-0.013c-0.245-0.247-0.582-0.386-0.93-0.386c-0.351,0-0.683,0.139-0.931,0.386l-2.809,2.81
	c-0.258-0.183-0.574-0.266-0.891-0.233c-0.396,0.04-0.75,0.256-0.967,0.586l-2.123,3.23c-0.236-0.096-0.5-0.125-0.758-0.072
	c-0.382,0.074-0.705,0.314-0.894,0.646c-0.015-0.236-0.09-0.471-0.229-0.672c-0.168-0.25-0.418-0.429-0.699-0.516l2.479-5.154
	c0.197-0.407,0.171-0.888-0.069-1.271c-0.242-0.383-0.662-0.616-1.113-0.616h-0.012l1.291-5.36c0.094-0.392,0.004-0.805-0.248-1.121
	c-0.248-0.316-0.629-0.503-1.031-0.503h-0.365v-5.668c0-0.727-0.59-1.315-1.316-1.315H35.33l-1.438-5.978
	c-0.144-0.591-0.672-1.007-1.277-1.007h-0.645l-1.438-5.977C30.393,0.416,29.861,0,29.254,0c-0.609,0-1.137,0.416-1.28,1.008
	l-1.438,5.977h-0.644c-0.607,0-1.137,0.416-1.28,1.007l-1.438,5.978h-0.643c-0.727,0-1.315,0.588-1.315,1.315v5.668h-0.364
	c-0.405,0-0.785,0.186-1.036,0.502c-0.248,0.317-0.339,0.73-0.244,1.122l1.289,5.36h-0.009c-0.453,0-0.876,0.233-1.115,0.616
	c-0.241,0.384-0.268,0.864-0.073,1.271l2.483,5.155c-0.281,0.087-0.53,0.266-0.7,0.516c-0.138,0.201-0.218,0.436-0.229,0.672
	c-0.188-0.332-0.513-0.572-0.893-0.646c-0.258-0.053-0.522-0.023-0.757,0.072l-2.124-3.23c-0.218-0.33-0.573-0.546-0.966-0.586
	c-0.318-0.033-0.634,0.051-0.891,0.232l-2.808-2.809c-0.247-0.247-0.583-0.386-0.931-0.386c-0.349,0-0.683,0.139-0.929,0.386
	l-0.014,0.013l-3.601-2.366c-0.52-0.342-1.21-0.272-1.652,0.17l-0.013,0.012L2.04,24.662c-0.523-0.344-1.213-0.273-1.654,0.169
	c-0.442,0.44-0.513,1.131-0.17,1.652l2.367,3.602L2.57,30.097c-0.441,0.441-0.513,1.132-0.17,1.653l2.368,3.599l-0.014,0.015
	c-0.515,0.514-0.515,1.348,0,1.859l2.809,2.811c-0.182,0.256-0.266,0.572-0.234,0.891c0.041,0.394,0.257,0.748,0.586,0.965
	l3.233,2.124c-0.098,0.237-0.125,0.501-0.075,0.759c0.087,0.432,0.382,0.791,0.786,0.958l3.701,1.535
	c-0.023,0.137-0.023,0.276,0,0.414c0.068,0.417,0.33,0.776,0.708,0.968l0.135,0.064c-0.187,0.043-0.366,0.125-0.522,0.244
	c-0.164,0.125-0.293,0.285-0.382,0.467h-1.61c-0.632,0-1.158,0.441-1.287,1.037l-1.845,0.488c-0.484,0.127-0.844,0.518-0.949,0.99
	l-1.844,0.49c-0.577,0.152-0.98,0.675-0.98,1.271c0,0.596,0.403,1.117,0.98,1.271l1.844,0.488c0.105,0.476,0.465,0.863,0.949,0.992
	l1.845,0.486c0.129,0.592,0.655,1.036,1.287,1.036h1.61c0.089,0.181,0.218,0.343,0.382,0.468c0.231,0.18,0.514,0.273,0.802,0.273
	c0.111,0,0.225-0.014,0.337-0.043l1.478-0.394c0.085,0.097,0.187,0.181,0.299,0.247c0.397,0.237,0.887,0.253,1.296,0.037
	l1.482-0.787c0.362,0.227,0.813,0.264,1.209,0.094l5.154-2.187v6.164c0,0.726,0.59,1.315,1.317,1.315
	c0.726,0,1.315-0.592,1.315-1.315v-6.164l5.156,2.187c0.393,0.17,0.844,0.131,1.207-0.094l1.483,0.787
	c0.405,0.216,0.897,0.2,1.293-0.037c0.113-0.066,0.213-0.15,0.302-0.249l1.477,0.396c0.113,0.029,0.225,0.043,0.34,0.043
	c0.286,0,0.566-0.094,0.801-0.273c0.164-0.125,0.293-0.287,0.382-0.468h1.61c0.629,0,1.156-0.444,1.285-1.036l1.844-0.486
	c0.486-0.129,0.848-0.518,0.951-0.992l1.844-0.488c0.578-0.154,0.98-0.676,0.98-1.271c0-0.597-0.402-1.119-0.98-1.271l-1.844-0.49
	c-0.104-0.475-0.465-0.863-0.951-0.99l-1.844-0.488c-0.129-0.596-0.656-1.037-1.285-1.037h-1.61
	c-0.089-0.182-0.218-0.342-0.382-0.467c-0.156-0.119-0.336-0.201-0.521-0.244l0.133-0.064c0.378-0.189,0.642-0.551,0.71-0.968
	c0.021-0.138,0.021-0.277,0-0.414l3.698-1.535c0.406-0.167,0.701-0.526,0.789-0.958c0.049-0.258,0.021-0.521-0.076-0.759l3.23-2.124
	c0.332-0.217,0.549-0.571,0.59-0.965c0.029-0.317-0.053-0.635-0.233-0.891l2.809-2.811c0.513-0.514,0.513-1.346,0-1.86l-0.014-0.014
	l2.366-3.599c0.342-0.521,0.272-1.212-0.17-1.653l-0.013-0.012l2.367-3.602C58.634,25.962,58.564,25.271,58.123,24.831
	 M22.531,23.585c0.726,0,1.316-0.589,1.316-1.316v-5.668h0.365c0.609,0,1.137-0.416,1.28-1.008l1.438-5.978h0.644
	c0.607,0,1.137-0.416,1.279-1.008l0.401-1.668l0.401,1.668c0.144,0.592,0.671,1.008,1.281,1.008h0.645l1.438,5.978
	c0.144,0.592,0.672,1.008,1.277,1.008h0.367v5.668c0,0.728,0.588,1.316,1.314,1.316h0.012l-1.29,5.359
	c-0.095,0.394-0.005,0.807,0.245,1.123c0.168,0.213,0.395,0.367,0.647,0.444l-2.481,5.156c-0.193,0.406-0.168,0.889,0.072,1.27
	c0.2,0.318,0.522,0.531,0.887,0.598l-4.813,12.504l-4.814-12.504c0.362-0.064,0.686-0.279,0.885-0.598
	c0.241-0.381,0.268-0.863,0.071-1.27l-2.481-5.156c0.255-0.078,0.482-0.231,0.65-0.444c0.249-0.316,0.339-0.729,0.245-1.123
	l-1.29-5.359H22.531z M14.435,43.948c0.017-0.109,0.021-0.226,0.009-0.338c-0.04-0.395-0.256-0.75-0.588-0.968l-3.23-2.122
	c0.065-0.158,0.1-0.33,0.1-0.503c0-0.347-0.139-0.683-0.386-0.929l-2.808-2.811c0.306-0.436,0.323-1.021,0.023-1.479l-2.367-3.602
	l0.013-0.013c0.316-0.315,0.441-0.76,0.362-1.178c0.419,0.08,0.862-0.047,1.18-0.363l0.012-0.012L10.356,32
	c0.457,0.299,1.044,0.282,1.478-0.023l2.809,2.809c0.387,0.387,0.956,0.482,1.432,0.285l2.124,3.23
	c0.216,0.332,0.571,0.549,0.966,0.587c0.114,0.012,0.228,0.008,0.337-0.007l1.535,3.699c0.169,0.404,0.528,0.697,0.96,0.785
	c0.197,0.038,0.395,0.032,0.582-0.018l3.715,7.389l-7.389-3.715c0.048-0.186,0.054-0.387,0.015-0.582
	c-0.084-0.43-0.379-0.791-0.786-0.958L14.435,43.948z M23.084,54.888c-0.043-0.035-0.089-0.065-0.135-0.095
	c-0.397-0.237-0.889-0.252-1.295-0.037l-1.483,0.787c-0.306-0.189-0.68-0.246-1.033-0.154l-1.478,0.393
	c-0.24-0.27-0.59-0.435-0.978-0.435h-1.609c-0.164-0.339-0.469-0.599-0.847-0.698l-1.846-0.49c-0.035-0.166-0.104-0.32-0.197-0.459
	c0.093-0.138,0.162-0.295,0.197-0.462l1.846-0.487c0.378-0.101,0.683-0.359,0.847-0.695h1.609c0.388,0,0.737-0.17,0.978-0.436
	l1.478,0.391c0.353,0.093,0.727,0.037,1.033-0.155l1.483,0.786c0.408,0.216,0.898,0.203,1.295-0.035
	c0.046-0.027,0.092-0.059,0.135-0.092l2.799,1.188L23.084,54.888z M43.436,52.054c0.164,0.336,0.467,0.596,0.848,0.696l1.844,0.486
	c0.037,0.167,0.104,0.324,0.199,0.463c-0.096,0.137-0.162,0.293-0.199,0.459l-1.844,0.489c-0.381,0.101-0.684,0.36-0.848,0.698
	h-1.609c-0.389,0-0.738,0.166-0.979,0.436l-1.479-0.394c-0.109-0.029-0.224-0.042-0.339-0.042c-0.241,0-0.481,0.064-0.692,0.195
	l-1.481-0.785c-0.41-0.217-0.9-0.201-1.295,0.035c-0.047,0.028-0.095,0.061-0.136,0.096L32.624,53.7l2.801-1.188
	c0.041,0.033,0.089,0.063,0.136,0.092c0.395,0.24,0.885,0.251,1.295,0.035l1.481-0.786c0.308,0.192,0.681,0.248,1.031,0.155
	l1.479-0.391c0.239,0.266,0.59,0.436,0.979,0.436L43.436,52.054L43.436,52.054z M50.977,36.279l-2.81,2.81
	c-0.388,0.386-0.481,0.957-0.287,1.433l-3.229,2.122c-0.33,0.218-0.545,0.572-0.586,0.968c-0.012,0.112-0.008,0.229,0.01,0.337
	l-3.699,1.535c-0.406,0.167-0.701,0.527-0.787,0.958c-0.039,0.197-0.031,0.397,0.018,0.582l-7.391,3.715l3.717-7.387
	c0.187,0.048,0.385,0.054,0.582,0.015c0.43-0.086,0.789-0.379,0.957-0.785l1.533-3.699c0.113,0.016,0.227,0.02,0.342,0.008
	c0.393-0.038,0.746-0.254,0.965-0.586l2.125-3.23c0.476,0.196,1.043,0.102,1.433-0.285l2.807-2.81
	c0.435,0.306,1.022,0.323,1.479,0.023l3.602-2.366l0.012,0.012c0.314,0.317,0.762,0.443,1.18,0.363
	c-0.081,0.418,0.046,0.862,0.363,1.179l0.01,0.012l-2.363,3.603C50.652,35.256,50.671,35.844,50.977,36.279"/>
</svg>
