<?xml version="1.0" encoding="utf-8"?>
<!-- Generator: Adobe Illustrator 16.0.0, SVG Export Plug-In . SVG Version: 6.00 Build 0)  -->
<!DOCTYPE svg PUBLIC "-//W3C//DTD SVG 1.1//EN" "http://www.w3.org/Graphics/SVG/1.1/DTD/svg11.dtd">
<svg version="1.1" id="Layer_1" xmlns="http://www.w3.org/2000/svg" xmlns:xlink="http://www.w3.org/1999/xlink" x="0px" y="0px"
	 width="143.818px" height="130.303px" viewBox="0 0 143.818 130.303" enable-background="new 0 0 143.818 130.303"
	 xml:space="preserve">
<g>
	<path fill="#1782C5" d="M92.751,52.175c7.787,0.544,15.042,1.011,22.289,1.576c3.485,0.271,6.991,0.538,10.43,1.14
		c7.611,1.331,10.829,8.158,7.467,15.088c-0.688,1.42-0.454,3.289-0.628,4.953c-0.016,0.153,0.164,0.337,0.128,0.475
		c-0.996,3.858-3.113,7.828-2.725,11.536c0.446,4.253,1.454,8.046-1.394,11.817c-0.762,1.012-1.139,2.629-1.042,3.92
		c0.415,5.503-1.495,9.129-6.769,10.722c-3.783,1.143-7.81,1.979-11.742,2.045c-14.328,0.24-28.662,0.143-42.994,0.088
		c-8.007-0.03-11.155-3.231-11.182-11.294c-0.045-12.998,0.09-25.998-0.055-38.996c-0.059-5.307,1.894-8.509,6.506-11.735
		c10.326-7.221,18.662-16.52,22.781-28.889c0.577-1.737,0.831-3.89,2.021-5.042c1.703-1.65,4.228-3.657,6.215-3.474
		c2.023,0.187,5.265,2.697,5.44,4.445c0.522,5.188,0.246,10.571-0.564,15.747C96.123,41.479,94.293,46.5,92.751,52.175"/>
	<path fill="#1782C5" d="M15.953,84.936c0.004-7.327-0.067-14.655,0.026-21.981c0.076-5.875,2.696-8.548,8.544-8.725
		c4.492-0.136,8.995-0.153,13.486,0.009c5.579,0.201,8.403,2.915,8.442,8.365c0.106,14.82,0.107,29.642-0.003,44.461
		c-0.041,5.542-2.866,8.289-8.338,8.445c-4.492,0.129-8.993,0.121-13.486,0.019c-5.863-0.133-8.567-2.793-8.65-8.611
		C15.871,99.591,15.949,92.263,15.953,84.936"/>
</g>
</svg>
